<?xml version="1.0" encoding="UTF-8" standalone="no"?>
<!DOCTYPE svg PUBLIC "-//W3C//DTD SVG 1.1//EN"
 "http://www.w3.org/Graphics/SVG/1.1/DTD/svg11.dtd">
<!-- Generated by graphviz version 2.43.0 (0)
 -->
<!-- Title: %3 Pages: 1 -->
<svg width="2472pt" height="1440pt"
 viewBox="0.00 0.00 2471.72 1440.00" xmlns="http://www.w3.org/2000/svg" xmlns:xlink="http://www.w3.org/1999/xlink">
<g id="graph0" class="graph" transform="scale(0.92 0.92) rotate(0) translate(4 1560.84)">
<title>%3</title>
<polygon fill="white" stroke="transparent" points="-4,4 -4,-1560.84 2682,-1560.84 2682,4 -4,4"/>
<!-- fs -->
<g id="node1" class="node">
<title>fs</title>
<polygon fill="none" stroke="black" points="87,-1019.84 0,-1019.84 0,-923.84 87,-923.84 87,-1019.84"/>
<text text-anchor="middle" x="43.5" y="-951.84" font-family="Helvetica,sans-Serif" font-size="80.00">fs</text>
</g>
<!-- mm -->
<g id="node2" class="node">
<title>mm</title>
<polygon fill="none" stroke="black" points="344,-741.84 171,-741.84 171,-645.84 344,-645.84 344,-741.84"/>
<text text-anchor="middle" x="257.5" y="-673.84" font-family="Helvetica,sans-Serif" font-size="80.00">mm</text>
</g>
<!-- fs&#45;&gt;mm -->
<g id="edge1" class="edge">
<title>fs&#45;&gt;mm</title>
<path fill="none" stroke="black" d="M81.19,-923.73C117.97,-875.5 174.59,-801.25 213.47,-750.26"/>
<polygon fill="black" stroke="black" points="216.27,-752.36 219.55,-742.29 210.71,-748.12 216.27,-752.36"/>
<text text-anchor="middle" x="129" y="-914.84" font-family="Helvetica,sans-Serif" font-size="35.00" fill="blue">292</text>
</g>
<!-- sched -->
<g id="node3" class="node">
<title>sched</title>
<polygon fill="none" stroke="black" points="2678,-536.84 2424,-536.84 2424,-440.84 2678,-440.84 2678,-536.84"/>
<text text-anchor="middle" x="2551" y="-468.84" font-family="Helvetica,sans-Serif" font-size="80.00">sched</text>
</g>
<!-- fs&#45;&gt;sched -->
<g id="edge2" class="edge">
<title>fs&#45;&gt;sched</title>
<path fill="none" stroke="black" d="M45.83,-1019.91C49.68,-1142.55 62.7,-1459.85 95,-1493.84 144.98,-1546.44 183.93,-1517.84 256.5,-1517.84 256.5,-1517.84 256.5,-1517.84 853,-1517.84 1052.56,-1517.84 1102.44,-1517.84 1302,-1517.84 1302,-1517.84 1302,-1517.84 2189.5,-1517.84 2290.73,-1517.84 2343.46,-1564.45 2416,-1493.84 2484.42,-1427.24 2533.12,-751.57 2546.38,-547.13"/>
<polygon fill="black" stroke="black" points="2549.89,-547.11 2547.04,-536.9 2542.9,-546.66 2549.89,-547.11"/>
<text text-anchor="middle" x="1070" y="-1528.84" font-family="Helvetica,sans-Serif" font-size="35.00" fill="blue">106</text>
</g>
<!-- time -->
<g id="node4" class="node">
<title>time</title>
<polygon fill="none" stroke="black" points="810,-1164.84 612,-1164.84 612,-1068.84 810,-1068.84 810,-1164.84"/>
<text text-anchor="middle" x="711" y="-1096.84" font-family="Helvetica,sans-Serif" font-size="80.00">time</text>
</g>
<!-- fs&#45;&gt;time -->
<g id="edge3" class="edge">
<title>fs&#45;&gt;time</title>
<path fill="none" stroke="black" d="M49.73,-1020.18C56.75,-1075.16 71.16,-1160.04 95,-1180.84 265.86,-1329.87 392.87,-1297.48 604,-1214.84 626.97,-1205.85 647.95,-1189.28 665.07,-1172.29"/>
<polygon fill="black" stroke="black" points="667.7,-1174.61 672.17,-1165.01 662.68,-1169.73 667.7,-1174.61"/>
<text text-anchor="middle" x="375" y="-1294.84" font-family="Helvetica,sans-Serif" font-size="35.00" fill="blue">98</text>
</g>
<!-- locking -->
<g id="node5" class="node">
<title>locking</title>
<polygon fill="none" stroke="black" points="2340,-598.84 2037,-598.84 2037,-502.84 2340,-502.84 2340,-598.84"/>
<text text-anchor="middle" x="2188.5" y="-530.84" font-family="Helvetica,sans-Serif" font-size="80.00">locking</text>
</g>
<!-- fs&#45;&gt;locking -->
<g id="edge4" class="edge">
<title>fs&#45;&gt;locking</title>
<path fill="none" stroke="black" d="M44.22,-923.7C43.76,-764.96 46.22,-265.28 95,-213.84 284.42,-14.06 435.28,-157.78 710,-139.84"/>
<path fill="none" stroke="black" d="M712,-139.84C794.91,-135.6 811.54,-107.42 894,-97.84 1245,-57.05 1388.48,-0.59 1683,-195.84 1716.93,-218.34 1722.17,-231.92 1737,-269.84 1742.62,-284.21 1734.38,-327.64 1745,-338.84 1816.36,-414.05 1885.65,-325.24 1975,-377.84 1979.91,-380.73 1978.84,-383.95 1983,-387.84 2001.19,-404.85 2016.33,-398.4 2029,-419.84 2044.8,-446.56 2020.94,-465.56 2037.25,-494.36"/>
<polygon fill="black" stroke="black" points="2034.45,-496.48 2042.98,-502.76 2040.24,-492.53 2034.45,-496.48"/>
<text text-anchor="middle" x="961" y="-108.84" font-family="Helvetica,sans-Serif" font-size="35.00" fill="blue">13</text>
</g>
<!-- net -->
<g id="node6" class="node">
<title>net</title>
<polygon fill="none" stroke="black" points="1261,-543.84 1112,-543.84 1112,-447.84 1261,-447.84 1261,-543.84"/>
<text text-anchor="middle" x="1186.5" y="-475.84" font-family="Helvetica,sans-Serif" font-size="80.00">net</text>
</g>
<!-- fs&#45;&gt;net -->
<g id="edge5" class="edge">
<title>fs&#45;&gt;net</title>
<path fill="none" stroke="black" d="M44.34,-923.73C44.32,-774.42 48.22,-326.32 95,-282.84 171.03,-212.18 934.66,-284.44 1028,-329.84 1077.99,-354.15 1120.38,-401.48 1148.55,-439.39"/>
<polygon fill="black" stroke="black" points="1145.98,-441.8 1154.69,-447.82 1151.63,-437.68 1145.98,-441.8"/>
<text text-anchor="middle" x="570" y="-276.84" font-family="Helvetica,sans-Serif" font-size="35.00" fill="blue">315</text>
</g>
<!-- block -->
<g id="node7" class="node">
<title>block</title>
<polygon fill="none" stroke="black" points="1975,-482.84 1745,-482.84 1745,-386.84 1975,-386.84 1975,-482.84"/>
<text text-anchor="middle" x="1860" y="-414.84" font-family="Helvetica,sans-Serif" font-size="80.00">block</text>
</g>
<!-- fs&#45;&gt;block -->
<g id="edge6" class="edge">
<title>fs&#45;&gt;block</title>
<path fill="none" stroke="black" d="M712,-139.84C826.94,-131.13 1659.16,-214.82 1737,-299.84 1757.25,-321.96 1728.67,-341.69 1745,-366.84 1747.87,-371.26 1751.13,-375.43 1754.7,-379.36"/>
<polygon fill="black" stroke="black" points="1752.38,-381.99 1761.91,-386.63 1757.35,-377.06 1752.38,-381.99"/>
<text text-anchor="middle" x="852" y="-156.84" font-family="Helvetica,sans-Serif" font-size="35.00" fill="blue">91</text>
</g>
<!-- security -->
<g id="node8" class="node">
<title>security</title>
<polygon fill="none" stroke="black" points="1683,-943.84 1345,-943.84 1345,-847.84 1683,-847.84 1683,-943.84"/>
<text text-anchor="middle" x="1514" y="-875.84" font-family="Helvetica,sans-Serif" font-size="80.00">security</text>
</g>
<!-- fs&#45;&gt;security -->
<g id="edge7" class="edge">
<title>fs&#45;&gt;security</title>
<path fill="none" stroke="black" d="M44.91,-1020.06C46.62,-1110.6 55.02,-1301.47 95,-1351.84 142.7,-1411.94 179.77,-1412.84 256.5,-1412.84 256.5,-1412.84 256.5,-1412.84 571,-1412.84 774.64,-1412.84 835.45,-1446.13 1028,-1379.84 1066.46,-1366.6 1076.29,-1358.62 1104,-1328.84 1108.88,-1323.59 1106.44,-1319.35 1112,-1314.84 1195.01,-1247.49 1278.94,-1319.6 1337,-1229.84 1352.82,-1205.38 1328.6,-991.91 1345,-967.84 1349.24,-961.62 1354.13,-955.93 1359.53,-950.74"/>
<polygon fill="black" stroke="black" points="1362.02,-953.21 1367.18,-943.95 1357.37,-947.97 1362.02,-953.21"/>
<text text-anchor="middle" x="711" y="-1431.84" font-family="Helvetica,sans-Serif" font-size="35.00" fill="blue">13</text>
</g>
<!-- irq -->
<g id="node9" class="node">
<title>irq</title>
<polygon fill="none" stroke="black" points="528,-1099.84 406,-1099.84 406,-1003.84 528,-1003.84 528,-1099.84"/>
<text text-anchor="middle" x="467" y="-1031.84" font-family="Helvetica,sans-Serif" font-size="80.00">irq</text>
</g>
<!-- fs&#45;&gt;irq -->
<g id="edge8" class="edge">
<title>fs&#45;&gt;irq</title>
<path fill="none" stroke="black" d="M87.2,-988.77C111.43,-997.76 142.52,-1008.28 171,-1014.84 246.72,-1032.27 335.4,-1041.99 395.61,-1047.05"/>
<polygon fill="black" stroke="black" points="395.52,-1050.55 405.77,-1047.88 396.09,-1043.58 395.52,-1050.55"/>
<text text-anchor="middle" x="257.5" y="-1052.84" font-family="Helvetica,sans-Serif" font-size="35.00" fill="blue">20</text>
</g>
<!-- mm&#45;&gt;fs -->
<g id="edge17" class="edge">
<title>mm&#45;&gt;fs</title>
<path fill="none" stroke="black" d="M170.8,-723.93C143.09,-737.46 114.52,-756.08 95,-780.84 65.15,-818.71 52.85,-872.59 47.84,-913.47"/>
<polygon fill="black" stroke="black" points="44.34,-913.24 46.71,-923.57 51.3,-914.02 44.34,-913.24"/>
<text text-anchor="middle" x="129" y="-791.84" font-family="Helvetica,sans-Serif" font-size="35.00" fill="blue">215</text>
</g>
<!-- mm&#45;&gt;sched -->
<g id="edge16" class="edge">
<title>mm&#45;&gt;sched</title>
<path fill="none" stroke="black" d="M286.41,-645.5C306.35,-608.35 331.73,-555.04 344,-504.84 347.86,-489.06 341.63,-371.35 352,-358.84 425.61,-270.04 493.93,-331.32 604,-296.84 831.33,-225.62 876.34,-160.73 1112,-125.84 1322.28,-94.71 2089.07,81.61 2416,-145.84 2509.17,-210.66 2537.56,-350.53 2546.21,-430.18"/>
<polygon fill="black" stroke="black" points="2542.77,-430.94 2547.26,-440.54 2549.73,-430.23 2542.77,-430.94"/>
<text text-anchor="middle" x="1186.5" y="-136.84" font-family="Helvetica,sans-Serif" font-size="35.00" fill="blue">52</text>
</g>
<!-- mm&#45;&gt;time -->
<g id="edge20" class="edge">
<title>mm&#45;&gt;time</title>
<path fill="none" stroke="black" d="M314.53,-741.94C326.36,-750.46 339.17,-758.6 352,-764.84 424.71,-800.19 474.76,-749.99 528,-810.84 547.17,-832.74 522.1,-850.26 536,-875.84 554.83,-910.49 578.66,-902.62 604,-932.84 636.32,-971.38 664.3,-1021.1 683.38,-1059.14"/>
<polygon fill="black" stroke="black" points="680.47,-1061.14 688.04,-1068.55 686.74,-1058.03 680.47,-1061.14"/>
<text text-anchor="middle" x="467" y="-821.84" font-family="Helvetica,sans-Serif" font-size="35.00" fill="blue">15</text>
</g>
<!-- mm&#45;&gt;locking -->
<g id="edge19" class="edge">
<title>mm&#45;&gt;locking</title>
<path fill="none" stroke="black" d="M344.03,-681.28C545.61,-651.68 1033.84,-580 1036,-579.84 1138.57,-572.36 1196.85,-553.46 1261,-633.84 1271.32,-646.77 1257.46,-695.99 1269,-707.84 1314.97,-755.05 1793.39,-773.99 1859,-767.84"/>
<text text-anchor="middle" x="1070" y="-590.84" font-family="Helvetica,sans-Serif" font-size="35.00" fill="blue">6</text>
</g>
<!-- mm&#45;&gt;net -->
<g id="edge22" class="edge">
<title>mm&#45;&gt;net</title>
<path fill="none" stroke="black" d="M278.96,-645.79C294.51,-615.19 318.89,-577.39 352,-555.84 450.41,-491.77 495.05,-519.47 612,-508.84 623.51,-507.79 1016.45,-508.08 1028,-507.84 1058.89,-507.19 1068.64,-507.33 1101.78,-504.96"/>
<polygon fill="black" stroke="black" points="1102.06,-508.44 1111.78,-504.22 1101.55,-501.46 1102.06,-508.44"/>
<text text-anchor="middle" x="711" y="-519.84" font-family="Helvetica,sans-Serif" font-size="35.00" fill="blue">2</text>
</g>
<!-- mm&#45;&gt;block -->
<g id="edge18" class="edge">
<title>mm&#45;&gt;block</title>
<path fill="none" stroke="black" d="M285.14,-645.61C304.56,-608.29 329.84,-554.73 344,-504.84 347.79,-491.48 342.21,-452.69 352,-442.84 431.68,-362.69 492.1,-424.68 604,-408.84 810.16,-379.65 860.79,-351.84 1069,-351.84 1069,-351.84 1069,-351.84 1515,-351.84 1614.24,-351.84 1641.6,-348.5 1737,-375.84 1744.07,-377.87 1751.24,-380.28 1758.37,-382.95"/>
<polygon fill="black" stroke="black" points="1757.48,-386.36 1768.07,-386.75 1760.03,-379.84 1757.48,-386.36"/>
<text text-anchor="middle" x="961" y="-370.84" font-family="Helvetica,sans-Serif" font-size="35.00" fill="blue">32</text>
</g>
<!-- mm&#45;&gt;irq -->
<g id="edge21" class="edge">
<title>mm&#45;&gt;irq</title>
<path fill="none" stroke="black" d="M274.23,-742.16C289.93,-786.33 316.78,-852.29 352,-902.84 368.35,-926.31 384.48,-922.64 398,-947.84 406.98,-964.58 397.25,-972.97 406,-989.84 406.93,-991.63 407.93,-993.41 408.99,-995.17"/>
<polygon fill="black" stroke="black" points="406.27,-997.4 414.73,-1003.78 412.09,-993.52 406.27,-997.4"/>
<text text-anchor="middle" x="375" y="-958.84" font-family="Helvetica,sans-Serif" font-size="35.00" fill="blue">21</text>
</g>
<!-- sched&#45;&gt;fs -->
<g id="edge50" class="edge">
<title>sched&#45;&gt;fs</title>
<path fill="none" stroke="black" d="M2546.99,-536.93C2534.8,-714.56 2482.74,-1329.69 2340,-1449.84 2287.82,-1493.76 2257.7,-1479.84 2189.5,-1479.84 1713,-1479.84 1713,-1479.84 1713,-1479.84 1637.78,-1479.84 1111.22,-1473.81 1036,-1474.84 954.64,-1475.95 934.36,-1479.84 853,-1479.84 256.5,-1479.84 256.5,-1479.84 256.5,-1479.84 174.76,-1479.84 140.87,-1459.5 95,-1391.84 55.9,-1334.17 47.02,-1131.28 45.04,-1030.1"/>
<polygon fill="black" stroke="black" points="48.54,-1029.98 44.86,-1020.05 41.54,-1030.11 48.54,-1029.98"/>
<text text-anchor="middle" x="1070" y="-1485.84" font-family="Helvetica,sans-Serif" font-size="35.00" fill="blue">211</text>
</g>
<!-- sched&#45;&gt;mm -->
<g id="edge52" class="edge">
<title>sched&#45;&gt;mm</title>
<path fill="none" stroke="black" d="M2537.78,-440.8C2520.42,-382.06 2483,-283.5 2416,-226.84 2388.95,-203.97 2374.98,-208.42 2340,-202.84 2227.25,-184.84 1501.76,-180.96 1345,-195.84 980.54,-230.44 891.61,-263.86 536,-350.84 453.09,-371.12 405.7,-339.5 352,-405.84 338.11,-422.99 349.52,-483.47 344,-504.84 332.05,-551.13 309.5,-600.23 290.56,-636.79"/>
<polygon fill="black" stroke="black" points="287.38,-635.32 285.83,-645.8 293.58,-638.57 287.38,-635.32"/>
<text text-anchor="middle" x="1186.5" y="-232.84" font-family="Helvetica,sans-Serif" font-size="35.00" fill="blue">38</text>
</g>
<!-- sched&#45;&gt;time -->
<g id="edge48" class="edge">
<title>sched&#45;&gt;time</title>
<path fill="none" stroke="black" d="M2548.05,-537.11C2541.92,-645.24 2516.9,-912.75 2416,-1107.84 2264.49,-1400.79 2051.92,-1395.91 1725.19,-1374.51"/>
<polygon fill="black" stroke="black" points="1725.21,-1371 1715,-1373.84 1724.75,-1377.99 1725.21,-1371"/>
<path fill="none" stroke="black" d="M1713,-1373.84C1686.16,-1370.37 1705.62,-1335.7 1683,-1320.84 1521.44,-1214.66 960.74,-1358.24 818,-1227.84 804.61,-1215.61 819.79,-1203.1 810,-1187.84 804.67,-1179.53 797.99,-1171.88 790.64,-1164.92"/>
<text text-anchor="middle" x="1514" y="-1331.84" font-family="Helvetica,sans-Serif" font-size="35.00" fill="blue">103</text>
</g>
<!-- sched&#45;&gt;locking -->
<g id="edge49" class="edge">
<title>sched&#45;&gt;locking</title>
<path fill="none" stroke="black" d="M2423.92,-527.21C2421.26,-527.78 2418.62,-528.33 2416,-528.84 2394.9,-532.97 2372.54,-536.34 2350.4,-539.09"/>
<polygon fill="black" stroke="black" points="2349.77,-535.64 2340.25,-540.3 2350.6,-542.59 2349.77,-535.64"/>
<text text-anchor="middle" x="2382" y="-549.84" font-family="Helvetica,sans-Serif" font-size="35.00" fill="blue">2</text>
</g>
<!-- sched&#45;&gt;net -->
<g id="edge53" class="edge">
<title>sched&#45;&gt;net</title>
<path fill="none" stroke="black" d="M2518.35,-440.75C2482.25,-391.54 2418.01,-319.69 2340,-300.84 1906.82,-196.18 1775.2,-308.53 1345,-424.84 1313.84,-433.26 1303,-432.91 1270.5,-446.42"/>
<polygon fill="black" stroke="black" points="1269.05,-443.24 1261.24,-450.39 1271.81,-449.67 1269.05,-443.24"/>
<text text-anchor="middle" x="1860" y="-313.84" font-family="Helvetica,sans-Serif" font-size="35.00" fill="blue">8</text>
</g>
<!-- sched&#45;&gt;block -->
<g id="edge54" class="edge">
<title>sched&#45;&gt;block</title>
<path fill="none" stroke="black" d="M2423.91,-466.7C2318.7,-449.54 2164.62,-427.45 2029,-419.84 2014.87,-419.05 2000.08,-419.09 1985.39,-419.68"/>
<polygon fill="black" stroke="black" points="1985.06,-416.19 1975.24,-420.17 1985.4,-423.18 1985.06,-416.19"/>
<text text-anchor="middle" x="2188.5" y="-463.84" font-family="Helvetica,sans-Serif" font-size="35.00" fill="blue">8</text>
</g>
<!-- sched&#45;&gt;irq -->
<g id="edge51" class="edge">
<title>sched&#45;&gt;irq</title>
<path fill="none" stroke="black" d="M1713,-1373.84C1579.9,-1362.77 1244.46,-1384.96 1112,-1367.84 971.73,-1349.71 850.7,-1314.1 818,-1289.84 812.85,-1286.02 815.25,-1281.51 810,-1277.84 735.8,-1225.94 696.54,-1262.27 612,-1229.84 576.17,-1216.09 562.67,-1216.43 536,-1188.84 511.83,-1163.83 494.59,-1128.54 483.51,-1100.04"/>
<text text-anchor="middle" x="1303" y="-1384.84" font-family="Helvetica,sans-Serif" font-size="35.00" fill="blue">107</text>
</g>
<!-- time&#45;&gt;fs -->
<g id="edge59" class="edge">
<title>time&#45;&gt;fs</title>
<path fill="none" stroke="black" d="M611.94,-1158.11C609.28,-1158.75 606.63,-1159.33 604,-1159.84 412.3,-1197.24 345.5,-1172.57 171,-1084.84 142.52,-1070.52 115.5,-1048.1 93.81,-1027"/>
<polygon fill="black" stroke="black" points="96.22,-1024.46 86.66,-1019.9 91.29,-1029.43 96.22,-1024.46"/>
<text text-anchor="middle" x="375" y="-1182.84" font-family="Helvetica,sans-Serif" font-size="35.00" fill="blue">65</text>
</g>
<!-- time&#45;&gt;mm -->
<g id="edge58" class="edge">
<title>time&#45;&gt;mm</title>
<path fill="none" stroke="black" d="M666.17,-1068.81C631.6,-1033.39 580.59,-986.25 528,-955.84 478.48,-927.21 441.84,-959.42 406,-914.84 395.64,-901.95 404.95,-855.85 398,-840.84 392.79,-829.58 350.95,-786.08 314.43,-749.29"/>
<polygon fill="black" stroke="black" points="316.75,-746.66 307.22,-742.04 311.79,-751.6 316.75,-746.66"/>
<text text-anchor="middle" x="467" y="-966.84" font-family="Helvetica,sans-Serif" font-size="35.00" fill="blue">28</text>
</g>
<!-- time&#45;&gt;sched -->
<g id="edge56" class="edge">
<title>time&#45;&gt;sched</title>
<path fill="none" stroke="black" d="M810.27,-1147.33C812.87,-1147.87 815.45,-1148.37 818,-1148.84 1015.65,-1184.77 1068.22,-1172.17 1269,-1178.84 1595.93,-1189.7 1679.06,-1149.14 2005,-1176.84"/>
<text text-anchor="middle" x="1514" y="-1190.84" font-family="Helvetica,sans-Serif" font-size="35.00" fill="blue">109</text>
</g>
<!-- time&#45;&gt;locking -->
<g id="edge61" class="edge">
<title>time&#45;&gt;locking</title>
<path fill="none" stroke="black" d="M810.18,-1119.51C874.42,-1121.12 960.19,-1123.02 1036,-1123.84 1066.22,-1124.17 1074.06,-1127.93 1104,-1123.84 1179.43,-1113.52 1193.57,-1088.16 1269,-1077.84 1352.67,-1066.39 1961.35,-1137.38 2029,-1086.84 2106.58,-1028.88 2159.54,-735.47 2179.11,-608.99"/>
<polygon fill="black" stroke="black" points="2182.57,-609.51 2180.62,-599.09 2175.65,-608.45 2182.57,-609.51"/>
<text text-anchor="middle" x="1303" y="-1088.84" font-family="Helvetica,sans-Serif" font-size="35.00" fill="blue">4</text>
</g>
<!-- time&#45;&gt;block -->
<g id="edge57" class="edge">
<title>time&#45;&gt;block</title>
<path fill="none" stroke="black" d="M743.68,-1068.6C765.31,-1033.61 793.03,-984.45 810,-937.84 816.2,-920.8 808.26,-913.13 818,-897.84 838.15,-866.2 864.98,-878.91 886,-847.84 893.97,-836.05 884.31,-827.26 894,-816.84 963.55,-741.99 1011.11,-760.01 1112,-743.84 1177.39,-733.36 1203.72,-710.6 1261,-743.84 1267.2,-747.44 1262.8,-754.24 1269,-757.84 1295.14,-773.01 1314.06,-777.52 1337,-757.84 1354.75,-742.61 1329.04,-722.93 1345,-705.84 1450.08,-593.3 1554.34,-714.42 1683,-629.84 1688.05,-626.52 1686.55,-622.93 1691,-618.84 1708.6,-602.62 1719.12,-606.75 1737,-590.84 1769.78,-561.68 1800.19,-522.84 1822.45,-491.2"/>
<polygon fill="black" stroke="black" points="1825.39,-493.11 1828.22,-482.91 1819.64,-489.12 1825.39,-493.11"/>
<text text-anchor="middle" x="1186.5" y="-754.84" font-family="Helvetica,sans-Serif" font-size="35.00" fill="blue">3</text>
</g>
<!-- time&#45;&gt;irq -->
<g id="edge55" class="edge">
<title>time&#45;&gt;irq</title>
<path fill="none" stroke="black" d="M611.7,-1118.54C588.97,-1116.62 565.08,-1112.71 537.64,-1103"/>
<polygon fill="black" stroke="black" points="538.78,-1099.7 528.19,-1099.49 536.34,-1106.26 538.78,-1099.7"/>
<text text-anchor="middle" x="570" y="-1127.84" font-family="Helvetica,sans-Serif" font-size="35.00" fill="blue">107</text>
</g>
<!-- ipc -->
<g id="node10" class="node">
<title>ipc</title>
<polygon fill="none" stroke="black" points="1028,-921.84 894,-921.84 894,-825.84 1028,-825.84 1028,-921.84"/>
<text text-anchor="middle" x="961" y="-853.84" font-family="Helvetica,sans-Serif" font-size="80.00">ipc</text>
</g>
<!-- time&#45;&gt;ipc -->
<g id="edge60" class="edge">
<title>time&#45;&gt;ipc</title>
<path fill="none" stroke="black" d="M777.75,-1068.77C813.71,-1039.7 856.76,-999.98 886,-956.84 891.6,-948.57 888.44,-944.14 894,-935.84 895.28,-933.93 896.63,-932.03 898.03,-930.16"/>
<polygon fill="black" stroke="black" points="900.99,-932.07 904.53,-922.09 895.53,-927.69 900.99,-932.07"/>
<text text-anchor="middle" x="852" y="-1039.84" font-family="Helvetica,sans-Serif" font-size="35.00" fill="blue">3</text>
</g>
<!-- locking&#45;&gt;fs -->
<g id="edge66" class="edge">
<title>locking&#45;&gt;fs</title>
<path fill="none" stroke="black" d="M2042.89,-502.84C2040.81,-500.61 2038.85,-498.28 2037,-495.84 2022.87,-477.18 2033.09,-413.88 2029,-390.84 2013.57,-303.98 2031.62,-267.49 1975,-199.84 1882.38,-89.17 1822.68,-94.1 1683,-57.84 1325.4,35 1222.45,-11.84 853,-11.84 256.5,-11.84 256.5,-11.84 256.5,-11.84 161.22,-11.84 137.07,-67.35 95,-152.84 61.66,-220.59 48.9,-737.92 45.51,-913.64"/>
<polygon fill="black" stroke="black" points="42.01,-913.67 45.31,-923.73 49,-913.8 42.01,-913.67"/>
<text text-anchor="middle" x="961" y="-22.84" font-family="Helvetica,sans-Serif" font-size="35.00" fill="blue">159</text>
</g>
<!-- locking&#45;&gt;mm -->
<g id="edge68" class="edge">
<title>locking&#45;&gt;mm</title>
<path fill="none" stroke="black" d="M2162.4,-598.98C2128.87,-656.94 2063.3,-750.42 1975,-781.84 1878.69,-816.11 1847.2,-783.73 1745,-781.84 1567.05,-778.54 1518.97,-800.38 1345,-762.84 1309.5,-755.18 1297.71,-755.07 1269,-732.84 1264.22,-729.14 1266.2,-724.92 1261,-721.84 1188.71,-679.03 969.84,-679.18 886,-673.84 855.84,-671.92 848.16,-671.97 818,-673.84 691.95,-681.63 655.13,-666.91 536,-708.84 506.03,-719.39 503.67,-743.75 478.1,-749.6"/>
<polygon fill="black" stroke="black" points="477.5,-746.14 468,-750.84 478.35,-753.09 477.5,-746.14"/>
<path fill="none" stroke="black" d="M466,-750.84C425.06,-754.39 380.99,-744.36 344.04,-731.78"/>
<text text-anchor="middle" x="1070" y="-696.84" font-family="Helvetica,sans-Serif" font-size="35.00" fill="blue">31</text>
</g>
<!-- locking&#45;&gt;sched -->
<g id="edge72" class="edge">
<title>locking&#45;&gt;sched</title>
<path fill="none" stroke="black" d="M2290.43,-502.68C2309.18,-495.7 2328.89,-489.61 2348,-485.84 2369.04,-481.69 2391.55,-479.7 2413.63,-479.06"/>
<polygon fill="black" stroke="black" points="2413.81,-482.56 2423.74,-478.87 2413.67,-475.56 2413.81,-482.56"/>
<text text-anchor="middle" x="2382" y="-496.84" font-family="Helvetica,sans-Serif" font-size="35.00" fill="blue">112</text>
</g>
<!-- locking&#45;&gt;time -->
<g id="edge67" class="edge">
<title>locking&#45;&gt;time</title>
<path fill="none" stroke="black" d="M2180.32,-599.09C2161.16,-721.11 2105.12,-1037.25 2029,-1106.84 1975.53,-1155.72 1940.02,-1133.06 1871.37,-1137.91"/>
<polygon fill="black" stroke="black" points="1870.65,-1134.46 1861,-1138.84 1871.27,-1141.43 1870.65,-1134.46"/>
<path fill="none" stroke="black" d="M1859,-1138.84C1813.54,-1143.69 1081.72,-1138.19 1036,-1137.84 1002.36,-1137.58 844.98,-1136.35 818,-1133.84 815.4,-1133.6 812.77,-1133.33 810.12,-1133.04"/>
<text text-anchor="middle" x="1303" y="-1149.84" font-family="Helvetica,sans-Serif" font-size="35.00" fill="blue">25</text>
</g>
<!-- locking&#45;&gt;net -->
<g id="edge70" class="edge">
<title>locking&#45;&gt;net</title>
<path fill="none" stroke="black" d="M2036.68,-563.62C1830.09,-579.34 1470.41,-599.81 1345,-563.84 1340.97,-562.68 1340.72,-560.77 1337,-558.84 1326.4,-553.32 1321.89,-550.11 1313.74,-547.42"/>
<polygon fill="black" stroke="black" points="1314.56,-544.02 1304,-544.84 1312.77,-550.79 1314.56,-544.02"/>
<text text-anchor="middle" x="1714" y="-592.84" font-family="Helvetica,sans-Serif" font-size="35.00" fill="blue">8</text>
</g>
<!-- locking&#45;&gt;block -->
<g id="edge71" class="edge">
<title>locking&#45;&gt;block</title>
<path fill="none" stroke="black" d="M2111.82,-502.59C2087.05,-485.5 2060,-465.38 2037,-444.84 2033.01,-441.27 2033.88,-438.05 2029,-435.84 2015.38,-429.67 2000.47,-425.94 1985.35,-423.9"/>
<polygon fill="black" stroke="black" points="1985.71,-420.42 1975.38,-422.8 1984.94,-427.38 1985.71,-420.42"/>
<text text-anchor="middle" x="2006" y="-446.84" font-family="Helvetica,sans-Serif" font-size="35.00" fill="blue">9</text>
</g>
<!-- locking&#45;&gt;irq -->
<g id="edge69" class="edge">
<title>locking&#45;&gt;irq</title>
<path fill="none" stroke="black" d="M1859,-1138.84C1750.95,-1157.68 1784.51,-1270.3 1683,-1311.84 1593.92,-1348.29 893.14,-1324.99 818,-1264.84 808.89,-1257.55 818.35,-1247.98 810,-1239.84 719.15,-1151.29 637.26,-1236.26 536,-1159.84 515.66,-1144.49 499.87,-1121.14 488.65,-1100.07"/>
<text text-anchor="middle" x="1186.5" y="-1335.84" font-family="Helvetica,sans-Serif" font-size="35.00" fill="blue">124</text>
</g>
<!-- net&#45;&gt;fs -->
<g id="edge24" class="edge">
<title>net&#45;&gt;fs</title>
<path fill="none" stroke="black" d="M1111.99,-494.21C1052.6,-491.72 967.16,-485.47 894,-469.84 656.74,-419.14 559.96,-279.88 352,-404.84 195.64,-498.79 172.56,-559.74 95,-724.84 66.47,-785.56 54,-862.12 48.59,-913.78"/>
<polygon fill="black" stroke="black" points="45.1,-913.47 47.6,-923.77 52.07,-914.16 45.1,-913.47"/>
<text text-anchor="middle" x="570" y="-378.84" font-family="Helvetica,sans-Serif" font-size="35.00" fill="blue">543</text>
</g>
<!-- net&#45;&gt;mm -->
<g id="edge23" class="edge">
<title>net&#45;&gt;mm</title>
<path fill="none" stroke="black" d="M1111.95,-526.82C1101.53,-531.18 1090.83,-535.63 1080.44,-539.94"/>
<polygon fill="black" stroke="black" points="1078.9,-536.78 1071,-543.84 1081.58,-543.25 1078.9,-536.78"/>
<path fill="none" stroke="black" d="M1069,-543.84C979.97,-581.57 949.69,-569.84 853,-569.84 466,-569.84 466,-569.84 466,-569.84 404.31,-569.84 345.05,-610.73 305.77,-645.54"/>
<text text-anchor="middle" x="711" y="-580.84" font-family="Helvetica,sans-Serif" font-size="35.00" fill="blue">446</text>
</g>
<!-- net&#45;&gt;sched -->
<g id="edge25" class="edge">
<title>net&#45;&gt;sched</title>
<path fill="none" stroke="black" d="M1211.1,-447.73C1227.36,-412.74 1248.26,-363.82 1261,-318.84 1264.07,-308.01 1260.82,-276.57 1269,-268.84 1383.28,-160.8 1817.96,-211.49 1975,-219.84 2171.83,-230.3 2249.73,-160.98 2416,-266.84 2475.34,-304.62 2512.17,-379 2531.86,-431.22"/>
<polygon fill="black" stroke="black" points="2528.6,-432.52 2535.33,-440.7 2535.17,-430.1 2528.6,-432.52"/>
<text text-anchor="middle" x="1860" y="-230.84" font-family="Helvetica,sans-Serif" font-size="35.00" fill="blue">66</text>
</g>
<!-- net&#45;&gt;time -->
<g id="edge26" class="edge">
<title>net&#45;&gt;time</title>
<path fill="none" stroke="black" d="M1159.84,-543.98C1142.84,-578.51 1121.91,-626.72 1112,-671.84 1106.8,-695.51 1116.8,-869.26 1104,-889.84 1051.09,-974.92 956.76,-893.73 894,-971.84 880.04,-989.22 896.17,-1052 886,-1071.84 878.94,-1085.61 873.58,-1091.1 862.34,-1096.14"/>
<polygon fill="black" stroke="black" points="861,-1092.9 853,-1099.84 863.59,-1099.4 861,-1092.9"/>
<path fill="none" stroke="black" d="M851,-1099.84C838.09,-1104.53 824.11,-1107.98 810.16,-1110.51"/>
<text text-anchor="middle" x="961" y="-982.84" font-family="Helvetica,sans-Serif" font-size="35.00" fill="blue">107</text>
</g>
<!-- net&#45;&gt;locking -->
<g id="edge30" class="edge">
<title>net&#45;&gt;locking</title>
<path fill="none" stroke="black" d="M1246.39,-544.05C1253.81,-549.32 1261.46,-554.38 1269,-558.84 1300.7,-577.58 1310.66,-578.54 1345,-591.84 1516.69,-658.34 1562.84,-666.09 1737,-725.84 1791.24,-744.45 1801.74,-764.71 1859,-767.84"/>
<path fill="none" stroke="black" d="M1861,-767.84C1978.4,-774.05 2086.01,-673.09 2143.6,-606.75"/>
<polygon fill="black" stroke="black" points="2146.53,-608.72 2150.37,-598.85 2141.21,-604.17 2146.53,-608.72"/>
<text text-anchor="middle" x="1714" y="-736.84" font-family="Helvetica,sans-Serif" font-size="35.00" fill="blue">7</text>
</g>
<!-- net&#45;&gt;block -->
<g id="edge28" class="edge">
<title>net&#45;&gt;block</title>
<path fill="none" stroke="black" d="M1261.12,-470.12C1287.28,-462.12 1317.14,-454.24 1345,-449.84 1476.85,-429.01 1630.02,-427.4 1734.63,-429.66"/>
<polygon fill="black" stroke="black" points="1734.84,-433.16 1744.92,-429.89 1735,-426.16 1734.84,-433.16"/>
<text text-anchor="middle" x="1514" y="-460.84" font-family="Helvetica,sans-Serif" font-size="35.00" fill="blue">11</text>
</g>
<!-- net&#45;&gt;security -->
<g id="edge31" class="edge">
<title>net&#45;&gt;security</title>
<path fill="none" stroke="black" d="M1209.49,-544.13C1224.36,-574.57 1245.52,-614 1269,-645.84 1323.13,-719.23 1397.84,-792.65 1450.29,-840.75"/>
<polygon fill="black" stroke="black" points="1448.12,-843.5 1457.86,-847.66 1452.83,-838.33 1448.12,-843.5"/>
<text text-anchor="middle" x="1303" y="-737.84" font-family="Helvetica,sans-Serif" font-size="35.00" fill="blue">7</text>
</g>
<!-- net&#45;&gt;irq -->
<g id="edge29" class="edge">
<title>net&#45;&gt;irq</title>
<path fill="none" stroke="black" d="M1069,-543.84C1054.73,-550.92 1046.67,-546.01 1036,-557.84 1027.9,-566.82 1036.37,-575.11 1028,-583.84 947.71,-667.52 604.51,-664.27 536,-757.84 520.17,-779.46 539.42,-974.6 528,-998.84 527.23,-1000.47 526.38,-1002.08 525.47,-1003.65"/>
<text text-anchor="middle" x="852" y="-667.84" font-family="Helvetica,sans-Serif" font-size="35.00" fill="blue">26</text>
</g>
<!-- net&#45;&gt;ipc -->
<g id="edge27" class="edge">
<title>net&#45;&gt;ipc</title>
<path fill="none" stroke="black" d="M1160.05,-544.03C1143.14,-578.58 1122.23,-626.79 1112,-671.84 1108.15,-688.76 1114.56,-814.07 1104,-827.84 1102.81,-829.39 1071.23,-839.69 1038.16,-850.15"/>
<polygon fill="black" stroke="black" points="1036.83,-846.89 1028.35,-853.24 1038.94,-853.57 1036.83,-846.89"/>
<text text-anchor="middle" x="1070" y="-860.84" font-family="Helvetica,sans-Serif" font-size="35.00" fill="blue">726</text>
</g>
<!-- block&#45;&gt;fs -->
<g id="edge41" class="edge">
<title>block&#45;&gt;fs</title>
<path fill="none" stroke="black" d="M1774.46,-386.76C1764.35,-380.33 1754.32,-373.61 1745,-366.84 1741.18,-364.06 1741.02,-362.32 1737,-359.84 1714.95,-346.23 1707.82,-345.29 1683,-337.84 1207.04,-194.94 1067.95,-220.84 571,-220.84 256.5,-220.84 256.5,-220.84 256.5,-220.84 182.96,-220.84 142.99,-201.12 95,-256.84 52.56,-306.11 45.76,-751.64 44.69,-913.45"/>
<polygon fill="black" stroke="black" points="41.19,-913.67 44.63,-923.69 48.19,-913.71 41.19,-913.67"/>
<text text-anchor="middle" x="852" y="-229.84" font-family="Helvetica,sans-Serif" font-size="35.00" fill="blue">63</text>
</g>
<!-- block&#45;&gt;mm -->
<g id="edge42" class="edge">
<title>block&#45;&gt;mm</title>
<path fill="none" stroke="black" d="M1744.72,-425.19C1742.13,-425.06 1739.55,-424.94 1737,-424.84 1562.92,-417.72 1519.14,-419.61 1345,-424.84 926.27,-437.41 814.33,-413.23 406,-506.84 381.05,-512.56 371.45,-510.2 352,-526.84 318.04,-555.88 293.96,-600.5 278.75,-636.31"/>
<polygon fill="black" stroke="black" points="275.46,-635.1 274.88,-645.68 281.93,-637.77 275.46,-635.1"/>
<text text-anchor="middle" x="961" y="-444.84" font-family="Helvetica,sans-Serif" font-size="35.00" fill="blue">36</text>
</g>
<!-- block&#45;&gt;sched -->
<g id="edge44" class="edge">
<title>block&#45;&gt;sched</title>
<path fill="none" stroke="black" d="M1908.19,-386.75C1929.2,-368.67 1955.41,-350.23 1983,-340.84 2133.2,-289.69 2187.38,-297.46 2340,-340.84 2398.93,-357.59 2455.07,-398.96 2494.45,-433.72"/>
<polygon fill="black" stroke="black" points="2492.32,-436.51 2502.1,-440.58 2496.99,-431.3 2492.32,-436.51"/>
<text text-anchor="middle" x="2188.5" y="-351.84" font-family="Helvetica,sans-Serif" font-size="35.00" fill="blue">25</text>
</g>
<!-- block&#45;&gt;time -->
<g id="edge43" class="edge">
<title>block&#45;&gt;time</title>
<path fill="none" stroke="black" d="M1834.06,-483.23C1812.24,-522.3 1777.7,-576.98 1737,-615.84 1719.69,-632.37 1704.04,-623.77 1691,-643.84 1675.86,-667.14 1700.75,-684.46 1683,-705.84 1559.44,-854.62 1410.29,-707.78 1269,-839.84 1262.01,-846.38 1267.76,-853.06 1261,-859.84 1210.58,-910.38 1165.65,-872.74 1112,-919.84 1060.25,-965.26 1062.53,-991.3 1036,-1054.84 1031.01,-1066.78 1037.27,-1073.81 1028,-1082.84 1008.93,-1101.42 995.11,-1094.85 972.08,-1097.93"/>
<polygon fill="black" stroke="black" points="971.17,-1094.54 962,-1099.84 972.48,-1101.41 971.17,-1094.54"/>
<path fill="none" stroke="black" d="M960,-1099.84C913.84,-1111.27 898.06,-1084.63 853,-1099.84"/>
<text text-anchor="middle" x="1186.5" y="-930.84" font-family="Helvetica,sans-Serif" font-size="35.00" fill="blue">44</text>
</g>
<!-- block&#45;&gt;locking -->
<g id="edge47" class="edge">
<title>block&#45;&gt;locking</title>
<path fill="none" stroke="black" d="M1975.19,-475.41C1997,-483.16 2020.09,-491.36 2042.7,-499.39"/>
<polygon fill="black" stroke="black" points="2041.76,-502.77 2052.35,-502.82 2044.1,-496.18 2041.76,-502.77"/>
<text text-anchor="middle" x="2006" y="-503.84" font-family="Helvetica,sans-Serif" font-size="35.00" fill="blue">2</text>
</g>
<!-- block&#45;&gt;net -->
<g id="edge46" class="edge">
<title>block&#45;&gt;net</title>
<path fill="none" stroke="black" d="M1779.13,-482.94C1761.63,-492.45 1742.8,-501.94 1724.33,-509.93"/>
<polygon fill="black" stroke="black" points="1722.87,-506.74 1715,-513.84 1725.58,-513.2 1722.87,-506.74"/>
<path fill="none" stroke="black" d="M1713,-513.84C1674.85,-528.61 1384.72,-515.04 1345,-524.84 1325.32,-529.7 1323.88,-548.82 1304,-544.84"/>
<path fill="none" stroke="black" d="M1302,-544.84C1288.43,-542.12 1274.49,-537.7 1261.21,-532.59"/>
<text text-anchor="middle" x="1514" y="-535.84" font-family="Helvetica,sans-Serif" font-size="35.00" fill="blue">1</text>
</g>
<!-- block&#45;&gt;irq -->
<g id="edge45" class="edge">
<title>block&#45;&gt;irq</title>
<path fill="none" stroke="black" d="M1713,-513.84C1687.56,-524.17 1705.86,-552.63 1683,-567.84 1562.57,-648 1170.2,-585.81 1036,-639.84 962.2,-669.55 933.42,-679.73 894,-748.84 886.68,-761.67 896.25,-804.2 886,-814.84 836.81,-865.87 633.84,-832.07 571,-864.84"/>
<path fill="none" stroke="black" d="M569,-864.84C513.78,-893.64 561.72,-946.48 528,-998.84 526.95,-1000.48 525.83,-1002.09 524.66,-1003.68"/>
<text text-anchor="middle" x="1070" y="-650.84" font-family="Helvetica,sans-Serif" font-size="35.00" fill="blue">11</text>
</g>
<!-- security&#45;&gt;fs -->
<g id="edge34" class="edge">
<title>security&#45;&gt;fs</title>
<path fill="none" stroke="black" d="M1367.25,-944C1358.77,-950.91 1351.2,-958.81 1345,-967.84 1331.53,-987.46 1351.8,-1163.21 1337,-1181.84 1282.97,-1249.85 657.86,-1337.84 571,-1337.84 256.5,-1337.84 256.5,-1337.84 256.5,-1337.84 167.34,-1337.84 143.02,-1293.96 95,-1218.84 58.54,-1161.79 47.7,-1083.5 44.84,-1030.47"/>
<polygon fill="black" stroke="black" points="48.32,-1030.04 44.36,-1020.21 41.33,-1030.37 48.32,-1030.04"/>
<text text-anchor="middle" x="711" y="-1345.84" font-family="Helvetica,sans-Serif" font-size="35.00" fill="blue">218</text>
</g>
<!-- security&#45;&gt;mm -->
<g id="edge33" class="edge">
<title>security&#45;&gt;mm</title>
<path fill="none" stroke="black" d="M1344.84,-923.12C1334.49,-923.35 1324.17,-923.21 1314.05,-922.6"/>
<polygon fill="black" stroke="black" points="1314.24,-919.11 1304,-921.84 1313.71,-926.09 1314.24,-919.11"/>
<path fill="none" stroke="black" d="M1302,-921.84C1275.87,-919.29 1277.77,-897.59 1269,-872.84 1262.29,-853.91 1275.81,-796.39 1261,-782.84 1212.14,-738.13 1160.49,-737.74 1112,-782.84 1094.05,-799.53 1121.95,-876.15 1104,-892.84 1081.87,-913.42 1058.46,-913.06 1036,-892.84 1023.38,-881.48 1038.74,-830 1028,-816.84 986.15,-765.54 951.15,-783.6 886,-771.84 702.94,-738.8 653.48,-736.81 468,-750.84"/>
<text text-anchor="middle" x="852" y="-782.84" font-family="Helvetica,sans-Serif" font-size="35.00" fill="blue">124</text>
</g>
<!-- security&#45;&gt;sched -->
<g id="edge37" class="edge">
<title>security&#45;&gt;sched</title>
<path fill="none" stroke="black" d="M1715,-918.84C1746.88,-920.28 1947.06,-1025.43 1975,-1040.84 2073.19,-1094.99 2078.1,-1152.23 2187.5,-1176.84"/>
<path fill="none" stroke="black" d="M2189.5,-1176.84C2472.3,-1215.61 2533.9,-719.88 2546.75,-547.06"/>
<polygon fill="black" stroke="black" points="2550.26,-547.1 2547.48,-536.88 2543.28,-546.6 2550.26,-547.1"/>
<text text-anchor="middle" x="2006" y="-1085.84" font-family="Helvetica,sans-Serif" font-size="35.00" fill="blue">22</text>
</g>
<!-- security&#45;&gt;time -->
<g id="edge40" class="edge">
<title>security&#45;&gt;time</title>
<path fill="none" stroke="black" d="M1302,-921.84C1276.25,-920.85 1281.85,-947.69 1261,-962.84 1142.74,-1048.76 1104.26,-1066.26 962,-1099.84"/>
<text text-anchor="middle" x="1070" y="-1091.84" font-family="Helvetica,sans-Serif" font-size="35.00" fill="blue">3</text>
</g>
<!-- security&#45;&gt;locking -->
<g id="edge38" class="edge">
<title>security&#45;&gt;locking</title>
<path fill="none" stroke="black" d="M1683.09,-917.57C1693.2,-918.19 1703.23,-918.63 1713,-918.84"/>
<path fill="none" stroke="black" d="M1715,-918.84C1733.85,-919.24 1727.58,-896.06 1745,-888.84 1839.44,-849.72 1883.29,-843.68 1975,-888.84 1994.62,-898.5 1986.45,-939.42 2005,-927.84"/>
<path fill="none" stroke="black" d="M2007,-927.84C2117.34,-855.2 2162.02,-695.23 2178.64,-608.87"/>
<polygon fill="black" stroke="black" points="2182.09,-609.44 2180.48,-598.96 2175.21,-608.15 2182.09,-609.44"/>
<text text-anchor="middle" x="1860" y="-899.84" font-family="Helvetica,sans-Serif" font-size="35.00" fill="blue">4</text>
</g>
<!-- security&#45;&gt;net -->
<g id="edge32" class="edge">
<title>security&#45;&gt;net</title>
<path fill="none" stroke="black" d="M1362.55,-847.76C1326.33,-829.08 1291.6,-803.76 1269,-769.84 1256.88,-751.66 1266.16,-693.07 1261,-671.84 1251.02,-630.81 1232.75,-586.99 1216.92,-553.34"/>
<polygon fill="black" stroke="black" points="1219.99,-551.65 1212.53,-544.13 1213.67,-554.66 1219.99,-551.65"/>
<text text-anchor="middle" x="1303" y="-840.84" font-family="Helvetica,sans-Serif" font-size="35.00" fill="blue">119</text>
</g>
<!-- security&#45;&gt;block -->
<g id="edge36" class="edge">
<title>security&#45;&gt;block</title>
<path fill="none" stroke="black" d="M1589.72,-847.74C1624.12,-821.4 1661.91,-785.62 1683,-743.84 1699.1,-711.94 1670.72,-693.26 1691,-663.84 1703.97,-645.02 1720.27,-656.42 1737,-640.84 1781.72,-599.18 1815.32,-537.42 1835.82,-492.39"/>
<polygon fill="black" stroke="black" points="1839.11,-493.6 1839.99,-483.05 1832.72,-490.75 1839.11,-493.6"/>
<text text-anchor="middle" x="1714" y="-674.84" font-family="Helvetica,sans-Serif" font-size="35.00" fill="blue">6</text>
</g>
<!-- security&#45;&gt;irq -->
<g id="edge39" class="edge">
<title>security&#45;&gt;irq</title>
<path fill="none" stroke="black" d="M1302,-921.84C1280.5,-919.82 1132.17,-955.11 1112,-962.84 1071.85,-978.22 1069.14,-998.33 1028,-1010.84 818.26,-1074.59 754.53,-1028.43 536,-1045.84 533.4,-1046.05 530.75,-1046.26 528.07,-1046.48"/>
<text text-anchor="middle" x="961" y="-1050.84" font-family="Helvetica,sans-Serif" font-size="35.00" fill="blue">10</text>
</g>
<!-- security&#45;&gt;ipc -->
<g id="edge35" class="edge">
<title>security&#45;&gt;ipc</title>
<path fill="none" stroke="black" d="M1302,-921.84C1275.78,-920.46 1278.56,-897.29 1269,-872.84 1264.74,-861.95 1269.87,-828.45 1261,-820.84 1210.74,-777.72 1160.37,-775.61 1112,-820.84 1092.64,-838.94 1123.36,-921.74 1104,-939.84 1081.92,-960.48 1064.24,-950.6 1036,-939.84 1029.81,-937.48 1020.64,-930.57 1010.86,-922.06"/>
<text text-anchor="middle" x="1186.5" y="-831.84" font-family="Helvetica,sans-Serif" font-size="35.00" fill="blue">18</text>
</g>
<!-- irq&#45;&gt;fs -->
<g id="edge62" class="edge">
<title>irq&#45;&gt;fs</title>
<path fill="none" stroke="black" d="M405.94,-1025.78C387.09,-1015.58 367.25,-1002.52 352,-986.84 346.73,-981.42 350.48,-975.73 344,-971.84 265.39,-924.67 227.34,-958.81 140.03,-970.61"/>
<polygon fill="black" stroke="black" points="139.5,-967.15 130,-971.84 140.35,-974.1 139.5,-967.15"/>
<text text-anchor="middle" x="257.5" y="-982.84" font-family="Helvetica,sans-Serif" font-size="35.00" fill="blue">71</text>
</g>
<!-- irq&#45;&gt;mm -->
<g id="edge65" class="edge">
<title>irq&#45;&gt;mm</title>
<path fill="none" stroke="black" d="M413.79,-1003.72C410.77,-999.28 408.11,-994.64 406,-989.84 394.32,-963.36 414.18,-883.84 398,-859.84 385.33,-841.05 369.03,-852.79 352,-837.84 324.6,-813.78 302.03,-779.83 285.94,-750.93"/>
<polygon fill="black" stroke="black" points="289.01,-749.25 281.15,-742.15 282.86,-752.6 289.01,-749.25"/>
<text text-anchor="middle" x="375" y="-870.84" font-family="Helvetica,sans-Serif" font-size="35.00" fill="blue">4</text>
</g>
<!-- irq&#45;&gt;sched -->
<g id="edge64" class="edge">
<title>irq&#45;&gt;sched</title>
<path fill="none" stroke="black" d="M478.71,-1100.19C488.7,-1136.54 506.57,-1185.88 536,-1220.84 561.58,-1251.22 575,-1253.41 612,-1267.84 695.49,-1300.39 735.35,-1256.27 810,-1305.84 815.34,-1309.39 813.1,-1313.7 818,-1317.84 846.26,-1341.73 858.57,-1341.18 894,-1351.84 1159.86,-1431.83 1235.37,-1435.84 1513,-1435.84 1513,-1435.84 1513,-1435.84 2189.5,-1435.84 2274.77,-1435.84 2285.38,-1382.33 2340,-1316.84 2386.1,-1261.57 2391.94,-1241.67 2416,-1173.84 2495.41,-949.95 2531.78,-667.27 2544.46,-547.13"/>
<polygon fill="black" stroke="black" points="2547.95,-547.35 2545.51,-537.04 2540.99,-546.63 2547.95,-547.35"/>
<text text-anchor="middle" x="1303" y="-1444.84" font-family="Helvetica,sans-Serif" font-size="35.00" fill="blue">35</text>
</g>
<!-- irq&#45;&gt;time -->
<g id="edge63" class="edge">
<title>irq&#45;&gt;time</title>
<path fill="none" stroke="black" d="M528.18,-1049.81C552.16,-1050.44 579.76,-1052.97 604,-1059.84 609.21,-1061.32 614.46,-1063.08 619.68,-1065.06"/>
<polygon fill="black" stroke="black" points="618.44,-1068.33 629.03,-1068.83 621.06,-1061.84 618.44,-1068.33"/>
<text text-anchor="middle" x="570" y="-1070.84" font-family="Helvetica,sans-Serif" font-size="35.00" fill="blue">11</text>
</g>
<!-- ipc&#45;&gt;fs -->
<g id="edge9" class="edge">
<title>ipc&#45;&gt;fs</title>
<path fill="none" stroke="black" d="M893.99,-861.94C883.86,-860.68 873.36,-859.67 863.12,-859.16"/>
<polygon fill="black" stroke="black" points="863.11,-855.66 853,-858.84 862.88,-862.66 863.11,-855.66"/>
<path fill="none" stroke="black" d="M851,-858.84C741.4,-852.11 713.8,-854.17 604,-852.84 559.8,-852.3 439.27,-842.73 406,-871.84 396.26,-880.36 407.56,-891.11 398,-899.84 322.16,-969.07 265.52,-902.72 171,-942.84 150.45,-951.56 152.19,-969.41 130,-971.84"/>
<path fill="none" stroke="black" d="M128,-971.84C114.74,-973.29 100.23,-973.7 87.08,-973.63"/>
<text text-anchor="middle" x="467" y="-882.84" font-family="Helvetica,sans-Serif" font-size="35.00" fill="blue">51</text>
</g>
<!-- ipc&#45;&gt;mm -->
<g id="edge11" class="edge">
<title>ipc&#45;&gt;mm</title>
<path fill="none" stroke="black" d="M893.85,-843.49C868.1,-832.59 838.08,-821 810,-812.84 801.58,-810.39 534.31,-760.79 478.09,-752.12"/>
<polygon fill="black" stroke="black" points="478.36,-748.63 468,-750.84 477.48,-755.57 478.36,-748.63"/>
<text text-anchor="middle" x="570" y="-783.84" font-family="Helvetica,sans-Serif" font-size="35.00" fill="blue">13</text>
</g>
<!-- ipc&#45;&gt;sched -->
<g id="edge10" class="edge">
<title>ipc&#45;&gt;sched</title>
<path fill="none" stroke="black" d="M1023.61,-922.02C1025.2,-924.23 1026.67,-926.51 1028,-928.84 1038.94,-948 1020.41,-962.22 1036,-977.84 1134.34,-1076.35 1207.48,-1007.32 1345,-1028.84 1495.03,-1052.32 1534.59,-1046.67 1683,-1078.84 1814.98,-1107.45 1848.54,-1115.47 1975,-1162.84 1988.78,-1168 1990.57,-1173.95 2005,-1176.84"/>
<path fill="none" stroke="black" d="M2007,-1176.84C2086.93,-1183.63 2107.45,-1182.16 2187.5,-1176.84"/>
<text text-anchor="middle" x="1714" y="-1100.84" font-family="Helvetica,sans-Serif" font-size="35.00" fill="blue">17</text>
</g>
<!-- ipc&#45;&gt;time -->
<g id="edge12" class="edge">
<title>ipc&#45;&gt;time</title>
<path fill="none" stroke="black" d="M893.95,-892.72C858.26,-903.19 820.87,-914.72 818,-917.84 806.89,-929.89 816.08,-938.62 810,-953.84 795.12,-991.1 772.29,-1029.71 752.4,-1059.99"/>
<polygon fill="black" stroke="black" points="749.23,-1058.44 746.61,-1068.71 755.06,-1062.32 749.23,-1058.44"/>
<text text-anchor="middle" x="852" y="-928.84" font-family="Helvetica,sans-Serif" font-size="35.00" fill="blue">5</text>
</g>
<!-- ipc&#45;&gt;locking -->
<g id="edge15" class="edge">
<title>ipc&#45;&gt;locking</title>
<path fill="none" stroke="black" d="M1023.34,-922.18C1025,-924.35 1026.56,-926.57 1028,-928.84 1035.61,-940.86 1024.75,-951.12 1036,-959.84 1059.89,-978.35 1073.78,-960.02 1104,-959.84 1304.34,-958.63 1837.66,-1038.01 2005,-927.84"/>
<text text-anchor="middle" x="1514" y="-996.84" font-family="Helvetica,sans-Serif" font-size="35.00" fill="blue">2</text>
</g>
<!-- ipc&#45;&gt;net -->
<g id="edge13" class="edge">
<title>ipc&#45;&gt;net</title>
<path fill="none" stroke="black" d="M1000.2,-825.4C1011.13,-812.85 1023.49,-799.8 1036,-788.84 1063.26,-764.96 1085.11,-774.76 1104,-743.84 1120.79,-716.36 1103.94,-703.01 1112,-671.84 1122.61,-630.82 1140.98,-586.83 1156.7,-553.09"/>
<polygon fill="black" stroke="black" points="1159.95,-554.39 1161.05,-543.86 1153.62,-551.41 1159.95,-554.39"/>
<text text-anchor="middle" x="1070" y="-799.84" font-family="Helvetica,sans-Serif" font-size="35.00" fill="blue">2</text>
</g>
<!-- ipc&#45;&gt;irq -->
<g id="edge14" class="edge">
<title>ipc&#45;&gt;irq</title>
<path fill="none" stroke="black" d="M851,-858.84C835.08,-858.31 831.81,-864.89 818,-872.84 814.15,-875.06 814.22,-877.43 810,-878.84 726.52,-906.67 698.81,-893.25 612,-878.84 593,-875.69 588.31,-856.41 571,-864.84"/>
<text text-anchor="middle" x="711" y="-905.84" font-family="Helvetica,sans-Serif" font-size="35.00" fill="blue">2</text>
</g>
</g>
</svg>
