<?xml version="1.0" encoding="utf-8" standalone="no"?>
<!DOCTYPE svg PUBLIC "-//W3C//DTD SVG 1.1//EN"
  "http://www.w3.org/Graphics/SVG/1.1/DTD/svg11.dtd">
<svg xmlns:xlink="http://www.w3.org/1999/xlink" width="576pt" height="360pt" viewBox="0 0 576 360" xmlns="http://www.w3.org/2000/svg" version="1.1">
 <metadata>
  <rdf:RDF xmlns:dc="http://purl.org/dc/elements/1.1/" xmlns:cc="http://creativecommons.org/ns#" xmlns:rdf="http://www.w3.org/1999/02/22-rdf-syntax-ns#">
   <cc:Work>
    <dc:type rdf:resource="http://purl.org/dc/dcmitype/StillImage"/>
    <dc:date>2026-03-24T05:06:48.226183</dc:date>
    <dc:format>image/svg+xml</dc:format>
    <dc:creator>
     <cc:Agent>
      <dc:title>Matplotlib v3.10.8, https://matplotlib.org/</dc:title>
     </cc:Agent>
    </dc:creator>
   </cc:Work>
  </rdf:RDF>
 </metadata>
 <defs>
  <style type="text/css">*{stroke-linejoin: round; stroke-linecap: butt}</style>
 </defs>
 <g id="figure_1">
  <g id="patch_1">
   <path d="M 0 360 
L 576 360 
L 576 0 
L 0 0 
z
" style="fill: #ffffff"/>
  </g>
  <g id="axes_1">
   <g id="patch_2">
    <path d="M 63.981019 245.530364 
L 560.88 245.530364 
L 560.88 15.12 
L 63.981019 15.12 
z
" style="fill: #ffffff"/>
   </g>
   <g id="patch_3">
    <path d="M 63.981019 245.530364 
L 63.981019 15.12 
" style="fill: none; stroke: #000000; stroke-linejoin: miter; stroke-linecap: square"/>
   </g>
   <g id="patch_4">
    <path d="M 560.88 245.530364 
L 560.88 15.12 
" style="fill: none; stroke: #000000; stroke-linejoin: miter; stroke-linecap: square"/>
   </g>
   <g id="patch_5">
    <path d="M 63.981019 245.530364 
L 560.88 245.530364 
" style="fill: none; stroke: #000000; stroke-linejoin: miter; stroke-linecap: square"/>
   </g>
   <g id="patch_6">
    <path d="M 63.981019 15.12 
L 560.88 15.12 
" style="fill: none; stroke: #000000; stroke-linejoin: miter; stroke-linecap: square"/>
   </g>
   <g id="matplotlib.axis_1">
    <g id="xtick_1">
     <g id="line2d_1"/>
     <g id="line2d_2"/>
     <g id="text_1">
      <!-- static 1GB -->
      <g transform="translate(36.430192 312.491176) rotate(-40) scale(0.18 -0.18)">
       <defs>
        <path id="NimbusSanL-Regu-73" d="M 2803 2427 
C 2797 3085 2362 3456 1587 3456 
C 806 3456 301 3054 301 2436 
C 301 1913 570 1665 1363 1474 
L 1862 1353 
C 2234 1263 2381 1130 2381 888 
C 2381 576 2067 365 1600 365 
C 1312 365 1069 448 934 588 
C 851 684 813 779 781 1014 
L 218 1014 
C 243 241 678 -128 1555 -128 
C 2400 -128 2938 285 2938 929 
C 2938 1426 2656 1701 1990 1860 
L 1478 1981 
C 1043 2082 858 2223 858 2458 
C 858 2764 1133 2962 1568 2962 
C 1997 2962 2227 2777 2240 2427 
L 2803 2427 
z
" transform="scale(0.015625)"/>
        <path id="NimbusSanL-Regu-74" d="M 1626 3380 
L 1075 3380 
L 1075 4288 
L 544 4288 
L 544 3380 
L 90 3380 
L 90 2944 
L 544 2944 
L 544 404 
C 544 64 774 -128 1190 -128 
C 1318 -128 1446 -116 1626 -83 
L 1626 366 
C 1555 346 1472 340 1370 340 
C 1139 340 1075 404 1075 641 
L 1075 2944 
L 1626 2944 
L 1626 3380 
z
" transform="scale(0.015625)"/>
        <path id="NimbusSanL-Regu-61" d="M 3424 333 
C 3366 320 3341 320 3309 320 
C 3123 320 3021 415 3021 581 
L 3021 2545 
C 3021 3137 2586 3456 1760 3456 
C 1274 3456 870 3316 646 3066 
C 493 2893 429 2702 416 2370 
L 954 2370 
C 998 2777 1242 2962 1741 2962 
C 2221 2962 2490 2783 2490 2465 
L 2490 2325 
C 2490 2101 2355 2006 1933 1955 
C 1178 1860 1062 1834 858 1751 
C 467 1592 269 1292 269 859 
C 269 254 691 -128 1370 -128 
C 1792 -128 2131 19 2509 365 
C 2547 25 2714 -128 3059 -128 
C 3168 -128 3251 -116 3424 -70 
L 3424 333 
z
M 2490 1072 
C 2490 893 2438 785 2278 639 
C 2061 441 1798 340 1485 340 
C 1069 340 826 537 826 874 
C 826 1225 1062 1403 1632 1486 
C 2195 1562 2310 1588 2490 1670 
L 2490 1072 
z
" transform="scale(0.015625)"/>
        <path id="NimbusSanL-Regu-69" d="M 960 3359 
L 429 3359 
L 429 0 
L 960 0 
L 960 3359 
z
M 960 4672 
L 422 4672 
L 422 3999 
L 960 3999 
L 960 4672 
z
" transform="scale(0.015625)"/>
        <path id="NimbusSanL-Regu-63" d="M 3014 2236 
C 2989 2562 2918 2773 2790 2958 
C 2560 3271 2157 3456 1690 3456 
C 787 3456 198 2742 198 1632 
C 198 554 774 -128 1683 -128 
C 2483 -128 2989 350 3053 1167 
L 2515 1167 
C 2426 632 2150 365 1696 365 
C 1107 365 755 843 755 1632 
C 755 2466 1101 2962 1683 2962 
C 2131 2962 2413 2701 2477 2236 
L 3014 2236 
z
" transform="scale(0.015625)"/>
        <path id="NimbusSanL-Regu-31" d="M 1658 3238 
L 1658 0 
L 2221 0 
L 2221 4545 
L 1850 4545 
C 1651 3847 1523 3751 653 3642 
L 653 3238 
L 1658 3238 
z
" transform="scale(0.015625)"/>
        <path id="NimbusSanL-Regu-47" d="M 4538 2496 
L 2592 2496 
L 2592 1971 
L 4013 1971 
L 4013 1841 
C 4013 1003 3398 397 2547 397 
C 2074 397 1645 569 1370 870 
C 1062 1201 877 1756 877 2330 
C 877 3471 1530 4224 2515 4224 
C 3226 4224 3738 3864 3866 3272 
L 4474 3272 
C 4307 4211 3590 4750 2522 4750 
C 1952 4750 1491 4603 1126 4303 
C 589 3856 282 3135 282 2298 
C 282 868 1158 -128 2419 -128 
C 3053 -128 3558 109 4013 616 
L 4160 -7 
L 4538 -7 
L 4538 2496 
z
" transform="scale(0.015625)"/>
        <path id="NimbusSanL-Regu-42" d="M 506 0 
L 2611 0 
C 3053 0 3379 121 3629 388 
C 3859 629 3987 959 3987 1322 
C 3987 1881 3731 2217 3136 2446 
C 3558 2647 3782 2996 3782 3475 
C 3782 3817 3654 4122 3411 4342 
C 3168 4568 2848 4672 2400 4672 
L 506 4672 
L 506 0 
z
M 1101 2638 
L 1101 4146 
L 2253 4146 
C 2586 4146 2771 4100 2931 3977 
C 3098 3847 3187 3652 3187 3391 
C 3187 3138 3098 2937 2931 2806 
C 2771 2683 2586 2638 2253 2638 
L 1101 2638 
z
M 1101 526 
L 1101 2112 
L 2554 2112 
C 2842 2112 3034 2042 3174 1891 
C 3315 1745 3392 1543 3392 1316 
C 3392 1095 3315 893 3174 747 
C 3034 595 2842 526 2554 526 
L 1101 526 
z
" transform="scale(0.015625)"/>
       </defs>
       <use xlink:href="#NimbusSanL-Regu-73" transform="scale(0.996264)"/>
       <use xlink:href="#NimbusSanL-Regu-74" transform="translate(49.8132 0) scale(0.996264)"/>
       <use xlink:href="#NimbusSanL-Regu-61" transform="translate(77.50837 0) scale(0.996264)"/>
       <use xlink:href="#NimbusSanL-Regu-74" transform="translate(132.900047 0) scale(0.996264)"/>
       <use xlink:href="#NimbusSanL-Regu-69" transform="translate(160.595217 0) scale(0.996264)"/>
       <use xlink:href="#NimbusSanL-Regu-63" transform="translate(182.712001 0) scale(0.996264)"/>
       <use xlink:href="#NimbusSanL-Regu-31" transform="translate(260.220371 0) scale(0.996264)"/>
       <use xlink:href="#NimbusSanL-Regu-47" transform="translate(315.612048 0) scale(0.996264)"/>
       <use xlink:href="#NimbusSanL-Regu-42" transform="translate(393.120418 0) scale(0.996264)"/>
      </g>
     </g>
    </g>
    <g id="xtick_2">
     <g id="line2d_3"/>
     <g id="line2d_4"/>
     <g id="text_2">
      <!-- dynamic 32MB -->
      <g transform="translate(64.166561 335.545127) rotate(-40) scale(0.18 -0.18)">
       <defs>
        <path id="NimbusSanL-Regu-64" d="M 3168 4672 
L 2637 4672 
L 2637 2937 
C 2413 3276 2054 3456 1606 3456 
C 736 3456 166 2761 166 1695 
C 166 566 723 -128 1626 -128 
C 2086 -128 2406 45 2694 461 
L 2694 -2 
L 3168 -2 
L 3168 4672 
z
M 1696 2956 
C 2272 2956 2637 2447 2637 1651 
C 2637 881 2266 372 1702 372 
C 1114 372 723 887 723 1664 
C 723 2440 1114 2956 1696 2956 
z
" transform="scale(0.015625)"/>
        <path id="NimbusSanL-Regu-79" d="M 2483 3360 
L 1555 738 
L 698 3360 
L 128 3360 
L 1261 -21 
L 1056 -554 
C 973 -792 851 -882 627 -882 
C 550 -882 461 -869 346 -843 
L 346 -1325 
C 454 -1382 563 -1408 704 -1408 
C 877 -1408 1062 -1350 1203 -1247 
C 1370 -1125 1466 -983 1568 -713 
L 3059 3360 
L 2483 3360 
z
" transform="scale(0.015625)"/>
        <path id="NimbusSanL-Regu-6e" d="M 448 3359 
L 448 0 
L 986 0 
L 986 1853 
C 986 2539 1344 2988 1894 2988 
C 2317 2988 2586 2731 2586 2327 
L 2586 0 
L 3117 0 
L 3117 2539 
C 3117 3097 2701 3456 2054 3456 
C 1555 3456 1235 3263 941 2796 
L 941 3359 
L 448 3359 
z
" transform="scale(0.015625)"/>
        <path id="NimbusSanL-Regu-6d" d="M 448 3359 
L 448 0 
L 986 0 
L 986 2109 
C 986 2597 1338 2988 1773 2988 
C 2170 2988 2394 2744 2394 2314 
L 2394 0 
L 2931 0 
L 2931 2109 
C 2931 2597 3283 2988 3718 2988 
C 4109 2988 4339 2738 4339 2314 
L 4339 0 
L 4877 0 
L 4877 2520 
C 4877 3122 4531 3456 3904 3456 
C 3456 3456 3187 3321 2874 2943 
C 2675 3302 2406 3456 1971 3456 
C 1523 3456 1229 3289 941 2885 
L 941 3359 
L 448 3359 
z
" transform="scale(0.015625)"/>
        <path id="NimbusSanL-Regu-33" d="M 1414 2112 
L 1485 2112 
L 1722 2112 
C 2342 2112 2662 1830 2662 1284 
C 2662 712 2310 372 1722 372 
C 1107 372 806 681 768 1345 
L 205 1345 
C 230 978 294 740 403 534 
C 634 97 1082 -128 1702 -128 
C 2637 -128 3238 431 3238 1293 
C 3238 1872 3014 2194 2470 2381 
C 2893 2546 3104 2862 3104 3311 
C 3104 4082 2586 4544 1722 4544 
C 806 4544 320 4050 301 3095 
L 864 3095 
C 870 3366 896 3517 966 3655 
C 1094 3900 1376 4051 1728 4051 
C 2227 4051 2528 3760 2528 3287 
C 2528 2971 2413 2781 2163 2681 
C 2010 2618 1811 2592 1414 2592 
L 1414 2112 
z
" transform="scale(0.015625)"/>
        <path id="NimbusSanL-Regu-32" d="M 3238 558 
L 851 558 
C 909 930 1114 1167 1670 1494 
L 2310 1840 
C 2944 2186 3270 2653 3270 3211 
C 3270 3589 3117 3942 2848 4185 
C 2579 4429 2246 4544 1818 4544 
C 1242 4544 813 4339 563 3955 
C 403 3711 333 3429 320 2967 
L 883 2967 
C 902 3275 941 3461 1018 3608 
C 1165 3884 1459 4051 1798 4051 
C 2310 4051 2694 3685 2694 3198 
C 2694 2839 2483 2531 2080 2301 
L 1491 1968 
C 544 1430 269 1000 218 0 
L 3238 0 
L 3238 558 
z
" transform="scale(0.015625)"/>
        <path id="NimbusSanL-Regu-4d" d="M 2995 -2 
L 4307 3915 
L 4307 -2 
L 4870 -2 
L 4870 4672 
L 4045 4672 
L 2688 601 
L 1306 4672 
L 480 4672 
L 480 -2 
L 1043 -2 
L 1043 3915 
L 2368 -2 
L 2995 -2 
z
" transform="scale(0.015625)"/>
       </defs>
       <use xlink:href="#NimbusSanL-Regu-64" transform="scale(0.996264)"/>
       <use xlink:href="#NimbusSanL-Regu-79" transform="translate(55.391677 0) scale(0.996264)"/>
       <use xlink:href="#NimbusSanL-Regu-6e" transform="translate(105.204877 0) scale(0.996264)"/>
       <use xlink:href="#NimbusSanL-Regu-61" transform="translate(160.596554 0) scale(0.996264)"/>
       <use xlink:href="#NimbusSanL-Regu-6d" transform="translate(215.988231 0) scale(0.996264)"/>
       <use xlink:href="#NimbusSanL-Regu-69" transform="translate(298.976662 0) scale(0.996264)"/>
       <use xlink:href="#NimbusSanL-Regu-63" transform="translate(321.093446 0) scale(0.996264)"/>
       <use xlink:href="#NimbusSanL-Regu-33" transform="translate(398.601816 0) scale(0.996264)"/>
       <use xlink:href="#NimbusSanL-Regu-32" transform="translate(453.993493 0) scale(0.996264)"/>
       <use xlink:href="#NimbusSanL-Regu-4d" transform="translate(509.38517 0) scale(0.996264)"/>
       <use xlink:href="#NimbusSanL-Regu-42" transform="translate(592.3736 0) scale(0.996264)"/>
      </g>
     </g>
    </g>
    <g id="xtick_3">
     <g id="line2d_5"/>
     <g id="line2d_6"/>
     <g id="text_3">
      <!-- dynamic 64MB -->
      <g transform="translate(119.377559 335.545127) rotate(-40) scale(0.18 -0.18)">
       <defs>
        <path id="NimbusSanL-Regu-36" d="M 3187 3382 
C 3078 4111 2592 4544 1901 4544 
C 1402 4544 954 4302 685 3900 
C 403 3460 275 2904 275 2081 
C 275 1321 390 836 659 434 
C 902 69 1299 -128 1798 -128 
C 2662 -128 3283 518 3283 1415 
C 3283 2268 2707 2868 1894 2868 
C 1446 2868 1094 2695 851 2362 
C 858 3444 1216 4044 1862 4044 
C 2259 4044 2534 3803 2624 3382 
L 3187 3382 
z
M 1824 2368 
C 2368 2368 2707 1986 2707 1370 
C 2707 793 2323 372 1805 372 
C 1280 372 883 813 883 1402 
C 883 1973 1267 2368 1824 2368 
z
" transform="scale(0.015625)"/>
        <path id="NimbusSanL-Regu-34" d="M 2093 1088 
L 2093 0 
L 2656 0 
L 2656 1088 
L 3328 1088 
L 3328 1594 
L 2656 1594 
L 2656 4545 
L 2240 4545 
L 179 1684 
L 179 1088 
L 2093 1088 
z
M 2093 1594 
L 672 1594 
L 2093 3583 
L 2093 1594 
z
" transform="scale(0.015625)"/>
       </defs>
       <use xlink:href="#NimbusSanL-Regu-64" transform="scale(0.996264)"/>
       <use xlink:href="#NimbusSanL-Regu-79" transform="translate(55.391677 0) scale(0.996264)"/>
       <use xlink:href="#NimbusSanL-Regu-6e" transform="translate(105.204877 0) scale(0.996264)"/>
       <use xlink:href="#NimbusSanL-Regu-61" transform="translate(160.596554 0) scale(0.996264)"/>
       <use xlink:href="#NimbusSanL-Regu-6d" transform="translate(215.988231 0) scale(0.996264)"/>
       <use xlink:href="#NimbusSanL-Regu-69" transform="translate(298.976662 0) scale(0.996264)"/>
       <use xlink:href="#NimbusSanL-Regu-63" transform="translate(321.093446 0) scale(0.996264)"/>
       <use xlink:href="#NimbusSanL-Regu-36" transform="translate(398.601816 0) scale(0.996264)"/>
       <use xlink:href="#NimbusSanL-Regu-34" transform="translate(453.993493 0) scale(0.996264)"/>
       <use xlink:href="#NimbusSanL-Regu-4d" transform="translate(509.38517 0) scale(0.996264)"/>
       <use xlink:href="#NimbusSanL-Regu-42" transform="translate(592.3736 0) scale(0.996264)"/>
      </g>
     </g>
    </g>
    <g id="xtick_4">
     <g id="line2d_7"/>
     <g id="line2d_8"/>
     <g id="text_4">
      <!-- dynamic 128MB -->
      <g transform="translate(166.950711 341.95404) rotate(-40) scale(0.18 -0.18)">
       <defs>
        <path id="NimbusSanL-Regu-38" d="M 2502 2399 
C 2970 2680 3123 2910 3123 3338 
C 3123 4046 2566 4544 1760 4544 
C 960 4544 397 4046 397 3338 
C 397 2917 550 2687 1011 2399 
C 493 2150 237 1774 237 1276 
C 237 446 864 -128 1760 -128 
C 2656 -128 3283 447 3283 1270 
C 3283 1774 3027 2150 2502 2399 
z
M 1760 4044 
C 2240 4044 2547 3764 2547 3325 
C 2547 2904 2234 2624 1760 2624 
C 1286 2624 973 2904 973 3331 
C 973 3764 1286 4044 1760 4044 
z
M 1760 2149 
C 2323 2149 2707 1792 2707 1263 
C 2707 729 2323 372 1747 372 
C 1197 372 813 735 813 1263 
C 813 1792 1197 2149 1760 2149 
z
" transform="scale(0.015625)"/>
       </defs>
       <use xlink:href="#NimbusSanL-Regu-64" transform="scale(0.996264)"/>
       <use xlink:href="#NimbusSanL-Regu-79" transform="translate(55.391677 0) scale(0.996264)"/>
       <use xlink:href="#NimbusSanL-Regu-6e" transform="translate(105.204877 0) scale(0.996264)"/>
       <use xlink:href="#NimbusSanL-Regu-61" transform="translate(160.596554 0) scale(0.996264)"/>
       <use xlink:href="#NimbusSanL-Regu-6d" transform="translate(215.988231 0) scale(0.996264)"/>
       <use xlink:href="#NimbusSanL-Regu-69" transform="translate(298.976662 0) scale(0.996264)"/>
       <use xlink:href="#NimbusSanL-Regu-63" transform="translate(321.093446 0) scale(0.996264)"/>
       <use xlink:href="#NimbusSanL-Regu-31" transform="translate(398.601816 0) scale(0.996264)"/>
       <use xlink:href="#NimbusSanL-Regu-32" transform="translate(453.993493 0) scale(0.996264)"/>
       <use xlink:href="#NimbusSanL-Regu-38" transform="translate(509.38517 0) scale(0.996264)"/>
       <use xlink:href="#NimbusSanL-Regu-4d" transform="translate(564.776847 0) scale(0.996264)"/>
       <use xlink:href="#NimbusSanL-Regu-42" transform="translate(647.765277 0) scale(0.996264)"/>
      </g>
     </g>
    </g>
    <g id="xtick_5">
     <g id="line2d_9"/>
     <g id="line2d_10"/>
     <g id="text_5">
      <!-- dynamic 256MB -->
      <g transform="translate(222.161709 341.95404) rotate(-40) scale(0.18 -0.18)">
       <defs>
        <path id="NimbusSanL-Regu-35" d="M 3046 4544 
L 704 4544 
L 365 2086 
L 883 2086 
C 1146 2399 1363 2508 1715 2508 
C 2323 2508 2707 2092 2707 1421 
C 2707 768 2330 372 1715 372 
C 1222 372 922 621 787 1133 
L 224 1133 
C 301 762 365 582 499 415 
C 755 70 1216 -128 1728 -128 
C 2643 -128 3283 537 3283 1497 
C 3283 2394 2688 3008 1818 3008 
C 1498 3008 1242 2925 979 2732 
L 1158 3987 
L 3046 3987 
L 3046 4544 
z
" transform="scale(0.015625)"/>
       </defs>
       <use xlink:href="#NimbusSanL-Regu-64" transform="scale(0.996264)"/>
       <use xlink:href="#NimbusSanL-Regu-79" transform="translate(55.391677 0) scale(0.996264)"/>
       <use xlink:href="#NimbusSanL-Regu-6e" transform="translate(105.204877 0) scale(0.996264)"/>
       <use xlink:href="#NimbusSanL-Regu-61" transform="translate(160.596554 0) scale(0.996264)"/>
       <use xlink:href="#NimbusSanL-Regu-6d" transform="translate(215.988231 0) scale(0.996264)"/>
       <use xlink:href="#NimbusSanL-Regu-69" transform="translate(298.976662 0) scale(0.996264)"/>
       <use xlink:href="#NimbusSanL-Regu-63" transform="translate(321.093446 0) scale(0.996264)"/>
       <use xlink:href="#NimbusSanL-Regu-32" transform="translate(398.601816 0) scale(0.996264)"/>
       <use xlink:href="#NimbusSanL-Regu-35" transform="translate(453.993493 0) scale(0.996264)"/>
       <use xlink:href="#NimbusSanL-Regu-36" transform="translate(509.38517 0) scale(0.996264)"/>
       <use xlink:href="#NimbusSanL-Regu-4d" transform="translate(564.776847 0) scale(0.996264)"/>
       <use xlink:href="#NimbusSanL-Regu-42" transform="translate(647.765277 0) scale(0.996264)"/>
      </g>
     </g>
    </g>
    <g id="xtick_6">
     <g id="line2d_11"/>
     <g id="line2d_12"/>
     <g id="text_6">
      <!-- dynamic 512MB -->
      <g transform="translate(277.372707 341.95404) rotate(-40) scale(0.18 -0.18)">
       <use xlink:href="#NimbusSanL-Regu-64" transform="scale(0.996264)"/>
       <use xlink:href="#NimbusSanL-Regu-79" transform="translate(55.391677 0) scale(0.996264)"/>
       <use xlink:href="#NimbusSanL-Regu-6e" transform="translate(105.204877 0) scale(0.996264)"/>
       <use xlink:href="#NimbusSanL-Regu-61" transform="translate(160.596554 0) scale(0.996264)"/>
       <use xlink:href="#NimbusSanL-Regu-6d" transform="translate(215.988231 0) scale(0.996264)"/>
       <use xlink:href="#NimbusSanL-Regu-69" transform="translate(298.976662 0) scale(0.996264)"/>
       <use xlink:href="#NimbusSanL-Regu-63" transform="translate(321.093446 0) scale(0.996264)"/>
       <use xlink:href="#NimbusSanL-Regu-35" transform="translate(398.601816 0) scale(0.996264)"/>
       <use xlink:href="#NimbusSanL-Regu-31" transform="translate(453.993493 0) scale(0.996264)"/>
       <use xlink:href="#NimbusSanL-Regu-32" transform="translate(509.38517 0) scale(0.996264)"/>
       <use xlink:href="#NimbusSanL-Regu-4d" transform="translate(564.776847 0) scale(0.996264)"/>
       <use xlink:href="#NimbusSanL-Regu-42" transform="translate(647.765277 0) scale(0.996264)"/>
      </g>
     </g>
    </g>
    <g id="xtick_7">
     <g id="line2d_13"/>
     <g id="line2d_14"/>
     <g id="text_7">
      <!-- dynamic 1GB -->
      <g transform="translate(348.828344 328.756374) rotate(-40) scale(0.18 -0.18)">
       <use xlink:href="#NimbusSanL-Regu-64" transform="scale(0.996264)"/>
       <use xlink:href="#NimbusSanL-Regu-79" transform="translate(55.391677 0) scale(0.996264)"/>
       <use xlink:href="#NimbusSanL-Regu-6e" transform="translate(105.204877 0) scale(0.996264)"/>
       <use xlink:href="#NimbusSanL-Regu-61" transform="translate(160.596554 0) scale(0.996264)"/>
       <use xlink:href="#NimbusSanL-Regu-6d" transform="translate(215.988231 0) scale(0.996264)"/>
       <use xlink:href="#NimbusSanL-Regu-69" transform="translate(298.976662 0) scale(0.996264)"/>
       <use xlink:href="#NimbusSanL-Regu-63" transform="translate(321.093446 0) scale(0.996264)"/>
       <use xlink:href="#NimbusSanL-Regu-31" transform="translate(398.601816 0) scale(0.996264)"/>
       <use xlink:href="#NimbusSanL-Regu-47" transform="translate(453.993493 0) scale(0.996264)"/>
       <use xlink:href="#NimbusSanL-Regu-42" transform="translate(531.501863 0) scale(0.996264)"/>
      </g>
     </g>
    </g>
    <g id="xtick_8">
     <g id="line2d_15"/>
     <g id="line2d_16"/>
     <g id="text_8">
      <!-- dynamic 2GB -->
      <g transform="translate(404.039342 328.756374) rotate(-40) scale(0.18 -0.18)">
       <use xlink:href="#NimbusSanL-Regu-64" transform="scale(0.996264)"/>
       <use xlink:href="#NimbusSanL-Regu-79" transform="translate(55.391677 0) scale(0.996264)"/>
       <use xlink:href="#NimbusSanL-Regu-6e" transform="translate(105.204877 0) scale(0.996264)"/>
       <use xlink:href="#NimbusSanL-Regu-61" transform="translate(160.596554 0) scale(0.996264)"/>
       <use xlink:href="#NimbusSanL-Regu-6d" transform="translate(215.988231 0) scale(0.996264)"/>
       <use xlink:href="#NimbusSanL-Regu-69" transform="translate(298.976662 0) scale(0.996264)"/>
       <use xlink:href="#NimbusSanL-Regu-63" transform="translate(321.093446 0) scale(0.996264)"/>
       <use xlink:href="#NimbusSanL-Regu-32" transform="translate(398.601816 0) scale(0.996264)"/>
       <use xlink:href="#NimbusSanL-Regu-47" transform="translate(453.993493 0) scale(0.996264)"/>
       <use xlink:href="#NimbusSanL-Regu-42" transform="translate(531.501863 0) scale(0.996264)"/>
      </g>
     </g>
    </g>
    <g id="xtick_9">
     <g id="line2d_17"/>
     <g id="line2d_18"/>
     <g id="text_9">
      <!-- dynamic 3GB -->
      <g transform="translate(459.25034 328.756374) rotate(-40) scale(0.18 -0.18)">
       <use xlink:href="#NimbusSanL-Regu-64" transform="scale(0.996264)"/>
       <use xlink:href="#NimbusSanL-Regu-79" transform="translate(55.391677 0) scale(0.996264)"/>
       <use xlink:href="#NimbusSanL-Regu-6e" transform="translate(105.204877 0) scale(0.996264)"/>
       <use xlink:href="#NimbusSanL-Regu-61" transform="translate(160.596554 0) scale(0.996264)"/>
       <use xlink:href="#NimbusSanL-Regu-6d" transform="translate(215.988231 0) scale(0.996264)"/>
       <use xlink:href="#NimbusSanL-Regu-69" transform="translate(298.976662 0) scale(0.996264)"/>
       <use xlink:href="#NimbusSanL-Regu-63" transform="translate(321.093446 0) scale(0.996264)"/>
       <use xlink:href="#NimbusSanL-Regu-33" transform="translate(398.601816 0) scale(0.996264)"/>
       <use xlink:href="#NimbusSanL-Regu-47" transform="translate(453.993493 0) scale(0.996264)"/>
       <use xlink:href="#NimbusSanL-Regu-42" transform="translate(531.501863 0) scale(0.996264)"/>
      </g>
     </g>
    </g>
   </g>
   <g id="matplotlib.axis_2">
    <g id="ytick_1">
     <g id="line2d_19">
      <path d="M 63.981019 245.530364 
L 560.88 245.530364 
" clip-path="url(#pd21883880d)" style="fill: none; stroke-dasharray: 1,3; stroke-dashoffset: 0; stroke: #000000; stroke-opacity: 0.5; stroke-width: 0.5"/>
     </g>
     <g id="line2d_20"/>
     <g id="line2d_21"/>
     <g id="text_10">
      <!-- 0 -->
      <g transform="translate(52.226195 249.0138) scale(0.14 -0.14)">
       <defs>
        <path id="NimbusSanL-Regu-30" d="M 1760 4544 
C 1338 4544 954 4360 717 4046 
C 422 3651 275 3044 275 2208 
C 275 683 787 -128 1760 -128 
C 2720 -128 3245 683 3245 2170 
C 3245 3050 3104 3638 2803 4046 
C 2566 4366 2189 4544 1760 4544 
z
M 1760 4044 
C 2368 4044 2669 3432 2669 2221 
C 2669 939 2374 340 1747 340 
C 1152 340 851 965 851 2202 
C 851 3438 1152 4044 1760 4044 
z
" transform="scale(0.015625)"/>
       </defs>
       <use xlink:href="#NimbusSanL-Regu-30" transform="scale(0.996264)"/>
      </g>
     </g>
    </g>
    <g id="ytick_2">
     <g id="line2d_22">
      <path d="M 63.981019 175.283302 
L 560.88 175.283302 
" clip-path="url(#pd21883880d)" style="fill: none; stroke-dasharray: 1,3; stroke-dashoffset: 0; stroke: #000000; stroke-opacity: 0.5; stroke-width: 0.5"/>
     </g>
     <g id="line2d_23"/>
     <g id="line2d_24"/>
     <g id="text_11">
      <!-- 50 -->
      <g transform="translate(44.47137 178.766737) scale(0.14 -0.14)">
       <use xlink:href="#NimbusSanL-Regu-35" transform="scale(0.996264)"/>
       <use xlink:href="#NimbusSanL-Regu-30" transform="translate(55.391677 0) scale(0.996264)"/>
      </g>
     </g>
    </g>
    <g id="ytick_3">
     <g id="line2d_25">
      <path d="M 63.981019 105.03624 
L 560.88 105.03624 
" clip-path="url(#pd21883880d)" style="fill: none; stroke-dasharray: 1,3; stroke-dashoffset: 0; stroke: #000000; stroke-opacity: 0.5; stroke-width: 0.5"/>
     </g>
     <g id="line2d_26"/>
     <g id="line2d_27"/>
     <g id="text_12">
      <!-- 100 -->
      <g transform="translate(36.716546 108.519675) scale(0.14 -0.14)">
       <use xlink:href="#NimbusSanL-Regu-31" transform="scale(0.996264)"/>
       <use xlink:href="#NimbusSanL-Regu-30" transform="translate(55.391677 0) scale(0.996264)"/>
       <use xlink:href="#NimbusSanL-Regu-30" transform="translate(110.783354 0) scale(0.996264)"/>
      </g>
     </g>
    </g>
    <g id="ytick_4">
     <g id="line2d_28">
      <path d="M 63.981019 34.789177 
L 560.88 34.789177 
" clip-path="url(#pd21883880d)" style="fill: none; stroke-dasharray: 1,3; stroke-dashoffset: 0; stroke: #000000; stroke-opacity: 0.5; stroke-width: 0.5"/>
     </g>
     <g id="line2d_29"/>
     <g id="line2d_30"/>
     <g id="text_13">
      <!-- 150 -->
      <g transform="translate(36.716546 38.272613) scale(0.14 -0.14)">
       <use xlink:href="#NimbusSanL-Regu-31" transform="scale(0.996264)"/>
       <use xlink:href="#NimbusSanL-Regu-35" transform="translate(55.391677 0) scale(0.996264)"/>
       <use xlink:href="#NimbusSanL-Regu-30" transform="translate(110.783354 0) scale(0.996264)"/>
      </g>
     </g>
    </g>
    <g id="text_14">
     <!-- Boot Time in Microseconds -->
     <g transform="translate(27.896976 238.449562) rotate(-90) scale(0.18 -0.18)">
      <defs>
       <path id="NimbusSanL-Regu-6f" d="M 1741 3456 
C 800 3456 230 2786 230 1663 
C 230 541 794 -128 1747 -128 
C 2688 -128 3264 541 3264 1638 
C 3264 2792 2707 3456 1741 3456 
z
M 1747 2962 
C 2349 2962 2707 2472 2707 1645 
C 2707 861 2336 365 1747 365 
C 1152 365 787 855 787 1663 
C 787 2466 1152 2962 1747 2962 
z
" transform="scale(0.015625)"/>
       <path id="NimbusSanL-Regu-54" d="M 2266 4146 
L 3795 4146 
L 3795 4672 
L 134 4672 
L 134 4146 
L 1670 4146 
L 1670 -14 
L 2266 -14 
L 2266 4146 
z
" transform="scale(0.015625)"/>
       <path id="NimbusSanL-Regu-65" d="M 3283 1529 
C 3283 2034 3245 2338 3149 2584 
C 2931 3127 2419 3456 1792 3456 
C 858 3456 256 2742 256 1645 
C 256 547 838 -128 1779 -128 
C 2547 -128 3078 310 3213 1044 
L 2675 1044 
C 2528 598 2227 365 1798 365 
C 1459 365 1171 520 992 805 
C 864 998 819 1193 813 1529 
L 3283 1529 
z
M 826 1984 
C 870 2577 1248 2962 1786 2962 
C 2310 2962 2714 2530 2714 1984 
C 2714 1984 2714 1984 2707 1984 
L 826 1984 
z
" transform="scale(0.015625)"/>
       <path id="NimbusSanL-Regu-72" d="M 442 3359 
L 442 0 
L 979 0 
L 979 1741 
C 979 2221 1101 2535 1357 2720 
C 1523 2842 1683 2880 2054 2880 
L 2054 3432 
C 1965 3444 1920 3444 1850 3444 
C 1504 3444 1242 3240 934 2746 
L 934 3359 
L 442 3359 
z
" transform="scale(0.015625)"/>
      </defs>
      <use xlink:href="#NimbusSanL-Regu-42" transform="scale(0.996264)"/>
      <use xlink:href="#NimbusSanL-Regu-6f" transform="translate(66.450031 0) scale(0.996264)"/>
      <use xlink:href="#NimbusSanL-Regu-6f" transform="translate(121.841708 0) scale(0.996264)"/>
      <use xlink:href="#NimbusSanL-Regu-74" transform="translate(177.233385 0) scale(0.996264)"/>
      <use xlink:href="#NimbusSanL-Regu-54" transform="translate(232.623724 0) scale(0.996264)"/>
      <use xlink:href="#NimbusSanL-Regu-69" transform="translate(293.495355 0) scale(0.996264)"/>
      <use xlink:href="#NimbusSanL-Regu-6d" transform="translate(315.612139 0) scale(0.996264)"/>
      <use xlink:href="#NimbusSanL-Regu-65" transform="translate(398.60057 0) scale(0.996264)"/>
      <use xlink:href="#NimbusSanL-Regu-69" transform="translate(481.687416 0) scale(0.996264)"/>
      <use xlink:href="#NimbusSanL-Regu-6e" transform="translate(503.8042 0) scale(0.996264)"/>
      <use xlink:href="#NimbusSanL-Regu-4d" transform="translate(586.891047 0) scale(0.996264)"/>
      <use xlink:href="#NimbusSanL-Regu-69" transform="translate(669.879477 0) scale(0.996264)"/>
      <use xlink:href="#NimbusSanL-Regu-63" transform="translate(691.996262 0) scale(0.996264)"/>
      <use xlink:href="#NimbusSanL-Regu-72" transform="translate(741.809462 0) scale(0.996264)"/>
      <use xlink:href="#NimbusSanL-Regu-6f" transform="translate(774.984692 0) scale(0.996264)"/>
      <use xlink:href="#NimbusSanL-Regu-73" transform="translate(830.376369 0) scale(0.996264)"/>
      <use xlink:href="#NimbusSanL-Regu-65" transform="translate(880.189569 0) scale(0.996264)"/>
      <use xlink:href="#NimbusSanL-Regu-63" transform="translate(935.581246 0) scale(0.996264)"/>
      <use xlink:href="#NimbusSanL-Regu-6f" transform="translate(985.394447 0) scale(0.996264)"/>
      <use xlink:href="#NimbusSanL-Regu-6e" transform="translate(1040.786124 0) scale(0.996264)"/>
      <use xlink:href="#NimbusSanL-Regu-64" transform="translate(1096.177801 0) scale(0.996264)"/>
      <use xlink:href="#NimbusSanL-Regu-73" transform="translate(1151.569478 0) scale(0.996264)"/>
     </g>
    </g>
   </g>
   <g id="patch_7">
    <path d="M 80.544319 245.530364 
L 102.628718 245.530364 
L 102.628718 204.456317 
L 80.544319 204.456317 
z
" clip-path="url(#pd21883880d)" style="fill: #5697c4; stroke: #000000; stroke-width: 0.5; stroke-linejoin: miter"/>
   </g>
   <g id="patch_8">
    <path d="M 135.755316 245.530364 
L 157.839716 245.530364 
L 157.839716 180.308566 
L 135.755316 180.308566 
z
" clip-path="url(#pd21883880d)" style="fill: #5697c4; stroke: #000000; stroke-width: 0.5; stroke-linejoin: miter"/>
   </g>
   <g id="patch_9">
    <path d="M 190.966314 245.530364 
L 213.050713 245.530364 
L 213.050713 170.630066 
L 190.966314 170.630066 
z
" clip-path="url(#pd21883880d)" style="fill: #5697c4; stroke: #000000; stroke-width: 0.5; stroke-linejoin: miter"/>
   </g>
   <g id="patch_10">
    <path d="M 246.177312 245.530364 
L 268.261711 245.530364 
L 268.261711 168.821879 
L 246.177312 168.821879 
z
" clip-path="url(#pd21883880d)" style="fill: #5697c4; stroke: #000000; stroke-width: 0.5; stroke-linejoin: miter"/>
   </g>
   <g id="patch_11">
    <path d="M 301.38831 245.530364 
L 323.472709 245.530364 
L 323.472709 165.527643 
L 301.38831 165.527643 
z
" clip-path="url(#pd21883880d)" style="fill: #5697c4; stroke: #000000; stroke-width: 0.5; stroke-linejoin: miter"/>
   </g>
   <g id="patch_12">
    <path d="M 356.599308 245.530364 
L 378.683707 245.530364 
L 378.683707 158.951225 
L 356.599308 158.951225 
z
" clip-path="url(#pd21883880d)" style="fill: #5697c4; stroke: #000000; stroke-width: 0.5; stroke-linejoin: miter"/>
   </g>
   <g id="patch_13">
    <path d="M 411.810306 245.530364 
L 433.894705 245.530364 
L 433.894705 145.185513 
L 411.810306 145.185513 
z
" clip-path="url(#pd21883880d)" style="fill: #5697c4; stroke: #000000; stroke-width: 0.5; stroke-linejoin: miter"/>
   </g>
   <g id="patch_14">
    <path d="M 467.021304 245.530364 
L 489.105703 245.530364 
L 489.105703 115.158322 
L 467.021304 115.158322 
z
" clip-path="url(#pd21883880d)" style="fill: #5697c4; stroke: #000000; stroke-width: 0.5; stroke-linejoin: miter"/>
   </g>
   <g id="patch_15">
    <path d="M 522.232301 245.530364 
L 544.316701 245.530364 
L 544.316701 85.975683 
L 522.232301 85.975683 
z
" clip-path="url(#pd21883880d)" style="fill: #5697c4; stroke: #000000; stroke-width: 0.5; stroke-linejoin: miter"/>
   </g>
   <g id="LineCollection_1">
    <path d="M 91.586518 204.759784 
L 91.586518 204.15285 
" clip-path="url(#pd21883880d)" style="fill: none; stroke: #000000; stroke-width: 2"/>
   </g>
   <g id="line2d_31">
    <defs>
     <path id="m54bac8ac52" d="M 10 0 
L -10 -0 
" style="stroke: #000000"/>
    </defs>
    <g clip-path="url(#pd21883880d)">
     <use xlink:href="#m54bac8ac52" x="91.586518" y="204.759784" style="fill: #0000ff; stroke: #000000"/>
    </g>
   </g>
   <g id="line2d_32">
    <g clip-path="url(#pd21883880d)">
     <use xlink:href="#m54bac8ac52" x="91.586518" y="204.15285" style="fill: #0000ff; stroke: #000000"/>
    </g>
   </g>
   <g id="LineCollection_2">
    <path d="M 146.797516 180.5401 
L 146.797516 180.077032 
" clip-path="url(#pd21883880d)" style="fill: none; stroke: #000000; stroke-width: 2"/>
   </g>
   <g id="line2d_33">
    <g clip-path="url(#pd21883880d)">
     <use xlink:href="#m54bac8ac52" x="146.797516" y="180.5401" style="fill: #0000ff; stroke: #000000"/>
    </g>
   </g>
   <g id="line2d_34">
    <g clip-path="url(#pd21883880d)">
     <use xlink:href="#m54bac8ac52" x="146.797516" y="180.077032" style="fill: #0000ff; stroke: #000000"/>
    </g>
   </g>
   <g id="LineCollection_3">
    <path d="M 202.008514 171.082036 
L 202.008514 170.178097 
" clip-path="url(#pd21883880d)" style="fill: none; stroke: #000000; stroke-width: 2"/>
   </g>
   <g id="line2d_35">
    <g clip-path="url(#pd21883880d)">
     <use xlink:href="#m54bac8ac52" x="202.008514" y="171.082036" style="fill: #0000ff; stroke: #000000"/>
    </g>
   </g>
   <g id="line2d_36">
    <g clip-path="url(#pd21883880d)">
     <use xlink:href="#m54bac8ac52" x="202.008514" y="170.178097" style="fill: #0000ff; stroke: #000000"/>
    </g>
   </g>
   <g id="LineCollection_4">
    <path d="M 257.219512 169.192362 
L 257.219512 168.451396 
" clip-path="url(#pd21883880d)" style="fill: none; stroke: #000000; stroke-width: 2"/>
   </g>
   <g id="line2d_37">
    <g clip-path="url(#pd21883880d)">
     <use xlink:href="#m54bac8ac52" x="257.219512" y="169.192362" style="fill: #0000ff; stroke: #000000"/>
    </g>
   </g>
   <g id="line2d_38">
    <g clip-path="url(#pd21883880d)">
     <use xlink:href="#m54bac8ac52" x="257.219512" y="168.451396" style="fill: #0000ff; stroke: #000000"/>
    </g>
   </g>
   <g id="LineCollection_5">
    <path d="M 312.43051 166.206651 
L 312.43051 164.848635 
" clip-path="url(#pd21883880d)" style="fill: none; stroke: #000000; stroke-width: 2"/>
   </g>
   <g id="line2d_39">
    <g clip-path="url(#pd21883880d)">
     <use xlink:href="#m54bac8ac52" x="312.43051" y="166.206651" style="fill: #0000ff; stroke: #000000"/>
    </g>
   </g>
   <g id="line2d_40">
    <g clip-path="url(#pd21883880d)">
     <use xlink:href="#m54bac8ac52" x="312.43051" y="164.848635" style="fill: #0000ff; stroke: #000000"/>
    </g>
   </g>
   <g id="LineCollection_6">
    <path d="M 367.641507 159.4216 
L 367.641507 158.480851 
" clip-path="url(#pd21883880d)" style="fill: none; stroke: #000000; stroke-width: 2"/>
   </g>
   <g id="line2d_41">
    <g clip-path="url(#pd21883880d)">
     <use xlink:href="#m54bac8ac52" x="367.641507" y="159.4216" style="fill: #0000ff; stroke: #000000"/>
    </g>
   </g>
   <g id="line2d_42">
    <g clip-path="url(#pd21883880d)">
     <use xlink:href="#m54bac8ac52" x="367.641507" y="158.480851" style="fill: #0000ff; stroke: #000000"/>
    </g>
   </g>
   <g id="LineCollection_7">
    <path d="M 422.852505 145.706746 
L 422.852505 144.664279 
" clip-path="url(#pd21883880d)" style="fill: none; stroke: #000000; stroke-width: 2"/>
   </g>
   <g id="line2d_43">
    <g clip-path="url(#pd21883880d)">
     <use xlink:href="#m54bac8ac52" x="422.852505" y="145.706746" style="fill: #0000ff; stroke: #000000"/>
    </g>
   </g>
   <g id="line2d_44">
    <g clip-path="url(#pd21883880d)">
     <use xlink:href="#m54bac8ac52" x="422.852505" y="144.664279" style="fill: #0000ff; stroke: #000000"/>
    </g>
   </g>
   <g id="LineCollection_8">
    <path d="M 478.063503 116.576891 
L 478.063503 113.739752 
" clip-path="url(#pd21883880d)" style="fill: none; stroke: #000000; stroke-width: 2"/>
   </g>
   <g id="line2d_45">
    <g clip-path="url(#pd21883880d)">
     <use xlink:href="#m54bac8ac52" x="478.063503" y="116.576891" style="fill: #0000ff; stroke: #000000"/>
    </g>
   </g>
   <g id="line2d_46">
    <g clip-path="url(#pd21883880d)">
     <use xlink:href="#m54bac8ac52" x="478.063503" y="113.739752" style="fill: #0000ff; stroke: #000000"/>
    </g>
   </g>
   <g id="LineCollection_9">
    <path d="M 533.274501 86.39295 
L 533.274501 85.558415 
" clip-path="url(#pd21883880d)" style="fill: none; stroke: #000000; stroke-width: 2"/>
   </g>
   <g id="line2d_47">
    <g clip-path="url(#pd21883880d)">
     <use xlink:href="#m54bac8ac52" x="533.274501" y="86.39295" style="fill: #0000ff; stroke: #000000"/>
    </g>
   </g>
   <g id="line2d_48">
    <g clip-path="url(#pd21883880d)">
     <use xlink:href="#m54bac8ac52" x="533.274501" y="85.558415" style="fill: #0000ff; stroke: #000000"/>
    </g>
   </g>
   <g id="text_15">
    <g id="patch_16">
     <path d="M 99.344791 189.721381 
L 99.344791 170.860382 
L 83.828245 170.860382 
L 83.828245 189.721381 
z
" style="fill: #ffffff"/>
    </g>
    <!-- 29 -->
    <g transform="translate(96.065222 190.261381) rotate(-90) scale(0.18 -0.18)">
     <defs>
      <path id="NimbusSanL-Regu-39" d="M 339 1064 
C 448 316 934 -128 1626 -128 
C 2125 -128 2579 114 2842 516 
C 3130 956 3258 1512 3258 2335 
C 3258 3095 3142 3580 2874 3982 
C 2624 4347 2227 4544 1728 4544 
C 864 4544 243 3909 243 3027 
C 243 2190 819 1600 1638 1600 
C 2067 1600 2381 1754 2675 2106 
C 2669 991 2310 372 1664 372 
C 1267 372 992 624 902 1064 
L 339 1064 
z
M 1722 4051 
C 2246 4051 2643 3622 2643 3041 
C 2643 2491 2253 2100 1702 2100 
C 1158 2100 819 2472 819 3072 
C 819 3640 1203 4051 1722 4051 
z
" transform="scale(0.015625)"/>
     </defs>
     <use xlink:href="#NimbusSanL-Regu-32" transform="scale(0.996264)"/>
     <use xlink:href="#NimbusSanL-Regu-39" transform="translate(55.391677 0) scale(0.996264)"/>
    </g>
   </g>
   <g id="text_16">
    <g id="patch_17">
     <path d="M 154.555789 165.543747 
L 154.555789 146.682748 
L 139.039243 146.682748 
L 139.039243 165.543747 
z
" style="fill: #ffffff"/>
    </g>
    <!-- 46 -->
    <g transform="translate(151.27622 166.083747) rotate(-90) scale(0.18 -0.18)">
     <use xlink:href="#NimbusSanL-Regu-34" transform="scale(0.996264)"/>
     <use xlink:href="#NimbusSanL-Regu-36" transform="translate(55.391677 0) scale(0.996264)"/>
    </g>
   </g>
   <g id="text_17">
    <g id="patch_18">
     <path d="M 209.766787 155.749901 
L 209.766787 136.888902 
L 194.250241 136.888902 
L 194.250241 155.749901 
z
" style="fill: #ffffff"/>
    </g>
    <!-- 53 -->
    <g transform="translate(206.487217 156.289901) rotate(-90) scale(0.18 -0.18)">
     <use xlink:href="#NimbusSanL-Regu-35" transform="scale(0.996264)"/>
     <use xlink:href="#NimbusSanL-Regu-33" transform="translate(55.391677 0) scale(0.996264)"/>
    </g>
   </g>
   <g id="text_18">
    <g id="patch_19">
     <path d="M 264.977785 154.000749 
L 264.977785 135.139751 
L 249.461239 135.139751 
L 249.461239 154.000749 
z
" style="fill: #ffffff"/>
    </g>
    <!-- 55 -->
    <g transform="translate(261.698215 154.540749) rotate(-90) scale(0.18 -0.18)">
     <use xlink:href="#NimbusSanL-Regu-35" transform="scale(0.996264)"/>
     <use xlink:href="#NimbusSanL-Regu-35" transform="translate(55.391677 0) scale(0.996264)"/>
    </g>
   </g>
   <g id="text_19">
    <g id="patch_20">
     <path d="M 320.188783 150.435009 
L 320.188783 131.57401 
L 304.672237 131.57401 
L 304.672237 150.435009 
z
" style="fill: #ffffff"/>
    </g>
    <!-- 57 -->
    <g transform="translate(316.909213 150.975009) rotate(-90) scale(0.18 -0.18)">
     <defs>
      <path id="NimbusSanL-Regu-37" d="M 3328 4525 
L 294 4525 
L 294 3968 
L 2746 3968 
C 1664 2418 1222 1466 883 -32 
L 1485 -32 
C 1734 1427 2304 2681 3328 4051 
L 3328 4525 
z
" transform="scale(0.015625)"/>
     </defs>
     <use xlink:href="#NimbusSanL-Regu-35" transform="scale(0.996264)"/>
     <use xlink:href="#NimbusSanL-Regu-37" transform="translate(55.391677 0) scale(0.996264)"/>
    </g>
   </g>
   <g id="text_20">
    <g id="patch_21">
     <path d="M 375.39978 144.053484 
L 375.39978 125.192486 
L 359.883235 125.192486 
L 359.883235 144.053484 
z
" style="fill: #ffffff"/>
    </g>
    <!-- 62 -->
    <g transform="translate(372.120211 144.593484) rotate(-90) scale(0.18 -0.18)">
     <use xlink:href="#NimbusSanL-Regu-36" transform="scale(0.996264)"/>
     <use xlink:href="#NimbusSanL-Regu-32" transform="translate(55.391677 0) scale(0.996264)"/>
    </g>
   </g>
   <g id="text_21">
    <g id="patch_22">
     <path d="M 430.610778 130.341539 
L 430.610778 111.48054 
L 415.094232 111.48054 
L 415.094232 130.341539 
z
" style="fill: #ffffff"/>
    </g>
    <!-- 71 -->
    <g transform="translate(427.331209 130.881539) rotate(-90) scale(0.18 -0.18)">
     <use xlink:href="#NimbusSanL-Regu-37" transform="scale(0.996264)"/>
     <use xlink:href="#NimbusSanL-Regu-31" transform="translate(55.391677 0) scale(0.996264)"/>
    </g>
   </g>
   <g id="text_22">
    <g id="patch_23">
     <path d="M 485.821776 99.403328 
L 485.821776 80.542329 
L 470.30523 80.542329 
L 470.30523 99.403328 
z
" style="fill: #ffffff"/>
    </g>
    <!-- 93 -->
    <g transform="translate(482.542207 99.943328) rotate(-90) scale(0.18 -0.18)">
     <use xlink:href="#NimbusSanL-Regu-39" transform="scale(0.996264)"/>
     <use xlink:href="#NimbusSanL-Regu-33" transform="translate(55.391677 0) scale(0.996264)"/>
    </g>
   </g>
   <g id="text_23">
    <g id="patch_24">
     <path d="M 541.032774 71.120456 
L 541.032774 42.288957 
L 525.516228 42.288957 
L 525.516228 71.120456 
z
" style="fill: #ffffff"/>
    </g>
    <!-- 114 -->
    <g transform="translate(537.753205 71.660456) rotate(-90) scale(0.18 -0.18)">
     <use xlink:href="#NimbusSanL-Regu-31" transform="scale(0.996264)"/>
     <use xlink:href="#NimbusSanL-Regu-31" transform="translate(55.391677 0) scale(0.996264)"/>
     <use xlink:href="#NimbusSanL-Regu-34" transform="translate(110.783354 0) scale(0.996264)"/>
    </g>
   </g>
  </g>
 </g>
 <defs>
  <clipPath id="pd21883880d">
   <rect x="63.981019" y="15.12" width="496.898981" height="230.410364"/>
  </clipPath>
 </defs>
</svg>
