<?xml version="1.0" encoding="UTF-8" standalone="no"?>
<!DOCTYPE svg PUBLIC "-//W3C//DTD SVG 1.1//EN"
 "http://www.w3.org/Graphics/SVG/1.1/DTD/svg11.dtd">
<!-- Generated by graphviz version 2.43.0 (0)
 -->
<!-- Title: %3 Pages: 1 -->
<svg width="1228pt" height="595pt"
 viewBox="0.00 0.00 1228.00 595.00" xmlns="http://www.w3.org/2000/svg" xmlns:xlink="http://www.w3.org/1999/xlink">
<g id="graph0" class="graph" transform="scale(1 1) rotate(0) translate(4 591)">
<title>%3</title>
<polygon fill="white" stroke="transparent" points="-4,4 -4,-591 1224,-591 1224,4 -4,4"/>
<!-- fs -->
<g id="node1" class="node">
<title>fs</title>
<polygon fill="none" stroke="black" points="110.5,-255 23.5,-255 23.5,-159 110.5,-159 110.5,-255"/>
<text text-anchor="middle" x="67" y="-187" font-family="Helvetica,sans-Serif" font-size="80.00">fs</text>
</g>
<!-- posix&#45;layer -->
<g id="node2" class="node">
<title>posix&#45;layer</title>
<polygon fill="none" stroke="black" points="1008,-483 550,-483 550,-387 1008,-387 1008,-483"/>
<text text-anchor="middle" x="779" y="-415" font-family="Helvetica,sans-Serif" font-size="80.00">posix&#45;layer</text>
</g>
<!-- fs&#45;&gt;posix&#45;layer -->
<g id="edge1" class="edge">
<title>fs&#45;&gt;posix&#45;layer</title>
<path fill="none" stroke="black" d="M69.84,-255.02C75.26,-321.17 95.9,-438.24 173,-492 318.11,-593.18 532.68,-537.36 663.47,-486.8"/>
<polygon fill="black" stroke="black" points="665.09,-489.93 673.13,-483.02 662.54,-483.41 665.09,-489.93"/>
<text text-anchor="middle" x="342" y="-559" font-family="Helvetica,sans-Serif" font-size="35.00" fill="blue">17</text>
</g>
<!-- locking -->
<g id="node3" class="node">
<title>locking</title>
<polygon fill="none" stroke="black" points="493.5,-255 190.5,-255 190.5,-159 493.5,-159 493.5,-255"/>
<text text-anchor="middle" x="342" y="-187" font-family="Helvetica,sans-Serif" font-size="80.00">locking</text>
</g>
<!-- fs&#45;&gt;locking -->
<g id="edge2" class="edge">
<title>fs&#45;&gt;locking</title>
<path fill="none" stroke="black" d="M110.66,-207C130.12,-207 154.51,-207 180.09,-207"/>
<polygon fill="black" stroke="black" points="180.33,-210.5 190.33,-207 180.33,-203.5 180.33,-210.5"/>
<text text-anchor="middle" x="153.5" y="-218" font-family="Helvetica,sans-Serif" font-size="35.00" fill="blue">1</text>
</g>
<!-- sched -->
<g id="node4" class="node">
<title>sched</title>
<polygon fill="none" stroke="black" points="906,-255 652,-255 652,-159 906,-159 906,-255"/>
<text text-anchor="middle" x="779" y="-187" font-family="Helvetica,sans-Serif" font-size="80.00">sched</text>
</g>
<!-- fs&#45;&gt;sched -->
<g id="edge3" class="edge">
<title>fs&#45;&gt;sched</title>
<path fill="none" stroke="black" d="M106.54,-158.79C124.52,-140.11 147.56,-120.88 173,-111 313.04,-56.63 363.01,-85.2 511,-111 561.73,-119.84 615.56,-137.47 661.49,-155.24"/>
<polygon fill="black" stroke="black" points="660.28,-158.53 670.87,-158.91 662.83,-152.01 660.28,-158.53"/>
<text text-anchor="middle" x="342" y="-122" font-family="Helvetica,sans-Serif" font-size="35.00" fill="blue">1</text>
</g>
<!-- mm -->
<g id="node5" class="node">
<title>mm</title>
<polygon fill="none" stroke="black" points="1220,-421 1047,-421 1047,-325 1220,-325 1220,-421"/>
<text text-anchor="middle" x="1133.5" y="-353" font-family="Helvetica,sans-Serif" font-size="80.00">mm</text>
</g>
<!-- posix&#45;layer&#45;&gt;mm -->
<g id="edge8" class="edge">
<title>posix&#45;layer&#45;&gt;mm</title>
<path fill="none" stroke="black" d="M990.74,-386.99C996.64,-384.16 1002.41,-381.17 1008,-378 1012.38,-375.52 1011.35,-371.92 1016,-370 1023.38,-366.94 1027.03,-368.56 1036.91,-369.56"/>
<polygon fill="black" stroke="black" points="1036.71,-373.06 1046.9,-370.14 1037.12,-366.07 1036.71,-373.06"/>
<text text-anchor="middle" x="1027.5" y="-381" font-family="Helvetica,sans-Serif" font-size="35.00" fill="blue">6</text>
</g>
<!-- locking&#45;&gt;sched -->
<g id="edge5" class="edge">
<title>locking&#45;&gt;sched</title>
<path fill="none" stroke="black" d="M493.62,-207C541.64,-207 594.49,-207 641.46,-207"/>
<polygon fill="black" stroke="black" points="641.7,-210.5 651.7,-207 641.7,-203.5 641.7,-210.5"/>
<text text-anchor="middle" x="530.5" y="-218" font-family="Helvetica,sans-Serif" font-size="35.00" fill="blue">1</text>
</g>
<!-- sched&#45;&gt;mm -->
<g id="edge9" class="edge">
<title>sched&#45;&gt;mm</title>
<path fill="none" stroke="black" d="M906.08,-227.28C940.35,-235.76 976.64,-247.59 1008,-264 1034.41,-277.82 1059.86,-298.34 1080.8,-317.86"/>
<polygon fill="black" stroke="black" points="1078.64,-320.64 1088.3,-325 1083.46,-315.57 1078.64,-320.64"/>
<text text-anchor="middle" x="1027.5" y="-294" font-family="Helvetica,sans-Serif" font-size="35.00" fill="blue">2</text>
</g>
<!-- mm&#45;&gt;posix&#45;layer -->
<g id="edge4" class="edge">
<title>mm&#45;&gt;posix&#45;layer</title>
<path fill="none" stroke="black" d="M1046.76,-410.9C1044.16,-411.66 1041.57,-412.36 1039,-413 1032.23,-414.69 1025.34,-416.25 1018.36,-417.7"/>
<polygon fill="black" stroke="black" points="1017.2,-414.36 1008.08,-419.74 1018.57,-421.23 1017.2,-414.36"/>
<text text-anchor="middle" x="1027.5" y="-428" font-family="Helvetica,sans-Serif" font-size="35.00" fill="blue">1</text>
</g>
<!-- ipc -->
<g id="node6" class="node">
<title>ipc</title>
<polygon fill="none" stroke="black" points="134,-96 0,-96 0,0 134,0 134,-96"/>
<text text-anchor="middle" x="67" y="-28" font-family="Helvetica,sans-Serif" font-size="80.00">ipc</text>
</g>
<!-- ipc&#45;&gt;locking -->
<g id="edge6" class="edge">
<title>ipc&#45;&gt;locking</title>
<path fill="none" stroke="black" d="M112.33,-96.22C129.95,-113.34 151.2,-131.65 173,-145 178.31,-148.25 183.81,-151.37 189.45,-154.36"/>
<polygon fill="black" stroke="black" points="187.91,-157.51 198.41,-158.96 191.11,-151.28 187.91,-157.51"/>
<text text-anchor="middle" x="153.5" y="-149" font-family="Helvetica,sans-Serif" font-size="35.00" fill="blue">1</text>
</g>
<!-- security -->
<g id="node7" class="node">
<title>security</title>
<polygon fill="none" stroke="black" points="511,-483 173,-483 173,-387 511,-387 511,-483"/>
<text text-anchor="middle" x="342" y="-415" font-family="Helvetica,sans-Serif" font-size="80.00">security</text>
</g>
<!-- security&#45;&gt;posix&#45;layer -->
<g id="edge7" class="edge">
<title>security&#45;&gt;posix&#45;layer</title>
<path fill="none" stroke="black" d="M511.18,-435C520.59,-435 530.12,-435 539.71,-435"/>
<polygon fill="black" stroke="black" points="539.72,-438.5 549.72,-435 539.72,-431.5 539.72,-438.5"/>
<text text-anchor="middle" x="530.5" y="-446" font-family="Helvetica,sans-Serif" font-size="35.00" fill="blue">1</text>
</g>
<!-- nginx -->
<g id="node8" class="node">
<title>nginx</title>
<polygon fill="black" stroke="black" points="461.5,-369 222.5,-369 222.5,-273 461.5,-273 461.5,-369"/>
<text text-anchor="middle" x="342" y="-301" font-family="Helvetica,sans-Serif" font-size="80.00" fill="white">nginx</text>
</g>
<!-- nginx&#45;&gt;posix&#45;layer -->
<g id="edge10" class="edge">
<title>nginx&#45;&gt;posix&#45;layer</title>
<path fill="none" stroke="black" d="M531.5,-321C557.97,-324 530.53,-359.83 550,-378 550.82,-378.77 551.65,-379.52 552.49,-380.27"/>
<polygon fill="black" stroke="black" points="550.32,-383.02 560.24,-386.72 554.79,-377.63 550.32,-383.02"/>
</g>
<!-- net -->
<g id="node9" class="node">
<title>net</title>
<polygon fill="black" stroke="black" points="853.5,-369 704.5,-369 704.5,-273 853.5,-273 853.5,-369"/>
<text text-anchor="middle" x="779" y="-301" font-family="Helvetica,sans-Serif" font-size="80.00" fill="white">net</text>
</g>
<!-- nginx&#45;&gt;net -->
<g id="edge11" class="edge">
<title>nginx&#45;&gt;net</title>
<path fill="none" stroke="black" d="M461.62,-316.99C484.21,-317.36 507.62,-318.52 529.5,-321"/>
<path fill="none" stroke="black" d="M531.5,-321C585.49,-327.11 646.56,-327.16 694.41,-325.66"/>
<polygon fill="black" stroke="black" points="694.54,-329.16 704.41,-325.32 694.3,-322.16 694.54,-329.16"/>
</g>
</g>
</svg>
