<?xml version="1.0" encoding="utf-8" standalone="no"?>
<!DOCTYPE svg PUBLIC "-//W3C//DTD SVG 1.1//EN"
  "http://www.w3.org/Graphics/SVG/1.1/DTD/svg11.dtd">
<svg xmlns:xlink="http://www.w3.org/1999/xlink" width="560.16pt" height="343.366226pt" viewBox="0 0 560.16 343.366226" xmlns="http://www.w3.org/2000/svg" version="1.1">
 <metadata>
  <rdf:RDF xmlns:dc="http://purl.org/dc/elements/1.1/" xmlns:cc="http://creativecommons.org/ns#" xmlns:rdf="http://www.w3.org/1999/02/22-rdf-syntax-ns#">
   <cc:Work>
    <dc:type rdf:resource="http://purl.org/dc/dcmitype/StillImage"/>
    <dc:date>2026-03-24T05:06:59.871825</dc:date>
    <dc:format>image/svg+xml</dc:format>
    <dc:creator>
     <cc:Agent>
      <dc:title>Matplotlib v3.10.8, https://matplotlib.org/</dc:title>
     </cc:Agent>
    </dc:creator>
   </cc:Work>
  </rdf:RDF>
 </metadata>
 <defs>
  <style type="text/css">*{stroke-linejoin: round; stroke-linecap: butt}</style>
 </defs>
 <g id="figure_1">
  <g id="patch_1">
   <path d="M 0 343.366226 
L 560.16 343.366226 
L 560.16 0 
L 0 0 
z
" style="fill: #ffffff"/>
  </g>
  <g id="axes_1">
   <g id="patch_2">
    <path d="M 64.147699 296.019513 
L 552.96 296.019513 
L 552.96 27.863874 
L 64.147699 27.863874 
z
" style="fill: #ffffff"/>
   </g>
   <g id="line2d_1">
    <path d="M 308.553849 301.382625 
L 308.553849 27.863874 
" style="fill: none; stroke: #000000; stroke-width: 0.5; stroke-linecap: square"/>
   </g>
   <g id="patch_3">
    <path d="M 64.147699 296.019513 
L 64.147699 27.863874 
" style="fill: none; stroke: #000000; stroke-linejoin: miter; stroke-linecap: square"/>
   </g>
   <g id="patch_4">
    <path d="M 552.96 296.019513 
L 552.96 27.863874 
" style="fill: none; stroke: #000000; stroke-linejoin: miter; stroke-linecap: square"/>
   </g>
   <g id="patch_5">
    <path d="M 64.147699 296.019513 
L 552.96 296.019513 
" style="fill: none; stroke: #000000; stroke-linejoin: miter; stroke-linecap: square"/>
   </g>
   <g id="patch_6">
    <path d="M 64.147699 27.863874 
L 552.96 27.863874 
" style="fill: none; stroke: #000000; stroke-linejoin: miter; stroke-linecap: square"/>
   </g>
   <g id="matplotlib.axis_1">
    <g id="xtick_1">
     <g id="line2d_2"/>
     <g id="line2d_3"/>
     <g id="text_1">
      <!-- SHFS -->
      <g transform="translate(101.336095 312.796489) scale(0.18 -0.18)">
       <defs>
        <path id="NimbusSanL-Regu-53" d="M 3814 3335 
C 3808 4255 3181 4788 2106 4788 
C 1082 4788 448 4260 448 3410 
C 448 2837 749 2477 1363 2316 
L 2522 2007 
C 3110 1852 3379 1614 3379 1247 
C 3379 995 3245 738 3046 597 
C 2861 468 2566 397 2189 397 
C 1683 397 1338 520 1114 790 
C 941 996 864 1222 870 1511 
L 307 1511 
C 314 1081 397 798 582 540 
C 902 103 1440 -128 2150 -128 
C 2707 -128 3162 1 3462 232 
C 3776 483 3974 901 3974 1307 
C 3974 1886 3616 2311 2982 2485 
L 1811 2801 
C 1248 2955 1043 3135 1043 3496 
C 1043 3972 1459 4288 2086 4288 
C 2829 4288 3245 3947 3251 3335 
L 3814 3335 
z
" transform="scale(0.015625)"/>
        <path id="NimbusSanL-Regu-48" d="M 3526 2112 
L 3526 -2 
L 4122 -2 
L 4122 4672 
L 3526 4672 
L 3526 2638 
L 1126 2638 
L 1126 4672 
L 531 4672 
L 531 -2 
L 1133 -2 
L 1133 2112 
L 3526 2112 
z
" transform="scale(0.015625)"/>
        <path id="NimbusSanL-Regu-46" d="M 1171 2112 
L 3398 2112 
L 3398 2638 
L 1171 2638 
L 1171 4146 
L 3706 4146 
L 3706 4672 
L 576 4672 
L 576 -14 
L 1171 -14 
L 1171 2112 
z
" transform="scale(0.015625)"/>
       </defs>
       <use xlink:href="#NimbusSanL-Regu-53" transform="scale(0.996264)"/>
       <use xlink:href="#NimbusSanL-Regu-48" transform="translate(66.450031 0) scale(0.996264)"/>
       <use xlink:href="#NimbusSanL-Regu-46" transform="translate(138.380016 0) scale(0.996264)"/>
       <use xlink:href="#NimbusSanL-Regu-53" transform="translate(199.251647 0) scale(0.996264)"/>
      </g>
     </g>
    </g>
    <g id="xtick_2">
     <g id="line2d_4"/>
     <g id="line2d_5"/>
     <g id="text_2">
      <!-- VFS -->
      <g transform="translate(230.012865 312.796489) scale(0.18 -0.18)">
       <defs>
        <path id="NimbusSanL-Regu-56" d="M 2509 0 
L 4128 4672 
L 3494 4672 
L 2202 718 
L 832 4672 
L 192 4672 
L 1869 0 
L 2509 0 
z
" transform="scale(0.015625)"/>
       </defs>
       <use xlink:href="#NimbusSanL-Regu-56" transform="scale(0.996264)"/>
       <use xlink:href="#NimbusSanL-Regu-46" transform="translate(66.450031 0) scale(0.996264)"/>
       <use xlink:href="#NimbusSanL-Regu-53" transform="translate(127.321662 0) scale(0.996264)"/>
      </g>
     </g>
    </g>
    <g id="xtick_3">
     <g id="line2d_6"/>
     <g id="line2d_7"/>
     <g id="text_3">
      <!-- VFS -->
      <g transform="translate(352.21594 312.796489) scale(0.18 -0.18)">
       <use xlink:href="#NimbusSanL-Regu-56" transform="scale(0.996264)"/>
       <use xlink:href="#NimbusSanL-Regu-46" transform="translate(66.450031 0) scale(0.996264)"/>
       <use xlink:href="#NimbusSanL-Regu-53" transform="translate(127.321662 0) scale(0.996264)"/>
      </g>
      <!-- (No mitig.) -->
      <g transform="translate(328.312012 332.346656) scale(0.18 -0.18)">
       <defs>
        <path id="NimbusSanL-Regu-28" d="M 1510 4672 
C 870 3830 467 2660 467 1651 
C 467 636 870 -534 1510 -1376 
L 1862 -1376 
C 1299 -457 986 623 986 1651 
C 986 2673 1299 3759 1862 4672 
L 1510 4672 
z
" transform="scale(0.015625)"/>
        <path id="NimbusSanL-Regu-4e" d="M 4134 4672 
L 3571 4672 
L 3571 851 
L 1133 4672 
L 486 4672 
L 486 -2 
L 1050 -2 
L 1050 3787 
L 3462 -2 
L 4134 -2 
L 4134 4672 
z
" transform="scale(0.015625)"/>
        <path id="NimbusSanL-Regu-6f" d="M 1741 3456 
C 800 3456 230 2786 230 1663 
C 230 541 794 -128 1747 -128 
C 2688 -128 3264 541 3264 1638 
C 3264 2792 2707 3456 1741 3456 
z
M 1747 2962 
C 2349 2962 2707 2472 2707 1645 
C 2707 861 2336 365 1747 365 
C 1152 365 787 855 787 1663 
C 787 2466 1152 2962 1747 2962 
z
" transform="scale(0.015625)"/>
        <path id="NimbusSanL-Regu-6d" d="M 448 3359 
L 448 0 
L 986 0 
L 986 2109 
C 986 2597 1338 2988 1773 2988 
C 2170 2988 2394 2744 2394 2314 
L 2394 0 
L 2931 0 
L 2931 2109 
C 2931 2597 3283 2988 3718 2988 
C 4109 2988 4339 2738 4339 2314 
L 4339 0 
L 4877 0 
L 4877 2520 
C 4877 3122 4531 3456 3904 3456 
C 3456 3456 3187 3321 2874 2943 
C 2675 3302 2406 3456 1971 3456 
C 1523 3456 1229 3289 941 2885 
L 941 3359 
L 448 3359 
z
" transform="scale(0.015625)"/>
        <path id="NimbusSanL-Regu-69" d="M 960 3359 
L 429 3359 
L 429 0 
L 960 0 
L 960 3359 
z
M 960 4672 
L 422 4672 
L 422 3999 
L 960 3999 
L 960 4672 
z
" transform="scale(0.015625)"/>
        <path id="NimbusSanL-Regu-74" d="M 1626 3380 
L 1075 3380 
L 1075 4288 
L 544 4288 
L 544 3380 
L 90 3380 
L 90 2944 
L 544 2944 
L 544 404 
C 544 64 774 -128 1190 -128 
C 1318 -128 1446 -116 1626 -83 
L 1626 366 
C 1555 346 1472 340 1370 340 
C 1139 340 1075 404 1075 641 
L 1075 2944 
L 1626 2944 
L 1626 3380 
z
" transform="scale(0.015625)"/>
        <path id="NimbusSanL-Regu-67" d="M 2637 3341 
L 2637 2854 
C 2368 3252 2042 3438 1613 3438 
C 762 3438 186 2692 186 1600 
C 186 1048 333 598 608 276 
C 858 -7 1216 -173 1568 -173 
C 1990 -173 2285 6 2586 429 
L 2586 258 
C 2586 -192 2528 -465 2394 -649 
C 2253 -844 1978 -959 1651 -959 
C 1408 -959 1190 -896 1043 -783 
C 922 -688 870 -600 838 -406 
L 294 -406 
C 352 -1033 845 -1408 1632 -1408 
C 2131 -1408 2560 -1247 2778 -979 
C 3034 -671 3130 -249 3130 538 
L 3130 3341 
L 2637 3341 
z
M 1670 2944 
C 2246 2944 2586 2455 2586 1613 
C 2586 808 2240 320 1677 320 
C 1094 320 742 816 742 1632 
C 742 2442 1101 2944 1670 2944 
z
" transform="scale(0.015625)"/>
        <path id="NimbusSanL-Regu-2e" d="M 1222 667 
L 557 667 
L 557 0 
L 1222 0 
L 1222 667 
z
" transform="scale(0.015625)"/>
        <path id="NimbusSanL-Regu-29" d="M 595 -1376 
C 1235 -534 1638 636 1638 1644 
C 1638 2660 1235 3830 595 4672 
L 243 4672 
C 806 3753 1120 2673 1120 1644 
C 1120 623 806 -464 243 -1376 
L 595 -1376 
z
" transform="scale(0.015625)"/>
       </defs>
       <use xlink:href="#NimbusSanL-Regu-28" transform="scale(0.996264)"/>
       <use xlink:href="#NimbusSanL-Regu-4e" transform="translate(33.17523 0) scale(0.996264)"/>
       <use xlink:href="#NimbusSanL-Regu-6f" transform="translate(105.105215 0) scale(0.996264)"/>
       <use xlink:href="#NimbusSanL-Regu-6d" transform="translate(188.192061 0) scale(0.996264)"/>
       <use xlink:href="#NimbusSanL-Regu-69" transform="translate(271.180491 0) scale(0.996264)"/>
       <use xlink:href="#NimbusSanL-Regu-74" transform="translate(293.297276 0) scale(0.996264)"/>
       <use xlink:href="#NimbusSanL-Regu-69" transform="translate(320.992445 0) scale(0.996264)"/>
       <use xlink:href="#NimbusSanL-Regu-67" transform="translate(343.10923 0) scale(0.996264)"/>
       <use xlink:href="#NimbusSanL-Regu-2e" transform="translate(398.500907 0) scale(0.996264)"/>
       <use xlink:href="#NimbusSanL-Regu-29" transform="translate(426.196076 0) scale(0.996264)"/>
      </g>
     </g>
    </g>
    <g id="xtick_4">
     <g id="line2d_8"/>
     <g id="line2d_9"/>
     <g id="text_4">
      <!-- VFS -->
      <g transform="translate(474.419016 312.796489) scale(0.18 -0.18)">
       <use xlink:href="#NimbusSanL-Regu-56" transform="scale(0.996264)"/>
       <use xlink:href="#NimbusSanL-Regu-46" transform="translate(66.450031 0) scale(0.996264)"/>
       <use xlink:href="#NimbusSanL-Regu-53" transform="translate(127.321662 0) scale(0.996264)"/>
      </g>
     </g>
    </g>
   </g>
   <g id="matplotlib.axis_2">
    <g id="ytick_1">
     <g id="line2d_10">
      <path d="M 64.147699 296.019513 
L 552.96 296.019513 
" clip-path="url(#p594d20c65d)" style="fill: none; stroke-dasharray: 1,3; stroke-dashoffset: 0; stroke: #000000; stroke-opacity: 0.5; stroke-width: 0.5"/>
     </g>
     <g id="line2d_11"/>
     <g id="line2d_12"/>
     <g id="text_5">
      <!-- 0 -->
      <g transform="translate(52.392874 299.502948) scale(0.14 -0.14)">
       <defs>
        <path id="NimbusSanL-Regu-30" d="M 1760 4544 
C 1338 4544 954 4360 717 4046 
C 422 3651 275 3044 275 2208 
C 275 683 787 -128 1760 -128 
C 2720 -128 3245 683 3245 2170 
C 3245 3050 3104 3638 2803 4046 
C 2566 4366 2189 4544 1760 4544 
z
M 1760 4044 
C 2368 4044 2669 3432 2669 2221 
C 2669 939 2374 340 1747 340 
C 1152 340 851 965 851 2202 
C 851 3438 1152 4044 1760 4044 
z
" transform="scale(0.015625)"/>
       </defs>
       <use xlink:href="#NimbusSanL-Regu-30" transform="scale(0.996264)"/>
      </g>
     </g>
    </g>
    <g id="ytick_2">
     <g id="line2d_13">
      <path d="M 64.147699 251.326906 
L 552.96 251.326906 
" clip-path="url(#p594d20c65d)" style="fill: none; stroke-dasharray: 1,3; stroke-dashoffset: 0; stroke: #000000; stroke-opacity: 0.5; stroke-width: 0.5"/>
     </g>
     <g id="line2d_14"/>
     <g id="line2d_15"/>
     <g id="text_6">
      <!-- 1000 -->
      <g transform="translate(29.128401 254.810341) scale(0.14 -0.14)">
       <defs>
        <path id="NimbusSanL-Regu-31" d="M 1658 3238 
L 1658 0 
L 2221 0 
L 2221 4545 
L 1850 4545 
C 1651 3847 1523 3751 653 3642 
L 653 3238 
L 1658 3238 
z
" transform="scale(0.015625)"/>
       </defs>
       <use xlink:href="#NimbusSanL-Regu-31" transform="scale(0.996264)"/>
       <use xlink:href="#NimbusSanL-Regu-30" transform="translate(55.391677 0) scale(0.996264)"/>
       <use xlink:href="#NimbusSanL-Regu-30" transform="translate(110.783354 0) scale(0.996264)"/>
       <use xlink:href="#NimbusSanL-Regu-30" transform="translate(166.175031 0) scale(0.996264)"/>
      </g>
     </g>
    </g>
    <g id="ytick_3">
     <g id="line2d_16">
      <path d="M 64.147699 206.6343 
L 552.96 206.6343 
" clip-path="url(#p594d20c65d)" style="fill: none; stroke-dasharray: 1,3; stroke-dashoffset: 0; stroke: #000000; stroke-opacity: 0.5; stroke-width: 0.5"/>
     </g>
     <g id="line2d_17"/>
     <g id="line2d_18"/>
     <g id="text_7">
      <!-- 2000 -->
      <g transform="translate(29.128401 210.117735) scale(0.14 -0.14)">
       <defs>
        <path id="NimbusSanL-Regu-32" d="M 3238 558 
L 851 558 
C 909 930 1114 1167 1670 1494 
L 2310 1840 
C 2944 2186 3270 2653 3270 3211 
C 3270 3589 3117 3942 2848 4185 
C 2579 4429 2246 4544 1818 4544 
C 1242 4544 813 4339 563 3955 
C 403 3711 333 3429 320 2967 
L 883 2967 
C 902 3275 941 3461 1018 3608 
C 1165 3884 1459 4051 1798 4051 
C 2310 4051 2694 3685 2694 3198 
C 2694 2839 2483 2531 2080 2301 
L 1491 1968 
C 544 1430 269 1000 218 0 
L 3238 0 
L 3238 558 
z
" transform="scale(0.015625)"/>
       </defs>
       <use xlink:href="#NimbusSanL-Regu-32" transform="scale(0.996264)"/>
       <use xlink:href="#NimbusSanL-Regu-30" transform="translate(55.391677 0) scale(0.996264)"/>
       <use xlink:href="#NimbusSanL-Regu-30" transform="translate(110.783354 0) scale(0.996264)"/>
       <use xlink:href="#NimbusSanL-Regu-30" transform="translate(166.175031 0) scale(0.996264)"/>
      </g>
     </g>
    </g>
    <g id="ytick_4">
     <g id="line2d_19">
      <path d="M 64.147699 161.941693 
L 552.96 161.941693 
" clip-path="url(#p594d20c65d)" style="fill: none; stroke-dasharray: 1,3; stroke-dashoffset: 0; stroke: #000000; stroke-opacity: 0.5; stroke-width: 0.5"/>
     </g>
     <g id="line2d_20"/>
     <g id="line2d_21"/>
     <g id="text_8">
      <!-- 3000 -->
      <g transform="translate(29.128401 165.425128) scale(0.14 -0.14)">
       <defs>
        <path id="NimbusSanL-Regu-33" d="M 1414 2112 
L 1485 2112 
L 1722 2112 
C 2342 2112 2662 1830 2662 1284 
C 2662 712 2310 372 1722 372 
C 1107 372 806 681 768 1345 
L 205 1345 
C 230 978 294 740 403 534 
C 634 97 1082 -128 1702 -128 
C 2637 -128 3238 431 3238 1293 
C 3238 1872 3014 2194 2470 2381 
C 2893 2546 3104 2862 3104 3311 
C 3104 4082 2586 4544 1722 4544 
C 806 4544 320 4050 301 3095 
L 864 3095 
C 870 3366 896 3517 966 3655 
C 1094 3900 1376 4051 1728 4051 
C 2227 4051 2528 3760 2528 3287 
C 2528 2971 2413 2781 2163 2681 
C 2010 2618 1811 2592 1414 2592 
L 1414 2112 
z
" transform="scale(0.015625)"/>
       </defs>
       <use xlink:href="#NimbusSanL-Regu-33" transform="scale(0.996264)"/>
       <use xlink:href="#NimbusSanL-Regu-30" transform="translate(55.391677 0) scale(0.996264)"/>
       <use xlink:href="#NimbusSanL-Regu-30" transform="translate(110.783354 0) scale(0.996264)"/>
       <use xlink:href="#NimbusSanL-Regu-30" transform="translate(166.175031 0) scale(0.996264)"/>
      </g>
     </g>
    </g>
    <g id="ytick_5">
     <g id="line2d_22">
      <path d="M 64.147699 117.249087 
L 552.96 117.249087 
" clip-path="url(#p594d20c65d)" style="fill: none; stroke-dasharray: 1,3; stroke-dashoffset: 0; stroke: #000000; stroke-opacity: 0.5; stroke-width: 0.5"/>
     </g>
     <g id="line2d_23"/>
     <g id="line2d_24"/>
     <g id="text_9">
      <!-- 4000 -->
      <g transform="translate(29.128401 120.732522) scale(0.14 -0.14)">
       <defs>
        <path id="NimbusSanL-Regu-34" d="M 2093 1088 
L 2093 0 
L 2656 0 
L 2656 1088 
L 3328 1088 
L 3328 1594 
L 2656 1594 
L 2656 4545 
L 2240 4545 
L 179 1684 
L 179 1088 
L 2093 1088 
z
M 2093 1594 
L 672 1594 
L 2093 3583 
L 2093 1594 
z
" transform="scale(0.015625)"/>
       </defs>
       <use xlink:href="#NimbusSanL-Regu-34" transform="scale(0.996264)"/>
       <use xlink:href="#NimbusSanL-Regu-30" transform="translate(55.391677 0) scale(0.996264)"/>
       <use xlink:href="#NimbusSanL-Regu-30" transform="translate(110.783354 0) scale(0.996264)"/>
       <use xlink:href="#NimbusSanL-Regu-30" transform="translate(166.175031 0) scale(0.996264)"/>
      </g>
     </g>
    </g>
    <g id="ytick_6">
     <g id="line2d_25">
      <path d="M 64.147699 72.55648 
L 552.96 72.55648 
" clip-path="url(#p594d20c65d)" style="fill: none; stroke-dasharray: 1,3; stroke-dashoffset: 0; stroke: #000000; stroke-opacity: 0.5; stroke-width: 0.5"/>
     </g>
     <g id="line2d_26"/>
     <g id="line2d_27"/>
     <g id="text_10">
      <!-- 5000 -->
      <g transform="translate(29.128401 76.039916) scale(0.14 -0.14)">
       <defs>
        <path id="NimbusSanL-Regu-35" d="M 3046 4544 
L 704 4544 
L 365 2086 
L 883 2086 
C 1146 2399 1363 2508 1715 2508 
C 2323 2508 2707 2092 2707 1421 
C 2707 768 2330 372 1715 372 
C 1222 372 922 621 787 1133 
L 224 1133 
C 301 762 365 582 499 415 
C 755 70 1216 -128 1728 -128 
C 2643 -128 3283 537 3283 1497 
C 3283 2394 2688 3008 1818 3008 
C 1498 3008 1242 2925 979 2732 
L 1158 3987 
L 3046 3987 
L 3046 4544 
z
" transform="scale(0.015625)"/>
       </defs>
       <use xlink:href="#NimbusSanL-Regu-35" transform="scale(0.996264)"/>
       <use xlink:href="#NimbusSanL-Regu-30" transform="translate(55.391677 0) scale(0.996264)"/>
       <use xlink:href="#NimbusSanL-Regu-30" transform="translate(110.783354 0) scale(0.996264)"/>
       <use xlink:href="#NimbusSanL-Regu-30" transform="translate(166.175031 0) scale(0.996264)"/>
      </g>
     </g>
    </g>
    <g id="ytick_7">
     <g id="line2d_28">
      <path d="M 64.147699 27.863874 
L 552.96 27.863874 
" clip-path="url(#p594d20c65d)" style="fill: none; stroke-dasharray: 1,3; stroke-dashoffset: 0; stroke: #000000; stroke-opacity: 0.5; stroke-width: 0.5"/>
     </g>
     <g id="line2d_29"/>
     <g id="line2d_30"/>
    </g>
    <g id="text_11">
     <!-- Average \# TSC -->
     <g transform="translate(20.308831 222.562776) rotate(-90) scale(0.18 -0.18)">
      <defs>
       <path id="NimbusSanL-Regu-41" d="M 3034 1408 
L 3514 0 
L 4179 0 
L 2541 4672 
L 1773 4672 
L 109 0 
L 742 0 
L 1235 1408 
L 3034 1408 
z
M 2867 1908 
L 1382 1908 
L 2150 4032 
L 2867 1908 
z
" transform="scale(0.015625)"/>
       <path id="NimbusSanL-Regu-76" d="M 1824 0 
L 3110 3360 
L 2509 3360 
L 1562 635 
L 666 3360 
L 64 3360 
L 1242 0 
L 1824 0 
z
" transform="scale(0.015625)"/>
       <path id="NimbusSanL-Regu-65" d="M 3283 1529 
C 3283 2034 3245 2338 3149 2584 
C 2931 3127 2419 3456 1792 3456 
C 858 3456 256 2742 256 1645 
C 256 547 838 -128 1779 -128 
C 2547 -128 3078 310 3213 1044 
L 2675 1044 
C 2528 598 2227 365 1798 365 
C 1459 365 1171 520 992 805 
C 864 998 819 1193 813 1529 
L 3283 1529 
z
M 826 1984 
C 870 2577 1248 2962 1786 2962 
C 2310 2962 2714 2530 2714 1984 
C 2714 1984 2714 1984 2707 1984 
L 826 1984 
z
" transform="scale(0.015625)"/>
       <path id="NimbusSanL-Regu-72" d="M 442 3359 
L 442 0 
L 979 0 
L 979 1741 
C 979 2221 1101 2535 1357 2720 
C 1523 2842 1683 2880 2054 2880 
L 2054 3432 
C 1965 3444 1920 3444 1850 3444 
C 1504 3444 1242 3240 934 2746 
L 934 3359 
L 442 3359 
z
" transform="scale(0.015625)"/>
       <path id="NimbusSanL-Regu-61" d="M 3424 333 
C 3366 320 3341 320 3309 320 
C 3123 320 3021 415 3021 581 
L 3021 2545 
C 3021 3137 2586 3456 1760 3456 
C 1274 3456 870 3316 646 3066 
C 493 2893 429 2702 416 2370 
L 954 2370 
C 998 2777 1242 2962 1741 2962 
C 2221 2962 2490 2783 2490 2465 
L 2490 2325 
C 2490 2101 2355 2006 1933 1955 
C 1178 1860 1062 1834 858 1751 
C 467 1592 269 1292 269 859 
C 269 254 691 -128 1370 -128 
C 1792 -128 2131 19 2509 365 
C 2547 25 2714 -128 3059 -128 
C 3168 -128 3251 -116 3424 -70 
L 3424 333 
z
M 2490 1072 
C 2490 893 2438 785 2278 639 
C 2061 441 1798 340 1485 340 
C 1069 340 826 537 826 874 
C 826 1225 1062 1403 1632 1486 
C 2195 1562 2310 1588 2490 1670 
L 2490 1072 
z
" transform="scale(0.015625)"/>
       <path id="NimbusSanL-Regu-23" d="M 3104 4448 
L 2611 4448 
L 2387 3200 
L 1587 3200 
L 1818 4448 
L 1331 4448 
L 1101 3200 
L 326 3200 
L 326 2764 
L 1018 2764 
L 819 1651 
L 90 1651 
L 90 1216 
L 736 1216 
L 493 -128 
L 979 -128 
L 1229 1216 
L 2022 1216 
L 1779 -128 
L 2266 -128 
L 2515 1216 
L 3264 1216 
L 3264 1651 
L 2592 1651 
L 2790 2764 
L 3469 2764 
L 3469 3200 
L 2874 3200 
L 3104 4448 
z
M 2304 2764 
L 2106 1651 
L 1306 1651 
L 1510 2764 
L 2304 2764 
z
" transform="scale(0.015625)"/>
       <path id="NimbusSanL-Regu-54" d="M 2266 4146 
L 3795 4146 
L 3795 4672 
L 134 4672 
L 134 4146 
L 1670 4146 
L 1670 -14 
L 2266 -14 
L 2266 4146 
z
" transform="scale(0.015625)"/>
       <path id="NimbusSanL-Regu-43" d="M 4237 3229 
C 4051 4252 3462 4750 2438 4750 
C 1811 4750 1306 4552 960 4168 
C 538 3709 307 3045 307 2291 
C 307 1525 544 868 986 414 
C 1344 44 1805 -128 2413 -128 
C 3552 -128 4192 485 4333 1717 
L 3718 1717 
C 3667 1399 3603 1182 3507 997 
C 3315 614 2918 397 2419 397 
C 1491 397 902 1137 902 2298 
C 902 3491 1466 4224 2368 4224 
C 2746 4224 3098 4110 3290 3930 
C 3462 3771 3558 3573 3629 3229 
L 4237 3229 
z
" transform="scale(0.015625)"/>
      </defs>
      <use xlink:href="#NimbusSanL-Regu-41" transform="scale(0.996264)"/>
      <use xlink:href="#NimbusSanL-Regu-76" transform="translate(62.465918 0) scale(0.996264)"/>
      <use xlink:href="#NimbusSanL-Regu-65" transform="translate(109.788488 0) scale(0.996264)"/>
      <use xlink:href="#NimbusSanL-Regu-72" transform="translate(165.180165 0) scale(0.996264)"/>
      <use xlink:href="#NimbusSanL-Regu-61" transform="translate(197.359298 0) scale(0.996264)"/>
      <use xlink:href="#NimbusSanL-Regu-67" transform="translate(252.750975 0) scale(0.996264)"/>
      <use xlink:href="#NimbusSanL-Regu-65" transform="translate(308.142652 0) scale(0.996264)"/>
      <use xlink:href="#NimbusSanL-Regu-23" transform="translate(391.229499 0) scale(0.996264)"/>
      <use xlink:href="#NimbusSanL-Regu-54" transform="translate(474.316345 0) scale(0.996264)"/>
      <use xlink:href="#NimbusSanL-Regu-53" transform="translate(535.187976 0) scale(0.996264)"/>
      <use xlink:href="#NimbusSanL-Regu-43" transform="translate(601.638007 0) scale(0.996264)"/>
     </g>
    </g>
   </g>
   <g id="text_12">
    <!-- \textbf{Unikraft} -->
    <g transform="translate(160.003896 17.137648) scale(0.14 -0.14)">
     <defs>
      <path id="NimbusSanL-Bold-55" d="M 3226 4672 
L 3226 1522 
C 3226 960 2938 692 2336 692 
C 1734 692 1446 960 1446 1522 
L 1446 4672 
L 486 4672 
L 486 1519 
C 486 995 627 625 941 344 
C 1280 37 1773 -128 2336 -128 
C 2899 -128 3392 37 3731 344 
C 4045 625 4186 995 4186 1519 
L 4186 4672 
L 3226 4672 
z
" transform="scale(0.015625)"/>
      <path id="NimbusSanL-Bold-6e" d="M 403 3462 
L 403 0 
L 1299 0 
L 1299 2077 
C 1299 2487 1587 2757 2022 2757 
C 2406 2757 2598 2545 2598 2135 
L 2598 0 
L 3494 0 
L 3494 2321 
C 3494 3084 3072 3520 2336 3520 
C 1869 3520 1555 3346 1299 2962 
L 1299 3462 
L 403 3462 
z
" transform="scale(0.015625)"/>
      <path id="NimbusSanL-Bold-69" d="M 1325 3462 
L 429 3462 
L 429 0 
L 1325 0 
L 1325 3462 
z
M 1325 4672 
L 429 4672 
L 429 3870 
L 1325 3870 
L 1325 4672 
z
" transform="scale(0.015625)"/>
      <path id="NimbusSanL-Bold-6b" d="M 1274 2114 
L 1274 4672 
L 378 4672 
L 378 -2 
L 1274 -2 
L 1274 1133 
L 1632 1524 
L 2458 -2 
L 3507 -2 
L 2246 2152 
L 3424 3460 
L 2406 3460 
L 1274 2114 
z
" transform="scale(0.015625)"/>
      <path id="NimbusSanL-Bold-72" d="M 403 3462 
L 403 0 
L 1299 0 
L 1299 1840 
C 1299 2366 1562 2628 2086 2628 
C 2182 2628 2246 2622 2368 2602 
L 2368 3514 
C 2317 3520 2285 3520 2259 3520 
C 1850 3520 1491 3250 1299 2782 
L 1299 3462 
L 403 3462 
z
" transform="scale(0.015625)"/>
      <path id="NimbusSanL-Bold-61" d="M 3354 128 
C 3194 275 3149 372 3149 551 
L 3149 2475 
C 3149 3182 2669 3541 1734 3541 
C 800 3541 314 3143 256 2342 
L 1120 2342 
C 1165 2701 1312 2816 1754 2816 
C 2099 2816 2272 2701 2272 2470 
C 2272 2355 2214 2252 2118 2201 
C 1997 2137 1997 2137 1555 2066 
L 1197 2001 
C 512 1886 179 1533 179 911 
C 179 616 262 372 422 199 
C 621 -7 922 -128 1229 -128 
C 1613 -128 1965 38 2278 365 
C 2278 186 2298 122 2381 19 
L 3354 19 
L 3354 128 
z
M 2272 1411 
C 2272 891 2016 596 1562 596 
C 1261 596 1075 756 1075 1013 
C 1075 1283 1216 1411 1587 1488 
L 1894 1546 
C 2131 1591 2170 1603 2272 1655 
L 2272 1411 
z
" transform="scale(0.015625)"/>
      <path id="NimbusSanL-Bold-66" d="M 2003 3392 
L 1472 3392 
L 1472 3731 
C 1472 3910 1549 3999 1715 3999 
C 1792 3999 1894 3999 1971 3986 
L 1971 4659 
C 1805 4672 1581 4672 1459 4672 
C 864 4672 576 4390 576 3808 
L 576 3392 
L 90 3392 
L 90 2796 
L 576 2796 
L 576 -1 
L 1472 -1 
L 1472 2796 
L 2003 2796 
L 2003 3392 
z
" transform="scale(0.015625)"/>
      <path id="NimbusSanL-Bold-74" d="M 1926 3412 
L 1427 3412 
L 1427 4352 
L 531 4352 
L 531 3412 
L 90 3412 
L 90 2816 
L 531 2816 
L 531 687 
C 531 141 819 -128 1408 -128 
C 1606 -128 1766 -109 1926 -58 
L 1926 570 
C 1837 558 1786 551 1722 551 
C 1485 551 1427 622 1427 929 
L 1427 2816 
L 1926 2816 
L 1926 3412 
z
" transform="scale(0.015625)"/>
     </defs>
     <use xlink:href="#NimbusSanL-Bold-55" transform="scale(0.996264)"/>
     <use xlink:href="#NimbusSanL-Bold-6e" transform="translate(71.929985 0) scale(0.996264)"/>
     <use xlink:href="#NimbusSanL-Bold-69" transform="translate(132.801616 0) scale(0.996264)"/>
     <use xlink:href="#NimbusSanL-Bold-6b" transform="translate(160.496785 0) scale(0.996264)"/>
     <use xlink:href="#NimbusSanL-Bold-72" transform="translate(215.888462 0) scale(0.996264)"/>
     <use xlink:href="#NimbusSanL-Bold-61" transform="translate(254.642168 0) scale(0.996264)"/>
     <use xlink:href="#NimbusSanL-Bold-66" transform="translate(310.033845 0) scale(0.996264)"/>
     <use xlink:href="#NimbusSanL-Bold-74" transform="translate(343.209075 0) scale(0.996264)"/>
    </g>
   </g>
   <g id="text_13">
    <!-- \textbf{Linux} -->
    <g transform="translate(412.227541 17.137648) scale(0.14 -0.14)">
     <defs>
      <path id="NimbusSanL-Bold-4c" d="M 1472 4672 
L 512 4672 
L 512 0 
L 3706 0 
L 3706 801 
L 1472 801 
L 1472 4672 
z
" transform="scale(0.015625)"/>
      <path id="NimbusSanL-Bold-75" d="M 3462 0 
L 3462 3462 
L 2566 3462 
L 2566 1309 
C 2566 902 2278 634 1843 634 
C 1459 634 1267 839 1267 1252 
L 1267 3462 
L 371 3462 
L 371 1064 
C 371 305 794 -128 1530 -128 
C 1997 -128 2310 43 2566 423 
L 2566 0 
L 3462 0 
z
" transform="scale(0.015625)"/>
      <path id="NimbusSanL-Bold-78" d="M 2272 1744 
L 3398 3462 
L 2323 3462 
L 1766 2417 
L 1203 3462 
L 128 3462 
L 1254 1744 
L 102 0 
L 1178 0 
L 1766 1077 
L 2349 0 
L 3424 0 
L 2272 1744 
z
" transform="scale(0.015625)"/>
     </defs>
     <use xlink:href="#NimbusSanL-Bold-4c" transform="scale(0.996264)"/>
     <use xlink:href="#NimbusSanL-Bold-69" transform="translate(60.871631 0) scale(0.996264)"/>
     <use xlink:href="#NimbusSanL-Bold-6e" transform="translate(88.5668 0) scale(0.996264)"/>
     <use xlink:href="#NimbusSanL-Bold-75" transform="translate(148.442334 0) scale(0.996264)"/>
     <use xlink:href="#NimbusSanL-Bold-78" transform="translate(209.313965 0) scale(0.996264)"/>
    </g>
   </g>
   <g id="patch_7">
    <path d="M 76.368006 296.019513 
L 125.249236 296.019513 
L 125.249236 282.250614 
L 76.368006 282.250614 
z
" clip-path="url(#p594d20c65d)" style="fill: #d5316a; stroke: #000000; stroke-width: 0.5; stroke-linejoin: miter"/>
   </g>
   <g id="patch_8">
    <path d="M 125.249236 296.019513 
L 174.130466 296.019513 
L 174.130466 283.012176 
L 125.249236 283.012176 
z
" clip-path="url(#p594d20c65d)" style="fill: url(#h4f7da95e8d); stroke: #000000; stroke-width: 0.5; stroke-linejoin: miter"/>
   </g>
   <g id="patch_9">
    <path d="M 198.571081 296.019513 
L 247.452312 296.019513 
L 247.452312 222.838051 
L 198.571081 222.838051 
z
" clip-path="url(#p594d20c65d)" style="fill: #3db2d7; stroke: #000000; stroke-width: 0.5; stroke-linejoin: miter"/>
   </g>
   <g id="patch_10">
    <path d="M 247.452312 296.019513 
L 296.333542 296.019513 
L 296.333542 196.825166 
L 247.452312 196.825166 
z
" clip-path="url(#p594d20c65d)" style="fill: url(#hacedaa66b4); stroke: #000000; stroke-width: 0.5; stroke-linejoin: miter"/>
   </g>
   <g id="patch_11">
    <path d="M 320.774157 296.019513 
L 369.655387 296.019513 
L 369.655387 208.048374 
L 320.774157 208.048374 
z
" clip-path="url(#p594d20c65d)" style="fill: #e06e36; stroke: #000000; stroke-width: 0.5; stroke-linejoin: miter"/>
   </g>
   <g id="patch_12">
    <path d="M 369.655387 296.019513 
L 418.536617 296.019513 
L 418.536617 149.561841 
L 369.655387 149.561841 
z
" clip-path="url(#p594d20c65d)" style="fill: url(#h152dbd27b2); stroke: #000000; stroke-width: 0.5; stroke-linejoin: miter"/>
   </g>
   <g id="patch_13">
    <path d="M 442.977232 296.019513 
L 491.858462 296.019513 
L 491.858462 177.705669 
L 442.977232 177.705669 
z
" clip-path="url(#p594d20c65d)" style="fill: #3db2d7; stroke: #000000; stroke-width: 0.5; stroke-linejoin: miter"/>
   </g>
   <g id="patch_14">
    <path d="M 491.858462 296.019513 
L 540.739692 296.019513 
L 540.739692 114.823172 
L 491.858462 114.823172 
z
" clip-path="url(#p594d20c65d)" style="fill: url(#hacedaa66b4); stroke: #000000; stroke-width: 0.5; stroke-linejoin: miter"/>
   </g>
   <g id="legend_1">
    <g id="patch_15">
     <path d="M 71.147699 58.9723 
L 325.949424 58.9723 
L 325.949424 34.863874 
L 71.147699 34.863874 
z
" style="fill: #ffffff"/>
    </g>
    <g id="patch_16">
     <path d="M 76.747699 50.401522 
L 104.747699 50.401522 
L 104.747699 40.601522 
L 76.747699 40.601522 
z
" style="fill: #ffffff; stroke: #000000; stroke-linejoin: miter"/>
    </g>
    <g id="text_14">
     <!-- FILE EXISTS -->
     <g transform="translate(115.947699 50.401522) scale(0.14 -0.14)">
      <defs>
       <path id="NimbusSanL-Regu-49" d="M 1242 4672 
L 640 4672 
L 640 -2 
L 1242 -2 
L 1242 4672 
z
" transform="scale(0.015625)"/>
       <path id="NimbusSanL-Regu-4c" d="M 1107 4672 
L 512 4672 
L 512 0 
L 3411 0 
L 3411 526 
L 1107 526 
L 1107 4672 
z
" transform="scale(0.015625)"/>
       <path id="NimbusSanL-Regu-45" d="M 1171 2112 
L 3712 2112 
L 3712 2638 
L 1171 2638 
L 1171 4146 
L 3808 4146 
L 3808 4672 
L 576 4672 
L 576 0 
L 3923 0 
L 3923 526 
L 1171 526 
L 1171 2112 
z
" transform="scale(0.015625)"/>
       <path id="NimbusSanL-Regu-58" d="M 2502 2396 
L 4077 4672 
L 3366 4672 
L 2163 2838 
L 966 4672 
L 243 4672 
L 1792 2396 
L 141 -2 
L 864 -2 
L 2144 1947 
L 3418 -2 
L 4154 -2 
L 2502 2396 
z
" transform="scale(0.015625)"/>
      </defs>
      <use xlink:href="#NimbusSanL-Regu-46" transform="scale(0.996264)"/>
      <use xlink:href="#NimbusSanL-Regu-49" transform="translate(60.871631 0) scale(0.996264)"/>
      <use xlink:href="#NimbusSanL-Regu-4c" transform="translate(88.5668 0) scale(0.996264)"/>
      <use xlink:href="#NimbusSanL-Regu-45" transform="translate(143.958477 0) scale(0.996264)"/>
      <use xlink:href="#NimbusSanL-Regu-45" transform="translate(238.103678 0) scale(0.996264)"/>
      <use xlink:href="#NimbusSanL-Regu-58" transform="translate(304.553709 0) scale(0.996264)"/>
      <use xlink:href="#NimbusSanL-Regu-49" transform="translate(371.00374 0) scale(0.996264)"/>
      <use xlink:href="#NimbusSanL-Regu-53" transform="translate(398.69891 0) scale(0.996264)"/>
      <use xlink:href="#NimbusSanL-Regu-54" transform="translate(465.148941 0) scale(0.996264)"/>
      <use xlink:href="#NimbusSanL-Regu-53" transform="translate(526.020572 0) scale(0.996264)"/>
     </g>
    </g>
    <g id="patch_17">
     <path d="M 226.893564 50.401522 
L 254.893564 50.401522 
L 254.893564 40.601522 
L 226.893564 40.601522 
z
" style="fill: url(#h754aeb2869); stroke: #000000; stroke-linejoin: miter"/>
    </g>
    <g id="text_15">
     <!-- NO FILE -->
     <g transform="translate(266.093564 50.401522) scale(0.14 -0.14)">
      <defs>
       <path id="NimbusSanL-Regu-4f" d="M 2490 4750 
C 1152 4750 243 3766 243 2311 
C 243 855 1152 -128 2496 -128 
C 3059 -128 3565 44 3942 363 
C 4448 791 4749 1512 4749 2272 
C 4749 3773 3859 4750 2490 4750 
z
M 2490 4224 
C 3501 4224 4154 3459 4154 2285 
C 4154 1163 3482 397 2496 397 
C 1504 397 838 1163 838 2311 
C 838 3459 1504 4224 2490 4224 
z
" transform="scale(0.015625)"/>
      </defs>
      <use xlink:href="#NimbusSanL-Regu-4e" transform="scale(0.996264)"/>
      <use xlink:href="#NimbusSanL-Regu-4f" transform="translate(71.929985 0) scale(0.996264)"/>
      <use xlink:href="#NimbusSanL-Regu-46" transform="translate(177.133525 0) scale(0.996264)"/>
      <use xlink:href="#NimbusSanL-Regu-49" transform="translate(238.005155 0) scale(0.996264)"/>
      <use xlink:href="#NimbusSanL-Regu-4c" transform="translate(265.700325 0) scale(0.996264)"/>
      <use xlink:href="#NimbusSanL-Regu-45" transform="translate(321.092002 0) scale(0.996264)"/>
     </g>
    </g>
   </g>
   <g id="text_16">
    <g id="patch_18">
     <path d="M 113.365002 277.241354 
L 113.365002 227.500412 
L 80.920056 227.500412 
L 80.920056 277.241354 
z
" style="fill: #ffffff"/>
    </g>
    <!-- 308 -->
    <g transform="translate(93.157032 267.326632) rotate(-90) scale(0.18 -0.18)">
     <defs>
      <path id="NimbusSanL-Regu-38" d="M 2502 2399 
C 2970 2680 3123 2910 3123 3338 
C 3123 4046 2566 4544 1760 4544 
C 960 4544 397 4046 397 3338 
C 397 2917 550 2687 1011 2399 
C 493 2150 237 1774 237 1276 
C 237 446 864 -128 1760 -128 
C 2656 -128 3283 447 3283 1270 
C 3283 1774 3027 2150 2502 2399 
z
M 1760 4044 
C 2240 4044 2547 3764 2547 3325 
C 2547 2904 2234 2624 1760 2624 
C 1286 2624 973 2904 973 3331 
C 973 3764 1286 4044 1760 4044 
z
M 1760 2149 
C 2323 2149 2707 1792 2707 1263 
C 2707 729 2323 372 1747 372 
C 1197 372 813 735 813 1263 
C 813 1792 1197 2149 1760 2149 
z
" transform="scale(0.015625)"/>
     </defs>
     <use xlink:href="#NimbusSanL-Regu-33" transform="scale(0.996264)"/>
     <use xlink:href="#NimbusSanL-Regu-30" transform="translate(55.391677 0) scale(0.996264)"/>
     <use xlink:href="#NimbusSanL-Regu-38" transform="translate(110.783354 0) scale(0.996264)"/>
    </g>
    <!-- (86ns) -->
    <g transform="translate(110.085433 277.781354) rotate(-90) scale(0.18 -0.18)">
     <defs>
      <path id="NimbusSanL-Regu-36" d="M 3187 3382 
C 3078 4111 2592 4544 1901 4544 
C 1402 4544 954 4302 685 3900 
C 403 3460 275 2904 275 2081 
C 275 1321 390 836 659 434 
C 902 69 1299 -128 1798 -128 
C 2662 -128 3283 518 3283 1415 
C 3283 2268 2707 2868 1894 2868 
C 1446 2868 1094 2695 851 2362 
C 858 3444 1216 4044 1862 4044 
C 2259 4044 2534 3803 2624 3382 
L 3187 3382 
z
M 1824 2368 
C 2368 2368 2707 1986 2707 1370 
C 2707 793 2323 372 1805 372 
C 1280 372 883 813 883 1402 
C 883 1973 1267 2368 1824 2368 
z
" transform="scale(0.015625)"/>
      <path id="NimbusSanL-Regu-6e" d="M 448 3359 
L 448 0 
L 986 0 
L 986 1853 
C 986 2539 1344 2988 1894 2988 
C 2317 2988 2586 2731 2586 2327 
L 2586 0 
L 3117 0 
L 3117 2539 
C 3117 3097 2701 3456 2054 3456 
C 1555 3456 1235 3263 941 2796 
L 941 3359 
L 448 3359 
z
" transform="scale(0.015625)"/>
      <path id="NimbusSanL-Regu-73" d="M 2803 2427 
C 2797 3085 2362 3456 1587 3456 
C 806 3456 301 3054 301 2436 
C 301 1913 570 1665 1363 1474 
L 1862 1353 
C 2234 1263 2381 1130 2381 888 
C 2381 576 2067 365 1600 365 
C 1312 365 1069 448 934 588 
C 851 684 813 779 781 1014 
L 218 1014 
C 243 241 678 -128 1555 -128 
C 2400 -128 2938 285 2938 929 
C 2938 1426 2656 1701 1990 1860 
L 1478 1981 
C 1043 2082 858 2223 858 2458 
C 858 2764 1133 2962 1568 2962 
C 1997 2962 2227 2777 2240 2427 
L 2803 2427 
z
" transform="scale(0.015625)"/>
     </defs>
     <use xlink:href="#NimbusSanL-Regu-28" transform="scale(0.996264)"/>
     <use xlink:href="#NimbusSanL-Regu-38" transform="translate(33.17523 0) scale(0.996264)"/>
     <use xlink:href="#NimbusSanL-Regu-36" transform="translate(88.566907 0) scale(0.996264)"/>
     <use xlink:href="#NimbusSanL-Regu-6e" transform="translate(143.958584 0) scale(0.996264)"/>
     <use xlink:href="#NimbusSanL-Regu-73" transform="translate(199.350261 0) scale(0.996264)"/>
     <use xlink:href="#NimbusSanL-Regu-29" transform="translate(249.163461 0) scale(0.996264)"/>
    </g>
   </g>
   <g id="text_17">
    <g id="patch_19">
     <path d="M 162.246232 278.002916 
L 162.246232 228.261974 
L 129.801286 228.261974 
L 129.801286 278.002916 
z
" style="fill: #ffffff"/>
    </g>
    <!-- 291 -->
    <g transform="translate(142.038262 268.088194) rotate(-90) scale(0.18 -0.18)">
     <defs>
      <path id="NimbusSanL-Regu-39" d="M 339 1064 
C 448 316 934 -128 1626 -128 
C 2125 -128 2579 114 2842 516 
C 3130 956 3258 1512 3258 2335 
C 3258 3095 3142 3580 2874 3982 
C 2624 4347 2227 4544 1728 4544 
C 864 4544 243 3909 243 3027 
C 243 2190 819 1600 1638 1600 
C 2067 1600 2381 1754 2675 2106 
C 2669 991 2310 372 1664 372 
C 1267 372 992 624 902 1064 
L 339 1064 
z
M 1722 4051 
C 2246 4051 2643 3622 2643 3041 
C 2643 2491 2253 2100 1702 2100 
C 1158 2100 819 2472 819 3072 
C 819 3640 1203 4051 1722 4051 
z
" transform="scale(0.015625)"/>
     </defs>
     <use xlink:href="#NimbusSanL-Regu-32" transform="scale(0.996264)"/>
     <use xlink:href="#NimbusSanL-Regu-39" transform="translate(55.391677 0) scale(0.996264)"/>
     <use xlink:href="#NimbusSanL-Regu-31" transform="translate(110.783354 0) scale(0.996264)"/>
    </g>
    <!-- (81ns) -->
    <g transform="translate(158.966663 278.542916) rotate(-90) scale(0.18 -0.18)">
     <use xlink:href="#NimbusSanL-Regu-28" transform="scale(0.996264)"/>
     <use xlink:href="#NimbusSanL-Regu-38" transform="translate(33.17523 0) scale(0.996264)"/>
     <use xlink:href="#NimbusSanL-Regu-31" transform="translate(88.566907 0) scale(0.996264)"/>
     <use xlink:href="#NimbusSanL-Regu-6e" transform="translate(143.958584 0) scale(0.996264)"/>
     <use xlink:href="#NimbusSanL-Regu-73" transform="translate(199.350261 0) scale(0.996264)"/>
     <use xlink:href="#NimbusSanL-Regu-29" transform="translate(249.163461 0) scale(0.996264)"/>
    </g>
   </g>
   <g id="text_18">
    <g id="patch_20">
     <path d="M 235.568078 217.82879 
L 235.568078 158.117349 
L 203.123131 158.117349 
L 203.123131 217.82879 
z
" style="fill: #ffffff"/>
    </g>
    <!-- 1637 -->
    <g transform="translate(215.360107 207.914069) rotate(-90) scale(0.18 -0.18)">
     <defs>
      <path id="NimbusSanL-Regu-37" d="M 3328 4525 
L 294 4525 
L 294 3968 
L 2746 3968 
C 1664 2418 1222 1466 883 -32 
L 1485 -32 
C 1734 1427 2304 2681 3328 4051 
L 3328 4525 
z
" transform="scale(0.015625)"/>
     </defs>
     <use xlink:href="#NimbusSanL-Regu-31" transform="scale(0.996264)"/>
     <use xlink:href="#NimbusSanL-Regu-36" transform="translate(55.391677 0) scale(0.996264)"/>
     <use xlink:href="#NimbusSanL-Regu-33" transform="translate(110.783354 0) scale(0.996264)"/>
     <use xlink:href="#NimbusSanL-Regu-37" transform="translate(166.175031 0) scale(0.996264)"/>
    </g>
    <!-- (455ns) -->
    <g transform="translate(232.288508 218.36879) rotate(-90) scale(0.18 -0.18)">
     <use xlink:href="#NimbusSanL-Regu-28" transform="scale(0.996264)"/>
     <use xlink:href="#NimbusSanL-Regu-34" transform="translate(33.17523 0) scale(0.996264)"/>
     <use xlink:href="#NimbusSanL-Regu-35" transform="translate(88.566907 0) scale(0.996264)"/>
     <use xlink:href="#NimbusSanL-Regu-35" transform="translate(143.958584 0) scale(0.996264)"/>
     <use xlink:href="#NimbusSanL-Regu-6e" transform="translate(199.350261 0) scale(0.996264)"/>
     <use xlink:href="#NimbusSanL-Regu-73" transform="translate(254.741938 0) scale(0.996264)"/>
     <use xlink:href="#NimbusSanL-Regu-29" transform="translate(304.555138 0) scale(0.996264)"/>
    </g>
   </g>
   <g id="text_19">
    <g id="patch_21">
     <path d="M 284.449308 191.815906 
L 284.449308 132.104464 
L 252.004361 132.104464 
L 252.004361 191.815906 
z
" style="fill: #ffffff"/>
    </g>
    <!-- 2219 -->
    <g transform="translate(264.241338 181.901184) rotate(-90) scale(0.18 -0.18)">
     <use xlink:href="#NimbusSanL-Regu-32" transform="scale(0.996264)"/>
     <use xlink:href="#NimbusSanL-Regu-32" transform="translate(55.391677 0) scale(0.996264)"/>
     <use xlink:href="#NimbusSanL-Regu-31" transform="translate(110.783354 0) scale(0.996264)"/>
     <use xlink:href="#NimbusSanL-Regu-39" transform="translate(166.175031 0) scale(0.996264)"/>
    </g>
    <!-- (617ns) -->
    <g transform="translate(281.169738 192.355906) rotate(-90) scale(0.18 -0.18)">
     <use xlink:href="#NimbusSanL-Regu-28" transform="scale(0.996264)"/>
     <use xlink:href="#NimbusSanL-Regu-36" transform="translate(33.17523 0) scale(0.996264)"/>
     <use xlink:href="#NimbusSanL-Regu-31" transform="translate(88.566907 0) scale(0.996264)"/>
     <use xlink:href="#NimbusSanL-Regu-37" transform="translate(143.958584 0) scale(0.996264)"/>
     <use xlink:href="#NimbusSanL-Regu-6e" transform="translate(199.350261 0) scale(0.996264)"/>
     <use xlink:href="#NimbusSanL-Regu-73" transform="translate(254.741938 0) scale(0.996264)"/>
     <use xlink:href="#NimbusSanL-Regu-29" transform="translate(304.555138 0) scale(0.996264)"/>
    </g>
   </g>
   <g id="text_20">
    <g id="patch_22">
     <path d="M 357.771153 203.039113 
L 357.771153 143.327672 
L 325.326206 143.327672 
L 325.326206 203.039113 
z
" style="fill: #ffffff"/>
    </g>
    <!-- 1968 -->
    <g transform="translate(337.563183 193.124391) rotate(-90) scale(0.18 -0.18)">
     <use xlink:href="#NimbusSanL-Regu-31" transform="scale(0.996264)"/>
     <use xlink:href="#NimbusSanL-Regu-39" transform="translate(55.391677 0) scale(0.996264)"/>
     <use xlink:href="#NimbusSanL-Regu-36" transform="translate(110.783354 0) scale(0.996264)"/>
     <use xlink:href="#NimbusSanL-Regu-38" transform="translate(166.175031 0) scale(0.996264)"/>
    </g>
    <!-- (547ns) -->
    <g transform="translate(354.491584 203.579113) rotate(-90) scale(0.18 -0.18)">
     <use xlink:href="#NimbusSanL-Regu-28" transform="scale(0.996264)"/>
     <use xlink:href="#NimbusSanL-Regu-35" transform="translate(33.17523 0) scale(0.996264)"/>
     <use xlink:href="#NimbusSanL-Regu-34" transform="translate(88.566907 0) scale(0.996264)"/>
     <use xlink:href="#NimbusSanL-Regu-37" transform="translate(143.958584 0) scale(0.996264)"/>
     <use xlink:href="#NimbusSanL-Regu-6e" transform="translate(199.350261 0) scale(0.996264)"/>
     <use xlink:href="#NimbusSanL-Regu-73" transform="translate(254.741938 0) scale(0.996264)"/>
     <use xlink:href="#NimbusSanL-Regu-29" transform="translate(304.555138 0) scale(0.996264)"/>
    </g>
   </g>
   <g id="text_21">
    <g id="patch_23">
     <path d="M 406.652383 144.552581 
L 406.652383 84.841139 
L 374.207436 84.841139 
L 374.207436 144.552581 
z
" style="fill: #ffffff"/>
    </g>
    <!-- 3277 -->
    <g transform="translate(386.444413 134.637859) rotate(-90) scale(0.18 -0.18)">
     <use xlink:href="#NimbusSanL-Regu-33" transform="scale(0.996264)"/>
     <use xlink:href="#NimbusSanL-Regu-32" transform="translate(55.391677 0) scale(0.996264)"/>
     <use xlink:href="#NimbusSanL-Regu-37" transform="translate(110.783354 0) scale(0.996264)"/>
     <use xlink:href="#NimbusSanL-Regu-37" transform="translate(166.175031 0) scale(0.996264)"/>
    </g>
    <!-- (910ns) -->
    <g transform="translate(403.372814 145.092581) rotate(-90) scale(0.18 -0.18)">
     <use xlink:href="#NimbusSanL-Regu-28" transform="scale(0.996264)"/>
     <use xlink:href="#NimbusSanL-Regu-39" transform="translate(33.17523 0) scale(0.996264)"/>
     <use xlink:href="#NimbusSanL-Regu-31" transform="translate(88.566907 0) scale(0.996264)"/>
     <use xlink:href="#NimbusSanL-Regu-30" transform="translate(143.958584 0) scale(0.996264)"/>
     <use xlink:href="#NimbusSanL-Regu-6e" transform="translate(199.350261 0) scale(0.996264)"/>
     <use xlink:href="#NimbusSanL-Regu-73" transform="translate(254.741938 0) scale(0.996264)"/>
     <use xlink:href="#NimbusSanL-Regu-29" transform="translate(304.555138 0) scale(0.996264)"/>
    </g>
   </g>
   <g id="text_22">
    <g id="patch_24">
     <path d="M 479.974228 172.696409 
L 479.974228 112.984967 
L 447.529282 112.984967 
L 447.529282 172.696409 
z
" style="fill: #ffffff"/>
    </g>
    <!-- 2647 -->
    <g transform="translate(459.766258 162.781687) rotate(-90) scale(0.18 -0.18)">
     <use xlink:href="#NimbusSanL-Regu-32" transform="scale(0.996264)"/>
     <use xlink:href="#NimbusSanL-Regu-36" transform="translate(55.391677 0) scale(0.996264)"/>
     <use xlink:href="#NimbusSanL-Regu-34" transform="translate(110.783354 0) scale(0.996264)"/>
     <use xlink:href="#NimbusSanL-Regu-37" transform="translate(166.175031 0) scale(0.996264)"/>
    </g>
    <!-- (735ns) -->
    <g transform="translate(476.694659 173.236409) rotate(-90) scale(0.18 -0.18)">
     <use xlink:href="#NimbusSanL-Regu-28" transform="scale(0.996264)"/>
     <use xlink:href="#NimbusSanL-Regu-37" transform="translate(33.17523 0) scale(0.996264)"/>
     <use xlink:href="#NimbusSanL-Regu-33" transform="translate(88.566907 0) scale(0.996264)"/>
     <use xlink:href="#NimbusSanL-Regu-35" transform="translate(143.958584 0) scale(0.996264)"/>
     <use xlink:href="#NimbusSanL-Regu-6e" transform="translate(199.350261 0) scale(0.996264)"/>
     <use xlink:href="#NimbusSanL-Regu-73" transform="translate(254.741938 0) scale(0.996264)"/>
     <use xlink:href="#NimbusSanL-Regu-29" transform="translate(304.555138 0) scale(0.996264)"/>
    </g>
   </g>
   <g id="text_23">
    <g id="patch_25">
     <path d="M 528.855458 109.813911 
L 528.855458 40.131971 
L 496.410512 40.131971 
L 496.410512 109.813911 
z
" style="fill: #ffffff"/>
    </g>
    <!-- 4054 -->
    <g transform="translate(508.647488 94.91394) rotate(-90) scale(0.18 -0.18)">
     <use xlink:href="#NimbusSanL-Regu-34" transform="scale(0.996264)"/>
     <use xlink:href="#NimbusSanL-Regu-30" transform="translate(55.391677 0) scale(0.996264)"/>
     <use xlink:href="#NimbusSanL-Regu-35" transform="translate(110.783354 0) scale(0.996264)"/>
     <use xlink:href="#NimbusSanL-Regu-34" transform="translate(166.175031 0) scale(0.996264)"/>
    </g>
    <!-- (1126ns) -->
    <g transform="translate(525.575889 110.353911) rotate(-90) scale(0.18 -0.18)">
     <use xlink:href="#NimbusSanL-Regu-28" transform="scale(0.996264)"/>
     <use xlink:href="#NimbusSanL-Regu-31" transform="translate(33.17523 0) scale(0.996264)"/>
     <use xlink:href="#NimbusSanL-Regu-31" transform="translate(88.566907 0) scale(0.996264)"/>
     <use xlink:href="#NimbusSanL-Regu-32" transform="translate(143.958584 0) scale(0.996264)"/>
     <use xlink:href="#NimbusSanL-Regu-36" transform="translate(199.350261 0) scale(0.996264)"/>
     <use xlink:href="#NimbusSanL-Regu-6e" transform="translate(254.741938 0) scale(0.996264)"/>
     <use xlink:href="#NimbusSanL-Regu-73" transform="translate(310.133615 0) scale(0.996264)"/>
     <use xlink:href="#NimbusSanL-Regu-29" transform="translate(359.946815 0) scale(0.996264)"/>
    </g>
   </g>
  </g>
 </g>
 <defs>
  <clipPath id="p594d20c65d">
   <rect x="64.147699" y="27.863874" width="488.812301" height="268.155639"/>
  </clipPath>
 </defs>
 <defs>
  <pattern id="h4f7da95e8d" patternUnits="userSpaceOnUse" x="0" y="0" width="72" height="72">
   <rect x="0" y="0" width="73" height="73" fill="#d5316a"/>
   <path d="M -36 36 
L 36 108 
M -33 33 
L 39 105 
M -30 30 
L 42 102 
M -27 27 
L 45 99 
M -24 24 
L 48 96 
M -21 21 
L 51 93 
M -18 18 
L 54 90 
M -15 15 
L 57 87 
M -12 12 
L 60 84 
M -9 9 
L 63 81 
M -6 6 
L 66 78 
M -3 3 
L 69 75 
M 0 0 
L 72 72 
M 3 -3 
L 75 69 
M 6 -6 
L 78 66 
M 9 -9 
L 81 63 
M 12 -12 
L 84 60 
M 15 -15 
L 87 57 
M 18 -18 
L 90 54 
M 21 -21 
L 93 51 
M 24 -24 
L 96 48 
M 27 -27 
L 99 45 
M 30 -30 
L 102 42 
M 33 -33 
L 105 39 
M 36 -36 
L 108 36 
" style="fill: #000000; stroke: #000000; stroke-width: 1.0; stroke-linecap: butt; stroke-linejoin: miter"/>
  </pattern>
  <pattern id="hacedaa66b4" patternUnits="userSpaceOnUse" x="0" y="0" width="72" height="72">
   <rect x="0" y="0" width="73" height="73" fill="#3db2d7"/>
   <path d="M -36 36 
L 36 108 
M -33 33 
L 39 105 
M -30 30 
L 42 102 
M -27 27 
L 45 99 
M -24 24 
L 48 96 
M -21 21 
L 51 93 
M -18 18 
L 54 90 
M -15 15 
L 57 87 
M -12 12 
L 60 84 
M -9 9 
L 63 81 
M -6 6 
L 66 78 
M -3 3 
L 69 75 
M 0 0 
L 72 72 
M 3 -3 
L 75 69 
M 6 -6 
L 78 66 
M 9 -9 
L 81 63 
M 12 -12 
L 84 60 
M 15 -15 
L 87 57 
M 18 -18 
L 90 54 
M 21 -21 
L 93 51 
M 24 -24 
L 96 48 
M 27 -27 
L 99 45 
M 30 -30 
L 102 42 
M 33 -33 
L 105 39 
M 36 -36 
L 108 36 
" style="fill: #000000; stroke: #000000; stroke-width: 1.0; stroke-linecap: butt; stroke-linejoin: miter"/>
  </pattern>
  <pattern id="h152dbd27b2" patternUnits="userSpaceOnUse" x="0" y="0" width="72" height="72">
   <rect x="0" y="0" width="73" height="73" fill="#e06e36"/>
   <path d="M -36 36 
L 36 108 
M -33 33 
L 39 105 
M -30 30 
L 42 102 
M -27 27 
L 45 99 
M -24 24 
L 48 96 
M -21 21 
L 51 93 
M -18 18 
L 54 90 
M -15 15 
L 57 87 
M -12 12 
L 60 84 
M -9 9 
L 63 81 
M -6 6 
L 66 78 
M -3 3 
L 69 75 
M 0 0 
L 72 72 
M 3 -3 
L 75 69 
M 6 -6 
L 78 66 
M 9 -9 
L 81 63 
M 12 -12 
L 84 60 
M 15 -15 
L 87 57 
M 18 -18 
L 90 54 
M 21 -21 
L 93 51 
M 24 -24 
L 96 48 
M 27 -27 
L 99 45 
M 30 -30 
L 102 42 
M 33 -33 
L 105 39 
M 36 -36 
L 108 36 
" style="fill: #000000; stroke: #000000; stroke-width: 1.0; stroke-linecap: butt; stroke-linejoin: miter"/>
  </pattern>
  <pattern id="h754aeb2869" patternUnits="userSpaceOnUse" x="0" y="0" width="72" height="72">
   <rect x="0" y="0" width="73" height="73" fill="#ffffff"/>
   <path d="M -36 36 
L 36 108 
M -33 33 
L 39 105 
M -30 30 
L 42 102 
M -27 27 
L 45 99 
M -24 24 
L 48 96 
M -21 21 
L 51 93 
M -18 18 
L 54 90 
M -15 15 
L 57 87 
M -12 12 
L 60 84 
M -9 9 
L 63 81 
M -6 6 
L 66 78 
M -3 3 
L 69 75 
M 0 0 
L 72 72 
M 3 -3 
L 75 69 
M 6 -6 
L 78 66 
M 9 -9 
L 81 63 
M 12 -12 
L 84 60 
M 15 -15 
L 87 57 
M 18 -18 
L 90 54 
M 21 -21 
L 93 51 
M 24 -24 
L 96 48 
M 27 -27 
L 99 45 
M 30 -30 
L 102 42 
M 33 -33 
L 105 39 
M 36 -36 
L 108 36 
" style="fill: #000000; stroke: #000000; stroke-width: 1.0; stroke-linecap: butt; stroke-linejoin: miter"/>
  </pattern>
 </defs>
</svg>
