<?xml version="1.0" encoding="utf-8" standalone="no"?>
<!DOCTYPE svg PUBLIC "-//W3C//DTD SVG 1.1//EN"
  "http://www.w3.org/Graphics/SVG/1.1/DTD/svg11.dtd">
<svg xmlns:xlink="http://www.w3.org/1999/xlink" width="576pt" height="288pt" viewBox="0 0 576 288" xmlns="http://www.w3.org/2000/svg" version="1.1">
 <metadata>
  <rdf:RDF xmlns:dc="http://purl.org/dc/elements/1.1/" xmlns:cc="http://creativecommons.org/ns#" xmlns:rdf="http://www.w3.org/1999/02/22-rdf-syntax-ns#">
   <cc:Work>
    <dc:type rdf:resource="http://purl.org/dc/dcmitype/StillImage"/>
    <dc:date>2026-03-24T05:06:11.601525</dc:date>
    <dc:format>image/svg+xml</dc:format>
    <dc:creator>
     <cc:Agent>
      <dc:title>Matplotlib v3.10.8, https://matplotlib.org/</dc:title>
     </cc:Agent>
    </dc:creator>
   </cc:Work>
  </rdf:RDF>
 </metadata>
 <defs>
  <style type="text/css">*{stroke-linejoin: round; stroke-linecap: butt}</style>
 </defs>
 <g id="figure_1">
  <g id="patch_1">
   <path d="M 0 288 
L 576 288 
L 576 0 
L 0 0 
z
" style="fill: #ffffff"/>
  </g>
  <g id="axes_1">
   <g id="patch_2">
    <path d="M 48.803225 232.733287 
L 560.88 232.733287 
L 560.88 15.12 
L 48.803225 15.12 
z
" style="fill: #ffffff"/>
   </g>
   <g id="patch_3">
    <path d="M 48.803225 232.733287 
L 48.803225 15.12 
" style="fill: none; stroke: #000000; stroke-linejoin: miter; stroke-linecap: square"/>
   </g>
   <g id="patch_4">
    <path d="M 560.88 232.733287 
L 560.88 15.12 
" style="fill: none; stroke: #000000; stroke-linejoin: miter; stroke-linecap: square"/>
   </g>
   <g id="patch_5">
    <path d="M 48.803225 232.733287 
L 560.88 232.733287 
" style="fill: none; stroke: #000000; stroke-linejoin: miter; stroke-linecap: square"/>
   </g>
   <g id="patch_6">
    <path d="M 48.803225 15.12 
L 560.88 15.12 
" style="fill: none; stroke: #000000; stroke-linejoin: miter; stroke-linecap: square"/>
   </g>
   <g id="matplotlib.axis_1">
    <g id="xtick_1">
     <g id="line2d_1"/>
     <g id="line2d_2"/>
     <g id="text_1">
      <!-- Linux -->
      <g transform="translate(91.473031 249.510263) scale(0.18 -0.18)">
       <defs>
        <path id="NimbusSanL-Regu-4c" d="M 1107 4672 
L 512 4672 
L 512 0 
L 3411 0 
L 3411 526 
L 1107 526 
L 1107 4672 
z
" transform="scale(0.015625)"/>
        <path id="NimbusSanL-Regu-69" d="M 960 3359 
L 429 3359 
L 429 0 
L 960 0 
L 960 3359 
z
M 960 4672 
L 422 4672 
L 422 3999 
L 960 3999 
L 960 4672 
z
" transform="scale(0.015625)"/>
        <path id="NimbusSanL-Regu-6e" d="M 448 3359 
L 448 0 
L 986 0 
L 986 1853 
C 986 2539 1344 2988 1894 2988 
C 2317 2988 2586 2731 2586 2327 
L 2586 0 
L 3117 0 
L 3117 2539 
C 3117 3097 2701 3456 2054 3456 
C 1555 3456 1235 3263 941 2796 
L 941 3359 
L 448 3359 
z
" transform="scale(0.015625)"/>
        <path id="NimbusSanL-Regu-75" d="M 3085 33 
L 3085 3392 
L 2554 3392 
L 2554 1479 
C 2554 790 2195 340 1638 340 
C 1216 340 947 597 947 1003 
L 947 3392 
L 416 3392 
L 416 792 
C 416 232 832 -128 1485 -128 
C 1978 -128 2291 45 2605 488 
L 2605 33 
L 3085 33 
z
" transform="scale(0.015625)"/>
        <path id="NimbusSanL-Regu-78" d="M 1869 1737 
L 2995 3359 
L 2394 3359 
L 1587 2141 
L 781 3359 
L 173 3359 
L 1293 1712 
L 109 0 
L 717 0 
L 1568 1288 
L 2406 0 
L 3027 0 
L 1869 1737 
z
" transform="scale(0.015625)"/>
       </defs>
       <use xlink:href="#NimbusSanL-Regu-4c" transform="scale(0.996264)"/>
       <use xlink:href="#NimbusSanL-Regu-69" transform="translate(55.391677 0) scale(0.996264)"/>
       <use xlink:href="#NimbusSanL-Regu-6e" transform="translate(77.508461 0) scale(0.996264)"/>
       <use xlink:href="#NimbusSanL-Regu-75" transform="translate(131.904041 0) scale(0.996264)"/>
       <use xlink:href="#NimbusSanL-Regu-78" transform="translate(187.295718 0) scale(0.996264)"/>
      </g>
      <!-- (native) -->
      <g transform="translate(83.143443 269.060431) scale(0.18 -0.18)">
       <defs>
        <path id="NimbusSanL-Regu-28" d="M 1510 4672 
C 870 3830 467 2660 467 1651 
C 467 636 870 -534 1510 -1376 
L 1862 -1376 
C 1299 -457 986 623 986 1651 
C 986 2673 1299 3759 1862 4672 
L 1510 4672 
z
" transform="scale(0.015625)"/>
        <path id="NimbusSanL-Regu-61" d="M 3424 333 
C 3366 320 3341 320 3309 320 
C 3123 320 3021 415 3021 581 
L 3021 2545 
C 3021 3137 2586 3456 1760 3456 
C 1274 3456 870 3316 646 3066 
C 493 2893 429 2702 416 2370 
L 954 2370 
C 998 2777 1242 2962 1741 2962 
C 2221 2962 2490 2783 2490 2465 
L 2490 2325 
C 2490 2101 2355 2006 1933 1955 
C 1178 1860 1062 1834 858 1751 
C 467 1592 269 1292 269 859 
C 269 254 691 -128 1370 -128 
C 1792 -128 2131 19 2509 365 
C 2547 25 2714 -128 3059 -128 
C 3168 -128 3251 -116 3424 -70 
L 3424 333 
z
M 2490 1072 
C 2490 893 2438 785 2278 639 
C 2061 441 1798 340 1485 340 
C 1069 340 826 537 826 874 
C 826 1225 1062 1403 1632 1486 
C 2195 1562 2310 1588 2490 1670 
L 2490 1072 
z
" transform="scale(0.015625)"/>
        <path id="NimbusSanL-Regu-74" d="M 1626 3380 
L 1075 3380 
L 1075 4288 
L 544 4288 
L 544 3380 
L 90 3380 
L 90 2944 
L 544 2944 
L 544 404 
C 544 64 774 -128 1190 -128 
C 1318 -128 1446 -116 1626 -83 
L 1626 366 
C 1555 346 1472 340 1370 340 
C 1139 340 1075 404 1075 641 
L 1075 2944 
L 1626 2944 
L 1626 3380 
z
" transform="scale(0.015625)"/>
        <path id="NimbusSanL-Regu-76" d="M 1824 0 
L 3110 3360 
L 2509 3360 
L 1562 635 
L 666 3360 
L 64 3360 
L 1242 0 
L 1824 0 
z
" transform="scale(0.015625)"/>
        <path id="NimbusSanL-Regu-65" d="M 3283 1529 
C 3283 2034 3245 2338 3149 2584 
C 2931 3127 2419 3456 1792 3456 
C 858 3456 256 2742 256 1645 
C 256 547 838 -128 1779 -128 
C 2547 -128 3078 310 3213 1044 
L 2675 1044 
C 2528 598 2227 365 1798 365 
C 1459 365 1171 520 992 805 
C 864 998 819 1193 813 1529 
L 3283 1529 
z
M 826 1984 
C 870 2577 1248 2962 1786 2962 
C 2310 2962 2714 2530 2714 1984 
C 2714 1984 2714 1984 2707 1984 
L 826 1984 
z
" transform="scale(0.015625)"/>
        <path id="NimbusSanL-Regu-29" d="M 595 -1376 
C 1235 -534 1638 636 1638 1644 
C 1638 2660 1235 3830 595 4672 
L 243 4672 
C 806 3753 1120 2673 1120 1644 
C 1120 623 806 -464 243 -1376 
L 595 -1376 
z
" transform="scale(0.015625)"/>
       </defs>
       <use xlink:href="#NimbusSanL-Regu-28" transform="scale(0.996264)"/>
       <use xlink:href="#NimbusSanL-Regu-6e" transform="translate(33.17523 0) scale(0.996264)"/>
       <use xlink:href="#NimbusSanL-Regu-61" transform="translate(88.566907 0) scale(0.996264)"/>
       <use xlink:href="#NimbusSanL-Regu-74" transform="translate(143.958584 0) scale(0.996264)"/>
       <use xlink:href="#NimbusSanL-Regu-69" transform="translate(171.653753 0) scale(0.996264)"/>
       <use xlink:href="#NimbusSanL-Regu-76" transform="translate(193.770538 0) scale(0.996264)"/>
       <use xlink:href="#NimbusSanL-Regu-65" transform="translate(241.093108 0) scale(0.996264)"/>
       <use xlink:href="#NimbusSanL-Regu-29" transform="translate(296.484785 0) scale(0.996264)"/>
      </g>
     </g>
    </g>
    <g id="xtick_2">
     <g id="line2d_3"/>
     <g id="line2d_4"/>
     <g id="text_2">
      <!-- newlib -->
      <g transform="translate(215.600842 249.510263) scale(0.18 -0.18)">
       <defs>
        <path id="NimbusSanL-Regu-77" d="M 3546 0 
L 4531 3360 
L 3930 3360 
L 3264 744 
L 2605 3360 
L 1952 3360 
L 1312 744 
L 627 3360 
L 38 3360 
L 1011 0 
L 1613 0 
L 2259 2635 
L 2938 0 
L 3546 0 
z
" transform="scale(0.015625)"/>
        <path id="NimbusSanL-Regu-6c" d="M 973 4672 
L 435 4672 
L 435 -2 
L 973 -2 
L 973 4672 
z
" transform="scale(0.015625)"/>
        <path id="NimbusSanL-Regu-62" d="M 346 4672 
L 346 -2 
L 826 -2 
L 826 448 
C 1082 57 1421 -128 1888 -128 
C 2771 -128 3347 592 3347 1702 
C 3347 2786 2797 3456 1914 3456 
C 1453 3456 1126 3282 877 2905 
L 877 4672 
L 346 4672 
z
M 1811 2956 
C 2406 2956 2790 2440 2790 1645 
C 2790 887 2394 372 1811 372 
C 1248 372 877 881 877 1664 
C 877 2447 1248 2956 1811 2956 
z
" transform="scale(0.015625)"/>
       </defs>
       <use xlink:href="#NimbusSanL-Regu-6e" transform="scale(0.996264)"/>
       <use xlink:href="#NimbusSanL-Regu-65" transform="translate(55.391677 0) scale(0.996264)"/>
       <use xlink:href="#NimbusSanL-Regu-77" transform="translate(108.791343 0) scale(0.996264)"/>
       <use xlink:href="#NimbusSanL-Regu-6c" transform="translate(180.721328 0) scale(0.996264)"/>
       <use xlink:href="#NimbusSanL-Regu-69" transform="translate(202.838112 0) scale(0.996264)"/>
       <use xlink:href="#NimbusSanL-Regu-62" transform="translate(224.954896 0) scale(0.996264)"/>
      </g>
      <!-- (native) -->
      <g transform="translate(211.162636 269.060431) scale(0.18 -0.18)">
       <use xlink:href="#NimbusSanL-Regu-28" transform="scale(0.996264)"/>
       <use xlink:href="#NimbusSanL-Regu-6e" transform="translate(33.17523 0) scale(0.996264)"/>
       <use xlink:href="#NimbusSanL-Regu-61" transform="translate(88.566907 0) scale(0.996264)"/>
       <use xlink:href="#NimbusSanL-Regu-74" transform="translate(143.958584 0) scale(0.996264)"/>
       <use xlink:href="#NimbusSanL-Regu-69" transform="translate(171.653753 0) scale(0.996264)"/>
       <use xlink:href="#NimbusSanL-Regu-76" transform="translate(193.770538 0) scale(0.996264)"/>
       <use xlink:href="#NimbusSanL-Regu-65" transform="translate(241.093108 0) scale(0.996264)"/>
       <use xlink:href="#NimbusSanL-Regu-29" transform="translate(296.484785 0) scale(0.996264)"/>
      </g>
     </g>
    </g>
    <g id="xtick_3">
     <g id="line2d_5"/>
     <g id="line2d_6"/>
     <g id="text_3">
      <!-- musl -->
      <g transform="translate(350.012963 249.510263) scale(0.18 -0.18)">
       <defs>
        <path id="NimbusSanL-Regu-6d" d="M 448 3359 
L 448 0 
L 986 0 
L 986 2109 
C 986 2597 1338 2988 1773 2988 
C 2170 2988 2394 2744 2394 2314 
L 2394 0 
L 2931 0 
L 2931 2109 
C 2931 2597 3283 2988 3718 2988 
C 4109 2988 4339 2738 4339 2314 
L 4339 0 
L 4877 0 
L 4877 2520 
C 4877 3122 4531 3456 3904 3456 
C 3456 3456 3187 3321 2874 2943 
C 2675 3302 2406 3456 1971 3456 
C 1523 3456 1229 3289 941 2885 
L 941 3359 
L 448 3359 
z
" transform="scale(0.015625)"/>
        <path id="NimbusSanL-Regu-73" d="M 2803 2427 
C 2797 3085 2362 3456 1587 3456 
C 806 3456 301 3054 301 2436 
C 301 1913 570 1665 1363 1474 
L 1862 1353 
C 2234 1263 2381 1130 2381 888 
C 2381 576 2067 365 1600 365 
C 1312 365 1069 448 934 588 
C 851 684 813 779 781 1014 
L 218 1014 
C 243 241 678 -128 1555 -128 
C 2400 -128 2938 285 2938 929 
C 2938 1426 2656 1701 1990 1860 
L 1478 1981 
C 1043 2082 858 2223 858 2458 
C 858 2764 1133 2962 1568 2962 
C 1997 2962 2227 2777 2240 2427 
L 2803 2427 
z
" transform="scale(0.015625)"/>
       </defs>
       <use xlink:href="#NimbusSanL-Regu-6d" transform="scale(0.996264)"/>
       <use xlink:href="#NimbusSanL-Regu-75" transform="translate(81.992333 0) scale(0.996264)"/>
       <use xlink:href="#NimbusSanL-Regu-73" transform="translate(137.38401 0) scale(0.996264)"/>
       <use xlink:href="#NimbusSanL-Regu-6c" transform="translate(187.197211 0) scale(0.996264)"/>
      </g>
      <!-- (native) -->
      <g transform="translate(339.18183 269.060431) scale(0.18 -0.18)">
       <use xlink:href="#NimbusSanL-Regu-28" transform="scale(0.996264)"/>
       <use xlink:href="#NimbusSanL-Regu-6e" transform="translate(33.17523 0) scale(0.996264)"/>
       <use xlink:href="#NimbusSanL-Regu-61" transform="translate(88.566907 0) scale(0.996264)"/>
       <use xlink:href="#NimbusSanL-Regu-74" transform="translate(143.958584 0) scale(0.996264)"/>
       <use xlink:href="#NimbusSanL-Regu-69" transform="translate(171.653753 0) scale(0.996264)"/>
       <use xlink:href="#NimbusSanL-Regu-76" transform="translate(193.770538 0) scale(0.996264)"/>
       <use xlink:href="#NimbusSanL-Regu-65" transform="translate(241.093108 0) scale(0.996264)"/>
       <use xlink:href="#NimbusSanL-Regu-29" transform="translate(296.484785 0) scale(0.996264)"/>
      </g>
     </g>
    </g>
    <g id="xtick_4">
     <g id="line2d_7"/>
     <g id="line2d_8"/>
     <g id="text_4">
      <!-- musl -->
      <g transform="translate(478.032157 249.510263) scale(0.18 -0.18)">
       <use xlink:href="#NimbusSanL-Regu-6d" transform="scale(0.996264)"/>
       <use xlink:href="#NimbusSanL-Regu-75" transform="translate(81.992333 0) scale(0.996264)"/>
       <use xlink:href="#NimbusSanL-Regu-73" transform="translate(137.38401 0) scale(0.996264)"/>
       <use xlink:href="#NimbusSanL-Regu-6c" transform="translate(187.197211 0) scale(0.996264)"/>
      </g>
      <!-- (external) -->
      <g transform="translate(459.050634 269.060431) scale(0.18 -0.18)">
       <defs>
        <path id="NimbusSanL-Regu-72" d="M 442 3359 
L 442 0 
L 979 0 
L 979 1741 
C 979 2221 1101 2535 1357 2720 
C 1523 2842 1683 2880 2054 2880 
L 2054 3432 
C 1965 3444 1920 3444 1850 3444 
C 1504 3444 1242 3240 934 2746 
L 934 3359 
L 442 3359 
z
" transform="scale(0.015625)"/>
       </defs>
       <use xlink:href="#NimbusSanL-Regu-28" transform="scale(0.996264)"/>
       <use xlink:href="#NimbusSanL-Regu-65" transform="translate(33.17523 0) scale(0.996264)"/>
       <use xlink:href="#NimbusSanL-Regu-78" transform="translate(85.578799 0) scale(0.996264)"/>
       <use xlink:href="#NimbusSanL-Regu-74" transform="translate(135.391999 0) scale(0.996264)"/>
       <use xlink:href="#NimbusSanL-Regu-65" transform="translate(163.087169 0) scale(0.996264)"/>
       <use xlink:href="#NimbusSanL-Regu-72" transform="translate(218.478846 0) scale(0.996264)"/>
       <use xlink:href="#NimbusSanL-Regu-6e" transform="translate(254.14469 0) scale(0.996264)"/>
       <use xlink:href="#NimbusSanL-Regu-61" transform="translate(309.536367 0) scale(0.996264)"/>
       <use xlink:href="#NimbusSanL-Regu-6c" transform="translate(364.928044 0) scale(0.996264)"/>
       <use xlink:href="#NimbusSanL-Regu-29" transform="translate(387.044828 0) scale(0.996264)"/>
      </g>
     </g>
    </g>
   </g>
   <g id="matplotlib.axis_2">
    <g id="ytick_1">
     <g id="line2d_9">
      <path d="M 48.803225 232.733287 
L 560.88 232.733287 
" clip-path="url(#p7d552ba4d7)" style="fill: none; stroke-dasharray: 1,3; stroke-dashoffset: 0; stroke: #000000; stroke-opacity: 0.5; stroke-width: 0.5"/>
     </g>
     <g id="line2d_10"/>
     <g id="line2d_11"/>
     <g id="text_5">
      <!--   0 -->
      <g transform="translate(37.048401 236.216722) scale(0.14 -0.14)">
       <defs>
        <path id="NimbusSanL-Regu-30" d="M 1760 4544 
C 1338 4544 954 4360 717 4046 
C 422 3651 275 3044 275 2208 
C 275 683 787 -128 1760 -128 
C 2720 -128 3245 683 3245 2170 
C 3245 3050 3104 3638 2803 4046 
C 2566 4366 2189 4544 1760 4544 
z
M 1760 4044 
C 2368 4044 2669 3432 2669 2221 
C 2669 939 2374 340 1747 340 
C 1152 340 851 965 851 2202 
C 851 3438 1152 4044 1760 4044 
z
" transform="scale(0.015625)"/>
       </defs>
       <use xlink:href="#NimbusSanL-Regu-30" transform="scale(0.996264)"/>
      </g>
     </g>
    </g>
    <g id="ytick_2">
     <g id="line2d_12">
      <path d="M 48.803225 75.836883 
L 560.88 75.836883 
" clip-path="url(#p7d552ba4d7)" style="fill: none; stroke-dasharray: 1,3; stroke-dashoffset: 0; stroke: #000000; stroke-opacity: 0.5; stroke-width: 0.5"/>
     </g>
     <g id="line2d_13"/>
     <g id="line2d_14"/>
     <g id="text_6">
      <!--   1 -->
      <g transform="translate(37.048401 79.320319) scale(0.14 -0.14)">
       <defs>
        <path id="NimbusSanL-Regu-31" d="M 1658 3238 
L 1658 0 
L 2221 0 
L 2221 4545 
L 1850 4545 
C 1651 3847 1523 3751 653 3642 
L 653 3238 
L 1658 3238 
z
" transform="scale(0.015625)"/>
       </defs>
       <use xlink:href="#NimbusSanL-Regu-31" transform="scale(0.996264)"/>
      </g>
     </g>
    </g>
    <g id="text_7">
     <!-- Time (seconds) -->
     <g transform="translate(28.228831 185.704452) rotate(-90) scale(0.18 -0.18)">
      <defs>
       <path id="NimbusSanL-Regu-54" d="M 2266 4146 
L 3795 4146 
L 3795 4672 
L 134 4672 
L 134 4146 
L 1670 4146 
L 1670 -14 
L 2266 -14 
L 2266 4146 
z
" transform="scale(0.015625)"/>
       <path id="NimbusSanL-Regu-63" d="M 3014 2236 
C 2989 2562 2918 2773 2790 2958 
C 2560 3271 2157 3456 1690 3456 
C 787 3456 198 2742 198 1632 
C 198 554 774 -128 1683 -128 
C 2483 -128 2989 350 3053 1167 
L 2515 1167 
C 2426 632 2150 365 1696 365 
C 1107 365 755 843 755 1632 
C 755 2466 1101 2962 1683 2962 
C 2131 2962 2413 2701 2477 2236 
L 3014 2236 
z
" transform="scale(0.015625)"/>
       <path id="NimbusSanL-Regu-6f" d="M 1741 3456 
C 800 3456 230 2786 230 1663 
C 230 541 794 -128 1747 -128 
C 2688 -128 3264 541 3264 1638 
C 3264 2792 2707 3456 1741 3456 
z
M 1747 2962 
C 2349 2962 2707 2472 2707 1645 
C 2707 861 2336 365 1747 365 
C 1152 365 787 855 787 1663 
C 787 2466 1152 2962 1747 2962 
z
" transform="scale(0.015625)"/>
       <path id="NimbusSanL-Regu-64" d="M 3168 4672 
L 2637 4672 
L 2637 2937 
C 2413 3276 2054 3456 1606 3456 
C 736 3456 166 2761 166 1695 
C 166 566 723 -128 1626 -128 
C 2086 -128 2406 45 2694 461 
L 2694 -2 
L 3168 -2 
L 3168 4672 
z
M 1696 2956 
C 2272 2956 2637 2447 2637 1651 
C 2637 881 2266 372 1702 372 
C 1114 372 723 887 723 1664 
C 723 2440 1114 2956 1696 2956 
z
" transform="scale(0.015625)"/>
      </defs>
      <use xlink:href="#NimbusSanL-Regu-54" transform="scale(0.996264)"/>
      <use xlink:href="#NimbusSanL-Regu-69" transform="translate(60.871631 0) scale(0.996264)"/>
      <use xlink:href="#NimbusSanL-Regu-6d" transform="translate(82.988415 0) scale(0.996264)"/>
      <use xlink:href="#NimbusSanL-Regu-65" transform="translate(165.976845 0) scale(0.996264)"/>
      <use xlink:href="#NimbusSanL-Regu-28" transform="translate(249.063692 0) scale(0.996264)"/>
      <use xlink:href="#NimbusSanL-Regu-73" transform="translate(282.238922 0) scale(0.996264)"/>
      <use xlink:href="#NimbusSanL-Regu-65" transform="translate(332.052122 0) scale(0.996264)"/>
      <use xlink:href="#NimbusSanL-Regu-63" transform="translate(387.443799 0) scale(0.996264)"/>
      <use xlink:href="#NimbusSanL-Regu-6f" transform="translate(437.257 0) scale(0.996264)"/>
      <use xlink:href="#NimbusSanL-Regu-6e" transform="translate(492.648676 0) scale(0.996264)"/>
      <use xlink:href="#NimbusSanL-Regu-64" transform="translate(548.040353 0) scale(0.996264)"/>
      <use xlink:href="#NimbusSanL-Regu-73" transform="translate(603.43203 0) scale(0.996264)"/>
      <use xlink:href="#NimbusSanL-Regu-29" transform="translate(653.245231 0) scale(0.996264)"/>
     </g>
    </g>
   </g>
   <g id="patch_7">
    <path d="M 87.208983 232.733287 
L 138.416661 232.733287 
L 138.416661 51.794883 
L 87.208983 51.794883 
z
" clip-path="url(#p7d552ba4d7)" style="fill: #5697c4; stroke: #000000; stroke-width: 0.5; stroke-linejoin: miter"/>
   </g>
   <g id="patch_8">
    <path d="M 215.228177 232.733287 
L 266.435855 232.733287 
L 266.435855 62.824005 
L 215.228177 62.824005 
z
" clip-path="url(#p7d552ba4d7)" style="fill: #5697c4; stroke: #000000; stroke-width: 0.5; stroke-linejoin: miter"/>
   </g>
   <g id="patch_9">
    <path d="M 343.247371 232.733287 
L 394.455048 232.733287 
L 394.455048 65.645756 
L 343.247371 65.645756 
z
" clip-path="url(#p7d552ba4d7)" style="fill: #5697c4; stroke: #000000; stroke-width: 0.5; stroke-linejoin: miter"/>
   </g>
   <g id="patch_10">
    <path d="M 471.266564 232.733287 
L 522.474242 232.733287 
L 522.474242 56.902829 
L 471.266564 56.902829 
z
" clip-path="url(#p7d552ba4d7)" style="fill: #5697c4; stroke: #000000; stroke-width: 0.5; stroke-linejoin: miter"/>
   </g>
   <g id="LineCollection_1">
    <path d="M 112.812822 52.606886 
L 112.812822 50.98288 
" clip-path="url(#p7d552ba4d7)" style="fill: none; stroke: #000000; stroke-width: 2"/>
   </g>
   <g id="line2d_15">
    <defs>
     <path id="mdc0d98d903" d="M 10 0 
L -10 -0 
" style="stroke: #000000"/>
    </defs>
    <g clip-path="url(#p7d552ba4d7)">
     <use xlink:href="#mdc0d98d903" x="112.812822" y="52.606886" style="fill: #0000ff; stroke: #000000"/>
    </g>
   </g>
   <g id="line2d_16">
    <g clip-path="url(#p7d552ba4d7)">
     <use xlink:href="#mdc0d98d903" x="112.812822" y="50.98288" style="fill: #0000ff; stroke: #000000"/>
    </g>
   </g>
   <g id="LineCollection_2">
    <path d="M 240.832016 63.519093 
L 240.832016 62.128918 
" clip-path="url(#p7d552ba4d7)" style="fill: none; stroke: #000000; stroke-width: 2"/>
   </g>
   <g id="line2d_17">
    <g clip-path="url(#p7d552ba4d7)">
     <use xlink:href="#mdc0d98d903" x="240.832016" y="63.519093" style="fill: #0000ff; stroke: #000000"/>
    </g>
   </g>
   <g id="line2d_18">
    <g clip-path="url(#p7d552ba4d7)">
     <use xlink:href="#mdc0d98d903" x="240.832016" y="62.128918" style="fill: #0000ff; stroke: #000000"/>
    </g>
   </g>
   <g id="LineCollection_3">
    <path d="M 368.851209 66.849542 
L 368.851209 64.441971 
" clip-path="url(#p7d552ba4d7)" style="fill: none; stroke: #000000; stroke-width: 2"/>
   </g>
   <g id="line2d_19">
    <g clip-path="url(#p7d552ba4d7)">
     <use xlink:href="#mdc0d98d903" x="368.851209" y="66.849542" style="fill: #0000ff; stroke: #000000"/>
    </g>
   </g>
   <g id="line2d_20">
    <g clip-path="url(#p7d552ba4d7)">
     <use xlink:href="#mdc0d98d903" x="368.851209" y="64.441971" style="fill: #0000ff; stroke: #000000"/>
    </g>
   </g>
   <g id="LineCollection_4">
    <path d="M 496.870403 58.280258 
L 496.870403 55.525399 
" clip-path="url(#p7d552ba4d7)" style="fill: none; stroke: #000000; stroke-width: 2"/>
   </g>
   <g id="line2d_21">
    <g clip-path="url(#p7d552ba4d7)">
     <use xlink:href="#mdc0d98d903" x="496.870403" y="58.280258" style="fill: #0000ff; stroke: #000000"/>
    </g>
   </g>
   <g id="line2d_22">
    <g clip-path="url(#p7d552ba4d7)">
     <use xlink:href="#mdc0d98d903" x="496.870403" y="55.525399" style="fill: #0000ff; stroke: #000000"/>
    </g>
   </g>
   <g id="text_8">
    <g id="patch_11">
     <path d="M 90.919263 42.598059 
L 134.706381 42.598059 
L 134.706381 27.081514 
L 90.919263 27.081514 
z
" style="fill: #ffffff"/>
    </g>
    <!-- 1.153 -->
    <g transform="translate(90.379263 39.31849) scale(0.18 -0.18)">
     <defs>
      <path id="NimbusSanL-Regu-2e" d="M 1222 667 
L 557 667 
L 557 0 
L 1222 0 
L 1222 667 
z
" transform="scale(0.015625)"/>
      <path id="NimbusSanL-Regu-35" d="M 3046 4544 
L 704 4544 
L 365 2086 
L 883 2086 
C 1146 2399 1363 2508 1715 2508 
C 2323 2508 2707 2092 2707 1421 
C 2707 768 2330 372 1715 372 
C 1222 372 922 621 787 1133 
L 224 1133 
C 301 762 365 582 499 415 
C 755 70 1216 -128 1728 -128 
C 2643 -128 3283 537 3283 1497 
C 3283 2394 2688 3008 1818 3008 
C 1498 3008 1242 2925 979 2732 
L 1158 3987 
L 3046 3987 
L 3046 4544 
z
" transform="scale(0.015625)"/>
      <path id="NimbusSanL-Regu-33" d="M 1414 2112 
L 1485 2112 
L 1722 2112 
C 2342 2112 2662 1830 2662 1284 
C 2662 712 2310 372 1722 372 
C 1107 372 806 681 768 1345 
L 205 1345 
C 230 978 294 740 403 534 
C 634 97 1082 -128 1702 -128 
C 2637 -128 3238 431 3238 1293 
C 3238 1872 3014 2194 2470 2381 
C 2893 2546 3104 2862 3104 3311 
C 3104 4082 2586 4544 1722 4544 
C 806 4544 320 4050 301 3095 
L 864 3095 
C 870 3366 896 3517 966 3655 
C 1094 3900 1376 4051 1728 4051 
C 2227 4051 2528 3760 2528 3287 
C 2528 2971 2413 2781 2163 2681 
C 2010 2618 1811 2592 1414 2592 
L 1414 2112 
z
" transform="scale(0.015625)"/>
     </defs>
     <use xlink:href="#NimbusSanL-Regu-31" transform="scale(0.996264)"/>
     <use xlink:href="#NimbusSanL-Regu-2e" transform="translate(55.391677 0) scale(0.996264)"/>
     <use xlink:href="#NimbusSanL-Regu-31" transform="translate(83.086847 0) scale(0.996264)"/>
     <use xlink:href="#NimbusSanL-Regu-35" transform="translate(138.478524 0) scale(0.996264)"/>
     <use xlink:href="#NimbusSanL-Regu-33" transform="translate(193.8702 0) scale(0.996264)"/>
    </g>
   </g>
   <g id="text_9">
    <g id="patch_12">
     <path d="M 218.938457 53.744097 
L 262.725575 53.744097 
L 262.725575 38.227552 
L 218.938457 38.227552 
z
" style="fill: #ffffff"/>
    </g>
    <!-- 1.083 -->
    <g transform="translate(218.398457 50.464528) scale(0.18 -0.18)">
     <defs>
      <path id="NimbusSanL-Regu-38" d="M 2502 2399 
C 2970 2680 3123 2910 3123 3338 
C 3123 4046 2566 4544 1760 4544 
C 960 4544 397 4046 397 3338 
C 397 2917 550 2687 1011 2399 
C 493 2150 237 1774 237 1276 
C 237 446 864 -128 1760 -128 
C 2656 -128 3283 447 3283 1270 
C 3283 1774 3027 2150 2502 2399 
z
M 1760 4044 
C 2240 4044 2547 3764 2547 3325 
C 2547 2904 2234 2624 1760 2624 
C 1286 2624 973 2904 973 3331 
C 973 3764 1286 4044 1760 4044 
z
M 1760 2149 
C 2323 2149 2707 1792 2707 1263 
C 2707 729 2323 372 1747 372 
C 1197 372 813 735 813 1263 
C 813 1792 1197 2149 1760 2149 
z
" transform="scale(0.015625)"/>
     </defs>
     <use xlink:href="#NimbusSanL-Regu-31" transform="scale(0.996264)"/>
     <use xlink:href="#NimbusSanL-Regu-2e" transform="translate(55.391677 0) scale(0.996264)"/>
     <use xlink:href="#NimbusSanL-Regu-30" transform="translate(83.086847 0) scale(0.996264)"/>
     <use xlink:href="#NimbusSanL-Regu-38" transform="translate(138.478524 0) scale(0.996264)"/>
     <use xlink:href="#NimbusSanL-Regu-33" transform="translate(193.8702 0) scale(0.996264)"/>
    </g>
   </g>
   <g id="text_10">
    <g id="patch_13">
     <path d="M 346.95765 56.057151 
L 390.744769 56.057151 
L 390.744769 40.540605 
L 346.95765 40.540605 
z
" style="fill: #ffffff"/>
    </g>
    <!-- 1.065 -->
    <g transform="translate(346.41765 52.777581) scale(0.18 -0.18)">
     <defs>
      <path id="NimbusSanL-Regu-36" d="M 3187 3382 
C 3078 4111 2592 4544 1901 4544 
C 1402 4544 954 4302 685 3900 
C 403 3460 275 2904 275 2081 
C 275 1321 390 836 659 434 
C 902 69 1299 -128 1798 -128 
C 2662 -128 3283 518 3283 1415 
C 3283 2268 2707 2868 1894 2868 
C 1446 2868 1094 2695 851 2362 
C 858 3444 1216 4044 1862 4044 
C 2259 4044 2534 3803 2624 3382 
L 3187 3382 
z
M 1824 2368 
C 2368 2368 2707 1986 2707 1370 
C 2707 793 2323 372 1805 372 
C 1280 372 883 813 883 1402 
C 883 1973 1267 2368 1824 2368 
z
" transform="scale(0.015625)"/>
     </defs>
     <use xlink:href="#NimbusSanL-Regu-31" transform="scale(0.996264)"/>
     <use xlink:href="#NimbusSanL-Regu-2e" transform="translate(55.391677 0) scale(0.996264)"/>
     <use xlink:href="#NimbusSanL-Regu-30" transform="translate(83.086847 0) scale(0.996264)"/>
     <use xlink:href="#NimbusSanL-Regu-36" transform="translate(138.478524 0) scale(0.996264)"/>
     <use xlink:href="#NimbusSanL-Regu-35" transform="translate(193.8702 0) scale(0.996264)"/>
    </g>
   </g>
   <g id="text_11">
    <g id="patch_14">
     <path d="M 474.976844 47.140579 
L 518.763962 47.140579 
L 518.763962 31.624033 
L 474.976844 31.624033 
z
" style="fill: #ffffff"/>
    </g>
    <!-- 1.121 -->
    <g transform="translate(474.436844 43.861009) scale(0.18 -0.18)">
     <defs>
      <path id="NimbusSanL-Regu-32" d="M 3238 558 
L 851 558 
C 909 930 1114 1167 1670 1494 
L 2310 1840 
C 2944 2186 3270 2653 3270 3211 
C 3270 3589 3117 3942 2848 4185 
C 2579 4429 2246 4544 1818 4544 
C 1242 4544 813 4339 563 3955 
C 403 3711 333 3429 320 2967 
L 883 2967 
C 902 3275 941 3461 1018 3608 
C 1165 3884 1459 4051 1798 4051 
C 2310 4051 2694 3685 2694 3198 
C 2694 2839 2483 2531 2080 2301 
L 1491 1968 
C 544 1430 269 1000 218 0 
L 3238 0 
L 3238 558 
z
" transform="scale(0.015625)"/>
     </defs>
     <use xlink:href="#NimbusSanL-Regu-31" transform="scale(0.996264)"/>
     <use xlink:href="#NimbusSanL-Regu-2e" transform="translate(55.391677 0) scale(0.996264)"/>
     <use xlink:href="#NimbusSanL-Regu-31" transform="translate(83.086847 0) scale(0.996264)"/>
     <use xlink:href="#NimbusSanL-Regu-32" transform="translate(138.478524 0) scale(0.996264)"/>
     <use xlink:href="#NimbusSanL-Regu-31" transform="translate(193.8702 0) scale(0.996264)"/>
    </g>
   </g>
  </g>
 </g>
 <defs>
  <clipPath id="p7d552ba4d7">
   <rect x="48.803225" y="15.12" width="512.076775" height="217.613287"/>
  </clipPath>
 </defs>
</svg>
