<?xml version="1.0" encoding="utf-8" standalone="no"?>
<!DOCTYPE svg PUBLIC "-//W3C//DTD SVG 1.1//EN"
  "http://www.w3.org/Graphics/SVG/1.1/DTD/svg11.dtd">
<svg xmlns:xlink="http://www.w3.org/1999/xlink" width="576pt" height="360pt" viewBox="0 0 576 360" xmlns="http://www.w3.org/2000/svg" version="1.1">
 <metadata>
  <rdf:RDF xmlns:dc="http://purl.org/dc/elements/1.1/" xmlns:cc="http://creativecommons.org/ns#" xmlns:rdf="http://www.w3.org/1999/02/22-rdf-syntax-ns#">
   <cc:Work>
    <dc:type rdf:resource="http://purl.org/dc/dcmitype/StillImage"/>
    <dc:date>2026-03-24T05:05:07.984338</dc:date>
    <dc:format>image/svg+xml</dc:format>
    <dc:creator>
     <cc:Agent>
      <dc:title>Matplotlib v3.10.8, https://matplotlib.org/</dc:title>
     </cc:Agent>
    </dc:creator>
   </cc:Work>
  </rdf:RDF>
 </metadata>
 <defs>
  <style type="text/css">*{stroke-linejoin: round; stroke-linecap: butt}</style>
 </defs>
 <g id="figure_1">
  <g id="patch_1">
   <path d="M 0 360 
L 576 360 
L 576 0 
L 0 0 
z
" style="fill: #ffffff"/>
  </g>
  <g id="axes_1">
   <g id="patch_2">
    <path d="M 77.147572 268.033115 
L 560.88 268.033115 
L 560.88 15.12 
L 77.147572 15.12 
z
" style="fill: #ffffff"/>
   </g>
   <g id="line2d_1">
    <path d="M 146.252204 273.091377 
L 146.252204 15.12 
" style="fill: none; stroke: #000000; stroke-width: 0.5; stroke-linecap: square"/>
   </g>
   <g id="line2d_2">
    <path d="M 215.356837 273.091377 
L 215.356837 15.12 
" style="fill: none; stroke: #000000; stroke-width: 0.5; stroke-linecap: square"/>
   </g>
   <g id="line2d_3">
    <path d="M 284.46147 273.091377 
L 284.46147 15.12 
" style="fill: none; stroke: #000000; stroke-width: 0.5; stroke-linecap: square"/>
   </g>
   <g id="line2d_4">
    <path d="M 353.566102 273.091377 
L 353.566102 15.12 
" style="fill: none; stroke: #000000; stroke-width: 0.5; stroke-linecap: square"/>
   </g>
   <g id="line2d_5">
    <path d="M 422.670735 273.091377 
L 422.670735 15.12 
" style="fill: none; stroke: #000000; stroke-width: 0.5; stroke-linecap: square"/>
   </g>
   <g id="line2d_6">
    <path d="M 491.775367 273.091377 
L 491.775367 15.12 
" style="fill: none; stroke: #000000; stroke-width: 0.5; stroke-linecap: square"/>
   </g>
   <g id="patch_3">
    <path d="M 77.147572 268.033115 
L 77.147572 15.12 
" style="fill: none; stroke: #000000; stroke-linejoin: miter; stroke-linecap: square"/>
   </g>
   <g id="patch_4">
    <path d="M 560.88 268.033115 
L 560.88 15.12 
" style="fill: none; stroke: #000000; stroke-linejoin: miter; stroke-linecap: square"/>
   </g>
   <g id="patch_5">
    <path d="M 77.147572 268.033115 
L 560.88 268.033115 
" style="fill: none; stroke: #000000; stroke-linejoin: miter; stroke-linecap: square"/>
   </g>
   <g id="patch_6">
    <path d="M 77.147572 15.12 
L 560.88 15.12 
" style="fill: none; stroke: #000000; stroke-linejoin: miter; stroke-linecap: square"/>
   </g>
   <g id="matplotlib.axis_1">
    <g id="xtick_1">
     <g id="line2d_7"/>
     <g id="line2d_8"/>
     <g id="text_1">
      <!-- Unikraft -->
      <g transform="translate(72.725777 321.415436) rotate(-40) scale(0.18 -0.18)">
       <defs>
        <path id="NimbusSanL-Regu-55" d="M 3533 4672 
L 3533 1395 
C 3533 768 3078 384 2330 384 
C 1984 384 1702 468 1478 628 
C 1248 806 1139 1044 1139 1395 
L 1139 4672 
L 544 4672 
L 544 1394 
C 544 447 1222 -141 2330 -141 
C 3424 -141 4128 460 4128 1394 
L 4128 4672 
L 3533 4672 
z
" transform="scale(0.015625)"/>
        <path id="NimbusSanL-Regu-6e" d="M 448 3359 
L 448 0 
L 986 0 
L 986 1853 
C 986 2539 1344 2988 1894 2988 
C 2317 2988 2586 2731 2586 2327 
L 2586 0 
L 3117 0 
L 3117 2539 
C 3117 3097 2701 3456 2054 3456 
C 1555 3456 1235 3263 941 2796 
L 941 3359 
L 448 3359 
z
" transform="scale(0.015625)"/>
        <path id="NimbusSanL-Regu-69" d="M 960 3359 
L 429 3359 
L 429 0 
L 960 0 
L 960 3359 
z
M 960 4672 
L 422 4672 
L 422 3999 
L 960 3999 
L 960 4672 
z
" transform="scale(0.015625)"/>
        <path id="NimbusSanL-Regu-6b" d="M 902 4672 
L 371 4672 
L 371 -2 
L 902 -2 
L 902 1306 
L 1421 1819 
L 2554 -2 
L 3213 -2 
L 1843 2197 
L 3008 3357 
L 2323 3357 
L 902 1934 
L 902 4672 
z
" transform="scale(0.015625)"/>
        <path id="NimbusSanL-Regu-72" d="M 442 3359 
L 442 0 
L 979 0 
L 979 1741 
C 979 2221 1101 2535 1357 2720 
C 1523 2842 1683 2880 2054 2880 
L 2054 3432 
C 1965 3444 1920 3444 1850 3444 
C 1504 3444 1242 3240 934 2746 
L 934 3359 
L 442 3359 
z
" transform="scale(0.015625)"/>
        <path id="NimbusSanL-Regu-61" d="M 3424 333 
C 3366 320 3341 320 3309 320 
C 3123 320 3021 415 3021 581 
L 3021 2545 
C 3021 3137 2586 3456 1760 3456 
C 1274 3456 870 3316 646 3066 
C 493 2893 429 2702 416 2370 
L 954 2370 
C 998 2777 1242 2962 1741 2962 
C 2221 2962 2490 2783 2490 2465 
L 2490 2325 
C 2490 2101 2355 2006 1933 1955 
C 1178 1860 1062 1834 858 1751 
C 467 1592 269 1292 269 859 
C 269 254 691 -128 1370 -128 
C 1792 -128 2131 19 2509 365 
C 2547 25 2714 -128 3059 -128 
C 3168 -128 3251 -116 3424 -70 
L 3424 333 
z
M 2490 1072 
C 2490 893 2438 785 2278 639 
C 2061 441 1798 340 1485 340 
C 1069 340 826 537 826 874 
C 826 1225 1062 1403 1632 1486 
C 2195 1562 2310 1588 2490 1670 
L 2490 1072 
z
" transform="scale(0.015625)"/>
        <path id="NimbusSanL-Regu-66" d="M 1651 3328 
L 1094 3328 
L 1094 3856 
C 1094 4082 1222 4198 1466 4198 
C 1510 4198 1530 4198 1651 4198 
L 1651 4640 
C 1530 4666 1459 4672 1350 4672 
C 858 4672 563 4388 563 3903 
L 563 3328 
L 115 3328 
L 115 2892 
L 563 2892 
L 563 -26 
L 1094 -26 
L 1094 2892 
L 1651 2892 
L 1651 3328 
z
" transform="scale(0.015625)"/>
        <path id="NimbusSanL-Regu-74" d="M 1626 3380 
L 1075 3380 
L 1075 4288 
L 544 4288 
L 544 3380 
L 90 3380 
L 90 2944 
L 544 2944 
L 544 404 
C 544 64 774 -128 1190 -128 
C 1318 -128 1446 -116 1626 -83 
L 1626 366 
C 1555 346 1472 340 1370 340 
C 1139 340 1075 404 1075 641 
L 1075 2944 
L 1626 2944 
L 1626 3380 
z
" transform="scale(0.015625)"/>
       </defs>
       <use xlink:href="#NimbusSanL-Regu-55" transform="scale(0.996264)"/>
       <use xlink:href="#NimbusSanL-Regu-6e" transform="translate(71.929985 0) scale(0.996264)"/>
       <use xlink:href="#NimbusSanL-Regu-69" transform="translate(127.321662 0) scale(0.996264)"/>
       <use xlink:href="#NimbusSanL-Regu-6b" transform="translate(149.438446 0) scale(0.996264)"/>
       <use xlink:href="#NimbusSanL-Regu-72" transform="translate(199.251647 0) scale(0.996264)"/>
       <use xlink:href="#NimbusSanL-Regu-61" transform="translate(231.43078 0) scale(0.996264)"/>
       <use xlink:href="#NimbusSanL-Regu-66" transform="translate(286.822457 0) scale(0.996264)"/>
       <use xlink:href="#NimbusSanL-Regu-74" transform="translate(314.517626 0) scale(0.996264)"/>
      </g>
     </g>
    </g>
    <g id="xtick_2">
     <g id="line2d_9"/>
     <g id="line2d_10"/>
     <g id="text_2">
      <!-- Docker -->
      <g transform="translate(146.061044 317.865512) rotate(-40) scale(0.18 -0.18)">
       <defs>
        <path id="NimbusSanL-Regu-44" d="M 570 0 
L 2368 0 
C 3546 0 4269 885 4269 2339 
C 4269 3787 3552 4672 2368 4672 
L 570 4672 
L 570 0 
z
M 1165 526 
L 1165 4146 
L 2266 4146 
C 3187 4146 3674 3524 3674 2333 
C 3674 1154 3187 526 2266 526 
L 1165 526 
z
" transform="scale(0.015625)"/>
        <path id="NimbusSanL-Regu-6f" d="M 1741 3456 
C 800 3456 230 2786 230 1663 
C 230 541 794 -128 1747 -128 
C 2688 -128 3264 541 3264 1638 
C 3264 2792 2707 3456 1741 3456 
z
M 1747 2962 
C 2349 2962 2707 2472 2707 1645 
C 2707 861 2336 365 1747 365 
C 1152 365 787 855 787 1663 
C 787 2466 1152 2962 1747 2962 
z
" transform="scale(0.015625)"/>
        <path id="NimbusSanL-Regu-63" d="M 3014 2236 
C 2989 2562 2918 2773 2790 2958 
C 2560 3271 2157 3456 1690 3456 
C 787 3456 198 2742 198 1632 
C 198 554 774 -128 1683 -128 
C 2483 -128 2989 350 3053 1167 
L 2515 1167 
C 2426 632 2150 365 1696 365 
C 1107 365 755 843 755 1632 
C 755 2466 1101 2962 1683 2962 
C 2131 2962 2413 2701 2477 2236 
L 3014 2236 
z
" transform="scale(0.015625)"/>
        <path id="NimbusSanL-Regu-65" d="M 3283 1529 
C 3283 2034 3245 2338 3149 2584 
C 2931 3127 2419 3456 1792 3456 
C 858 3456 256 2742 256 1645 
C 256 547 838 -128 1779 -128 
C 2547 -128 3078 310 3213 1044 
L 2675 1044 
C 2528 598 2227 365 1798 365 
C 1459 365 1171 520 992 805 
C 864 998 819 1193 813 1529 
L 3283 1529 
z
M 826 1984 
C 870 2577 1248 2962 1786 2962 
C 2310 2962 2714 2530 2714 1984 
C 2714 1984 2714 1984 2707 1984 
L 826 1984 
z
" transform="scale(0.015625)"/>
       </defs>
       <use xlink:href="#NimbusSanL-Regu-44" transform="scale(0.996264)"/>
       <use xlink:href="#NimbusSanL-Regu-6f" transform="translate(71.929985 0) scale(0.996264)"/>
       <use xlink:href="#NimbusSanL-Regu-63" transform="translate(127.321662 0) scale(0.996264)"/>
       <use xlink:href="#NimbusSanL-Regu-6b" transform="translate(175.142851 0) scale(0.996264)"/>
       <use xlink:href="#NimbusSanL-Regu-65" transform="translate(222.96404 0) scale(0.996264)"/>
       <use xlink:href="#NimbusSanL-Regu-72" transform="translate(278.355717 0) scale(0.996264)"/>
      </g>
     </g>
    </g>
    <g id="xtick_3">
     <g id="line2d_11"/>
     <g id="line2d_12"/>
     <g id="text_3">
      <!-- Rumprun -->
      <g transform="translate(201.428904 329.392033) rotate(-40) scale(0.18 -0.18)">
       <defs>
        <path id="NimbusSanL-Regu-52" d="M 1190 2034 
L 2726 2034 
C 3258 2034 3494 1774 3494 1187 
L 3488 762 
C 3488 468 3539 181 3622 -14 
L 4346 -14 
L 4346 136 
C 4122 292 4077 462 4064 1093 
C 4058 1873 3936 2108 3430 2329 
C 3955 2583 4166 2906 4166 3434 
C 4166 4233 3661 4672 2746 4672 
L 595 4672 
L 595 -14 
L 1190 -14 
L 1190 2034 
z
M 1190 2560 
L 1190 4146 
L 2630 4146 
C 2963 4146 3155 4096 3302 3969 
C 3462 3836 3546 3628 3546 3350 
C 3546 2806 3264 2560 2630 2560 
L 1190 2560 
z
" transform="scale(0.015625)"/>
        <path id="NimbusSanL-Regu-75" d="M 3085 33 
L 3085 3392 
L 2554 3392 
L 2554 1479 
C 2554 790 2195 340 1638 340 
C 1216 340 947 597 947 1003 
L 947 3392 
L 416 3392 
L 416 792 
C 416 232 832 -128 1485 -128 
C 1978 -128 2291 45 2605 488 
L 2605 33 
L 3085 33 
z
" transform="scale(0.015625)"/>
        <path id="NimbusSanL-Regu-6d" d="M 448 3359 
L 448 0 
L 986 0 
L 986 2109 
C 986 2597 1338 2988 1773 2988 
C 2170 2988 2394 2744 2394 2314 
L 2394 0 
L 2931 0 
L 2931 2109 
C 2931 2597 3283 2988 3718 2988 
C 4109 2988 4339 2738 4339 2314 
L 4339 0 
L 4877 0 
L 4877 2520 
C 4877 3122 4531 3456 3904 3456 
C 3456 3456 3187 3321 2874 2943 
C 2675 3302 2406 3456 1971 3456 
C 1523 3456 1229 3289 941 2885 
L 941 3359 
L 448 3359 
z
" transform="scale(0.015625)"/>
        <path id="NimbusSanL-Regu-70" d="M 346 -1408 
L 883 -1408 
L 883 320 
C 1165 -27 1478 -180 1914 -180 
C 2778 -180 3347 522 3347 1599 
C 3347 2734 2797 3444 1907 3444 
C 1453 3444 1088 3238 838 2841 
L 838 3349 
L 346 3349 
L 346 -1408 
z
M 1818 2944 
C 2406 2944 2790 2420 2790 1612 
C 2790 843 2400 320 1818 320 
C 1254 320 883 837 883 1632 
C 883 2427 1254 2944 1818 2944 
z
" transform="scale(0.015625)"/>
       </defs>
       <use xlink:href="#NimbusSanL-Regu-52" transform="scale(0.996264)"/>
       <use xlink:href="#NimbusSanL-Regu-75" transform="translate(71.929985 0) scale(0.996264)"/>
       <use xlink:href="#NimbusSanL-Regu-6d" transform="translate(127.321662 0) scale(0.996264)"/>
       <use xlink:href="#NimbusSanL-Regu-70" transform="translate(210.310092 0) scale(0.996264)"/>
       <use xlink:href="#NimbusSanL-Regu-72" transform="translate(265.701769 0) scale(0.996264)"/>
       <use xlink:href="#NimbusSanL-Regu-75" transform="translate(300.370376 0) scale(0.996264)"/>
       <use xlink:href="#NimbusSanL-Regu-6e" transform="translate(355.762053 0) scale(0.996264)"/>
      </g>
     </g>
    </g>
    <g id="xtick_4">
     <g id="line2d_13"/>
     <g id="line2d_14"/>
     <g id="text_4">
      <!-- Hermitux -->
      <g transform="translate(271.934622 328.216382) rotate(-40) scale(0.18 -0.18)">
       <defs>
        <path id="NimbusSanL-Regu-48" d="M 3526 2112 
L 3526 -2 
L 4122 -2 
L 4122 4672 
L 3526 4672 
L 3526 2638 
L 1126 2638 
L 1126 4672 
L 531 4672 
L 531 -2 
L 1133 -2 
L 1133 2112 
L 3526 2112 
z
" transform="scale(0.015625)"/>
        <path id="NimbusSanL-Regu-78" d="M 1869 1737 
L 2995 3359 
L 2394 3359 
L 1587 2141 
L 781 3359 
L 173 3359 
L 1293 1712 
L 109 0 
L 717 0 
L 1568 1288 
L 2406 0 
L 3027 0 
L 1869 1737 
z
" transform="scale(0.015625)"/>
       </defs>
       <use xlink:href="#NimbusSanL-Regu-48" transform="scale(0.996264)"/>
       <use xlink:href="#NimbusSanL-Regu-65" transform="translate(71.929985 0) scale(0.996264)"/>
       <use xlink:href="#NimbusSanL-Regu-72" transform="translate(127.321662 0) scale(0.996264)"/>
       <use xlink:href="#NimbusSanL-Regu-6d" transform="translate(162.987506 0) scale(0.996264)"/>
       <use xlink:href="#NimbusSanL-Regu-69" transform="translate(245.975936 0) scale(0.996264)"/>
       <use xlink:href="#NimbusSanL-Regu-74" transform="translate(268.092721 0) scale(0.996264)"/>
       <use xlink:href="#NimbusSanL-Regu-75" transform="translate(295.78789 0) scale(0.996264)"/>
       <use xlink:href="#NimbusSanL-Regu-78" transform="translate(351.179567 0) scale(0.996264)"/>
      </g>
     </g>
    </g>
    <g id="xtick_5">
     <g id="line2d_15"/>
     <g id="line2d_16"/>
     <g id="text_5">
      <!-- Lupine -->
      <g transform="translate(355.09244 316.42436) rotate(-40) scale(0.18 -0.18)">
       <defs>
        <path id="NimbusSanL-Regu-4c" d="M 1107 4672 
L 512 4672 
L 512 0 
L 3411 0 
L 3411 526 
L 1107 526 
L 1107 4672 
z
" transform="scale(0.015625)"/>
       </defs>
       <use xlink:href="#NimbusSanL-Regu-4c" transform="scale(0.996264)"/>
       <use xlink:href="#NimbusSanL-Regu-75" transform="translate(55.391677 0) scale(0.996264)"/>
       <use xlink:href="#NimbusSanL-Regu-70" transform="translate(110.783354 0) scale(0.996264)"/>
       <use xlink:href="#NimbusSanL-Regu-69" transform="translate(166.175031 0) scale(0.996264)"/>
       <use xlink:href="#NimbusSanL-Regu-6e" transform="translate(188.291815 0) scale(0.996264)"/>
       <use xlink:href="#NimbusSanL-Regu-65" transform="translate(243.683492 0) scale(0.996264)"/>
      </g>
     </g>
    </g>
    <g id="xtick_6">
     <g id="line2d_17"/>
     <g id="line2d_18"/>
     <g id="text_6">
      <!-- OSv -->
      <g transform="translate(438.717162 304.240558) rotate(-40) scale(0.18 -0.18)">
       <defs>
        <path id="NimbusSanL-Regu-4f" d="M 2490 4750 
C 1152 4750 243 3766 243 2311 
C 243 855 1152 -128 2496 -128 
C 3059 -128 3565 44 3942 363 
C 4448 791 4749 1512 4749 2272 
C 4749 3773 3859 4750 2490 4750 
z
M 2490 4224 
C 3501 4224 4154 3459 4154 2285 
C 4154 1163 3482 397 2496 397 
C 1504 397 838 1163 838 2311 
C 838 3459 1504 4224 2490 4224 
z
" transform="scale(0.015625)"/>
        <path id="NimbusSanL-Regu-53" d="M 3814 3335 
C 3808 4255 3181 4788 2106 4788 
C 1082 4788 448 4260 448 3410 
C 448 2837 749 2477 1363 2316 
L 2522 2007 
C 3110 1852 3379 1614 3379 1247 
C 3379 995 3245 738 3046 597 
C 2861 468 2566 397 2189 397 
C 1683 397 1338 520 1114 790 
C 941 996 864 1222 870 1511 
L 307 1511 
C 314 1081 397 798 582 540 
C 902 103 1440 -128 2150 -128 
C 2707 -128 3162 1 3462 232 
C 3776 483 3974 901 3974 1307 
C 3974 1886 3616 2311 2982 2485 
L 1811 2801 
C 1248 2955 1043 3135 1043 3496 
C 1043 3972 1459 4288 2086 4288 
C 2829 4288 3245 3947 3251 3335 
L 3814 3335 
z
" transform="scale(0.015625)"/>
        <path id="NimbusSanL-Regu-76" d="M 1824 0 
L 3110 3360 
L 2509 3360 
L 1562 635 
L 666 3360 
L 64 3360 
L 1242 0 
L 1824 0 
z
" transform="scale(0.015625)"/>
       </defs>
       <use xlink:href="#NimbusSanL-Regu-4f" transform="scale(0.996264)"/>
       <use xlink:href="#NimbusSanL-Regu-53" transform="translate(77.50837 0) scale(0.996264)"/>
       <use xlink:href="#NimbusSanL-Regu-76" transform="translate(143.958401 0) scale(0.996264)"/>
      </g>
     </g>
    </g>
    <g id="xtick_7">
     <g id="line2d_19"/>
     <g id="line2d_20"/>
     <g id="text_7">
      <!-- Linux -->
      <g transform="translate(501.846109 309.254753) rotate(-40) scale(0.18 -0.18)">
       <use xlink:href="#NimbusSanL-Regu-4c" transform="scale(0.996264)"/>
       <use xlink:href="#NimbusSanL-Regu-69" transform="translate(55.391677 0) scale(0.996264)"/>
       <use xlink:href="#NimbusSanL-Regu-6e" transform="translate(77.508461 0) scale(0.996264)"/>
       <use xlink:href="#NimbusSanL-Regu-75" transform="translate(131.904041 0) scale(0.996264)"/>
       <use xlink:href="#NimbusSanL-Regu-78" transform="translate(187.295718 0) scale(0.996264)"/>
      </g>
      <!-- MicroVM -->
      <g transform="translate(492.671748 341.95404) rotate(-40) scale(0.18 -0.18)">
       <defs>
        <path id="NimbusSanL-Regu-4d" d="M 2995 -2 
L 4307 3915 
L 4307 -2 
L 4870 -2 
L 4870 4672 
L 4045 4672 
L 2688 601 
L 1306 4672 
L 480 4672 
L 480 -2 
L 1043 -2 
L 1043 3915 
L 2368 -2 
L 2995 -2 
z
" transform="scale(0.015625)"/>
        <path id="NimbusSanL-Regu-56" d="M 2509 0 
L 4128 4672 
L 3494 4672 
L 2202 718 
L 832 4672 
L 192 4672 
L 1869 0 
L 2509 0 
z
" transform="scale(0.015625)"/>
       </defs>
       <use xlink:href="#NimbusSanL-Regu-4d" transform="scale(0.996264)"/>
       <use xlink:href="#NimbusSanL-Regu-69" transform="translate(82.98843 0) scale(0.996264)"/>
       <use xlink:href="#NimbusSanL-Regu-63" transform="translate(105.105215 0) scale(0.996264)"/>
       <use xlink:href="#NimbusSanL-Regu-72" transform="translate(154.918415 0) scale(0.996264)"/>
       <use xlink:href="#NimbusSanL-Regu-6f" transform="translate(188.093645 0) scale(0.996264)"/>
       <use xlink:href="#NimbusSanL-Regu-56" transform="translate(243.485322 0) scale(0.996264)"/>
       <use xlink:href="#NimbusSanL-Regu-4d" transform="translate(309.935353 0) scale(0.996264)"/>
      </g>
     </g>
    </g>
   </g>
   <g id="matplotlib.axis_2">
    <g id="ytick_1">
     <g id="line2d_21">
      <path d="M 77.147572 268.033115 
L 560.88 268.033115 
" clip-path="url(#p18e93a90b3)" style="fill: none; stroke-dasharray: 1,3; stroke-dashoffset: 0; stroke: #000000; stroke-opacity: 0.5; stroke-width: 0.5"/>
     </g>
     <g id="line2d_22"/>
     <g id="line2d_23"/>
     <g id="text_8">
      <!-- 0B -->
      <g transform="translate(56.089743 271.51655) scale(0.14 -0.14)">
       <defs>
        <path id="NimbusSanL-Regu-30" d="M 1760 4544 
C 1338 4544 954 4360 717 4046 
C 422 3651 275 3044 275 2208 
C 275 683 787 -128 1760 -128 
C 2720 -128 3245 683 3245 2170 
C 3245 3050 3104 3638 2803 4046 
C 2566 4366 2189 4544 1760 4544 
z
M 1760 4044 
C 2368 4044 2669 3432 2669 2221 
C 2669 939 2374 340 1747 340 
C 1152 340 851 965 851 2202 
C 851 3438 1152 4044 1760 4044 
z
" transform="scale(0.015625)"/>
        <path id="NimbusSanL-Regu-42" d="M 506 0 
L 2611 0 
C 3053 0 3379 121 3629 388 
C 3859 629 3987 959 3987 1322 
C 3987 1881 3731 2217 3136 2446 
C 3558 2647 3782 2996 3782 3475 
C 3782 3817 3654 4122 3411 4342 
C 3168 4568 2848 4672 2400 4672 
L 506 4672 
L 506 0 
z
M 1101 2638 
L 1101 4146 
L 2253 4146 
C 2586 4146 2771 4100 2931 3977 
C 3098 3847 3187 3652 3187 3391 
C 3187 3138 3098 2937 2931 2806 
C 2771 2683 2586 2638 2253 2638 
L 1101 2638 
z
M 1101 526 
L 1101 2112 
L 2554 2112 
C 2842 2112 3034 2042 3174 1891 
C 3315 1745 3392 1543 3392 1316 
C 3392 1095 3315 893 3174 747 
C 3034 595 2842 526 2554 526 
L 1101 526 
z
" transform="scale(0.015625)"/>
       </defs>
       <use xlink:href="#NimbusSanL-Regu-30" transform="scale(0.996264)"/>
       <use xlink:href="#NimbusSanL-Regu-42" transform="translate(55.391677 0) scale(0.996264)"/>
      </g>
     </g>
    </g>
    <g id="ytick_2">
     <g id="line2d_24">
      <path d="M 77.147572 242.093308 
L 560.88 242.093308 
" clip-path="url(#p18e93a90b3)" style="fill: none; stroke-dasharray: 1,3; stroke-dashoffset: 0; stroke: #000000; stroke-opacity: 0.5; stroke-width: 0.5"/>
     </g>
     <g id="line2d_25"/>
     <g id="line2d_26"/>
     <g id="text_9">
      <!-- 8MB -->
      <g transform="translate(44.47137 245.576743) scale(0.14 -0.14)">
       <defs>
        <path id="NimbusSanL-Regu-38" d="M 2502 2399 
C 2970 2680 3123 2910 3123 3338 
C 3123 4046 2566 4544 1760 4544 
C 960 4544 397 4046 397 3338 
C 397 2917 550 2687 1011 2399 
C 493 2150 237 1774 237 1276 
C 237 446 864 -128 1760 -128 
C 2656 -128 3283 447 3283 1270 
C 3283 1774 3027 2150 2502 2399 
z
M 1760 4044 
C 2240 4044 2547 3764 2547 3325 
C 2547 2904 2234 2624 1760 2624 
C 1286 2624 973 2904 973 3331 
C 973 3764 1286 4044 1760 4044 
z
M 1760 2149 
C 2323 2149 2707 1792 2707 1263 
C 2707 729 2323 372 1747 372 
C 1197 372 813 735 813 1263 
C 813 1792 1197 2149 1760 2149 
z
" transform="scale(0.015625)"/>
       </defs>
       <use xlink:href="#NimbusSanL-Regu-38" transform="scale(0.996264)"/>
       <use xlink:href="#NimbusSanL-Regu-4d" transform="translate(55.391677 0) scale(0.996264)"/>
       <use xlink:href="#NimbusSanL-Regu-42" transform="translate(138.380107 0) scale(0.996264)"/>
      </g>
     </g>
    </g>
    <g id="ytick_3">
     <g id="line2d_27">
      <path d="M 77.147572 216.153502 
L 560.88 216.153502 
" clip-path="url(#p18e93a90b3)" style="fill: none; stroke-dasharray: 1,3; stroke-dashoffset: 0; stroke: #000000; stroke-opacity: 0.5; stroke-width: 0.5"/>
     </g>
     <g id="line2d_28"/>
     <g id="line2d_29"/>
     <g id="text_10">
      <!-- 16MB -->
      <g transform="translate(36.716546 219.636937) scale(0.14 -0.14)">
       <defs>
        <path id="NimbusSanL-Regu-31" d="M 1658 3238 
L 1658 0 
L 2221 0 
L 2221 4545 
L 1850 4545 
C 1651 3847 1523 3751 653 3642 
L 653 3238 
L 1658 3238 
z
" transform="scale(0.015625)"/>
        <path id="NimbusSanL-Regu-36" d="M 3187 3382 
C 3078 4111 2592 4544 1901 4544 
C 1402 4544 954 4302 685 3900 
C 403 3460 275 2904 275 2081 
C 275 1321 390 836 659 434 
C 902 69 1299 -128 1798 -128 
C 2662 -128 3283 518 3283 1415 
C 3283 2268 2707 2868 1894 2868 
C 1446 2868 1094 2695 851 2362 
C 858 3444 1216 4044 1862 4044 
C 2259 4044 2534 3803 2624 3382 
L 3187 3382 
z
M 1824 2368 
C 2368 2368 2707 1986 2707 1370 
C 2707 793 2323 372 1805 372 
C 1280 372 883 813 883 1402 
C 883 1973 1267 2368 1824 2368 
z
" transform="scale(0.015625)"/>
       </defs>
       <use xlink:href="#NimbusSanL-Regu-31" transform="scale(0.996264)"/>
       <use xlink:href="#NimbusSanL-Regu-36" transform="translate(55.391677 0) scale(0.996264)"/>
       <use xlink:href="#NimbusSanL-Regu-4d" transform="translate(110.783354 0) scale(0.996264)"/>
       <use xlink:href="#NimbusSanL-Regu-42" transform="translate(193.771784 0) scale(0.996264)"/>
      </g>
     </g>
    </g>
    <g id="ytick_4">
     <g id="line2d_30">
      <path d="M 77.147572 190.213695 
L 560.88 190.213695 
" clip-path="url(#p18e93a90b3)" style="fill: none; stroke-dasharray: 1,3; stroke-dashoffset: 0; stroke: #000000; stroke-opacity: 0.5; stroke-width: 0.5"/>
     </g>
     <g id="line2d_31"/>
     <g id="line2d_32"/>
     <g id="text_11">
      <!-- 24MB -->
      <g transform="translate(36.716546 193.69713) scale(0.14 -0.14)">
       <defs>
        <path id="NimbusSanL-Regu-32" d="M 3238 558 
L 851 558 
C 909 930 1114 1167 1670 1494 
L 2310 1840 
C 2944 2186 3270 2653 3270 3211 
C 3270 3589 3117 3942 2848 4185 
C 2579 4429 2246 4544 1818 4544 
C 1242 4544 813 4339 563 3955 
C 403 3711 333 3429 320 2967 
L 883 2967 
C 902 3275 941 3461 1018 3608 
C 1165 3884 1459 4051 1798 4051 
C 2310 4051 2694 3685 2694 3198 
C 2694 2839 2483 2531 2080 2301 
L 1491 1968 
C 544 1430 269 1000 218 0 
L 3238 0 
L 3238 558 
z
" transform="scale(0.015625)"/>
        <path id="NimbusSanL-Regu-34" d="M 2093 1088 
L 2093 0 
L 2656 0 
L 2656 1088 
L 3328 1088 
L 3328 1594 
L 2656 1594 
L 2656 4545 
L 2240 4545 
L 179 1684 
L 179 1088 
L 2093 1088 
z
M 2093 1594 
L 672 1594 
L 2093 3583 
L 2093 1594 
z
" transform="scale(0.015625)"/>
       </defs>
       <use xlink:href="#NimbusSanL-Regu-32" transform="scale(0.996264)"/>
       <use xlink:href="#NimbusSanL-Regu-34" transform="translate(55.391677 0) scale(0.996264)"/>
       <use xlink:href="#NimbusSanL-Regu-4d" transform="translate(110.783354 0) scale(0.996264)"/>
       <use xlink:href="#NimbusSanL-Regu-42" transform="translate(193.771784 0) scale(0.996264)"/>
      </g>
     </g>
    </g>
    <g id="ytick_5">
     <g id="line2d_33">
      <path d="M 77.147572 164.273888 
L 560.88 164.273888 
" clip-path="url(#p18e93a90b3)" style="fill: none; stroke-dasharray: 1,3; stroke-dashoffset: 0; stroke: #000000; stroke-opacity: 0.5; stroke-width: 0.5"/>
     </g>
     <g id="line2d_34"/>
     <g id="line2d_35"/>
     <g id="text_12">
      <!-- 32MB -->
      <g transform="translate(36.716546 167.757323) scale(0.14 -0.14)">
       <defs>
        <path id="NimbusSanL-Regu-33" d="M 1414 2112 
L 1485 2112 
L 1722 2112 
C 2342 2112 2662 1830 2662 1284 
C 2662 712 2310 372 1722 372 
C 1107 372 806 681 768 1345 
L 205 1345 
C 230 978 294 740 403 534 
C 634 97 1082 -128 1702 -128 
C 2637 -128 3238 431 3238 1293 
C 3238 1872 3014 2194 2470 2381 
C 2893 2546 3104 2862 3104 3311 
C 3104 4082 2586 4544 1722 4544 
C 806 4544 320 4050 301 3095 
L 864 3095 
C 870 3366 896 3517 966 3655 
C 1094 3900 1376 4051 1728 4051 
C 2227 4051 2528 3760 2528 3287 
C 2528 2971 2413 2781 2163 2681 
C 2010 2618 1811 2592 1414 2592 
L 1414 2112 
z
" transform="scale(0.015625)"/>
       </defs>
       <use xlink:href="#NimbusSanL-Regu-33" transform="scale(0.996264)"/>
       <use xlink:href="#NimbusSanL-Regu-32" transform="translate(55.391677 0) scale(0.996264)"/>
       <use xlink:href="#NimbusSanL-Regu-4d" transform="translate(110.783354 0) scale(0.996264)"/>
       <use xlink:href="#NimbusSanL-Regu-42" transform="translate(193.771784 0) scale(0.996264)"/>
      </g>
     </g>
    </g>
    <g id="ytick_6">
     <g id="line2d_36">
      <path d="M 77.147572 138.334082 
L 560.88 138.334082 
" clip-path="url(#p18e93a90b3)" style="fill: none; stroke-dasharray: 1,3; stroke-dashoffset: 0; stroke: #000000; stroke-opacity: 0.5; stroke-width: 0.5"/>
     </g>
     <g id="line2d_37"/>
     <g id="line2d_38"/>
     <g id="text_13">
      <!-- 40MB -->
      <g transform="translate(36.716546 141.817517) scale(0.14 -0.14)">
       <use xlink:href="#NimbusSanL-Regu-34" transform="scale(0.996264)"/>
       <use xlink:href="#NimbusSanL-Regu-30" transform="translate(55.391677 0) scale(0.996264)"/>
       <use xlink:href="#NimbusSanL-Regu-4d" transform="translate(110.783354 0) scale(0.996264)"/>
       <use xlink:href="#NimbusSanL-Regu-42" transform="translate(193.771784 0) scale(0.996264)"/>
      </g>
     </g>
    </g>
    <g id="ytick_7">
     <g id="line2d_39">
      <path d="M 77.147572 112.394275 
L 560.88 112.394275 
" clip-path="url(#p18e93a90b3)" style="fill: none; stroke-dasharray: 1,3; stroke-dashoffset: 0; stroke: #000000; stroke-opacity: 0.5; stroke-width: 0.5"/>
     </g>
     <g id="line2d_40"/>
     <g id="line2d_41"/>
     <g id="text_14">
      <!-- 48MB -->
      <g transform="translate(36.716546 115.87771) scale(0.14 -0.14)">
       <use xlink:href="#NimbusSanL-Regu-34" transform="scale(0.996264)"/>
       <use xlink:href="#NimbusSanL-Regu-38" transform="translate(55.391677 0) scale(0.996264)"/>
       <use xlink:href="#NimbusSanL-Regu-4d" transform="translate(110.783354 0) scale(0.996264)"/>
       <use xlink:href="#NimbusSanL-Regu-42" transform="translate(193.771784 0) scale(0.996264)"/>
      </g>
     </g>
    </g>
    <g id="ytick_8">
     <g id="line2d_42">
      <path d="M 77.147572 86.454468 
L 560.88 86.454468 
" clip-path="url(#p18e93a90b3)" style="fill: none; stroke-dasharray: 1,3; stroke-dashoffset: 0; stroke: #000000; stroke-opacity: 0.5; stroke-width: 0.5"/>
     </g>
     <g id="line2d_43"/>
     <g id="line2d_44"/>
     <g id="text_15">
      <!-- 56MB -->
      <g transform="translate(36.716546 89.937904) scale(0.14 -0.14)">
       <defs>
        <path id="NimbusSanL-Regu-35" d="M 3046 4544 
L 704 4544 
L 365 2086 
L 883 2086 
C 1146 2399 1363 2508 1715 2508 
C 2323 2508 2707 2092 2707 1421 
C 2707 768 2330 372 1715 372 
C 1222 372 922 621 787 1133 
L 224 1133 
C 301 762 365 582 499 415 
C 755 70 1216 -128 1728 -128 
C 2643 -128 3283 537 3283 1497 
C 3283 2394 2688 3008 1818 3008 
C 1498 3008 1242 2925 979 2732 
L 1158 3987 
L 3046 3987 
L 3046 4544 
z
" transform="scale(0.015625)"/>
       </defs>
       <use xlink:href="#NimbusSanL-Regu-35" transform="scale(0.996264)"/>
       <use xlink:href="#NimbusSanL-Regu-36" transform="translate(55.391677 0) scale(0.996264)"/>
       <use xlink:href="#NimbusSanL-Regu-4d" transform="translate(110.783354 0) scale(0.996264)"/>
       <use xlink:href="#NimbusSanL-Regu-42" transform="translate(193.771784 0) scale(0.996264)"/>
      </g>
     </g>
    </g>
    <g id="ytick_9">
     <g id="line2d_45">
      <path d="M 77.147572 60.514662 
L 560.88 60.514662 
" clip-path="url(#p18e93a90b3)" style="fill: none; stroke-dasharray: 1,3; stroke-dashoffset: 0; stroke: #000000; stroke-opacity: 0.5; stroke-width: 0.5"/>
     </g>
     <g id="line2d_46"/>
     <g id="line2d_47"/>
     <g id="text_16">
      <!-- 64MB -->
      <g transform="translate(36.716546 63.998097) scale(0.14 -0.14)">
       <use xlink:href="#NimbusSanL-Regu-36" transform="scale(0.996264)"/>
       <use xlink:href="#NimbusSanL-Regu-34" transform="translate(55.391677 0) scale(0.996264)"/>
       <use xlink:href="#NimbusSanL-Regu-4d" transform="translate(110.783354 0) scale(0.996264)"/>
       <use xlink:href="#NimbusSanL-Regu-42" transform="translate(193.771784 0) scale(0.996264)"/>
      </g>
     </g>
    </g>
    <g id="ytick_10">
     <g id="line2d_48">
      <path d="M 77.147572 34.574855 
L 560.88 34.574855 
" clip-path="url(#p18e93a90b3)" style="fill: none; stroke-dasharray: 1,3; stroke-dashoffset: 0; stroke: #000000; stroke-opacity: 0.5; stroke-width: 0.5"/>
     </g>
     <g id="line2d_49"/>
     <g id="line2d_50"/>
     <g id="text_17">
      <!-- 72MB -->
      <g transform="translate(36.716546 38.05829) scale(0.14 -0.14)">
       <defs>
        <path id="NimbusSanL-Regu-37" d="M 3328 4525 
L 294 4525 
L 294 3968 
L 2746 3968 
C 1664 2418 1222 1466 883 -32 
L 1485 -32 
C 1734 1427 2304 2681 3328 4051 
L 3328 4525 
z
" transform="scale(0.015625)"/>
       </defs>
       <use xlink:href="#NimbusSanL-Regu-37" transform="scale(0.996264)"/>
       <use xlink:href="#NimbusSanL-Regu-32" transform="translate(55.391677 0) scale(0.996264)"/>
       <use xlink:href="#NimbusSanL-Regu-4d" transform="translate(110.783354 0) scale(0.996264)"/>
       <use xlink:href="#NimbusSanL-Regu-42" transform="translate(193.771784 0) scale(0.996264)"/>
      </g>
     </g>
    </g>
    <g id="text_18">
     <!-- Minimum Memory Requirement -->
     <g transform="translate(27.896976 266.799674) rotate(-90) scale(0.18 -0.18)">
      <defs>
       <path id="NimbusSanL-Regu-79" d="M 2483 3360 
L 1555 738 
L 698 3360 
L 128 3360 
L 1261 -21 
L 1056 -554 
C 973 -792 851 -882 627 -882 
C 550 -882 461 -869 346 -843 
L 346 -1325 
C 454 -1382 563 -1408 704 -1408 
C 877 -1408 1062 -1350 1203 -1247 
C 1370 -1125 1466 -983 1568 -713 
L 3059 3360 
L 2483 3360 
z
" transform="scale(0.015625)"/>
       <path id="NimbusSanL-Regu-71" d="M 3168 -1408 
L 3168 3349 
L 2694 3349 
L 2694 2899 
C 2445 3251 2067 3444 1626 3444 
C 742 3444 166 2715 166 1593 
C 166 497 717 -180 1600 -180 
C 2067 -180 2387 -14 2637 352 
L 2637 -1408 
L 3168 -1408 
z
M 1702 2944 
C 2272 2944 2637 2427 2637 1612 
C 2637 837 2266 320 1702 320 
C 1114 320 723 843 723 1632 
C 723 2414 1114 2944 1702 2944 
z
" transform="scale(0.015625)"/>
      </defs>
      <use xlink:href="#NimbusSanL-Regu-4d" transform="scale(0.996264)"/>
      <use xlink:href="#NimbusSanL-Regu-69" transform="translate(82.98843 0) scale(0.996264)"/>
      <use xlink:href="#NimbusSanL-Regu-6e" transform="translate(105.105215 0) scale(0.996264)"/>
      <use xlink:href="#NimbusSanL-Regu-69" transform="translate(160.496892 0) scale(0.996264)"/>
      <use xlink:href="#NimbusSanL-Regu-6d" transform="translate(182.613676 0) scale(0.996264)"/>
      <use xlink:href="#NimbusSanL-Regu-75" transform="translate(264.606009 0) scale(0.996264)"/>
      <use xlink:href="#NimbusSanL-Regu-6d" transform="translate(319.997686 0) scale(0.996264)"/>
      <use xlink:href="#NimbusSanL-Regu-4d" transform="translate(430.681286 0) scale(0.996264)"/>
      <use xlink:href="#NimbusSanL-Regu-65" transform="translate(513.669716 0) scale(0.996264)"/>
      <use xlink:href="#NimbusSanL-Regu-6d" transform="translate(569.061393 0) scale(0.996264)"/>
      <use xlink:href="#NimbusSanL-Regu-6f" transform="translate(652.049824 0) scale(0.996264)"/>
      <use xlink:href="#NimbusSanL-Regu-72" transform="translate(707.441501 0) scale(0.996264)"/>
      <use xlink:href="#NimbusSanL-Regu-79" transform="translate(743.604823 0) scale(0.996264)"/>
      <use xlink:href="#NimbusSanL-Regu-52" transform="translate(821.113193 0) scale(0.996264)"/>
      <use xlink:href="#NimbusSanL-Regu-65" transform="translate(893.043178 0) scale(0.996264)"/>
      <use xlink:href="#NimbusSanL-Regu-71" transform="translate(948.434855 0) scale(0.996264)"/>
      <use xlink:href="#NimbusSanL-Regu-75" transform="translate(1003.826532 0) scale(0.996264)"/>
      <use xlink:href="#NimbusSanL-Regu-69" transform="translate(1059.218209 0) scale(0.996264)"/>
      <use xlink:href="#NimbusSanL-Regu-72" transform="translate(1081.334993 0) scale(0.996264)"/>
      <use xlink:href="#NimbusSanL-Regu-65" transform="translate(1114.510223 0) scale(0.996264)"/>
      <use xlink:href="#NimbusSanL-Regu-6d" transform="translate(1169.9019 0) scale(0.996264)"/>
      <use xlink:href="#NimbusSanL-Regu-65" transform="translate(1252.89033 0) scale(0.996264)"/>
      <use xlink:href="#NimbusSanL-Regu-6e" transform="translate(1308.282007 0) scale(0.996264)"/>
      <use xlink:href="#NimbusSanL-Regu-74" transform="translate(1363.673684 0) scale(0.996264)"/>
     </g>
    </g>
   </g>
   <g id="patch_7">
    <path d="M 84.058035 268.033115 
L 97.878962 268.033115 
L 97.878962 261.548163 
L 84.058035 261.548163 
z
" clip-path="url(#p18e93a90b3)" style="fill: #696969; stroke: #000000; stroke-width: 0.5; stroke-linejoin: miter"/>
   </g>
   <g id="text_19">
    <!-- 2MB -->
    <g transform="translate(96.829294 258.305687) rotate(-90) scale(0.18 -0.18)">
     <use xlink:href="#NimbusSanL-Regu-32" transform="scale(0.996264)"/>
     <use xlink:href="#NimbusSanL-Regu-4d" transform="translate(55.391677 0) scale(0.996264)"/>
     <use xlink:href="#NimbusSanL-Regu-42" transform="translate(138.380107 0) scale(0.996264)"/>
    </g>
   </g>
   <g id="patch_8">
    <path d="M 97.878962 268.033115 
L 111.699888 268.033115 
L 111.699888 251.820736 
L 97.878962 251.820736 
z
" clip-path="url(#p18e93a90b3)" style="fill: #0c8828; stroke: #000000; stroke-width: 0.5; stroke-linejoin: miter"/>
   </g>
   <g id="text_20">
    <!-- 5MB -->
    <g transform="translate(110.650221 248.57826) rotate(-90) scale(0.18 -0.18)">
     <use xlink:href="#NimbusSanL-Regu-35" transform="scale(0.996264)"/>
     <use xlink:href="#NimbusSanL-Regu-4d" transform="translate(55.391677 0) scale(0.996264)"/>
     <use xlink:href="#NimbusSanL-Regu-42" transform="translate(138.380107 0) scale(0.996264)"/>
    </g>
   </g>
   <g id="patch_9">
    <path d="M 111.699888 268.033115 
L 125.520815 268.033115 
L 125.520815 245.335784 
L 111.699888 245.335784 
z
" clip-path="url(#p18e93a90b3)" style="fill: #ce1216; stroke: #000000; stroke-width: 0.5; stroke-linejoin: miter"/>
   </g>
   <g id="text_21">
    <!-- 7MB -->
    <g transform="translate(124.471148 242.093308) rotate(-90) scale(0.18 -0.18)">
     <use xlink:href="#NimbusSanL-Regu-37" transform="scale(0.996264)"/>
     <use xlink:href="#NimbusSanL-Regu-4d" transform="translate(55.391677 0) scale(0.996264)"/>
     <use xlink:href="#NimbusSanL-Regu-42" transform="translate(138.380107 0) scale(0.996264)"/>
    </g>
   </g>
   <g id="patch_10">
    <path d="M 125.520815 268.033115 
L 139.341741 268.033115 
L 139.341741 255.063212 
L 125.520815 255.063212 
z
" clip-path="url(#p18e93a90b3)" style="fill: #4ba3e1; stroke: #000000; stroke-width: 0.5; stroke-linejoin: miter"/>
   </g>
   <g id="text_22">
    <!-- 4MB -->
    <g transform="translate(138.292074 251.820736) rotate(-90) scale(0.18 -0.18)">
     <use xlink:href="#NimbusSanL-Regu-34" transform="scale(0.996264)"/>
     <use xlink:href="#NimbusSanL-Regu-4d" transform="translate(55.391677 0) scale(0.996264)"/>
     <use xlink:href="#NimbusSanL-Regu-42" transform="translate(138.380107 0) scale(0.996264)"/>
    </g>
   </g>
   <g id="patch_11">
    <path d="M 153.162668 268.033115 
L 166.983594 268.033115 
L 166.983594 248.57826 
L 153.162668 248.57826 
z
" clip-path="url(#p18e93a90b3)" style="fill: #696969; stroke: #000000; stroke-width: 0.5; stroke-linejoin: miter"/>
   </g>
   <g id="text_23">
    <!-- 6MB -->
    <g transform="translate(165.933927 245.335784) rotate(-90) scale(0.18 -0.18)">
     <use xlink:href="#NimbusSanL-Regu-36" transform="scale(0.996264)"/>
     <use xlink:href="#NimbusSanL-Regu-4d" transform="translate(55.391677 0) scale(0.996264)"/>
     <use xlink:href="#NimbusSanL-Regu-42" transform="translate(138.380107 0) scale(0.996264)"/>
    </g>
   </g>
   <g id="patch_12">
    <path d="M 166.983594 268.033115 
L 180.804521 268.033115 
L 180.804521 248.57826 
L 166.983594 248.57826 
z
" clip-path="url(#p18e93a90b3)" style="fill: #0c8828; stroke: #000000; stroke-width: 0.5; stroke-linejoin: miter"/>
   </g>
   <g id="text_24">
    <!-- 6MB -->
    <g transform="translate(179.754854 245.335784) rotate(-90) scale(0.18 -0.18)">
     <use xlink:href="#NimbusSanL-Regu-36" transform="scale(0.996264)"/>
     <use xlink:href="#NimbusSanL-Regu-4d" transform="translate(55.391677 0) scale(0.996264)"/>
     <use xlink:href="#NimbusSanL-Regu-42" transform="translate(138.380107 0) scale(0.996264)"/>
    </g>
   </g>
   <g id="patch_13">
    <path d="M 180.804521 268.033115 
L 194.625447 268.033115 
L 194.625447 248.57826 
L 180.804521 248.57826 
z
" clip-path="url(#p18e93a90b3)" style="fill: #ce1216; stroke: #000000; stroke-width: 0.5; stroke-linejoin: miter"/>
   </g>
   <g id="text_25">
    <!-- 6MB -->
    <g transform="translate(193.57578 245.335784) rotate(-90) scale(0.18 -0.18)">
     <use xlink:href="#NimbusSanL-Regu-36" transform="scale(0.996264)"/>
     <use xlink:href="#NimbusSanL-Regu-4d" transform="translate(55.391677 0) scale(0.996264)"/>
     <use xlink:href="#NimbusSanL-Regu-42" transform="translate(138.380107 0) scale(0.996264)"/>
    </g>
   </g>
   <g id="patch_14">
    <path d="M 194.625447 268.033115 
L 208.446374 268.033115 
L 208.446374 242.093308 
L 194.625447 242.093308 
z
" clip-path="url(#p18e93a90b3)" style="fill: #4ba3e1; stroke: #000000; stroke-width: 0.5; stroke-linejoin: miter"/>
   </g>
   <g id="text_26">
    <!-- 8MB -->
    <g transform="translate(207.396707 238.850832) rotate(-90) scale(0.18 -0.18)">
     <use xlink:href="#NimbusSanL-Regu-38" transform="scale(0.996264)"/>
     <use xlink:href="#NimbusSanL-Regu-4d" transform="translate(55.391677 0) scale(0.996264)"/>
     <use xlink:href="#NimbusSanL-Regu-42" transform="translate(138.380107 0) scale(0.996264)"/>
    </g>
   </g>
   <g id="patch_15">
    <path d="M 222.2673 268.033115 
L 236.088227 268.033115 
L 236.088227 242.093308 
L 222.2673 242.093308 
z
" clip-path="url(#p18e93a90b3)" style="fill: #696969; stroke: #000000; stroke-width: 0.5; stroke-linejoin: miter"/>
   </g>
   <g id="text_27">
    <!-- 8MB -->
    <g transform="translate(235.03856 238.850832) rotate(-90) scale(0.18 -0.18)">
     <use xlink:href="#NimbusSanL-Regu-38" transform="scale(0.996264)"/>
     <use xlink:href="#NimbusSanL-Regu-4d" transform="translate(55.391677 0) scale(0.996264)"/>
     <use xlink:href="#NimbusSanL-Regu-42" transform="translate(138.380107 0) scale(0.996264)"/>
    </g>
   </g>
   <g id="patch_16">
    <path d="M 236.088227 268.033115 
L 249.909153 268.033115 
L 249.909153 60.514662 
L 236.088227 60.514662 
z
" clip-path="url(#p18e93a90b3)" style="fill: #0c8828; stroke: #000000; stroke-width: 0.5; stroke-linejoin: miter"/>
   </g>
   <g id="text_28">
    <!-- 64MB -->
    <g transform="translate(248.859486 57.272186) rotate(-90) scale(0.18 -0.18)">
     <use xlink:href="#NimbusSanL-Regu-36" transform="scale(0.996264)"/>
     <use xlink:href="#NimbusSanL-Regu-34" transform="translate(55.391677 0) scale(0.996264)"/>
     <use xlink:href="#NimbusSanL-Regu-4d" transform="translate(110.783354 0) scale(0.996264)"/>
     <use xlink:href="#NimbusSanL-Regu-42" transform="translate(193.771784 0) scale(0.996264)"/>
    </g>
   </g>
   <g id="patch_17">
    <path d="M 249.909153 268.033115 
L 263.73008 268.033115 
L 263.73008 60.514662 
L 249.909153 60.514662 
z
" clip-path="url(#p18e93a90b3)" style="fill: #ce1216; stroke: #000000; stroke-width: 0.5; stroke-linejoin: miter"/>
   </g>
   <g id="text_29">
    <!-- 64MB -->
    <g transform="translate(262.680413 57.272186) rotate(-90) scale(0.18 -0.18)">
     <use xlink:href="#NimbusSanL-Regu-36" transform="scale(0.996264)"/>
     <use xlink:href="#NimbusSanL-Regu-34" transform="translate(55.391677 0) scale(0.996264)"/>
     <use xlink:href="#NimbusSanL-Regu-4d" transform="translate(110.783354 0) scale(0.996264)"/>
     <use xlink:href="#NimbusSanL-Regu-42" transform="translate(193.771784 0) scale(0.996264)"/>
    </g>
   </g>
   <g id="patch_18">
    <path d="M 263.73008 268.033115 
L 277.551006 268.033115 
L 277.551006 235.608357 
L 263.73008 235.608357 
z
" clip-path="url(#p18e93a90b3)" style="fill: #4ba3e1; stroke: #000000; stroke-width: 0.5; stroke-linejoin: miter"/>
   </g>
   <g id="text_30">
    <!-- 10MB -->
    <g transform="translate(276.501339 232.365881) rotate(-90) scale(0.18 -0.18)">
     <use xlink:href="#NimbusSanL-Regu-31" transform="scale(0.996264)"/>
     <use xlink:href="#NimbusSanL-Regu-30" transform="translate(55.391677 0) scale(0.996264)"/>
     <use xlink:href="#NimbusSanL-Regu-4d" transform="translate(110.783354 0) scale(0.996264)"/>
     <use xlink:href="#NimbusSanL-Regu-42" transform="translate(193.771784 0) scale(0.996264)"/>
    </g>
   </g>
   <g id="patch_19">
    <path d="M 291.371933 268.033115 
L 309.799835 268.033115 
L 309.799835 238.850832 
L 291.371933 238.850832 
z
" clip-path="url(#p18e93a90b3)" style="fill: #696969; stroke: #000000; stroke-width: 0.5; stroke-linejoin: miter"/>
   </g>
   <g id="text_31">
    <!-- 9MB -->
    <g transform="translate(306.44668 235.608357) rotate(-90) scale(0.18 -0.18)">
     <defs>
      <path id="NimbusSanL-Regu-39" d="M 339 1064 
C 448 316 934 -128 1626 -128 
C 2125 -128 2579 114 2842 516 
C 3130 956 3258 1512 3258 2335 
C 3258 3095 3142 3580 2874 3982 
C 2624 4347 2227 4544 1728 4544 
C 864 4544 243 3909 243 3027 
C 243 2190 819 1600 1638 1600 
C 2067 1600 2381 1754 2675 2106 
C 2669 991 2310 372 1664 372 
C 1267 372 992 624 902 1064 
L 339 1064 
z
M 1722 4051 
C 2246 4051 2643 3622 2643 3041 
C 2643 2491 2253 2100 1702 2100 
C 1158 2100 819 2472 819 3072 
C 819 3640 1203 4051 1722 4051 
z
" transform="scale(0.015625)"/>
     </defs>
     <use xlink:href="#NimbusSanL-Regu-39" transform="scale(0.996264)"/>
     <use xlink:href="#NimbusSanL-Regu-4d" transform="translate(55.391677 0) scale(0.996264)"/>
     <use xlink:href="#NimbusSanL-Regu-42" transform="translate(138.380107 0) scale(0.996264)"/>
    </g>
   </g>
   <g id="patch_20">
    <path d="M 309.799835 268.033115 
L 328.227737 268.033115 
L 328.227737 235.608357 
L 309.799835 235.608357 
z
" clip-path="url(#p18e93a90b3)" style="fill: #ce1216; stroke: #000000; stroke-width: 0.5; stroke-linejoin: miter"/>
   </g>
   <g id="text_32">
    <!-- 10MB -->
    <g transform="translate(324.874582 232.365881) rotate(-90) scale(0.18 -0.18)">
     <use xlink:href="#NimbusSanL-Regu-31" transform="scale(0.996264)"/>
     <use xlink:href="#NimbusSanL-Regu-30" transform="translate(55.391677 0) scale(0.996264)"/>
     <use xlink:href="#NimbusSanL-Regu-4d" transform="translate(110.783354 0) scale(0.996264)"/>
     <use xlink:href="#NimbusSanL-Regu-42" transform="translate(193.771784 0) scale(0.996264)"/>
    </g>
   </g>
   <g id="patch_21">
    <path d="M 328.227737 268.033115 
L 346.655639 268.033115 
L 346.655639 242.093308 
L 328.227737 242.093308 
z
" clip-path="url(#p18e93a90b3)" style="fill: #4ba3e1; stroke: #000000; stroke-width: 0.5; stroke-linejoin: miter"/>
   </g>
   <g id="text_33">
    <!-- 8MB -->
    <g transform="translate(343.302484 238.850832) rotate(-90) scale(0.18 -0.18)">
     <use xlink:href="#NimbusSanL-Regu-38" transform="scale(0.996264)"/>
     <use xlink:href="#NimbusSanL-Regu-4d" transform="translate(55.391677 0) scale(0.996264)"/>
     <use xlink:href="#NimbusSanL-Regu-42" transform="translate(138.380107 0) scale(0.996264)"/>
    </g>
   </g>
   <g id="patch_22">
    <path d="M 360.476565 268.033115 
L 374.297492 268.033115 
L 374.297492 60.514662 
L 360.476565 60.514662 
z
" clip-path="url(#p18e93a90b3)" style="fill: #696969; stroke: #000000; stroke-width: 0.5; stroke-linejoin: miter"/>
   </g>
   <g id="text_34">
    <!-- 64MB -->
    <g transform="translate(373.247825 57.272186) rotate(-90) scale(0.18 -0.18)">
     <use xlink:href="#NimbusSanL-Regu-36" transform="scale(0.996264)"/>
     <use xlink:href="#NimbusSanL-Regu-34" transform="translate(55.391677 0) scale(0.996264)"/>
     <use xlink:href="#NimbusSanL-Regu-4d" transform="translate(110.783354 0) scale(0.996264)"/>
     <use xlink:href="#NimbusSanL-Regu-42" transform="translate(193.771784 0) scale(0.996264)"/>
    </g>
   </g>
   <g id="patch_23">
    <path d="M 374.297492 268.033115 
L 388.118418 268.033115 
L 388.118418 60.514662 
L 374.297492 60.514662 
z
" clip-path="url(#p18e93a90b3)" style="fill: #0c8828; stroke: #000000; stroke-width: 0.5; stroke-linejoin: miter"/>
   </g>
   <g id="text_35">
    <!-- 64MB -->
    <g transform="translate(387.068751 57.272186) rotate(-90) scale(0.18 -0.18)">
     <use xlink:href="#NimbusSanL-Regu-36" transform="scale(0.996264)"/>
     <use xlink:href="#NimbusSanL-Regu-34" transform="translate(55.391677 0) scale(0.996264)"/>
     <use xlink:href="#NimbusSanL-Regu-4d" transform="translate(110.783354 0) scale(0.996264)"/>
     <use xlink:href="#NimbusSanL-Regu-42" transform="translate(193.771784 0) scale(0.996264)"/>
    </g>
   </g>
   <g id="patch_24">
    <path d="M 388.118418 268.033115 
L 401.939345 268.033115 
L 401.939345 60.514662 
L 388.118418 60.514662 
z
" clip-path="url(#p18e93a90b3)" style="fill: #ce1216; stroke: #000000; stroke-width: 0.5; stroke-linejoin: miter"/>
   </g>
   <g id="text_36">
    <!-- 64MB -->
    <g transform="translate(400.889678 57.272186) rotate(-90) scale(0.18 -0.18)">
     <use xlink:href="#NimbusSanL-Regu-36" transform="scale(0.996264)"/>
     <use xlink:href="#NimbusSanL-Regu-34" transform="translate(55.391677 0) scale(0.996264)"/>
     <use xlink:href="#NimbusSanL-Regu-4d" transform="translate(110.783354 0) scale(0.996264)"/>
     <use xlink:href="#NimbusSanL-Regu-42" transform="translate(193.771784 0) scale(0.996264)"/>
    </g>
   </g>
   <g id="patch_25">
    <path d="M 401.939345 268.033115 
L 415.760272 268.033115 
L 415.760272 60.514662 
L 401.939345 60.514662 
z
" clip-path="url(#p18e93a90b3)" style="fill: #4ba3e1; stroke: #000000; stroke-width: 0.5; stroke-linejoin: miter"/>
   </g>
   <g id="text_37">
    <!-- 64MB -->
    <g transform="translate(414.710604 57.272186) rotate(-90) scale(0.18 -0.18)">
     <use xlink:href="#NimbusSanL-Regu-36" transform="scale(0.996264)"/>
     <use xlink:href="#NimbusSanL-Regu-34" transform="translate(55.391677 0) scale(0.996264)"/>
     <use xlink:href="#NimbusSanL-Regu-4d" transform="translate(110.783354 0) scale(0.996264)"/>
     <use xlink:href="#NimbusSanL-Regu-42" transform="translate(193.771784 0) scale(0.996264)"/>
    </g>
   </g>
   <g id="patch_26">
    <path d="M 429.581198 268.033115 
L 443.402125 268.033115 
L 443.402125 60.514662 
L 429.581198 60.514662 
z
" clip-path="url(#p18e93a90b3)" style="fill: #696969; stroke: #000000; stroke-width: 0.5; stroke-linejoin: miter"/>
   </g>
   <g id="text_38">
    <!-- 64MB -->
    <g transform="translate(442.352457 57.272186) rotate(-90) scale(0.18 -0.18)">
     <use xlink:href="#NimbusSanL-Regu-36" transform="scale(0.996264)"/>
     <use xlink:href="#NimbusSanL-Regu-34" transform="translate(55.391677 0) scale(0.996264)"/>
     <use xlink:href="#NimbusSanL-Regu-4d" transform="translate(110.783354 0) scale(0.996264)"/>
     <use xlink:href="#NimbusSanL-Regu-42" transform="translate(193.771784 0) scale(0.996264)"/>
    </g>
   </g>
   <g id="patch_27">
    <path d="M 443.402125 268.033115 
L 457.223051 268.033115 
L 457.223051 60.514662 
L 443.402125 60.514662 
z
" clip-path="url(#p18e93a90b3)" style="fill: #0c8828; stroke: #000000; stroke-width: 0.5; stroke-linejoin: miter"/>
   </g>
   <g id="text_39">
    <!-- 64MB -->
    <g transform="translate(456.173384 57.272186) rotate(-90) scale(0.18 -0.18)">
     <use xlink:href="#NimbusSanL-Regu-36" transform="scale(0.996264)"/>
     <use xlink:href="#NimbusSanL-Regu-34" transform="translate(55.391677 0) scale(0.996264)"/>
     <use xlink:href="#NimbusSanL-Regu-4d" transform="translate(110.783354 0) scale(0.996264)"/>
     <use xlink:href="#NimbusSanL-Regu-42" transform="translate(193.771784 0) scale(0.996264)"/>
    </g>
   </g>
   <g id="patch_28">
    <path d="M 457.223051 268.033115 
L 471.043978 268.033115 
L 471.043978 60.514662 
L 457.223051 60.514662 
z
" clip-path="url(#p18e93a90b3)" style="fill: #ce1216; stroke: #000000; stroke-width: 0.5; stroke-linejoin: miter"/>
   </g>
   <g id="text_40">
    <!-- 64MB -->
    <g transform="translate(469.994311 57.272186) rotate(-90) scale(0.18 -0.18)">
     <use xlink:href="#NimbusSanL-Regu-36" transform="scale(0.996264)"/>
     <use xlink:href="#NimbusSanL-Regu-34" transform="translate(55.391677 0) scale(0.996264)"/>
     <use xlink:href="#NimbusSanL-Regu-4d" transform="translate(110.783354 0) scale(0.996264)"/>
     <use xlink:href="#NimbusSanL-Regu-42" transform="translate(193.771784 0) scale(0.996264)"/>
    </g>
   </g>
   <g id="patch_29">
    <path d="M 471.043978 268.033115 
L 484.864904 268.033115 
L 484.864904 60.514662 
L 471.043978 60.514662 
z
" clip-path="url(#p18e93a90b3)" style="fill: #4ba3e1; stroke: #000000; stroke-width: 0.5; stroke-linejoin: miter"/>
   </g>
   <g id="text_41">
    <!-- 64MB -->
    <g transform="translate(483.815237 57.272186) rotate(-90) scale(0.18 -0.18)">
     <use xlink:href="#NimbusSanL-Regu-36" transform="scale(0.996264)"/>
     <use xlink:href="#NimbusSanL-Regu-34" transform="translate(55.391677 0) scale(0.996264)"/>
     <use xlink:href="#NimbusSanL-Regu-4d" transform="translate(110.783354 0) scale(0.996264)"/>
     <use xlink:href="#NimbusSanL-Regu-42" transform="translate(193.771784 0) scale(0.996264)"/>
    </g>
   </g>
   <g id="patch_30">
    <path d="M 498.685831 268.033115 
L 512.506757 268.033115 
L 512.506757 60.514662 
L 498.685831 60.514662 
z
" clip-path="url(#p18e93a90b3)" style="fill: #696969; stroke: #000000; stroke-width: 0.5; stroke-linejoin: miter"/>
   </g>
   <g id="text_42">
    <!-- 64MB -->
    <g transform="translate(511.45709 57.272186) rotate(-90) scale(0.18 -0.18)">
     <use xlink:href="#NimbusSanL-Regu-36" transform="scale(0.996264)"/>
     <use xlink:href="#NimbusSanL-Regu-34" transform="translate(55.391677 0) scale(0.996264)"/>
     <use xlink:href="#NimbusSanL-Regu-4d" transform="translate(110.783354 0) scale(0.996264)"/>
     <use xlink:href="#NimbusSanL-Regu-42" transform="translate(193.771784 0) scale(0.996264)"/>
    </g>
   </g>
   <g id="patch_31">
    <path d="M 512.506757 268.033115 
L 526.327684 268.033115 
L 526.327684 60.514662 
L 512.506757 60.514662 
z
" clip-path="url(#p18e93a90b3)" style="fill: #0c8828; stroke: #000000; stroke-width: 0.5; stroke-linejoin: miter"/>
   </g>
   <g id="text_43">
    <!-- 64MB -->
    <g transform="translate(525.278017 57.272186) rotate(-90) scale(0.18 -0.18)">
     <use xlink:href="#NimbusSanL-Regu-36" transform="scale(0.996264)"/>
     <use xlink:href="#NimbusSanL-Regu-34" transform="translate(55.391677 0) scale(0.996264)"/>
     <use xlink:href="#NimbusSanL-Regu-4d" transform="translate(110.783354 0) scale(0.996264)"/>
     <use xlink:href="#NimbusSanL-Regu-42" transform="translate(193.771784 0) scale(0.996264)"/>
    </g>
   </g>
   <g id="patch_32">
    <path d="M 526.327684 268.033115 
L 540.14861 268.033115 
L 540.14861 60.514662 
L 526.327684 60.514662 
z
" clip-path="url(#p18e93a90b3)" style="fill: #ce1216; stroke: #000000; stroke-width: 0.5; stroke-linejoin: miter"/>
   </g>
   <g id="text_44">
    <!-- 64MB -->
    <g transform="translate(539.098943 57.272186) rotate(-90) scale(0.18 -0.18)">
     <use xlink:href="#NimbusSanL-Regu-36" transform="scale(0.996264)"/>
     <use xlink:href="#NimbusSanL-Regu-34" transform="translate(55.391677 0) scale(0.996264)"/>
     <use xlink:href="#NimbusSanL-Regu-4d" transform="translate(110.783354 0) scale(0.996264)"/>
     <use xlink:href="#NimbusSanL-Regu-42" transform="translate(193.771784 0) scale(0.996264)"/>
    </g>
   </g>
   <g id="patch_33">
    <path d="M 540.14861 268.033115 
L 553.969537 268.033115 
L 553.969537 60.514662 
L 540.14861 60.514662 
z
" clip-path="url(#p18e93a90b3)" style="fill: #4ba3e1; stroke: #000000; stroke-width: 0.5; stroke-linejoin: miter"/>
   </g>
   <g id="text_45">
    <!-- 64MB -->
    <g transform="translate(552.91987 57.272186) rotate(-90) scale(0.18 -0.18)">
     <use xlink:href="#NimbusSanL-Regu-36" transform="scale(0.996264)"/>
     <use xlink:href="#NimbusSanL-Regu-34" transform="translate(55.391677 0) scale(0.996264)"/>
     <use xlink:href="#NimbusSanL-Regu-4d" transform="translate(110.783354 0) scale(0.996264)"/>
     <use xlink:href="#NimbusSanL-Regu-42" transform="translate(193.771784 0) scale(0.996264)"/>
    </g>
   </g>
   <g id="legend_1">
    <g id="patch_34">
     <path d="M 86.147572 80.713092 
L 322.060979 80.713092 
L 322.060979 24.12 
L 86.147572 24.12 
z
" style="fill: #ffffff"/>
    </g>
    <g id="patch_35">
     <path d="M 93.347572 44.096976 
L 129.347572 44.096976 
L 129.347572 31.496976 
L 93.347572 31.496976 
z
" style="fill: #696969; stroke: #000000; stroke-width: 0.5; stroke-linejoin: miter"/>
    </g>
    <g id="text_46">
     <!-- hello -->
     <g transform="translate(143.747572 44.096976) scale(0.18 -0.18)">
      <defs>
       <path id="NimbusSanL-Regu-68" d="M 448 4672 
L 448 -2 
L 979 -2 
L 979 1852 
C 979 2539 1338 2988 1888 2988 
C 2061 2988 2234 2930 2362 2834 
C 2515 2725 2579 2564 2579 2327 
L 2579 -2 
L 3110 -2 
L 3110 2538 
C 3110 3103 2707 3456 2054 3456 
C 1581 3456 1293 3308 979 2898 
L 979 4672 
L 448 4672 
z
" transform="scale(0.015625)"/>
       <path id="NimbusSanL-Regu-6c" d="M 973 4672 
L 435 4672 
L 435 -2 
L 973 -2 
L 973 4672 
z
" transform="scale(0.015625)"/>
      </defs>
      <use xlink:href="#NimbusSanL-Regu-68" transform="scale(0.996264)"/>
      <use xlink:href="#NimbusSanL-Regu-65" transform="translate(55.391677 0) scale(0.996264)"/>
      <use xlink:href="#NimbusSanL-Regu-6c" transform="translate(110.783354 0) scale(0.996264)"/>
      <use xlink:href="#NimbusSanL-Regu-6c" transform="translate(132.900138 0) scale(0.996264)"/>
      <use xlink:href="#NimbusSanL-Regu-6f" transform="translate(155.016923 0) scale(0.996264)"/>
     </g>
    </g>
    <g id="patch_36">
     <path d="M 93.347572 69.693522 
L 129.347572 69.693522 
L 129.347572 57.093522 
L 93.347572 57.093522 
z
" style="fill: #0c8828; stroke: #000000; stroke-width: 0.5; stroke-linejoin: miter"/>
    </g>
    <g id="text_47">
     <!-- nginx -->
     <g transform="translate(143.747572 69.693522) scale(0.18 -0.18)">
      <defs>
       <path id="NimbusSanL-Regu-67" d="M 2637 3341 
L 2637 2854 
C 2368 3252 2042 3438 1613 3438 
C 762 3438 186 2692 186 1600 
C 186 1048 333 598 608 276 
C 858 -7 1216 -173 1568 -173 
C 1990 -173 2285 6 2586 429 
L 2586 258 
C 2586 -192 2528 -465 2394 -649 
C 2253 -844 1978 -959 1651 -959 
C 1408 -959 1190 -896 1043 -783 
C 922 -688 870 -600 838 -406 
L 294 -406 
C 352 -1033 845 -1408 1632 -1408 
C 2131 -1408 2560 -1247 2778 -979 
C 3034 -671 3130 -249 3130 538 
L 3130 3341 
L 2637 3341 
z
M 1670 2944 
C 2246 2944 2586 2455 2586 1613 
C 2586 808 2240 320 1677 320 
C 1094 320 742 816 742 1632 
C 742 2442 1101 2944 1670 2944 
z
" transform="scale(0.015625)"/>
      </defs>
      <use xlink:href="#NimbusSanL-Regu-6e" transform="scale(0.996264)"/>
      <use xlink:href="#NimbusSanL-Regu-67" transform="translate(55.391677 0) scale(0.996264)"/>
      <use xlink:href="#NimbusSanL-Regu-69" transform="translate(110.783354 0) scale(0.996264)"/>
      <use xlink:href="#NimbusSanL-Regu-6e" transform="translate(132.900138 0) scale(0.996264)"/>
      <use xlink:href="#NimbusSanL-Regu-78" transform="translate(188.291815 0) scale(0.996264)"/>
     </g>
    </g>
    <g id="patch_37">
     <path d="M 222.606458 44.096976 
L 258.606458 44.096976 
L 258.606458 31.496976 
L 222.606458 31.496976 
z
" style="fill: #ce1216; stroke: #000000; stroke-width: 0.5; stroke-linejoin: miter"/>
    </g>
    <g id="text_48">
     <!-- redis -->
     <g transform="translate(273.006458 44.096976) scale(0.18 -0.18)">
      <defs>
       <path id="NimbusSanL-Regu-64" d="M 3168 4672 
L 2637 4672 
L 2637 2937 
C 2413 3276 2054 3456 1606 3456 
C 736 3456 166 2761 166 1695 
C 166 566 723 -128 1626 -128 
C 2086 -128 2406 45 2694 461 
L 2694 -2 
L 3168 -2 
L 3168 4672 
z
M 1696 2956 
C 2272 2956 2637 2447 2637 1651 
C 2637 881 2266 372 1702 372 
C 1114 372 723 887 723 1664 
C 723 2440 1114 2956 1696 2956 
z
" transform="scale(0.015625)"/>
       <path id="NimbusSanL-Regu-73" d="M 2803 2427 
C 2797 3085 2362 3456 1587 3456 
C 806 3456 301 3054 301 2436 
C 301 1913 570 1665 1363 1474 
L 1862 1353 
C 2234 1263 2381 1130 2381 888 
C 2381 576 2067 365 1600 365 
C 1312 365 1069 448 934 588 
C 851 684 813 779 781 1014 
L 218 1014 
C 243 241 678 -128 1555 -128 
C 2400 -128 2938 285 2938 929 
C 2938 1426 2656 1701 1990 1860 
L 1478 1981 
C 1043 2082 858 2223 858 2458 
C 858 2764 1133 2962 1568 2962 
C 1997 2962 2227 2777 2240 2427 
L 2803 2427 
z
" transform="scale(0.015625)"/>
      </defs>
      <use xlink:href="#NimbusSanL-Regu-72" transform="scale(0.996264)"/>
      <use xlink:href="#NimbusSanL-Regu-65" transform="translate(33.17523 0) scale(0.996264)"/>
      <use xlink:href="#NimbusSanL-Regu-64" transform="translate(88.566907 0) scale(0.996264)"/>
      <use xlink:href="#NimbusSanL-Regu-69" transform="translate(143.958584 0) scale(0.996264)"/>
      <use xlink:href="#NimbusSanL-Regu-73" transform="translate(166.075368 0) scale(0.996264)"/>
     </g>
    </g>
    <g id="patch_38">
     <path d="M 222.606458 69.693522 
L 258.606458 69.693522 
L 258.606458 57.093522 
L 222.606458 57.093522 
z
" style="fill: #4ba3e1; stroke: #000000; stroke-width: 0.5; stroke-linejoin: miter"/>
    </g>
    <g id="text_49">
     <!-- sqlite -->
     <g transform="translate(273.006458 69.693522) scale(0.18 -0.18)">
      <use xlink:href="#NimbusSanL-Regu-73" transform="scale(0.996264)"/>
      <use xlink:href="#NimbusSanL-Regu-71" transform="translate(49.8132 0) scale(0.996264)"/>
      <use xlink:href="#NimbusSanL-Regu-6c" transform="translate(105.204877 0) scale(0.996264)"/>
      <use xlink:href="#NimbusSanL-Regu-69" transform="translate(127.321662 0) scale(0.996264)"/>
      <use xlink:href="#NimbusSanL-Regu-74" transform="translate(149.438446 0) scale(0.996264)"/>
      <use xlink:href="#NimbusSanL-Regu-65" transform="translate(177.133616 0) scale(0.996264)"/>
     </g>
    </g>
   </g>
  </g>
 </g>
 <defs>
  <clipPath id="p18e93a90b3">
   <rect x="77.147572" y="15.12" width="483.732428" height="252.913115"/>
  </clipPath>
 </defs>
</svg>
