<?xml version="1.0" encoding="utf-8" standalone="no"?>
<!DOCTYPE svg PUBLIC "-//W3C//DTD SVG 1.1//EN"
  "http://www.w3.org/Graphics/SVG/1.1/DTD/svg11.dtd">
<svg xmlns:xlink="http://www.w3.org/1999/xlink" width="576pt" height="360pt" viewBox="0 0 576 360" xmlns="http://www.w3.org/2000/svg" version="1.1">
 <metadata>
  <rdf:RDF xmlns:dc="http://purl.org/dc/elements/1.1/" xmlns:cc="http://creativecommons.org/ns#" xmlns:rdf="http://www.w3.org/1999/02/22-rdf-syntax-ns#">
   <cc:Work>
    <dc:type rdf:resource="http://purl.org/dc/dcmitype/StillImage"/>
    <dc:date>2026-03-24T05:16:02.981035</dc:date>
    <dc:format>image/svg+xml</dc:format>
    <dc:creator>
     <cc:Agent>
      <dc:title>Matplotlib v3.10.8, https://matplotlib.org/</dc:title>
     </cc:Agent>
    </dc:creator>
   </cc:Work>
  </rdf:RDF>
 </metadata>
 <defs>
  <style type="text/css">*{stroke-linejoin: round; stroke-linecap: butt}</style>
 </defs>
 <g id="figure_1">
  <g id="patch_1">
   <path d="M 0 360 
L 576 360 
L 576 0 
L 0 0 
z
" style="fill: #ffffff"/>
  </g>
  <g id="axes_1">
   <g id="patch_2">
    <path d="M 60.435371 324.283454 
L 560.88 324.283454 
L 560.88 15.12 
L 60.435371 15.12 
z
" style="fill: #ffffff"/>
   </g>
   <g id="patch_3">
    <path d="M 60.435371 324.283454 
L 60.435371 15.12 
" style="fill: none; stroke: #000000; stroke-linejoin: miter; stroke-linecap: square"/>
   </g>
   <g id="patch_4">
    <path d="M 560.88 324.283454 
L 560.88 15.12 
" style="fill: none; stroke: #000000; stroke-linejoin: miter; stroke-linecap: square"/>
   </g>
   <g id="patch_5">
    <path d="M 60.435371 324.283454 
L 560.88 324.283454 
" style="fill: none; stroke: #000000; stroke-linejoin: miter; stroke-linecap: square"/>
   </g>
   <g id="patch_6">
    <path d="M 60.435371 15.12 
L 560.88 15.12 
" style="fill: none; stroke: #000000; stroke-linejoin: miter; stroke-linecap: square"/>
   </g>
   <g id="matplotlib.axis_1">
    <g id="xtick_1">
     <g id="line2d_1">
      <defs>
       <path id="m8bef3d7e6b" d="M 0 0 
L 0 -4 
" style="stroke: #000000; stroke-width: 0.5"/>
      </defs>
      <g>
       <use xlink:href="#m8bef3d7e6b" x="110.479834" y="324.283454" style="stroke: #000000; stroke-width: 0.5"/>
      </g>
     </g>
     <g id="line2d_2">
      <defs>
       <path id="m6018e47c65" d="M 0 0 
L 0 4 
" style="stroke: #000000; stroke-width: 0.5"/>
      </defs>
      <g>
       <use xlink:href="#m6018e47c65" x="110.479834" y="15.12" style="stroke: #000000; stroke-width: 0.5"/>
      </g>
     </g>
     <g id="text_1">
      <!-- Binary buddy -->
      <g transform="translate(58.062978 341.060431) scale(0.18 -0.18)">
       <defs>
        <path id="NimbusSanL-Regu-42" d="M 506 0 
L 2611 0 
C 3053 0 3379 121 3629 388 
C 3859 629 3987 959 3987 1322 
C 3987 1881 3731 2217 3136 2446 
C 3558 2647 3782 2996 3782 3475 
C 3782 3817 3654 4122 3411 4342 
C 3168 4568 2848 4672 2400 4672 
L 506 4672 
L 506 0 
z
M 1101 2638 
L 1101 4146 
L 2253 4146 
C 2586 4146 2771 4100 2931 3977 
C 3098 3847 3187 3652 3187 3391 
C 3187 3138 3098 2937 2931 2806 
C 2771 2683 2586 2638 2253 2638 
L 1101 2638 
z
M 1101 526 
L 1101 2112 
L 2554 2112 
C 2842 2112 3034 2042 3174 1891 
C 3315 1745 3392 1543 3392 1316 
C 3392 1095 3315 893 3174 747 
C 3034 595 2842 526 2554 526 
L 1101 526 
z
" transform="scale(0.015625)"/>
        <path id="NimbusSanL-Regu-69" d="M 960 3359 
L 429 3359 
L 429 0 
L 960 0 
L 960 3359 
z
M 960 4672 
L 422 4672 
L 422 3999 
L 960 3999 
L 960 4672 
z
" transform="scale(0.015625)"/>
        <path id="NimbusSanL-Regu-6e" d="M 448 3359 
L 448 0 
L 986 0 
L 986 1853 
C 986 2539 1344 2988 1894 2988 
C 2317 2988 2586 2731 2586 2327 
L 2586 0 
L 3117 0 
L 3117 2539 
C 3117 3097 2701 3456 2054 3456 
C 1555 3456 1235 3263 941 2796 
L 941 3359 
L 448 3359 
z
" transform="scale(0.015625)"/>
        <path id="NimbusSanL-Regu-61" d="M 3424 333 
C 3366 320 3341 320 3309 320 
C 3123 320 3021 415 3021 581 
L 3021 2545 
C 3021 3137 2586 3456 1760 3456 
C 1274 3456 870 3316 646 3066 
C 493 2893 429 2702 416 2370 
L 954 2370 
C 998 2777 1242 2962 1741 2962 
C 2221 2962 2490 2783 2490 2465 
L 2490 2325 
C 2490 2101 2355 2006 1933 1955 
C 1178 1860 1062 1834 858 1751 
C 467 1592 269 1292 269 859 
C 269 254 691 -128 1370 -128 
C 1792 -128 2131 19 2509 365 
C 2547 25 2714 -128 3059 -128 
C 3168 -128 3251 -116 3424 -70 
L 3424 333 
z
M 2490 1072 
C 2490 893 2438 785 2278 639 
C 2061 441 1798 340 1485 340 
C 1069 340 826 537 826 874 
C 826 1225 1062 1403 1632 1486 
C 2195 1562 2310 1588 2490 1670 
L 2490 1072 
z
" transform="scale(0.015625)"/>
        <path id="NimbusSanL-Regu-72" d="M 442 3359 
L 442 0 
L 979 0 
L 979 1741 
C 979 2221 1101 2535 1357 2720 
C 1523 2842 1683 2880 2054 2880 
L 2054 3432 
C 1965 3444 1920 3444 1850 3444 
C 1504 3444 1242 3240 934 2746 
L 934 3359 
L 442 3359 
z
" transform="scale(0.015625)"/>
        <path id="NimbusSanL-Regu-79" d="M 2483 3360 
L 1555 738 
L 698 3360 
L 128 3360 
L 1261 -21 
L 1056 -554 
C 973 -792 851 -882 627 -882 
C 550 -882 461 -869 346 -843 
L 346 -1325 
C 454 -1382 563 -1408 704 -1408 
C 877 -1408 1062 -1350 1203 -1247 
C 1370 -1125 1466 -983 1568 -713 
L 3059 3360 
L 2483 3360 
z
" transform="scale(0.015625)"/>
        <path id="NimbusSanL-Regu-62" d="M 346 4672 
L 346 -2 
L 826 -2 
L 826 448 
C 1082 57 1421 -128 1888 -128 
C 2771 -128 3347 592 3347 1702 
C 3347 2786 2797 3456 1914 3456 
C 1453 3456 1126 3282 877 2905 
L 877 4672 
L 346 4672 
z
M 1811 2956 
C 2406 2956 2790 2440 2790 1645 
C 2790 887 2394 372 1811 372 
C 1248 372 877 881 877 1664 
C 877 2447 1248 2956 1811 2956 
z
" transform="scale(0.015625)"/>
        <path id="NimbusSanL-Regu-75" d="M 3085 33 
L 3085 3392 
L 2554 3392 
L 2554 1479 
C 2554 790 2195 340 1638 340 
C 1216 340 947 597 947 1003 
L 947 3392 
L 416 3392 
L 416 792 
C 416 232 832 -128 1485 -128 
C 1978 -128 2291 45 2605 488 
L 2605 33 
L 3085 33 
z
" transform="scale(0.015625)"/>
        <path id="NimbusSanL-Regu-64" d="M 3168 4672 
L 2637 4672 
L 2637 2937 
C 2413 3276 2054 3456 1606 3456 
C 736 3456 166 2761 166 1695 
C 166 566 723 -128 1626 -128 
C 2086 -128 2406 45 2694 461 
L 2694 -2 
L 3168 -2 
L 3168 4672 
z
M 1696 2956 
C 2272 2956 2637 2447 2637 1651 
C 2637 881 2266 372 1702 372 
C 1114 372 723 887 723 1664 
C 723 2440 1114 2956 1696 2956 
z
" transform="scale(0.015625)"/>
       </defs>
       <use xlink:href="#NimbusSanL-Regu-42" transform="scale(0.996264)"/>
       <use xlink:href="#NimbusSanL-Regu-69" transform="translate(66.450031 0) scale(0.996264)"/>
       <use xlink:href="#NimbusSanL-Regu-6e" transform="translate(88.566815 0) scale(0.996264)"/>
       <use xlink:href="#NimbusSanL-Regu-61" transform="translate(143.958492 0) scale(0.996264)"/>
       <use xlink:href="#NimbusSanL-Regu-72" transform="translate(199.350169 0) scale(0.996264)"/>
       <use xlink:href="#NimbusSanL-Regu-79" transform="translate(235.513492 0) scale(0.996264)"/>
       <use xlink:href="#NimbusSanL-Regu-62" transform="translate(313.021862 0) scale(0.996264)"/>
       <use xlink:href="#NimbusSanL-Regu-75" transform="translate(366.421528 0) scale(0.996264)"/>
       <use xlink:href="#NimbusSanL-Regu-64" transform="translate(421.813205 0) scale(0.996264)"/>
       <use xlink:href="#NimbusSanL-Regu-64" transform="translate(477.204882 0) scale(0.996264)"/>
       <use xlink:href="#NimbusSanL-Regu-79" transform="translate(532.596559 0) scale(0.996264)"/>
      </g>
     </g>
    </g>
    <g id="xtick_2">
     <g id="line2d_3">
      <g>
       <use xlink:href="#m8bef3d7e6b" x="210.568759" y="324.283454" style="stroke: #000000; stroke-width: 0.5"/>
      </g>
     </g>
     <g id="line2d_4">
      <g>
       <use xlink:href="#m6018e47c65" x="210.568759" y="15.12" style="stroke: #000000; stroke-width: 0.5"/>
      </g>
     </g>
     <g id="text_2">
      <!-- Mimalloc -->
      <g transform="translate(175.205644 341.060431) scale(0.18 -0.18)">
       <defs>
        <path id="NimbusSanL-Regu-4d" d="M 2995 -2 
L 4307 3915 
L 4307 -2 
L 4870 -2 
L 4870 4672 
L 4045 4672 
L 2688 601 
L 1306 4672 
L 480 4672 
L 480 -2 
L 1043 -2 
L 1043 3915 
L 2368 -2 
L 2995 -2 
z
" transform="scale(0.015625)"/>
        <path id="NimbusSanL-Regu-6d" d="M 448 3359 
L 448 0 
L 986 0 
L 986 2109 
C 986 2597 1338 2988 1773 2988 
C 2170 2988 2394 2744 2394 2314 
L 2394 0 
L 2931 0 
L 2931 2109 
C 2931 2597 3283 2988 3718 2988 
C 4109 2988 4339 2738 4339 2314 
L 4339 0 
L 4877 0 
L 4877 2520 
C 4877 3122 4531 3456 3904 3456 
C 3456 3456 3187 3321 2874 2943 
C 2675 3302 2406 3456 1971 3456 
C 1523 3456 1229 3289 941 2885 
L 941 3359 
L 448 3359 
z
" transform="scale(0.015625)"/>
        <path id="NimbusSanL-Regu-6c" d="M 973 4672 
L 435 4672 
L 435 -2 
L 973 -2 
L 973 4672 
z
" transform="scale(0.015625)"/>
        <path id="NimbusSanL-Regu-6f" d="M 1741 3456 
C 800 3456 230 2786 230 1663 
C 230 541 794 -128 1747 -128 
C 2688 -128 3264 541 3264 1638 
C 3264 2792 2707 3456 1741 3456 
z
M 1747 2962 
C 2349 2962 2707 2472 2707 1645 
C 2707 861 2336 365 1747 365 
C 1152 365 787 855 787 1663 
C 787 2466 1152 2962 1747 2962 
z
" transform="scale(0.015625)"/>
        <path id="NimbusSanL-Regu-63" d="M 3014 2236 
C 2989 2562 2918 2773 2790 2958 
C 2560 3271 2157 3456 1690 3456 
C 787 3456 198 2742 198 1632 
C 198 554 774 -128 1683 -128 
C 2483 -128 2989 350 3053 1167 
L 2515 1167 
C 2426 632 2150 365 1696 365 
C 1107 365 755 843 755 1632 
C 755 2466 1101 2962 1683 2962 
C 2131 2962 2413 2701 2477 2236 
L 3014 2236 
z
" transform="scale(0.015625)"/>
       </defs>
       <use xlink:href="#NimbusSanL-Regu-4d" transform="scale(0.996264)"/>
       <use xlink:href="#NimbusSanL-Regu-69" transform="translate(82.98843 0) scale(0.996264)"/>
       <use xlink:href="#NimbusSanL-Regu-6d" transform="translate(105.105215 0) scale(0.996264)"/>
       <use xlink:href="#NimbusSanL-Regu-61" transform="translate(188.093645 0) scale(0.996264)"/>
       <use xlink:href="#NimbusSanL-Regu-6c" transform="translate(243.485322 0) scale(0.996264)"/>
       <use xlink:href="#NimbusSanL-Regu-6c" transform="translate(265.602106 0) scale(0.996264)"/>
       <use xlink:href="#NimbusSanL-Regu-6f" transform="translate(287.71889 0) scale(0.996264)"/>
       <use xlink:href="#NimbusSanL-Regu-63" transform="translate(343.110567 0) scale(0.996264)"/>
      </g>
     </g>
    </g>
    <g id="xtick_3">
     <g id="line2d_5">
      <g>
       <use xlink:href="#m8bef3d7e6b" x="310.657685" y="324.283454" style="stroke: #000000; stroke-width: 0.5"/>
      </g>
     </g>
     <g id="line2d_6">
      <g>
       <use xlink:href="#m6018e47c65" x="310.657685" y="15.12" style="stroke: #000000; stroke-width: 0.5"/>
      </g>
     </g>
     <g id="text_3">
      <!-- Bootalloc -->
      <g transform="translate(273.779423 341.060431) scale(0.18 -0.18)">
       <defs>
        <path id="NimbusSanL-Regu-74" d="M 1626 3380 
L 1075 3380 
L 1075 4288 
L 544 4288 
L 544 3380 
L 90 3380 
L 90 2944 
L 544 2944 
L 544 404 
C 544 64 774 -128 1190 -128 
C 1318 -128 1446 -116 1626 -83 
L 1626 366 
C 1555 346 1472 340 1370 340 
C 1139 340 1075 404 1075 641 
L 1075 2944 
L 1626 2944 
L 1626 3380 
z
" transform="scale(0.015625)"/>
       </defs>
       <use xlink:href="#NimbusSanL-Regu-42" transform="scale(0.996264)"/>
       <use xlink:href="#NimbusSanL-Regu-6f" transform="translate(66.450031 0) scale(0.996264)"/>
       <use xlink:href="#NimbusSanL-Regu-6f" transform="translate(121.841708 0) scale(0.996264)"/>
       <use xlink:href="#NimbusSanL-Regu-74" transform="translate(177.233385 0) scale(0.996264)"/>
       <use xlink:href="#NimbusSanL-Regu-61" transform="translate(204.928555 0) scale(0.996264)"/>
       <use xlink:href="#NimbusSanL-Regu-6c" transform="translate(260.320232 0) scale(0.996264)"/>
       <use xlink:href="#NimbusSanL-Regu-6c" transform="translate(282.437016 0) scale(0.996264)"/>
       <use xlink:href="#NimbusSanL-Regu-6f" transform="translate(304.5538 0) scale(0.996264)"/>
       <use xlink:href="#NimbusSanL-Regu-63" transform="translate(359.945477 0) scale(0.996264)"/>
      </g>
     </g>
    </g>
    <g id="xtick_4">
     <g id="line2d_7">
      <g>
       <use xlink:href="#m8bef3d7e6b" x="410.746611" y="324.283454" style="stroke: #000000; stroke-width: 0.5"/>
      </g>
     </g>
     <g id="line2d_8">
      <g>
       <use xlink:href="#m6018e47c65" x="410.746611" y="15.12" style="stroke: #000000; stroke-width: 0.5"/>
      </g>
     </g>
     <g id="text_4">
      <!-- tinyalloc -->
      <g transform="translate(378.674096 341.060431) scale(0.18 -0.18)">
       <use xlink:href="#NimbusSanL-Regu-74" transform="scale(0.996264)"/>
       <use xlink:href="#NimbusSanL-Regu-69" transform="translate(27.69517 0) scale(0.996264)"/>
       <use xlink:href="#NimbusSanL-Regu-6e" transform="translate(49.811954 0) scale(0.996264)"/>
       <use xlink:href="#NimbusSanL-Regu-79" transform="translate(103.710238 0) scale(0.996264)"/>
       <use xlink:href="#NimbusSanL-Regu-61" transform="translate(151.531428 0) scale(0.996264)"/>
       <use xlink:href="#NimbusSanL-Regu-6c" transform="translate(206.923105 0) scale(0.996264)"/>
       <use xlink:href="#NimbusSanL-Regu-6c" transform="translate(229.039889 0) scale(0.996264)"/>
       <use xlink:href="#NimbusSanL-Regu-6f" transform="translate(251.156673 0) scale(0.996264)"/>
       <use xlink:href="#NimbusSanL-Regu-63" transform="translate(306.54835 0) scale(0.996264)"/>
      </g>
     </g>
    </g>
    <g id="xtick_5">
     <g id="line2d_9">
      <g>
       <use xlink:href="#m8bef3d7e6b" x="510.835537" y="324.283454" style="stroke: #000000; stroke-width: 0.5"/>
      </g>
     </g>
     <g id="line2d_10">
      <g>
       <use xlink:href="#m6018e47c65" x="510.835537" y="15.12" style="stroke: #000000; stroke-width: 0.5"/>
      </g>
     </g>
     <g id="text_5">
      <!-- TLSF -->
      <g transform="translate(488.912902 341.060431) scale(0.18 -0.18)">
       <defs>
        <path id="NimbusSanL-Regu-54" d="M 2266 4146 
L 3795 4146 
L 3795 4672 
L 134 4672 
L 134 4146 
L 1670 4146 
L 1670 -14 
L 2266 -14 
L 2266 4146 
z
" transform="scale(0.015625)"/>
        <path id="NimbusSanL-Regu-4c" d="M 1107 4672 
L 512 4672 
L 512 0 
L 3411 0 
L 3411 526 
L 1107 526 
L 1107 4672 
z
" transform="scale(0.015625)"/>
        <path id="NimbusSanL-Regu-53" d="M 3814 3335 
C 3808 4255 3181 4788 2106 4788 
C 1082 4788 448 4260 448 3410 
C 448 2837 749 2477 1363 2316 
L 2522 2007 
C 3110 1852 3379 1614 3379 1247 
C 3379 995 3245 738 3046 597 
C 2861 468 2566 397 2189 397 
C 1683 397 1338 520 1114 790 
C 941 996 864 1222 870 1511 
L 307 1511 
C 314 1081 397 798 582 540 
C 902 103 1440 -128 2150 -128 
C 2707 -128 3162 1 3462 232 
C 3776 483 3974 901 3974 1307 
C 3974 1886 3616 2311 2982 2485 
L 1811 2801 
C 1248 2955 1043 3135 1043 3496 
C 1043 3972 1459 4288 2086 4288 
C 2829 4288 3245 3947 3251 3335 
L 3814 3335 
z
" transform="scale(0.015625)"/>
        <path id="NimbusSanL-Regu-46" d="M 1171 2112 
L 3398 2112 
L 3398 2638 
L 1171 2638 
L 1171 4146 
L 3706 4146 
L 3706 4672 
L 576 4672 
L 576 -14 
L 1171 -14 
L 1171 2112 
z
" transform="scale(0.015625)"/>
       </defs>
       <use xlink:href="#NimbusSanL-Regu-54" transform="scale(0.996264)"/>
       <use xlink:href="#NimbusSanL-Regu-4c" transform="translate(60.871631 0) scale(0.996264)"/>
       <use xlink:href="#NimbusSanL-Regu-53" transform="translate(116.263308 0) scale(0.996264)"/>
       <use xlink:href="#NimbusSanL-Regu-46" transform="translate(182.713339 0) scale(0.996264)"/>
      </g>
     </g>
    </g>
   </g>
   <g id="matplotlib.axis_2">
    <g id="ytick_1">
     <g id="line2d_11">
      <path d="M 60.435371 324.283454 
L 560.88 324.283454 
" clip-path="url(#p4bf4bf6c22)" style="fill: none; stroke-dasharray: 1,3; stroke-dashoffset: 0; stroke: #000000; stroke-opacity: 0.5; stroke-width: 0.5"/>
     </g>
     <g id="line2d_12">
      <defs>
       <path id="m5fb6a56769" d="M 0 0 
L 4 0 
" style="stroke: #000000; stroke-width: 0.5"/>
      </defs>
      <g>
       <use xlink:href="#m5fb6a56769" x="60.435371" y="324.283454" style="stroke: #000000; stroke-width: 0.5"/>
      </g>
     </g>
     <g id="line2d_13">
      <defs>
       <path id="m3759966a76" d="M 0 0 
L -4 0 
" style="stroke: #000000; stroke-width: 0.5"/>
      </defs>
      <g>
       <use xlink:href="#m3759966a76" x="560.88" y="324.283454" style="stroke: #000000; stroke-width: 0.5"/>
      </g>
     </g>
     <g id="text_6">
      <!-- 0.0 -->
      <g transform="translate(37.048401 327.766889) scale(0.14 -0.14)">
       <defs>
        <path id="NimbusSanL-Regu-30" d="M 1760 4544 
C 1338 4544 954 4360 717 4046 
C 422 3651 275 3044 275 2208 
C 275 683 787 -128 1760 -128 
C 2720 -128 3245 683 3245 2170 
C 3245 3050 3104 3638 2803 4046 
C 2566 4366 2189 4544 1760 4544 
z
M 1760 4044 
C 2368 4044 2669 3432 2669 2221 
C 2669 939 2374 340 1747 340 
C 1152 340 851 965 851 2202 
C 851 3438 1152 4044 1760 4044 
z
" transform="scale(0.015625)"/>
        <path id="NimbusSanL-Regu-2e" d="M 1222 667 
L 557 667 
L 557 0 
L 1222 0 
L 1222 667 
z
" transform="scale(0.015625)"/>
       </defs>
       <use xlink:href="#NimbusSanL-Regu-30" transform="scale(0.996264)"/>
       <use xlink:href="#NimbusSanL-Regu-2e" transform="translate(55.391677 0) scale(0.996264)"/>
       <use xlink:href="#NimbusSanL-Regu-30" transform="translate(83.086847 0) scale(0.996264)"/>
      </g>
     </g>
    </g>
    <g id="ytick_2">
     <g id="line2d_14">
      <path d="M 60.435371 284.879496 
L 560.88 284.879496 
" clip-path="url(#p4bf4bf6c22)" style="fill: none; stroke-dasharray: 1,3; stroke-dashoffset: 0; stroke: #000000; stroke-opacity: 0.5; stroke-width: 0.5"/>
     </g>
     <g id="line2d_15">
      <g>
       <use xlink:href="#m5fb6a56769" x="60.435371" y="284.879496" style="stroke: #000000; stroke-width: 0.5"/>
      </g>
     </g>
     <g id="line2d_16">
      <g>
       <use xlink:href="#m3759966a76" x="560.88" y="284.879496" style="stroke: #000000; stroke-width: 0.5"/>
      </g>
     </g>
     <g id="text_7">
      <!-- 0.5 -->
      <g transform="translate(37.048401 288.362931) scale(0.14 -0.14)">
       <defs>
        <path id="NimbusSanL-Regu-35" d="M 3046 4544 
L 704 4544 
L 365 2086 
L 883 2086 
C 1146 2399 1363 2508 1715 2508 
C 2323 2508 2707 2092 2707 1421 
C 2707 768 2330 372 1715 372 
C 1222 372 922 621 787 1133 
L 224 1133 
C 301 762 365 582 499 415 
C 755 70 1216 -128 1728 -128 
C 2643 -128 3283 537 3283 1497 
C 3283 2394 2688 3008 1818 3008 
C 1498 3008 1242 2925 979 2732 
L 1158 3987 
L 3046 3987 
L 3046 4544 
z
" transform="scale(0.015625)"/>
       </defs>
       <use xlink:href="#NimbusSanL-Regu-30" transform="scale(0.996264)"/>
       <use xlink:href="#NimbusSanL-Regu-2e" transform="translate(55.391677 0) scale(0.996264)"/>
       <use xlink:href="#NimbusSanL-Regu-35" transform="translate(83.086847 0) scale(0.996264)"/>
      </g>
     </g>
    </g>
    <g id="ytick_3">
     <g id="line2d_17">
      <path d="M 60.435371 245.475538 
L 560.88 245.475538 
" clip-path="url(#p4bf4bf6c22)" style="fill: none; stroke-dasharray: 1,3; stroke-dashoffset: 0; stroke: #000000; stroke-opacity: 0.5; stroke-width: 0.5"/>
     </g>
     <g id="line2d_18">
      <g>
       <use xlink:href="#m5fb6a56769" x="60.435371" y="245.475538" style="stroke: #000000; stroke-width: 0.5"/>
      </g>
     </g>
     <g id="line2d_19">
      <g>
       <use xlink:href="#m3759966a76" x="560.88" y="245.475538" style="stroke: #000000; stroke-width: 0.5"/>
      </g>
     </g>
     <g id="text_8">
      <!-- 1.0 -->
      <g transform="translate(37.048401 248.958973) scale(0.14 -0.14)">
       <defs>
        <path id="NimbusSanL-Regu-31" d="M 1658 3238 
L 1658 0 
L 2221 0 
L 2221 4545 
L 1850 4545 
C 1651 3847 1523 3751 653 3642 
L 653 3238 
L 1658 3238 
z
" transform="scale(0.015625)"/>
       </defs>
       <use xlink:href="#NimbusSanL-Regu-31" transform="scale(0.996264)"/>
       <use xlink:href="#NimbusSanL-Regu-2e" transform="translate(55.391677 0) scale(0.996264)"/>
       <use xlink:href="#NimbusSanL-Regu-30" transform="translate(83.086847 0) scale(0.996264)"/>
      </g>
     </g>
    </g>
    <g id="ytick_4">
     <g id="line2d_20">
      <path d="M 60.435371 206.07158 
L 560.88 206.07158 
" clip-path="url(#p4bf4bf6c22)" style="fill: none; stroke-dasharray: 1,3; stroke-dashoffset: 0; stroke: #000000; stroke-opacity: 0.5; stroke-width: 0.5"/>
     </g>
     <g id="line2d_21">
      <g>
       <use xlink:href="#m5fb6a56769" x="60.435371" y="206.07158" style="stroke: #000000; stroke-width: 0.5"/>
      </g>
     </g>
     <g id="line2d_22">
      <g>
       <use xlink:href="#m3759966a76" x="560.88" y="206.07158" style="stroke: #000000; stroke-width: 0.5"/>
      </g>
     </g>
     <g id="text_9">
      <!-- 1.5 -->
      <g transform="translate(37.048401 209.555015) scale(0.14 -0.14)">
       <use xlink:href="#NimbusSanL-Regu-31" transform="scale(0.996264)"/>
       <use xlink:href="#NimbusSanL-Regu-2e" transform="translate(55.391677 0) scale(0.996264)"/>
       <use xlink:href="#NimbusSanL-Regu-35" transform="translate(83.086847 0) scale(0.996264)"/>
      </g>
     </g>
    </g>
    <g id="ytick_5">
     <g id="line2d_23">
      <path d="M 60.435371 166.667622 
L 560.88 166.667622 
" clip-path="url(#p4bf4bf6c22)" style="fill: none; stroke-dasharray: 1,3; stroke-dashoffset: 0; stroke: #000000; stroke-opacity: 0.5; stroke-width: 0.5"/>
     </g>
     <g id="line2d_24">
      <g>
       <use xlink:href="#m5fb6a56769" x="60.435371" y="166.667622" style="stroke: #000000; stroke-width: 0.5"/>
      </g>
     </g>
     <g id="line2d_25">
      <g>
       <use xlink:href="#m3759966a76" x="560.88" y="166.667622" style="stroke: #000000; stroke-width: 0.5"/>
      </g>
     </g>
     <g id="text_10">
      <!-- 2.0 -->
      <g transform="translate(37.048401 170.151058) scale(0.14 -0.14)">
       <defs>
        <path id="NimbusSanL-Regu-32" d="M 3238 558 
L 851 558 
C 909 930 1114 1167 1670 1494 
L 2310 1840 
C 2944 2186 3270 2653 3270 3211 
C 3270 3589 3117 3942 2848 4185 
C 2579 4429 2246 4544 1818 4544 
C 1242 4544 813 4339 563 3955 
C 403 3711 333 3429 320 2967 
L 883 2967 
C 902 3275 941 3461 1018 3608 
C 1165 3884 1459 4051 1798 4051 
C 2310 4051 2694 3685 2694 3198 
C 2694 2839 2483 2531 2080 2301 
L 1491 1968 
C 544 1430 269 1000 218 0 
L 3238 0 
L 3238 558 
z
" transform="scale(0.015625)"/>
       </defs>
       <use xlink:href="#NimbusSanL-Regu-32" transform="scale(0.996264)"/>
       <use xlink:href="#NimbusSanL-Regu-2e" transform="translate(55.391677 0) scale(0.996264)"/>
       <use xlink:href="#NimbusSanL-Regu-30" transform="translate(83.086847 0) scale(0.996264)"/>
      </g>
     </g>
    </g>
    <g id="ytick_6">
     <g id="line2d_26">
      <path d="M 60.435371 127.263664 
L 560.88 127.263664 
" clip-path="url(#p4bf4bf6c22)" style="fill: none; stroke-dasharray: 1,3; stroke-dashoffset: 0; stroke: #000000; stroke-opacity: 0.5; stroke-width: 0.5"/>
     </g>
     <g id="line2d_27">
      <g>
       <use xlink:href="#m5fb6a56769" x="60.435371" y="127.263664" style="stroke: #000000; stroke-width: 0.5"/>
      </g>
     </g>
     <g id="line2d_28">
      <g>
       <use xlink:href="#m3759966a76" x="560.88" y="127.263664" style="stroke: #000000; stroke-width: 0.5"/>
      </g>
     </g>
     <g id="text_11">
      <!-- 2.5 -->
      <g transform="translate(37.048401 130.7471) scale(0.14 -0.14)">
       <use xlink:href="#NimbusSanL-Regu-32" transform="scale(0.996264)"/>
       <use xlink:href="#NimbusSanL-Regu-2e" transform="translate(55.391677 0) scale(0.996264)"/>
       <use xlink:href="#NimbusSanL-Regu-35" transform="translate(83.086847 0) scale(0.996264)"/>
      </g>
     </g>
    </g>
    <g id="ytick_7">
     <g id="line2d_29">
      <path d="M 60.435371 87.859706 
L 560.88 87.859706 
" clip-path="url(#p4bf4bf6c22)" style="fill: none; stroke-dasharray: 1,3; stroke-dashoffset: 0; stroke: #000000; stroke-opacity: 0.5; stroke-width: 0.5"/>
     </g>
     <g id="line2d_30">
      <g>
       <use xlink:href="#m5fb6a56769" x="60.435371" y="87.859706" style="stroke: #000000; stroke-width: 0.5"/>
      </g>
     </g>
     <g id="line2d_31">
      <g>
       <use xlink:href="#m3759966a76" x="560.88" y="87.859706" style="stroke: #000000; stroke-width: 0.5"/>
      </g>
     </g>
     <g id="text_12">
      <!-- 3.0 -->
      <g transform="translate(37.048401 91.343142) scale(0.14 -0.14)">
       <defs>
        <path id="NimbusSanL-Regu-33" d="M 1414 2112 
L 1485 2112 
L 1722 2112 
C 2342 2112 2662 1830 2662 1284 
C 2662 712 2310 372 1722 372 
C 1107 372 806 681 768 1345 
L 205 1345 
C 230 978 294 740 403 534 
C 634 97 1082 -128 1702 -128 
C 2637 -128 3238 431 3238 1293 
C 3238 1872 3014 2194 2470 2381 
C 2893 2546 3104 2862 3104 3311 
C 3104 4082 2586 4544 1722 4544 
C 806 4544 320 4050 301 3095 
L 864 3095 
C 870 3366 896 3517 966 3655 
C 1094 3900 1376 4051 1728 4051 
C 2227 4051 2528 3760 2528 3287 
C 2528 2971 2413 2781 2163 2681 
C 2010 2618 1811 2592 1414 2592 
L 1414 2112 
z
" transform="scale(0.015625)"/>
       </defs>
       <use xlink:href="#NimbusSanL-Regu-33" transform="scale(0.996264)"/>
       <use xlink:href="#NimbusSanL-Regu-2e" transform="translate(55.391677 0) scale(0.996264)"/>
       <use xlink:href="#NimbusSanL-Regu-30" transform="translate(83.086847 0) scale(0.996264)"/>
      </g>
     </g>
    </g>
    <g id="ytick_8">
     <g id="line2d_32">
      <path d="M 60.435371 48.455748 
L 560.88 48.455748 
" clip-path="url(#p4bf4bf6c22)" style="fill: none; stroke-dasharray: 1,3; stroke-dashoffset: 0; stroke: #000000; stroke-opacity: 0.5; stroke-width: 0.5"/>
     </g>
     <g id="line2d_33">
      <g>
       <use xlink:href="#m5fb6a56769" x="60.435371" y="48.455748" style="stroke: #000000; stroke-width: 0.5"/>
      </g>
     </g>
     <g id="line2d_34">
      <g>
       <use xlink:href="#m3759966a76" x="560.88" y="48.455748" style="stroke: #000000; stroke-width: 0.5"/>
      </g>
     </g>
     <g id="text_13">
      <!-- 3.5 -->
      <g transform="translate(37.048401 51.939184) scale(0.14 -0.14)">
       <use xlink:href="#NimbusSanL-Regu-33" transform="scale(0.996264)"/>
       <use xlink:href="#NimbusSanL-Regu-2e" transform="translate(55.391677 0) scale(0.996264)"/>
       <use xlink:href="#NimbusSanL-Regu-35" transform="translate(83.086847 0) scale(0.996264)"/>
      </g>
     </g>
    </g>
    <g id="text_14">
     <!-- Total Boot Time (ms) -->
     <g transform="translate(28.228831 252.325885) rotate(-90) scale(0.18 -0.18)">
      <defs>
       <path id="NimbusSanL-Regu-65" d="M 3283 1529 
C 3283 2034 3245 2338 3149 2584 
C 2931 3127 2419 3456 1792 3456 
C 858 3456 256 2742 256 1645 
C 256 547 838 -128 1779 -128 
C 2547 -128 3078 310 3213 1044 
L 2675 1044 
C 2528 598 2227 365 1798 365 
C 1459 365 1171 520 992 805 
C 864 998 819 1193 813 1529 
L 3283 1529 
z
M 826 1984 
C 870 2577 1248 2962 1786 2962 
C 2310 2962 2714 2530 2714 1984 
C 2714 1984 2714 1984 2707 1984 
L 826 1984 
z
" transform="scale(0.015625)"/>
       <path id="NimbusSanL-Regu-28" d="M 1510 4672 
C 870 3830 467 2660 467 1651 
C 467 636 870 -534 1510 -1376 
L 1862 -1376 
C 1299 -457 986 623 986 1651 
C 986 2673 1299 3759 1862 4672 
L 1510 4672 
z
" transform="scale(0.015625)"/>
       <path id="NimbusSanL-Regu-73" d="M 2803 2427 
C 2797 3085 2362 3456 1587 3456 
C 806 3456 301 3054 301 2436 
C 301 1913 570 1665 1363 1474 
L 1862 1353 
C 2234 1263 2381 1130 2381 888 
C 2381 576 2067 365 1600 365 
C 1312 365 1069 448 934 588 
C 851 684 813 779 781 1014 
L 218 1014 
C 243 241 678 -128 1555 -128 
C 2400 -128 2938 285 2938 929 
C 2938 1426 2656 1701 1990 1860 
L 1478 1981 
C 1043 2082 858 2223 858 2458 
C 858 2764 1133 2962 1568 2962 
C 1997 2962 2227 2777 2240 2427 
L 2803 2427 
z
" transform="scale(0.015625)"/>
       <path id="NimbusSanL-Regu-29" d="M 595 -1376 
C 1235 -534 1638 636 1638 1644 
C 1638 2660 1235 3830 595 4672 
L 243 4672 
C 806 3753 1120 2673 1120 1644 
C 1120 623 806 -464 243 -1376 
L 595 -1376 
z
" transform="scale(0.015625)"/>
      </defs>
      <use xlink:href="#NimbusSanL-Regu-54" transform="scale(0.996264)"/>
      <use xlink:href="#NimbusSanL-Regu-6f" transform="translate(48.916949 0) scale(0.996264)"/>
      <use xlink:href="#NimbusSanL-Regu-74" transform="translate(104.308626 0) scale(0.996264)"/>
      <use xlink:href="#NimbusSanL-Regu-61" transform="translate(132.003796 0) scale(0.996264)"/>
      <use xlink:href="#NimbusSanL-Regu-6c" transform="translate(187.395473 0) scale(0.996264)"/>
      <use xlink:href="#NimbusSanL-Regu-42" transform="translate(237.207426 0) scale(0.996264)"/>
      <use xlink:href="#NimbusSanL-Regu-6f" transform="translate(303.657458 0) scale(0.996264)"/>
      <use xlink:href="#NimbusSanL-Regu-6f" transform="translate(359.049135 0) scale(0.996264)"/>
      <use xlink:href="#NimbusSanL-Regu-74" transform="translate(414.440812 0) scale(0.996264)"/>
      <use xlink:href="#NimbusSanL-Regu-54" transform="translate(469.831151 0) scale(0.996264)"/>
      <use xlink:href="#NimbusSanL-Regu-69" transform="translate(530.702781 0) scale(0.996264)"/>
      <use xlink:href="#NimbusSanL-Regu-6d" transform="translate(552.819566 0) scale(0.996264)"/>
      <use xlink:href="#NimbusSanL-Regu-65" transform="translate(635.807996 0) scale(0.996264)"/>
      <use xlink:href="#NimbusSanL-Regu-28" transform="translate(718.894843 0) scale(0.996264)"/>
      <use xlink:href="#NimbusSanL-Regu-6d" transform="translate(752.070072 0) scale(0.996264)"/>
      <use xlink:href="#NimbusSanL-Regu-73" transform="translate(835.058503 0) scale(0.996264)"/>
      <use xlink:href="#NimbusSanL-Regu-29" transform="translate(884.871703 0) scale(0.996264)"/>
     </g>
    </g>
   </g>
   <g id="text_15">
    <g id="patch_7">
     <path d="M 118.238107 74.255718 
L 118.238107 40.439099 
L 102.721561 40.439099 
L 102.721561 74.255718 
z
" style="fill: #ffffff"/>
    </g>
    <!-- 3.07 -->
    <g transform="translate(114.958537 74.795718) rotate(-90) scale(0.18 -0.18)">
     <defs>
      <path id="NimbusSanL-Regu-37" d="M 3328 4525 
L 294 4525 
L 294 3968 
L 2746 3968 
C 1664 2418 1222 1466 883 -32 
L 1485 -32 
C 1734 1427 2304 2681 3328 4051 
L 3328 4525 
z
" transform="scale(0.015625)"/>
     </defs>
     <use xlink:href="#NimbusSanL-Regu-33" transform="scale(0.996264)"/>
     <use xlink:href="#NimbusSanL-Regu-2e" transform="translate(55.391677 0) scale(0.996264)"/>
     <use xlink:href="#NimbusSanL-Regu-30" transform="translate(83.086847 0) scale(0.996264)"/>
     <use xlink:href="#NimbusSanL-Regu-37" transform="translate(138.478524 0) scale(0.996264)"/>
    </g>
   </g>
   <g id="text_16">
    <g id="patch_8">
     <path d="M 218.327032 241.729632 
L 218.327032 207.913013 
L 202.810487 207.913013 
L 202.810487 241.729632 
z
" style="fill: #ffffff"/>
    </g>
    <!-- 0.94 -->
    <g transform="translate(215.047463 242.269632) rotate(-90) scale(0.18 -0.18)">
     <defs>
      <path id="NimbusSanL-Regu-39" d="M 339 1064 
C 448 316 934 -128 1626 -128 
C 2125 -128 2579 114 2842 516 
C 3130 956 3258 1512 3258 2335 
C 3258 3095 3142 3580 2874 3982 
C 2624 4347 2227 4544 1728 4544 
C 864 4544 243 3909 243 3027 
C 243 2190 819 1600 1638 1600 
C 2067 1600 2381 1754 2675 2106 
C 2669 991 2310 372 1664 372 
C 1267 372 992 624 902 1064 
L 339 1064 
z
M 1722 4051 
C 2246 4051 2643 3622 2643 3041 
C 2643 2491 2253 2100 1702 2100 
C 1158 2100 819 2472 819 3072 
C 819 3640 1203 4051 1722 4051 
z
" transform="scale(0.015625)"/>
      <path id="NimbusSanL-Regu-34" d="M 2093 1088 
L 2093 0 
L 2656 0 
L 2656 1088 
L 3328 1088 
L 3328 1594 
L 2656 1594 
L 2656 4545 
L 2240 4545 
L 179 1684 
L 179 1088 
L 2093 1088 
z
M 2093 1594 
L 672 1594 
L 2093 3583 
L 2093 1594 
z
" transform="scale(0.015625)"/>
     </defs>
     <use xlink:href="#NimbusSanL-Regu-30" transform="scale(0.996264)"/>
     <use xlink:href="#NimbusSanL-Regu-2e" transform="translate(55.391677 0) scale(0.996264)"/>
     <use xlink:href="#NimbusSanL-Regu-39" transform="translate(83.086847 0) scale(0.996264)"/>
     <use xlink:href="#NimbusSanL-Regu-34" transform="translate(138.478524 0) scale(0.996264)"/>
    </g>
   </g>
   <g id="text_17">
    <g id="patch_9">
     <path d="M 318.415958 277.422525 
L 318.415958 243.605907 
L 302.899412 243.605907 
L 302.899412 277.422525 
z
" style="fill: #ffffff"/>
    </g>
    <!-- 0.49 -->
    <g transform="translate(315.136389 277.962525) rotate(-90) scale(0.18 -0.18)">
     <use xlink:href="#NimbusSanL-Regu-30" transform="scale(0.996264)"/>
     <use xlink:href="#NimbusSanL-Regu-2e" transform="translate(55.391677 0) scale(0.996264)"/>
     <use xlink:href="#NimbusSanL-Regu-34" transform="translate(83.086847 0) scale(0.996264)"/>
     <use xlink:href="#NimbusSanL-Regu-39" transform="translate(138.478524 0) scale(0.996264)"/>
    </g>
   </g>
   <g id="text_18">
    <g id="patch_10">
     <path d="M 418.504884 247.0271 
L 418.504884 213.210482 
L 402.988338 213.210482 
L 402.988338 247.0271 
z
" style="fill: #ffffff"/>
    </g>
    <!-- 0.87 -->
    <g transform="translate(415.225315 247.5671) rotate(-90) scale(0.18 -0.18)">
     <defs>
      <path id="NimbusSanL-Regu-38" d="M 2502 2399 
C 2970 2680 3123 2910 3123 3338 
C 3123 4046 2566 4544 1760 4544 
C 960 4544 397 4046 397 3338 
C 397 2917 550 2687 1011 2399 
C 493 2150 237 1774 237 1276 
C 237 446 864 -128 1760 -128 
C 2656 -128 3283 447 3283 1270 
C 3283 1774 3027 2150 2502 2399 
z
M 1760 4044 
C 2240 4044 2547 3764 2547 3325 
C 2547 2904 2234 2624 1760 2624 
C 1286 2624 973 2904 973 3331 
C 973 3764 1286 4044 1760 4044 
z
M 1760 2149 
C 2323 2149 2707 1792 2707 1263 
C 2707 729 2323 372 1747 372 
C 1197 372 813 735 813 1263 
C 813 1792 1197 2149 1760 2149 
z
" transform="scale(0.015625)"/>
     </defs>
     <use xlink:href="#NimbusSanL-Regu-30" transform="scale(0.996264)"/>
     <use xlink:href="#NimbusSanL-Regu-2e" transform="translate(55.391677 0) scale(0.996264)"/>
     <use xlink:href="#NimbusSanL-Regu-38" transform="translate(83.086847 0) scale(0.996264)"/>
     <use xlink:href="#NimbusSanL-Regu-37" transform="translate(138.478524 0) scale(0.996264)"/>
    </g>
   </g>
   <g id="text_19">
    <g id="patch_11">
     <path d="M 518.59381 275.865281 
L 518.59381 242.048662 
L 503.077264 242.048662 
L 503.077264 275.865281 
z
" style="fill: #ffffff"/>
    </g>
    <!-- 0.51 -->
    <g transform="translate(515.314241 276.405281) rotate(-90) scale(0.18 -0.18)">
     <use xlink:href="#NimbusSanL-Regu-30" transform="scale(0.996264)"/>
     <use xlink:href="#NimbusSanL-Regu-2e" transform="translate(55.391677 0) scale(0.996264)"/>
     <use xlink:href="#NimbusSanL-Regu-35" transform="translate(83.086847 0) scale(0.996264)"/>
     <use xlink:href="#NimbusSanL-Regu-31" transform="translate(138.478524 0) scale(0.996264)"/>
    </g>
   </g>
   <g id="legend_1">
    <g id="patch_12">
     <path d="M 193.038292 106.309638 
L 551.88 106.309638 
L 551.88 24.12 
L 193.038292 24.12 
z
" style="fill: #ffffff"/>
    </g>
    <g id="patch_13">
     <path d="M 200.238292 44.096976 
L 236.238292 44.096976 
L 236.238292 31.496976 
L 200.238292 31.496976 
z
" style="fill: #ddcae3; stroke: #000000; stroke-width: 0.5; stroke-linejoin: miter"/>
    </g>
    <g id="text_20">
     <!-- virtio -->
     <g transform="translate(250.638292 44.096976) scale(0.18 -0.18)">
      <defs>
       <path id="NimbusSanL-Regu-76" d="M 1824 0 
L 3110 3360 
L 2509 3360 
L 1562 635 
L 666 3360 
L 64 3360 
L 1242 0 
L 1824 0 
z
" transform="scale(0.015625)"/>
      </defs>
      <use xlink:href="#NimbusSanL-Regu-76" transform="scale(0.996264)"/>
      <use xlink:href="#NimbusSanL-Regu-69" transform="translate(49.8132 0) scale(0.996264)"/>
      <use xlink:href="#NimbusSanL-Regu-72" transform="translate(71.929985 0) scale(0.996264)"/>
      <use xlink:href="#NimbusSanL-Regu-74" transform="translate(109.089313 0) scale(0.996264)"/>
      <use xlink:href="#NimbusSanL-Regu-69" transform="translate(136.784483 0) scale(0.996264)"/>
      <use xlink:href="#NimbusSanL-Regu-6f" transform="translate(158.901267 0) scale(0.996264)"/>
     </g>
    </g>
    <g id="patch_14">
     <path d="M 200.238292 69.693522 
L 236.238292 69.693522 
L 236.238292 57.093522 
L 200.238292 57.093522 
z
" style="fill: #a2d9d1; stroke: #000000; stroke-width: 0.5; stroke-linejoin: miter"/>
    </g>
    <g id="text_21">
     <!-- vfscore -->
     <g transform="translate(250.638292 69.693522) scale(0.18 -0.18)">
      <defs>
       <path id="NimbusSanL-Regu-66" d="M 1651 3328 
L 1094 3328 
L 1094 3856 
C 1094 4082 1222 4198 1466 4198 
C 1510 4198 1530 4198 1651 4198 
L 1651 4640 
C 1530 4666 1459 4672 1350 4672 
C 858 4672 563 4388 563 3903 
L 563 3328 
L 115 3328 
L 115 2892 
L 563 2892 
L 563 -26 
L 1094 -26 
L 1094 2892 
L 1651 2892 
L 1651 3328 
z
" transform="scale(0.015625)"/>
      </defs>
      <use xlink:href="#NimbusSanL-Regu-76" transform="scale(0.996264)"/>
      <use xlink:href="#NimbusSanL-Regu-66" transform="translate(49.8132 0) scale(0.996264)"/>
      <use xlink:href="#NimbusSanL-Regu-73" transform="translate(77.50837 0) scale(0.996264)"/>
      <use xlink:href="#NimbusSanL-Regu-63" transform="translate(127.321571 0) scale(0.996264)"/>
      <use xlink:href="#NimbusSanL-Regu-6f" transform="translate(177.134771 0) scale(0.996264)"/>
      <use xlink:href="#NimbusSanL-Regu-72" transform="translate(232.526448 0) scale(0.996264)"/>
      <use xlink:href="#NimbusSanL-Regu-65" transform="translate(265.701678 0) scale(0.996264)"/>
     </g>
    </g>
    <g id="patch_15">
     <path d="M 200.238292 95.290068 
L 236.238292 95.290068 
L 236.238292 82.690068 
L 200.238292 82.690068 
z
" style="fill: #fff3cd; stroke: #000000; stroke-width: 0.5; stroke-linejoin: miter"/>
    </g>
    <g id="text_22">
     <!-- ukbus -->
     <g transform="translate(250.638292 95.290068) scale(0.18 -0.18)">
      <defs>
       <path id="NimbusSanL-Regu-6b" d="M 902 4672 
L 371 4672 
L 371 -2 
L 902 -2 
L 902 1306 
L 1421 1819 
L 2554 -2 
L 3213 -2 
L 1843 2197 
L 3008 3357 
L 2323 3357 
L 902 1934 
L 902 4672 
z
" transform="scale(0.015625)"/>
      </defs>
      <use xlink:href="#NimbusSanL-Regu-75" transform="scale(0.996264)"/>
      <use xlink:href="#NimbusSanL-Regu-6b" transform="translate(55.391677 0) scale(0.996264)"/>
      <use xlink:href="#NimbusSanL-Regu-62" transform="translate(105.204877 0) scale(0.996264)"/>
      <use xlink:href="#NimbusSanL-Regu-75" transform="translate(158.604543 0) scale(0.996264)"/>
      <use xlink:href="#NimbusSanL-Regu-73" transform="translate(213.99622 0) scale(0.996264)"/>
     </g>
    </g>
    <g id="patch_16">
     <path d="M 322.835073 44.096976 
L 358.835073 44.096976 
L 358.835073 31.496976 
L 322.835073 31.496976 
z
" style="fill: #49687c; stroke: #000000; stroke-width: 0.5; stroke-linejoin: miter"/>
    </g>
    <g id="text_23">
     <!-- rootfs -->
     <g transform="translate(373.235073 44.096976) scale(0.18 -0.18)">
      <use xlink:href="#NimbusSanL-Regu-72" transform="scale(0.996264)"/>
      <use xlink:href="#NimbusSanL-Regu-6f" transform="translate(33.17523 0) scale(0.996264)"/>
      <use xlink:href="#NimbusSanL-Regu-6f" transform="translate(88.566907 0) scale(0.996264)"/>
      <use xlink:href="#NimbusSanL-Regu-74" transform="translate(143.958584 0) scale(0.996264)"/>
      <use xlink:href="#NimbusSanL-Regu-66" transform="translate(171.653753 0) scale(0.996264)"/>
      <use xlink:href="#NimbusSanL-Regu-73" transform="translate(199.348923 0) scale(0.996264)"/>
     </g>
    </g>
    <g id="patch_17">
     <path d="M 322.835073 69.693522 
L 358.835073 69.693522 
L 358.835073 57.093522 
L 322.835073 57.093522 
z
" style="fill: #91c6e7; stroke: #000000; stroke-width: 0.5; stroke-linejoin: miter"/>
    </g>
    <g id="text_24">
     <!-- pthreads -->
     <g transform="translate(373.235073 69.693522) scale(0.18 -0.18)">
      <defs>
       <path id="NimbusSanL-Regu-70" d="M 346 -1408 
L 883 -1408 
L 883 320 
C 1165 -27 1478 -180 1914 -180 
C 2778 -180 3347 522 3347 1599 
C 3347 2734 2797 3444 1907 3444 
C 1453 3444 1088 3238 838 2841 
L 838 3349 
L 346 3349 
L 346 -1408 
z
M 1818 2944 
C 2406 2944 2790 2420 2790 1612 
C 2790 843 2400 320 1818 320 
C 1254 320 883 837 883 1632 
C 883 2427 1254 2944 1818 2944 
z
" transform="scale(0.015625)"/>
       <path id="NimbusSanL-Regu-68" d="M 448 4672 
L 448 -2 
L 979 -2 
L 979 1852 
C 979 2539 1338 2988 1888 2988 
C 2061 2988 2234 2930 2362 2834 
C 2515 2725 2579 2564 2579 2327 
L 2579 -2 
L 3110 -2 
L 3110 2538 
C 3110 3103 2707 3456 2054 3456 
C 1581 3456 1293 3308 979 2898 
L 979 4672 
L 448 4672 
z
" transform="scale(0.015625)"/>
      </defs>
      <use xlink:href="#NimbusSanL-Regu-70" transform="scale(0.996264)"/>
      <use xlink:href="#NimbusSanL-Regu-74" transform="translate(55.391677 0) scale(0.996264)"/>
      <use xlink:href="#NimbusSanL-Regu-68" transform="translate(83.086847 0) scale(0.996264)"/>
      <use xlink:href="#NimbusSanL-Regu-72" transform="translate(138.478524 0) scale(0.996264)"/>
      <use xlink:href="#NimbusSanL-Regu-65" transform="translate(171.653753 0) scale(0.996264)"/>
      <use xlink:href="#NimbusSanL-Regu-61" transform="translate(227.04543 0) scale(0.996264)"/>
      <use xlink:href="#NimbusSanL-Regu-64" transform="translate(282.437107 0) scale(0.996264)"/>
      <use xlink:href="#NimbusSanL-Regu-73" transform="translate(337.828784 0) scale(0.996264)"/>
     </g>
    </g>
    <g id="patch_18">
     <path d="M 322.835073 95.290068 
L 358.835073 95.290068 
L 358.835073 82.690068 
L 322.835073 82.690068 
z
" style="fill: #d18282; stroke: #000000; stroke-width: 0.5; stroke-linejoin: miter"/>
    </g>
    <g id="text_25">
     <!-- plat -->
     <g transform="translate(373.235073 95.290068) scale(0.18 -0.18)">
      <use xlink:href="#NimbusSanL-Regu-70" transform="scale(0.996264)"/>
      <use xlink:href="#NimbusSanL-Regu-6c" transform="translate(55.391677 0) scale(0.996264)"/>
      <use xlink:href="#NimbusSanL-Regu-61" transform="translate(77.508461 0) scale(0.996264)"/>
      <use xlink:href="#NimbusSanL-Regu-74" transform="translate(132.900138 0) scale(0.996264)"/>
     </g>
    </g>
    <g id="patch_19">
     <path d="M 457.4106 44.096976 
L 493.4106 44.096976 
L 493.4106 31.496976 
L 457.4106 31.496976 
z
" style="fill: #7c4f4f; stroke: #000000; stroke-width: 0.5; stroke-linejoin: miter"/>
    </g>
    <g id="text_26">
     <!-- misc -->
     <g transform="translate(507.8106 44.096976) scale(0.18 -0.18)">
      <use xlink:href="#NimbusSanL-Regu-6d" transform="scale(0.996264)"/>
      <use xlink:href="#NimbusSanL-Regu-69" transform="translate(82.98843 0) scale(0.996264)"/>
      <use xlink:href="#NimbusSanL-Regu-73" transform="translate(105.105215 0) scale(0.996264)"/>
      <use xlink:href="#NimbusSanL-Regu-63" transform="translate(154.918415 0) scale(0.996264)"/>
     </g>
    </g>
    <g id="patch_20">
     <path d="M 457.4106 69.693522 
L 493.4106 69.693522 
L 493.4106 57.093522 
L 457.4106 57.093522 
z
" style="fill: #618c84; stroke: #000000; stroke-width: 0.5; stroke-linejoin: miter"/>
    </g>
    <g id="text_27">
     <!-- lwip -->
     <g transform="translate(507.8106 69.693522) scale(0.18 -0.18)">
      <defs>
       <path id="NimbusSanL-Regu-77" d="M 3546 0 
L 4531 3360 
L 3930 3360 
L 3264 744 
L 2605 3360 
L 1952 3360 
L 1312 744 
L 627 3360 
L 38 3360 
L 1011 0 
L 1613 0 
L 2259 2635 
L 2938 0 
L 3546 0 
z
" transform="scale(0.015625)"/>
      </defs>
      <use xlink:href="#NimbusSanL-Regu-6c" transform="scale(0.996264)"/>
      <use xlink:href="#NimbusSanL-Regu-77" transform="translate(22.116784 0) scale(0.996264)"/>
      <use xlink:href="#NimbusSanL-Regu-69" transform="translate(94.046769 0) scale(0.996264)"/>
      <use xlink:href="#NimbusSanL-Regu-70" transform="translate(116.163554 0) scale(0.996264)"/>
     </g>
    </g>
    <g id="patch_21">
     <path d="M 457.4106 95.290068 
L 493.4106 95.290068 
L 493.4106 82.690068 
L 457.4106 82.690068 
z
" style="fill: #ededed; stroke: #000000; stroke-width: 0.5; stroke-linejoin: miter"/>
    </g>
    <g id="text_28">
     <!-- alloc -->
     <g transform="translate(507.8106 95.290068) scale(0.18 -0.18)">
      <use xlink:href="#NimbusSanL-Regu-61" transform="scale(0.996264)"/>
      <use xlink:href="#NimbusSanL-Regu-6c" transform="translate(55.391677 0) scale(0.996264)"/>
      <use xlink:href="#NimbusSanL-Regu-6c" transform="translate(77.508461 0) scale(0.996264)"/>
      <use xlink:href="#NimbusSanL-Regu-6f" transform="translate(99.625246 0) scale(0.996264)"/>
      <use xlink:href="#NimbusSanL-Regu-63" transform="translate(155.016923 0) scale(0.996264)"/>
     </g>
    </g>
   </g>
   <g id="patch_22">
    <path d="M 80.453156 324.283454 
L 140.506511 324.283454 
L 140.506511 133.331874 
L 80.453156 133.331874 
z
" clip-path="url(#p4bf4bf6c22)" style="fill: #ededed; stroke: #000000; stroke-width: 0.5; stroke-linejoin: miter"/>
   </g>
   <g id="patch_23">
    <path d="M 80.453156 133.331874 
L 140.506511 133.331874 
L 140.506511 119.725687 
L 80.453156 119.725687 
z
" clip-path="url(#p4bf4bf6c22)" style="fill: #618c84; stroke: #000000; stroke-width: 0.5; stroke-linejoin: miter"/>
   </g>
   <g id="patch_24">
    <path d="M 80.453156 119.725687 
L 140.506511 119.725687 
L 140.506511 115.938179 
L 80.453156 115.938179 
z
" clip-path="url(#p4bf4bf6c22)" style="fill: #7c4f4f; stroke: #000000; stroke-width: 0.5; stroke-linejoin: miter"/>
   </g>
   <g id="patch_25">
    <path d="M 80.453156 115.938179 
L 140.506511 115.938179 
L 140.506511 114.383299 
L 80.453156 114.383299 
z
" clip-path="url(#p4bf4bf6c22)" style="fill: #d18282; stroke: #000000; stroke-width: 0.5; stroke-linejoin: miter"/>
   </g>
   <g id="patch_26">
    <path d="M 80.453156 114.383299 
L 140.506511 114.383299 
L 140.506511 113.037259 
L 80.453156 113.037259 
z
" clip-path="url(#p4bf4bf6c22)" style="fill: #91c6e7; stroke: #000000; stroke-width: 0.5; stroke-linejoin: miter"/>
   </g>
   <g id="patch_27">
    <path d="M 80.453156 113.037259 
L 140.506511 113.037259 
L 140.506511 104.232839 
L 80.453156 104.232839 
z
" clip-path="url(#p4bf4bf6c22)" style="fill: #49687c; stroke: #000000; stroke-width: 0.5; stroke-linejoin: miter"/>
   </g>
   <g id="patch_28">
    <path d="M 80.453156 104.232839 
L 140.506511 104.232839 
L 140.506511 83.500052 
L 80.453156 83.500052 
z
" clip-path="url(#p4bf4bf6c22)" style="fill: #fff3cd; stroke: #000000; stroke-width: 0.5; stroke-linejoin: miter"/>
   </g>
   <g id="patch_29">
    <path d="M 80.453156 83.500052 
L 140.506511 83.500052 
L 140.506511 82.902688 
L 80.453156 82.902688 
z
" clip-path="url(#p4bf4bf6c22)" style="fill: #a2d9d1; stroke: #000000; stroke-width: 0.5; stroke-linejoin: miter"/>
   </g>
   <g id="patch_30">
    <path d="M 80.453156 82.902688 
L 140.506511 82.902688 
L 140.506511 82.67651 
L 80.453156 82.67651 
z
" clip-path="url(#p4bf4bf6c22)" style="fill: #ddcae3; stroke: #000000; stroke-width: 0.5; stroke-linejoin: miter"/>
   </g>
   <g id="patch_31">
    <path d="M 180.542082 324.283454 
L 240.595437 324.283454 
L 240.595437 324.081706 
L 180.542082 324.081706 
z
" clip-path="url(#p4bf4bf6c22)" style="fill: #ededed; stroke: #000000; stroke-width: 0.5; stroke-linejoin: miter"/>
   </g>
   <g id="patch_32">
    <path d="M 180.542082 324.081706 
L 240.595437 324.081706 
L 240.595437 291.050156 
L 180.542082 291.050156 
z
" clip-path="url(#p4bf4bf6c22)" style="fill: #618c84; stroke: #000000; stroke-width: 0.5; stroke-linejoin: miter"/>
   </g>
   <g id="patch_33">
    <path d="M 180.542082 291.050156 
L 240.595437 291.050156 
L 240.595437 288.979872 
L 180.542082 288.979872 
z
" clip-path="url(#p4bf4bf6c22)" style="fill: #7c4f4f; stroke: #000000; stroke-width: 0.5; stroke-linejoin: miter"/>
   </g>
   <g id="patch_34">
    <path d="M 180.542082 288.979872 
L 240.595437 288.979872 
L 240.595437 287.44233 
L 180.542082 287.44233 
z
" clip-path="url(#p4bf4bf6c22)" style="fill: #d18282; stroke: #000000; stroke-width: 0.5; stroke-linejoin: miter"/>
   </g>
   <g id="patch_35">
    <path d="M 180.542082 287.44233 
L 240.595437 287.44233 
L 240.595437 277.388016 
L 180.542082 277.388016 
z
" clip-path="url(#p4bf4bf6c22)" style="fill: #91c6e7; stroke: #000000; stroke-width: 0.5; stroke-linejoin: miter"/>
   </g>
   <g id="patch_36">
    <path d="M 180.542082 277.388016 
L 240.595437 277.388016 
L 240.595437 270.628661 
L 180.542082 270.628661 
z
" clip-path="url(#p4bf4bf6c22)" style="fill: #49687c; stroke: #000000; stroke-width: 0.5; stroke-linejoin: miter"/>
   </g>
   <g id="patch_37">
    <path d="M 180.542082 270.628661 
L 240.595437 270.628661 
L 240.595437 250.851026 
L 180.542082 250.851026 
z
" clip-path="url(#p4bf4bf6c22)" style="fill: #fff3cd; stroke: #000000; stroke-width: 0.5; stroke-linejoin: miter"/>
   </g>
   <g id="patch_38">
    <path d="M 180.542082 250.851026 
L 240.595437 250.851026 
L 240.595437 250.383695 
L 180.542082 250.383695 
z
" clip-path="url(#p4bf4bf6c22)" style="fill: #a2d9d1; stroke: #000000; stroke-width: 0.5; stroke-linejoin: miter"/>
   </g>
   <g id="patch_39">
    <path d="M 180.542082 250.383695 
L 240.595437 250.383695 
L 240.595437 250.150424 
L 180.542082 250.150424 
z
" clip-path="url(#p4bf4bf6c22)" style="fill: #ddcae3; stroke: #000000; stroke-width: 0.5; stroke-linejoin: miter"/>
   </g>
   <g id="patch_40">
    <path d="M 280.631008 324.283454 
L 340.684363 324.283454 
L 340.684363 324.221196 
L 280.631008 324.221196 
z
" clip-path="url(#p4bf4bf6c22)" style="fill: #ededed; stroke: #000000; stroke-width: 0.5; stroke-linejoin: miter"/>
   </g>
   <g id="patch_41">
    <path d="M 280.631008 324.221196 
L 340.684363 324.221196 
L 340.684363 316.238742 
L 280.631008 316.238742 
z
" clip-path="url(#p4bf4bf6c22)" style="fill: #618c84; stroke: #000000; stroke-width: 0.5; stroke-linejoin: miter"/>
   </g>
   <g id="patch_42">
    <path d="M 280.631008 316.238742 
L 340.684363 316.238742 
L 340.684363 313.923365 
L 280.631008 313.923365 
z
" clip-path="url(#p4bf4bf6c22)" style="fill: #7c4f4f; stroke: #000000; stroke-width: 0.5; stroke-linejoin: miter"/>
   </g>
   <g id="patch_43">
    <path d="M 280.631008 313.923365 
L 340.684363 313.923365 
L 340.684363 312.366121 
L 280.631008 312.366121 
z
" clip-path="url(#p4bf4bf6c22)" style="fill: #d18282; stroke: #000000; stroke-width: 0.5; stroke-linejoin: miter"/>
   </g>
   <g id="patch_44">
    <path d="M 280.631008 312.366121 
L 340.684363 312.366121 
L 340.684363 312.006757 
L 280.631008 312.006757 
z
" clip-path="url(#p4bf4bf6c22)" style="fill: #91c6e7; stroke: #000000; stroke-width: 0.5; stroke-linejoin: miter"/>
   </g>
   <g id="patch_45">
    <path d="M 280.631008 312.006757 
L 340.684363 312.006757 
L 340.684363 305.68715 
L 280.631008 305.68715 
z
" clip-path="url(#p4bf4bf6c22)" style="fill: #49687c; stroke: #000000; stroke-width: 0.5; stroke-linejoin: miter"/>
   </g>
   <g id="patch_46">
    <path d="M 280.631008 305.68715 
L 340.684363 305.68715 
L 340.684363 286.51082 
L 280.631008 286.51082 
z
" clip-path="url(#p4bf4bf6c22)" style="fill: #fff3cd; stroke: #000000; stroke-width: 0.5; stroke-linejoin: miter"/>
   </g>
   <g id="patch_47">
    <path d="M 280.631008 286.51082 
L 340.684363 286.51082 
L 340.684363 286.057674 
L 280.631008 286.057674 
z
" clip-path="url(#p4bf4bf6c22)" style="fill: #a2d9d1; stroke: #000000; stroke-width: 0.5; stroke-linejoin: miter"/>
   </g>
   <g id="patch_48">
    <path d="M 280.631008 286.057674 
L 340.684363 286.057674 
L 340.684363 285.843317 
L 280.631008 285.843317 
z
" clip-path="url(#p4bf4bf6c22)" style="fill: #ddcae3; stroke: #000000; stroke-width: 0.5; stroke-linejoin: miter"/>
   </g>
   <g id="patch_49">
    <path d="M 380.719933 324.283454 
L 440.773289 324.283454 
L 440.773289 297.235789 
L 380.719933 297.235789 
z
" clip-path="url(#p4bf4bf6c22)" style="fill: #ededed; stroke: #000000; stroke-width: 0.5; stroke-linejoin: miter"/>
   </g>
   <g id="patch_50">
    <path d="M 380.719933 297.235789 
L 440.773289 297.235789 
L 440.773289 288.460528 
L 380.719933 288.460528 
z
" clip-path="url(#p4bf4bf6c22)" style="fill: #618c84; stroke: #000000; stroke-width: 0.5; stroke-linejoin: miter"/>
   </g>
   <g id="patch_51">
    <path d="M 380.719933 288.460528 
L 440.773289 288.460528 
L 440.773289 285.933946 
L 380.719933 285.933946 
z
" clip-path="url(#p4bf4bf6c22)" style="fill: #7c4f4f; stroke: #000000; stroke-width: 0.5; stroke-linejoin: miter"/>
   </g>
   <g id="patch_52">
    <path d="M 380.719933 285.933946 
L 440.773289 285.933946 
L 440.773289 284.392463 
L 380.719933 284.392463 
z
" clip-path="url(#p4bf4bf6c22)" style="fill: #d18282; stroke: #000000; stroke-width: 0.5; stroke-linejoin: miter"/>
   </g>
   <g id="patch_53">
    <path d="M 380.719933 284.392463 
L 440.773289 284.392463 
L 440.773289 284.011821 
L 380.719933 284.011821 
z
" clip-path="url(#p4bf4bf6c22)" style="fill: #91c6e7; stroke: #000000; stroke-width: 0.5; stroke-linejoin: miter"/>
   </g>
   <g id="patch_54">
    <path d="M 380.719933 284.011821 
L 440.773289 284.011821 
L 440.773289 275.566765 
L 380.719933 275.566765 
z
" clip-path="url(#p4bf4bf6c22)" style="fill: #49687c; stroke: #000000; stroke-width: 0.5; stroke-linejoin: miter"/>
   </g>
   <g id="patch_55">
    <path d="M 380.719933 275.566765 
L 440.773289 275.566765 
L 440.773289 256.126428 
L 380.719933 256.126428 
z
" clip-path="url(#p4bf4bf6c22)" style="fill: #fff3cd; stroke: #000000; stroke-width: 0.5; stroke-linejoin: miter"/>
   </g>
   <g id="patch_56">
    <path d="M 380.719933 256.126428 
L 440.773289 256.126428 
L 440.773289 255.668554 
L 380.719933 255.668554 
z
" clip-path="url(#p4bf4bf6c22)" style="fill: #a2d9d1; stroke: #000000; stroke-width: 0.5; stroke-linejoin: miter"/>
   </g>
   <g id="patch_57">
    <path d="M 380.719933 255.668554 
L 440.773289 255.668554 
L 440.773289 255.447892 
L 380.719933 255.447892 
z
" clip-path="url(#p4bf4bf6c22)" style="fill: #ddcae3; stroke: #000000; stroke-width: 0.5; stroke-linejoin: miter"/>
   </g>
   <g id="patch_58">
    <path d="M 480.808859 324.283454 
L 540.862215 324.283454 
L 540.862215 322.418859 
L 480.808859 322.418859 
z
" clip-path="url(#p4bf4bf6c22)" style="fill: #ededed; stroke: #000000; stroke-width: 0.5; stroke-linejoin: miter"/>
   </g>
   <g id="patch_59">
    <path d="M 480.808859 322.418859 
L 540.862215 322.418859 
L 540.862215 314.4632 
L 480.808859 314.4632 
z
" clip-path="url(#p4bf4bf6c22)" style="fill: #618c84; stroke: #000000; stroke-width: 0.5; stroke-linejoin: miter"/>
   </g>
   <g id="patch_60">
    <path d="M 480.808859 314.4632 
L 540.862215 314.4632 
L 540.862215 312.911472 
L 480.808859 312.911472 
z
" clip-path="url(#p4bf4bf6c22)" style="fill: #7c4f4f; stroke: #000000; stroke-width: 0.5; stroke-linejoin: miter"/>
   </g>
   <g id="patch_61">
    <path d="M 480.808859 312.911472 
L 540.862215 312.911472 
L 540.862215 311.377082 
L 480.808859 311.377082 
z
" clip-path="url(#p4bf4bf6c22)" style="fill: #d18282; stroke: #000000; stroke-width: 0.5; stroke-linejoin: miter"/>
   </g>
   <g id="patch_62">
    <path d="M 480.808859 311.377082 
L 540.862215 311.377082 
L 540.862215 311.284088 
L 480.808859 311.284088 
z
" clip-path="url(#p4bf4bf6c22)" style="fill: #91c6e7; stroke: #000000; stroke-width: 0.5; stroke-linejoin: miter"/>
   </g>
   <g id="patch_63">
    <path d="M 480.808859 311.284088 
L 540.862215 311.284088 
L 540.862215 304.194528 
L 480.808859 304.194528 
z
" clip-path="url(#p4bf4bf6c22)" style="fill: #49687c; stroke: #000000; stroke-width: 0.5; stroke-linejoin: miter"/>
   </g>
   <g id="patch_64">
    <path d="M 480.808859 304.194528 
L 540.862215 304.194528 
L 540.862215 284.954364 
L 480.808859 284.954364 
z
" clip-path="url(#p4bf4bf6c22)" style="fill: #fff3cd; stroke: #000000; stroke-width: 0.5; stroke-linejoin: miter"/>
   </g>
   <g id="patch_65">
    <path d="M 480.808859 284.954364 
L 540.862215 284.954364 
L 540.862215 284.503582 
L 480.808859 284.503582 
z
" clip-path="url(#p4bf4bf6c22)" style="fill: #a2d9d1; stroke: #000000; stroke-width: 0.5; stroke-linejoin: miter"/>
   </g>
   <g id="patch_66">
    <path d="M 480.808859 284.503582 
L 540.862215 284.503582 
L 540.862215 284.286073 
L 480.808859 284.286073 
z
" clip-path="url(#p4bf4bf6c22)" style="fill: #ddcae3; stroke: #000000; stroke-width: 0.5; stroke-linejoin: miter"/>
   </g>
  </g>
 </g>
 <defs>
  <clipPath id="p4bf4bf6c22">
   <rect x="60.435371" y="15.12" width="500.444629" height="309.163454"/>
  </clipPath>
 </defs>
</svg>
