<?xml version="1.0" encoding="UTF-8" standalone="no"?>
<!DOCTYPE svg PUBLIC "-//W3C//DTD SVG 1.1//EN"
 "http://www.w3.org/Graphics/SVG/1.1/DTD/svg11.dtd">
<!-- Generated by graphviz version 2.43.0 (0)
 -->
<!-- Title: %3 Pages: 1 -->
<svg width="491pt" height="249pt"
 viewBox="0.00 0.00 491.00 249.00" xmlns="http://www.w3.org/2000/svg" xmlns:xlink="http://www.w3.org/1999/xlink">
<g id="graph0" class="graph" transform="scale(1 1) rotate(0) translate(4 245)">
<title>%3</title>
<polygon fill="white" stroke="transparent" points="-4,4 -4,-245 487,-245 487,4 -4,4"/>
<g id="clust1" class="cluster">
<title>clusterposix&#45;layer</title>
<path fill="lightgrey" stroke="lightgrey" d="M190.2,-137.72C190.2,-137.72 294.2,-137.72 294.2,-137.72 300.2,-137.72 306.2,-143.72 306.2,-149.72 306.2,-149.72 306.2,-207.72 306.2,-207.72 306.2,-213.72 300.2,-219.72 294.2,-219.72 294.2,-219.72 190.2,-219.72 190.2,-219.72 184.2,-219.72 178.2,-213.72 178.2,-207.72 178.2,-207.72 178.2,-149.72 178.2,-149.72 178.2,-143.72 184.2,-137.72 190.2,-137.72"/>
<text text-anchor="middle" x="242.2" y="-199.72" font-family="Times,serif" font-size="20.00">posix&#45;layer</text>
</g>
<g id="clust2" class="cluster">
<title>clustermm</title>
<path fill="lightgrey" stroke="lightgrey" d="M267.74,0.48C267.74,0.48 397.74,0.48 397.74,0.48 403.74,0.48 409.74,-5.52 409.74,-11.52 409.74,-11.52 409.74,-113.52 409.74,-113.52 409.74,-119.52 403.74,-125.52 397.74,-125.52 397.74,-125.52 267.74,-125.52 267.74,-125.52 261.74,-125.52 255.74,-119.52 255.74,-113.52 255.74,-113.52 255.74,-11.52 255.74,-11.52 255.74,-5.52 261.74,0.48 267.74,0.48"/>
<text text-anchor="middle" x="332.74" y="-105.52" font-family="Times,serif" font-size="20.00">mm</text>
</g>
<g id="clust3" class="cluster">
<title>clusterukboot1</title>
<path fill="lightgrey" stroke="lightgrey" d="M157.46,-45.99C157.46,-45.99 231.46,-45.99 231.46,-45.99 237.46,-45.99 243.46,-51.99 243.46,-57.99 243.46,-57.99 243.46,-115.99 243.46,-115.99 243.46,-121.99 237.46,-127.99 231.46,-127.99 231.46,-127.99 157.46,-127.99 157.46,-127.99 151.46,-127.99 145.46,-121.99 145.46,-115.99 145.46,-115.99 145.46,-57.99 145.46,-57.99 145.46,-51.99 151.46,-45.99 157.46,-45.99"/>
<text text-anchor="middle" x="194.46" y="-107.99" font-family="Times,serif" font-size="20.00">ukboot1</text>
</g>
<g id="clust4" class="cluster">
<title>clusterukargparse1</title>
<path fill="lightgrey" stroke="lightgrey" d="M12.46,-142.5C12.46,-142.5 134.46,-142.5 134.46,-142.5 140.46,-142.5 146.46,-148.5 146.46,-154.5 146.46,-154.5 146.46,-212.5 146.46,-212.5 146.46,-218.5 140.46,-224.5 134.46,-224.5 134.46,-224.5 12.46,-224.5 12.46,-224.5 6.46,-224.5 0.46,-218.5 0.46,-212.5 0.46,-212.5 0.46,-154.5 0.46,-154.5 0.46,-148.5 6.46,-142.5 12.46,-142.5"/>
<text text-anchor="middle" x="73.46" y="-204.5" font-family="Times,serif" font-size="20.00">ukargparse1</text>
</g>
<!-- nolibc -->
<g id="node1" class="node">
<title>nolibc</title>
<path fill="white" stroke="white" d="M257.45,-181.79C257.45,-181.79 227.45,-181.79 227.45,-181.79 221.45,-181.79 215.45,-175.79 215.45,-169.79 215.45,-169.79 215.45,-157.79 215.45,-157.79 215.45,-151.79 221.45,-145.79 227.45,-145.79 227.45,-145.79 257.45,-145.79 257.45,-145.79 263.45,-145.79 269.45,-151.79 269.45,-157.79 269.45,-157.79 269.45,-169.79 269.45,-169.79 269.45,-175.79 263.45,-181.79 257.45,-181.79"/>
<text text-anchor="middle" x="242.45" y="-160.69" font-family="Helvetica,sans-Serif" font-size="12.00">nolibc</text>
</g>
<!-- ukalloc -->
<g id="node2" class="node">
<title>ukalloc</title>
<path fill="white" stroke="white" d="M389.73,-87.88C389.73,-87.88 354.73,-87.88 354.73,-87.88 348.73,-87.88 342.73,-81.88 342.73,-75.88 342.73,-75.88 342.73,-63.88 342.73,-63.88 342.73,-57.88 348.73,-51.88 354.73,-51.88 354.73,-51.88 389.73,-51.88 389.73,-51.88 395.73,-51.88 401.73,-57.88 401.73,-63.88 401.73,-63.88 401.73,-75.88 401.73,-75.88 401.73,-81.88 395.73,-87.88 389.73,-87.88"/>
<text text-anchor="middle" x="372.23" y="-66.78" font-family="Helvetica,sans-Serif" font-size="12.00">ukalloc</text>
</g>
<!-- nolibc&#45;&gt;ukalloc -->
<g id="edge6" class="edge">
<title>nolibc&#45;&gt;ukalloc</title>
<path fill="none" stroke="black" d="M267.48,-145.68C287.85,-130.94 316.79,-110 339.09,-93.86"/>
<polygon fill="black" stroke="black" points="341.23,-96.63 347.28,-87.93 337.13,-90.96 341.23,-96.63"/>
<text text-anchor="middle" x="298.28" y="-124.77" font-family="Helvetica,sans-Serif" font-size="15.00" fill="blue">6</text>
</g>
<!-- ukalloc&#45;&gt;nolibc -->
<g id="edge1" class="edge">
<title>ukalloc&#45;&gt;nolibc</title>
</g>
<!-- ukallocbbuddy -->
<g id="node3" class="node">
<title>ukallocbbuddy</title>
<path fill="white" stroke="white" d="M354.85,-43.88C354.85,-43.88 275.85,-43.88 275.85,-43.88 269.85,-43.88 263.85,-37.88 263.85,-31.88 263.85,-31.88 263.85,-19.88 263.85,-19.88 263.85,-13.88 269.85,-7.88 275.85,-7.88 275.85,-7.88 354.85,-7.88 354.85,-7.88 360.85,-7.88 366.85,-13.88 366.85,-19.88 366.85,-19.88 366.85,-31.88 366.85,-31.88 366.85,-37.88 360.85,-43.88 354.85,-43.88"/>
<text text-anchor="middle" x="315.35" y="-22.78" font-family="Helvetica,sans-Serif" font-size="12.00">ukallocbbuddy</text>
</g>
<!-- ukallocbbuddy&#45;&gt;ukalloc -->
<g id="edge2" class="edge">
<title>ukallocbbuddy&#45;&gt;ukalloc</title>
<path fill="none" stroke="black" d="M338.81,-44.03C339.43,-44.51 340.06,-44.99 340.68,-45.48"/>
<polygon fill="black" stroke="black" points="338.77,-48.42 348.82,-51.77 343.05,-42.89 338.77,-48.42"/>
<text text-anchor="middle" x="334.75" y="-49.75" font-family="Helvetica,sans-Serif" font-size="15.00" fill="blue">2</text>
</g>
<!-- ukboot -->
<g id="node4" class="node">
<title>ukboot</title>
<path fill="white" stroke="white" d="M211.88,-90.26C211.88,-90.26 177.88,-90.26 177.88,-90.26 171.88,-90.26 165.88,-84.26 165.88,-78.26 165.88,-78.26 165.88,-66.26 165.88,-66.26 165.88,-60.26 171.88,-54.26 177.88,-54.26 177.88,-54.26 211.88,-54.26 211.88,-54.26 217.88,-54.26 223.88,-60.26 223.88,-66.26 223.88,-66.26 223.88,-78.26 223.88,-78.26 223.88,-84.26 217.88,-90.26 211.88,-90.26"/>
<text text-anchor="middle" x="194.88" y="-69.16" font-family="Helvetica,sans-Serif" font-size="12.00">ukboot</text>
</g>
<!-- ukboot&#45;&gt;nolibc -->
<g id="edge3" class="edge">
<title>ukboot&#45;&gt;nolibc</title>
<path fill="none" stroke="black" d="M204.28,-90.35C211.12,-103.51 220.51,-121.56 228.26,-136.48"/>
<polygon fill="black" stroke="black" points="225.36,-138.48 233.07,-145.74 231.57,-135.26 225.36,-138.48"/>
<text text-anchor="middle" x="211.27" y="-118.41" font-family="Helvetica,sans-Serif" font-size="15.00" fill="blue">3</text>
</g>
<!-- ukboot&#45;&gt;ukallocbbuddy -->
<g id="edge4" class="edge">
<title>ukboot&#45;&gt;ukallocbbuddy</title>
<path fill="none" stroke="black" d="M224.04,-61.03C234.48,-57.01 246.64,-52.33 258.61,-47.73"/>
<polygon fill="black" stroke="black" points="260.06,-50.92 268.13,-44.06 257.54,-44.39 260.06,-50.92"/>
<text text-anchor="middle" x="236.33" y="-59.38" font-family="Helvetica,sans-Serif" font-size="15.00" fill="blue">1</text>
</g>
<!-- ukargparse -->
<g id="node5" class="node">
<title>ukargparse</title>
<path fill="white" stroke="white" d="M103.65,-186.58C103.65,-186.58 43.65,-186.58 43.65,-186.58 37.65,-186.58 31.65,-180.58 31.65,-174.58 31.65,-174.58 31.65,-162.58 31.65,-162.58 31.65,-156.58 37.65,-150.58 43.65,-150.58 43.65,-150.58 103.65,-150.58 103.65,-150.58 109.65,-150.58 115.65,-156.58 115.65,-162.58 115.65,-162.58 115.65,-174.58 115.65,-174.58 115.65,-180.58 109.65,-186.58 103.65,-186.58"/>
<text text-anchor="middle" x="73.65" y="-165.48" font-family="Helvetica,sans-Serif" font-size="12.00">ukargparse</text>
</g>
<!-- ukboot&#45;&gt;ukargparse -->
<g id="edge5" class="edge">
<title>ukboot&#45;&gt;ukargparse</title>
<path fill="none" stroke="black" d="M172.08,-90.38C152.94,-105.58 125.44,-127.44 104.37,-144.18"/>
<polygon fill="black" stroke="black" points="102,-141.59 96.35,-150.55 106.36,-147.07 102,-141.59"/>
<text text-anchor="middle" x="133.22" y="-122.28" font-family="Helvetica,sans-Serif" font-size="15.00" fill="blue">1</text>
</g>
<!-- Hello World -->
<g id="node6" class="node">
<title>Hello World</title>
<polygon fill="black" stroke="black" points="483.33,-241.13 324.33,-241.13 324.33,-205.13 483.33,-205.13 483.33,-241.13"/>
<text text-anchor="middle" x="403.83" y="-217.13" font-family="Helvetica,sans-Serif" font-size="25.00" fill="white">Hello World</text>
</g>
<!-- Hello World&#45;&gt;nolibc -->
<g id="edge7" class="edge">
<title>Hello World&#45;&gt;nolibc</title>
<path fill="none" stroke="black" d="M354.53,-205.01C330.31,-196.1 301.62,-185.55 279.33,-177.35"/>
<polygon fill="black" stroke="black" points="280.48,-174.04 269.89,-173.88 278.06,-180.61 280.48,-174.04"/>
<text text-anchor="middle" x="311.93" y="-196.18" font-family="Helvetica,sans-Serif" font-size="15.00" fill="blue">1</text>
</g>
</g>
</svg>
