<?xml version="1.0" encoding="utf-8" standalone="no"?>
<!DOCTYPE svg PUBLIC "-//W3C//DTD SVG 1.1//EN"
  "http://www.w3.org/Graphics/SVG/1.1/DTD/svg11.dtd">
<svg xmlns:xlink="http://www.w3.org/1999/xlink" width="576pt" height="360pt" viewBox="0 0 576 360" xmlns="http://www.w3.org/2000/svg" version="1.1">
 <metadata>
  <rdf:RDF xmlns:dc="http://purl.org/dc/elements/1.1/" xmlns:cc="http://creativecommons.org/ns#" xmlns:rdf="http://www.w3.org/1999/02/22-rdf-syntax-ns#">
   <cc:Work>
    <dc:type rdf:resource="http://purl.org/dc/dcmitype/StillImage"/>
    <dc:date>2026-03-24T05:06:01.038110</dc:date>
    <dc:format>image/svg+xml</dc:format>
    <dc:creator>
     <cc:Agent>
      <dc:title>Matplotlib v3.10.8, https://matplotlib.org/</dc:title>
     </cc:Agent>
    </dc:creator>
   </cc:Work>
  </rdf:RDF>
 </metadata>
 <defs>
  <style type="text/css">*{stroke-linejoin: round; stroke-linecap: butt}</style>
 </defs>
 <g id="figure_1">
  <g id="patch_1">
   <path d="M 0 360 
L 576 360 
L 576 0 
L 0 0 
z
" style="fill: #ffffff"/>
  </g>
  <g id="axes_1">
   <g id="patch_2">
    <path d="M 68.957399 324.283454 
L 560.88 324.283454 
L 560.88 15.12 
L 68.957399 15.12 
z
" style="fill: #ffffff"/>
   </g>
   <g id="line2d_1">
    <path d="M 150.944499 330.466723 
L 150.944499 15.12 
" style="fill: none; stroke: #000000; stroke-width: 0.5; stroke-linecap: square"/>
   </g>
   <g id="line2d_2">
    <path d="M 232.931599 330.466723 
L 232.931599 15.12 
" style="fill: none; stroke: #000000; stroke-width: 0.5; stroke-linecap: square"/>
   </g>
   <g id="line2d_3">
    <path d="M 314.918699 330.466723 
L 314.918699 15.12 
" style="fill: none; stroke: #000000; stroke-width: 0.5; stroke-linecap: square"/>
   </g>
   <g id="line2d_4">
    <path d="M 396.9058 330.466723 
L 396.9058 15.12 
" style="fill: none; stroke: #000000; stroke-width: 0.5; stroke-linecap: square"/>
   </g>
   <g id="line2d_5">
    <path d="M 478.8929 330.466723 
L 478.8929 15.12 
" style="fill: none; stroke: #000000; stroke-width: 0.5; stroke-linecap: square"/>
   </g>
   <g id="patch_3">
    <path d="M 68.957399 324.283454 
L 68.957399 15.12 
" style="fill: none; stroke: #000000; stroke-linejoin: miter; stroke-linecap: square"/>
   </g>
   <g id="patch_4">
    <path d="M 560.88 324.283454 
L 560.88 15.12 
" style="fill: none; stroke: #000000; stroke-linejoin: miter; stroke-linecap: square"/>
   </g>
   <g id="patch_5">
    <path d="M 68.957399 324.283454 
L 560.88 324.283454 
" style="fill: none; stroke: #000000; stroke-linejoin: miter; stroke-linecap: square"/>
   </g>
   <g id="patch_6">
    <path d="M 68.957399 15.12 
L 560.88 15.12 
" style="fill: none; stroke: #000000; stroke-linejoin: miter; stroke-linecap: square"/>
   </g>
   <g id="matplotlib.axis_1">
    <g id="xtick_1">
     <g id="line2d_6"/>
     <g id="line2d_7"/>
     <g id="text_1">
      <!-- 10 -->
      <g transform="translate(99.980449 341.060431) scale(0.18 -0.18)">
       <defs>
        <path id="NimbusSanL-Regu-31" d="M 1658 3238 
L 1658 0 
L 2221 0 
L 2221 4545 
L 1850 4545 
C 1651 3847 1523 3751 653 3642 
L 653 3238 
L 1658 3238 
z
" transform="scale(0.015625)"/>
        <path id="NimbusSanL-Regu-30" d="M 1760 4544 
C 1338 4544 954 4360 717 4046 
C 422 3651 275 3044 275 2208 
C 275 683 787 -128 1760 -128 
C 2720 -128 3245 683 3245 2170 
C 3245 3050 3104 3638 2803 4046 
C 2566 4366 2189 4544 1760 4544 
z
M 1760 4044 
C 2368 4044 2669 3432 2669 2221 
C 2669 939 2374 340 1747 340 
C 1152 340 851 965 851 2202 
C 851 3438 1152 4044 1760 4044 
z
" transform="scale(0.015625)"/>
       </defs>
       <use xlink:href="#NimbusSanL-Regu-31" transform="scale(0.996264)"/>
       <use xlink:href="#NimbusSanL-Regu-30" transform="translate(55.391677 0) scale(0.996264)"/>
      </g>
     </g>
    </g>
    <g id="xtick_2">
     <g id="line2d_8"/>
     <g id="line2d_9"/>
     <g id="text_2">
      <!-- 100 -->
      <g transform="translate(176.9823 341.060431) scale(0.18 -0.18)">
       <use xlink:href="#NimbusSanL-Regu-31" transform="scale(0.996264)"/>
       <use xlink:href="#NimbusSanL-Regu-30" transform="translate(55.391677 0) scale(0.996264)"/>
       <use xlink:href="#NimbusSanL-Regu-30" transform="translate(110.783354 0) scale(0.996264)"/>
      </g>
     </g>
    </g>
    <g id="xtick_3">
     <g id="line2d_10"/>
     <g id="line2d_11"/>
     <g id="text_3">
      <!-- 1000 -->
      <g transform="translate(253.98415 341.060431) scale(0.18 -0.18)">
       <use xlink:href="#NimbusSanL-Regu-31" transform="scale(0.996264)"/>
       <use xlink:href="#NimbusSanL-Regu-30" transform="translate(55.391677 0) scale(0.996264)"/>
       <use xlink:href="#NimbusSanL-Regu-30" transform="translate(110.783354 0) scale(0.996264)"/>
       <use xlink:href="#NimbusSanL-Regu-30" transform="translate(166.175031 0) scale(0.996264)"/>
      </g>
     </g>
    </g>
    <g id="xtick_4">
     <g id="line2d_12"/>
     <g id="line2d_13"/>
     <g id="text_4">
      <!-- 10000 -->
      <g transform="translate(330.986001 341.060431) scale(0.18 -0.18)">
       <use xlink:href="#NimbusSanL-Regu-31" transform="scale(0.996264)"/>
       <use xlink:href="#NimbusSanL-Regu-30" transform="translate(55.391677 0) scale(0.996264)"/>
       <use xlink:href="#NimbusSanL-Regu-30" transform="translate(110.783354 0) scale(0.996264)"/>
       <use xlink:href="#NimbusSanL-Regu-30" transform="translate(166.175031 0) scale(0.996264)"/>
       <use xlink:href="#NimbusSanL-Regu-30" transform="translate(221.566708 0) scale(0.996264)"/>
      </g>
     </g>
    </g>
    <g id="xtick_5">
     <g id="line2d_14"/>
     <g id="line2d_15"/>
     <g id="text_5">
      <!-- 60000 -->
      <g transform="translate(412.973101 341.060431) scale(0.18 -0.18)">
       <defs>
        <path id="NimbusSanL-Regu-36" d="M 3187 3382 
C 3078 4111 2592 4544 1901 4544 
C 1402 4544 954 4302 685 3900 
C 403 3460 275 2904 275 2081 
C 275 1321 390 836 659 434 
C 902 69 1299 -128 1798 -128 
C 2662 -128 3283 518 3283 1415 
C 3283 2268 2707 2868 1894 2868 
C 1446 2868 1094 2695 851 2362 
C 858 3444 1216 4044 1862 4044 
C 2259 4044 2534 3803 2624 3382 
L 3187 3382 
z
M 1824 2368 
C 2368 2368 2707 1986 2707 1370 
C 2707 793 2323 372 1805 372 
C 1280 372 883 813 883 1402 
C 883 1973 1267 2368 1824 2368 
z
" transform="scale(0.015625)"/>
       </defs>
       <use xlink:href="#NimbusSanL-Regu-36" transform="scale(0.996264)"/>
       <use xlink:href="#NimbusSanL-Regu-30" transform="translate(55.391677 0) scale(0.996264)"/>
       <use xlink:href="#NimbusSanL-Regu-30" transform="translate(110.783354 0) scale(0.996264)"/>
       <use xlink:href="#NimbusSanL-Regu-30" transform="translate(166.175031 0) scale(0.996264)"/>
       <use xlink:href="#NimbusSanL-Regu-30" transform="translate(221.566708 0) scale(0.996264)"/>
      </g>
     </g>
    </g>
    <g id="xtick_6">
     <g id="line2d_16"/>
     <g id="line2d_17"/>
     <g id="text_6">
      <!-- 100000 -->
      <g transform="translate(489.974952 341.060431) scale(0.18 -0.18)">
       <use xlink:href="#NimbusSanL-Regu-31" transform="scale(0.996264)"/>
       <use xlink:href="#NimbusSanL-Regu-30" transform="translate(55.391677 0) scale(0.996264)"/>
       <use xlink:href="#NimbusSanL-Regu-30" transform="translate(110.783354 0) scale(0.996264)"/>
       <use xlink:href="#NimbusSanL-Regu-30" transform="translate(166.175031 0) scale(0.996264)"/>
       <use xlink:href="#NimbusSanL-Regu-30" transform="translate(221.566708 0) scale(0.996264)"/>
       <use xlink:href="#NimbusSanL-Regu-30" transform="translate(276.958385 0) scale(0.996264)"/>
      </g>
     </g>
    </g>
   </g>
   <g id="matplotlib.axis_2">
    <g id="ytick_1">
     <g id="line2d_18">
      <path d="M 68.957399 324.283454 
L 560.88 324.283454 
" clip-path="url(#p1208505806)" style="fill: none; stroke-dasharray: 1,3; stroke-dashoffset: 0; stroke: #000000; stroke-opacity: 0.5; stroke-width: 0.5"/>
     </g>
     <g id="line2d_19"/>
     <g id="line2d_20"/>
     <g id="text_7">
      <!-- -100 -->
      <g transform="translate(37.048401 327.766889) scale(0.14 -0.14)">
       <defs>
        <path id="NimbusSanL-Regu-2d" d="M 1818 1997 
L 294 1997 
L 294 1536 
L 1818 1536 
L 1818 1997 
z
" transform="scale(0.015625)"/>
       </defs>
       <use xlink:href="#NimbusSanL-Regu-2d" transform="scale(0.996264)"/>
       <use xlink:href="#NimbusSanL-Regu-31" transform="translate(33.17523 0) scale(0.996264)"/>
       <use xlink:href="#NimbusSanL-Regu-30" transform="translate(88.566907 0) scale(0.996264)"/>
       <use xlink:href="#NimbusSanL-Regu-30" transform="translate(143.958584 0) scale(0.996264)"/>
      </g>
     </g>
    </g>
    <g id="ytick_2">
     <g id="line2d_21">
      <path d="M 68.957399 283.06166 
L 560.88 283.06166 
" clip-path="url(#p1208505806)" style="fill: none; stroke-dasharray: 1,3; stroke-dashoffset: 0; stroke: #000000; stroke-opacity: 0.5; stroke-width: 0.5"/>
     </g>
     <g id="line2d_22"/>
     <g id="line2d_23"/>
     <g id="text_8">
      <!-- -80 -->
      <g transform="translate(44.803225 286.545095) scale(0.14 -0.14)">
       <defs>
        <path id="NimbusSanL-Regu-38" d="M 2502 2399 
C 2970 2680 3123 2910 3123 3338 
C 3123 4046 2566 4544 1760 4544 
C 960 4544 397 4046 397 3338 
C 397 2917 550 2687 1011 2399 
C 493 2150 237 1774 237 1276 
C 237 446 864 -128 1760 -128 
C 2656 -128 3283 447 3283 1270 
C 3283 1774 3027 2150 2502 2399 
z
M 1760 4044 
C 2240 4044 2547 3764 2547 3325 
C 2547 2904 2234 2624 1760 2624 
C 1286 2624 973 2904 973 3331 
C 973 3764 1286 4044 1760 4044 
z
M 1760 2149 
C 2323 2149 2707 1792 2707 1263 
C 2707 729 2323 372 1747 372 
C 1197 372 813 735 813 1263 
C 813 1792 1197 2149 1760 2149 
z
" transform="scale(0.015625)"/>
       </defs>
       <use xlink:href="#NimbusSanL-Regu-2d" transform="scale(0.996264)"/>
       <use xlink:href="#NimbusSanL-Regu-38" transform="translate(33.17523 0) scale(0.996264)"/>
       <use xlink:href="#NimbusSanL-Regu-30" transform="translate(88.566907 0) scale(0.996264)"/>
      </g>
     </g>
    </g>
    <g id="ytick_3">
     <g id="line2d_24">
      <path d="M 68.957399 241.839866 
L 560.88 241.839866 
" clip-path="url(#p1208505806)" style="fill: none; stroke-dasharray: 1,3; stroke-dashoffset: 0; stroke: #000000; stroke-opacity: 0.5; stroke-width: 0.5"/>
     </g>
     <g id="line2d_25"/>
     <g id="line2d_26"/>
     <g id="text_9">
      <!-- -60 -->
      <g transform="translate(44.803225 245.323302) scale(0.14 -0.14)">
       <use xlink:href="#NimbusSanL-Regu-2d" transform="scale(0.996264)"/>
       <use xlink:href="#NimbusSanL-Regu-36" transform="translate(33.17523 0) scale(0.996264)"/>
       <use xlink:href="#NimbusSanL-Regu-30" transform="translate(88.566907 0) scale(0.996264)"/>
      </g>
     </g>
    </g>
    <g id="ytick_4">
     <g id="line2d_27">
      <path d="M 68.957399 200.618072 
L 560.88 200.618072 
" clip-path="url(#p1208505806)" style="fill: none; stroke-dasharray: 1,3; stroke-dashoffset: 0; stroke: #000000; stroke-opacity: 0.5; stroke-width: 0.5"/>
     </g>
     <g id="line2d_28"/>
     <g id="line2d_29"/>
     <g id="text_10">
      <!-- -40 -->
      <g transform="translate(44.803225 204.101508) scale(0.14 -0.14)">
       <defs>
        <path id="NimbusSanL-Regu-34" d="M 2093 1088 
L 2093 0 
L 2656 0 
L 2656 1088 
L 3328 1088 
L 3328 1594 
L 2656 1594 
L 2656 4545 
L 2240 4545 
L 179 1684 
L 179 1088 
L 2093 1088 
z
M 2093 1594 
L 672 1594 
L 2093 3583 
L 2093 1594 
z
" transform="scale(0.015625)"/>
       </defs>
       <use xlink:href="#NimbusSanL-Regu-2d" transform="scale(0.996264)"/>
       <use xlink:href="#NimbusSanL-Regu-34" transform="translate(33.17523 0) scale(0.996264)"/>
       <use xlink:href="#NimbusSanL-Regu-30" transform="translate(88.566907 0) scale(0.996264)"/>
      </g>
     </g>
    </g>
    <g id="ytick_5">
     <g id="line2d_30">
      <path d="M 68.957399 159.396279 
L 560.88 159.396279 
" clip-path="url(#p1208505806)" style="fill: none; stroke-dasharray: 1,3; stroke-dashoffset: 0; stroke: #000000; stroke-opacity: 0.5; stroke-width: 0.5"/>
     </g>
     <g id="line2d_31"/>
     <g id="line2d_32"/>
     <g id="text_11">
      <!-- -20 -->
      <g transform="translate(44.803225 162.879714) scale(0.14 -0.14)">
       <defs>
        <path id="NimbusSanL-Regu-32" d="M 3238 558 
L 851 558 
C 909 930 1114 1167 1670 1494 
L 2310 1840 
C 2944 2186 3270 2653 3270 3211 
C 3270 3589 3117 3942 2848 4185 
C 2579 4429 2246 4544 1818 4544 
C 1242 4544 813 4339 563 3955 
C 403 3711 333 3429 320 2967 
L 883 2967 
C 902 3275 941 3461 1018 3608 
C 1165 3884 1459 4051 1798 4051 
C 2310 4051 2694 3685 2694 3198 
C 2694 2839 2483 2531 2080 2301 
L 1491 1968 
C 544 1430 269 1000 218 0 
L 3238 0 
L 3238 558 
z
" transform="scale(0.015625)"/>
       </defs>
       <use xlink:href="#NimbusSanL-Regu-2d" transform="scale(0.996264)"/>
       <use xlink:href="#NimbusSanL-Regu-32" transform="translate(33.17523 0) scale(0.996264)"/>
       <use xlink:href="#NimbusSanL-Regu-30" transform="translate(88.566907 0) scale(0.996264)"/>
      </g>
     </g>
    </g>
    <g id="ytick_6">
     <g id="line2d_33">
      <path d="M 68.957399 118.174485 
L 560.88 118.174485 
" clip-path="url(#p1208505806)" style="fill: none; stroke-dasharray: 1,3; stroke-dashoffset: 0; stroke: #000000; stroke-opacity: 0.5; stroke-width: 0.5"/>
     </g>
     <g id="line2d_34"/>
     <g id="line2d_35"/>
     <g id="text_12">
      <!-- 0 -->
      <g transform="translate(57.202574 121.65792) scale(0.14 -0.14)">
       <use xlink:href="#NimbusSanL-Regu-30" transform="scale(0.996264)"/>
      </g>
     </g>
    </g>
    <g id="ytick_7">
     <g id="line2d_36">
      <path d="M 68.957399 76.952691 
L 560.88 76.952691 
" clip-path="url(#p1208505806)" style="fill: none; stroke-dasharray: 1,3; stroke-dashoffset: 0; stroke: #000000; stroke-opacity: 0.5; stroke-width: 0.5"/>
     </g>
     <g id="line2d_37"/>
     <g id="line2d_38"/>
     <g id="text_13">
      <!-- 20 -->
      <g transform="translate(49.44775 80.436126) scale(0.14 -0.14)">
       <use xlink:href="#NimbusSanL-Regu-32" transform="scale(0.996264)"/>
       <use xlink:href="#NimbusSanL-Regu-30" transform="translate(55.391677 0) scale(0.996264)"/>
      </g>
     </g>
    </g>
    <g id="ytick_8">
     <g id="line2d_39">
      <path d="M 68.957399 35.730897 
L 560.88 35.730897 
" clip-path="url(#p1208505806)" style="fill: none; stroke-dasharray: 1,3; stroke-dashoffset: 0; stroke: #000000; stroke-opacity: 0.5; stroke-width: 0.5"/>
     </g>
     <g id="line2d_40"/>
     <g id="line2d_41"/>
     <g id="text_14">
      <!-- 40 -->
      <g transform="translate(49.44775 39.214332) scale(0.14 -0.14)">
       <use xlink:href="#NimbusSanL-Regu-34" transform="scale(0.996264)"/>
       <use xlink:href="#NimbusSanL-Regu-30" transform="translate(55.391677 0) scale(0.996264)"/>
      </g>
     </g>
    </g>
    <g id="text_15">
     <!-- Relative Execution Speedup -->
     <g transform="translate(28.228831 281.842904) rotate(-90) scale(0.18 -0.18)">
      <defs>
       <path id="NimbusSanL-Regu-52" d="M 1190 2034 
L 2726 2034 
C 3258 2034 3494 1774 3494 1187 
L 3488 762 
C 3488 468 3539 181 3622 -14 
L 4346 -14 
L 4346 136 
C 4122 292 4077 462 4064 1093 
C 4058 1873 3936 2108 3430 2329 
C 3955 2583 4166 2906 4166 3434 
C 4166 4233 3661 4672 2746 4672 
L 595 4672 
L 595 -14 
L 1190 -14 
L 1190 2034 
z
M 1190 2560 
L 1190 4146 
L 2630 4146 
C 2963 4146 3155 4096 3302 3969 
C 3462 3836 3546 3628 3546 3350 
C 3546 2806 3264 2560 2630 2560 
L 1190 2560 
z
" transform="scale(0.015625)"/>
       <path id="NimbusSanL-Regu-65" d="M 3283 1529 
C 3283 2034 3245 2338 3149 2584 
C 2931 3127 2419 3456 1792 3456 
C 858 3456 256 2742 256 1645 
C 256 547 838 -128 1779 -128 
C 2547 -128 3078 310 3213 1044 
L 2675 1044 
C 2528 598 2227 365 1798 365 
C 1459 365 1171 520 992 805 
C 864 998 819 1193 813 1529 
L 3283 1529 
z
M 826 1984 
C 870 2577 1248 2962 1786 2962 
C 2310 2962 2714 2530 2714 1984 
C 2714 1984 2714 1984 2707 1984 
L 826 1984 
z
" transform="scale(0.015625)"/>
       <path id="NimbusSanL-Regu-6c" d="M 973 4672 
L 435 4672 
L 435 -2 
L 973 -2 
L 973 4672 
z
" transform="scale(0.015625)"/>
       <path id="NimbusSanL-Regu-61" d="M 3424 333 
C 3366 320 3341 320 3309 320 
C 3123 320 3021 415 3021 581 
L 3021 2545 
C 3021 3137 2586 3456 1760 3456 
C 1274 3456 870 3316 646 3066 
C 493 2893 429 2702 416 2370 
L 954 2370 
C 998 2777 1242 2962 1741 2962 
C 2221 2962 2490 2783 2490 2465 
L 2490 2325 
C 2490 2101 2355 2006 1933 1955 
C 1178 1860 1062 1834 858 1751 
C 467 1592 269 1292 269 859 
C 269 254 691 -128 1370 -128 
C 1792 -128 2131 19 2509 365 
C 2547 25 2714 -128 3059 -128 
C 3168 -128 3251 -116 3424 -70 
L 3424 333 
z
M 2490 1072 
C 2490 893 2438 785 2278 639 
C 2061 441 1798 340 1485 340 
C 1069 340 826 537 826 874 
C 826 1225 1062 1403 1632 1486 
C 2195 1562 2310 1588 2490 1670 
L 2490 1072 
z
" transform="scale(0.015625)"/>
       <path id="NimbusSanL-Regu-74" d="M 1626 3380 
L 1075 3380 
L 1075 4288 
L 544 4288 
L 544 3380 
L 90 3380 
L 90 2944 
L 544 2944 
L 544 404 
C 544 64 774 -128 1190 -128 
C 1318 -128 1446 -116 1626 -83 
L 1626 366 
C 1555 346 1472 340 1370 340 
C 1139 340 1075 404 1075 641 
L 1075 2944 
L 1626 2944 
L 1626 3380 
z
" transform="scale(0.015625)"/>
       <path id="NimbusSanL-Regu-69" d="M 960 3359 
L 429 3359 
L 429 0 
L 960 0 
L 960 3359 
z
M 960 4672 
L 422 4672 
L 422 3999 
L 960 3999 
L 960 4672 
z
" transform="scale(0.015625)"/>
       <path id="NimbusSanL-Regu-76" d="M 1824 0 
L 3110 3360 
L 2509 3360 
L 1562 635 
L 666 3360 
L 64 3360 
L 1242 0 
L 1824 0 
z
" transform="scale(0.015625)"/>
       <path id="NimbusSanL-Regu-45" d="M 1171 2112 
L 3712 2112 
L 3712 2638 
L 1171 2638 
L 1171 4146 
L 3808 4146 
L 3808 4672 
L 576 4672 
L 576 0 
L 3923 0 
L 3923 526 
L 1171 526 
L 1171 2112 
z
" transform="scale(0.015625)"/>
       <path id="NimbusSanL-Regu-78" d="M 1869 1737 
L 2995 3359 
L 2394 3359 
L 1587 2141 
L 781 3359 
L 173 3359 
L 1293 1712 
L 109 0 
L 717 0 
L 1568 1288 
L 2406 0 
L 3027 0 
L 1869 1737 
z
" transform="scale(0.015625)"/>
       <path id="NimbusSanL-Regu-63" d="M 3014 2236 
C 2989 2562 2918 2773 2790 2958 
C 2560 3271 2157 3456 1690 3456 
C 787 3456 198 2742 198 1632 
C 198 554 774 -128 1683 -128 
C 2483 -128 2989 350 3053 1167 
L 2515 1167 
C 2426 632 2150 365 1696 365 
C 1107 365 755 843 755 1632 
C 755 2466 1101 2962 1683 2962 
C 2131 2962 2413 2701 2477 2236 
L 3014 2236 
z
" transform="scale(0.015625)"/>
       <path id="NimbusSanL-Regu-75" d="M 3085 33 
L 3085 3392 
L 2554 3392 
L 2554 1479 
C 2554 790 2195 340 1638 340 
C 1216 340 947 597 947 1003 
L 947 3392 
L 416 3392 
L 416 792 
C 416 232 832 -128 1485 -128 
C 1978 -128 2291 45 2605 488 
L 2605 33 
L 3085 33 
z
" transform="scale(0.015625)"/>
       <path id="NimbusSanL-Regu-6f" d="M 1741 3456 
C 800 3456 230 2786 230 1663 
C 230 541 794 -128 1747 -128 
C 2688 -128 3264 541 3264 1638 
C 3264 2792 2707 3456 1741 3456 
z
M 1747 2962 
C 2349 2962 2707 2472 2707 1645 
C 2707 861 2336 365 1747 365 
C 1152 365 787 855 787 1663 
C 787 2466 1152 2962 1747 2962 
z
" transform="scale(0.015625)"/>
       <path id="NimbusSanL-Regu-6e" d="M 448 3359 
L 448 0 
L 986 0 
L 986 1853 
C 986 2539 1344 2988 1894 2988 
C 2317 2988 2586 2731 2586 2327 
L 2586 0 
L 3117 0 
L 3117 2539 
C 3117 3097 2701 3456 2054 3456 
C 1555 3456 1235 3263 941 2796 
L 941 3359 
L 448 3359 
z
" transform="scale(0.015625)"/>
       <path id="NimbusSanL-Regu-53" d="M 3814 3335 
C 3808 4255 3181 4788 2106 4788 
C 1082 4788 448 4260 448 3410 
C 448 2837 749 2477 1363 2316 
L 2522 2007 
C 3110 1852 3379 1614 3379 1247 
C 3379 995 3245 738 3046 597 
C 2861 468 2566 397 2189 397 
C 1683 397 1338 520 1114 790 
C 941 996 864 1222 870 1511 
L 307 1511 
C 314 1081 397 798 582 540 
C 902 103 1440 -128 2150 -128 
C 2707 -128 3162 1 3462 232 
C 3776 483 3974 901 3974 1307 
C 3974 1886 3616 2311 2982 2485 
L 1811 2801 
C 1248 2955 1043 3135 1043 3496 
C 1043 3972 1459 4288 2086 4288 
C 2829 4288 3245 3947 3251 3335 
L 3814 3335 
z
" transform="scale(0.015625)"/>
       <path id="NimbusSanL-Regu-70" d="M 346 -1408 
L 883 -1408 
L 883 320 
C 1165 -27 1478 -180 1914 -180 
C 2778 -180 3347 522 3347 1599 
C 3347 2734 2797 3444 1907 3444 
C 1453 3444 1088 3238 838 2841 
L 838 3349 
L 346 3349 
L 346 -1408 
z
M 1818 2944 
C 2406 2944 2790 2420 2790 1612 
C 2790 843 2400 320 1818 320 
C 1254 320 883 837 883 1632 
C 883 2427 1254 2944 1818 2944 
z
" transform="scale(0.015625)"/>
       <path id="NimbusSanL-Regu-64" d="M 3168 4672 
L 2637 4672 
L 2637 2937 
C 2413 3276 2054 3456 1606 3456 
C 736 3456 166 2761 166 1695 
C 166 566 723 -128 1626 -128 
C 2086 -128 2406 45 2694 461 
L 2694 -2 
L 3168 -2 
L 3168 4672 
z
M 1696 2956 
C 2272 2956 2637 2447 2637 1651 
C 2637 881 2266 372 1702 372 
C 1114 372 723 887 723 1664 
C 723 2440 1114 2956 1696 2956 
z
" transform="scale(0.015625)"/>
      </defs>
      <use xlink:href="#NimbusSanL-Regu-52" transform="scale(0.996264)"/>
      <use xlink:href="#NimbusSanL-Regu-65" transform="translate(71.929985 0) scale(0.996264)"/>
      <use xlink:href="#NimbusSanL-Regu-6c" transform="translate(127.321662 0) scale(0.996264)"/>
      <use xlink:href="#NimbusSanL-Regu-61" transform="translate(149.438446 0) scale(0.996264)"/>
      <use xlink:href="#NimbusSanL-Regu-74" transform="translate(204.830123 0) scale(0.996264)"/>
      <use xlink:href="#NimbusSanL-Regu-69" transform="translate(232.525293 0) scale(0.996264)"/>
      <use xlink:href="#NimbusSanL-Regu-76" transform="translate(254.642077 0) scale(0.996264)"/>
      <use xlink:href="#NimbusSanL-Regu-65" transform="translate(301.964648 0) scale(0.996264)"/>
      <use xlink:href="#NimbusSanL-Regu-45" transform="translate(385.051495 0) scale(0.996264)"/>
      <use xlink:href="#NimbusSanL-Regu-78" transform="translate(451.501526 0) scale(0.996264)"/>
      <use xlink:href="#NimbusSanL-Regu-65" transform="translate(498.326618 0) scale(0.996264)"/>
      <use xlink:href="#NimbusSanL-Regu-63" transform="translate(553.718295 0) scale(0.996264)"/>
      <use xlink:href="#NimbusSanL-Regu-75" transform="translate(603.531496 0) scale(0.996264)"/>
      <use xlink:href="#NimbusSanL-Regu-74" transform="translate(658.923173 0) scale(0.996264)"/>
      <use xlink:href="#NimbusSanL-Regu-69" transform="translate(686.618342 0) scale(0.996264)"/>
      <use xlink:href="#NimbusSanL-Regu-6f" transform="translate(708.735127 0) scale(0.996264)"/>
      <use xlink:href="#NimbusSanL-Regu-6e" transform="translate(764.126804 0) scale(0.996264)"/>
      <use xlink:href="#NimbusSanL-Regu-53" transform="translate(847.21365 0) scale(0.996264)"/>
      <use xlink:href="#NimbusSanL-Regu-70" transform="translate(913.663681 0) scale(0.996264)"/>
      <use xlink:href="#NimbusSanL-Regu-65" transform="translate(969.055358 0) scale(0.996264)"/>
      <use xlink:href="#NimbusSanL-Regu-65" transform="translate(1024.447035 0) scale(0.996264)"/>
      <use xlink:href="#NimbusSanL-Regu-64" transform="translate(1079.838712 0) scale(0.996264)"/>
      <use xlink:href="#NimbusSanL-Regu-75" transform="translate(1135.230389 0) scale(0.996264)"/>
      <use xlink:href="#NimbusSanL-Regu-70" transform="translate(1190.622066 0) scale(0.996264)"/>
     </g>
    </g>
   </g>
   <g id="patch_7">
    <path d="M 77.156109 118.174485 
L 99.019335 118.174485 
L 99.019335 143.918102 
L 77.156109 143.918102 
z
" clip-path="url(#p1208505806)" style="fill: #49687c; stroke: #000000; stroke-width: 0.5; stroke-linejoin: miter"/>
   </g>
   <g id="text_16">
    <g id="patch_8">
     <path d="M 95.845995 184.246255 
L 95.845995 144.458102 
L 80.329449 144.458102 
L 80.329449 184.246255 
z
" style="fill: #ffffff"/>
    </g>
    <!-- -12.5 -->
    <g transform="translate(92.566426 184.786255) rotate(-90) scale(0.18 -0.18)">
     <defs>
      <path id="NimbusSanL-Regu-2e" d="M 1222 667 
L 557 667 
L 557 0 
L 1222 0 
L 1222 667 
z
" transform="scale(0.015625)"/>
      <path id="NimbusSanL-Regu-35" d="M 3046 4544 
L 704 4544 
L 365 2086 
L 883 2086 
C 1146 2399 1363 2508 1715 2508 
C 2323 2508 2707 2092 2707 1421 
C 2707 768 2330 372 1715 372 
C 1222 372 922 621 787 1133 
L 224 1133 
C 301 762 365 582 499 415 
C 755 70 1216 -128 1728 -128 
C 2643 -128 3283 537 3283 1497 
C 3283 2394 2688 3008 1818 3008 
C 1498 3008 1242 2925 979 2732 
L 1158 3987 
L 3046 3987 
L 3046 4544 
z
" transform="scale(0.015625)"/>
     </defs>
     <use xlink:href="#NimbusSanL-Regu-2d" transform="scale(0.996264)"/>
     <use xlink:href="#NimbusSanL-Regu-31" transform="translate(33.17523 0) scale(0.996264)"/>
     <use xlink:href="#NimbusSanL-Regu-32" transform="translate(88.566907 0) scale(0.996264)"/>
     <use xlink:href="#NimbusSanL-Regu-2e" transform="translate(143.958584 0) scale(0.996264)"/>
     <use xlink:href="#NimbusSanL-Regu-35" transform="translate(171.653753 0) scale(0.996264)"/>
    </g>
   </g>
   <g id="patch_9">
    <path d="M 99.019335 118.174485 
L 120.882562 118.174485 
L 120.882562 52.652151 
L 99.019335 52.652151 
z
" clip-path="url(#p1208505806)" style="fill: #ededed; stroke: #000000; stroke-width: 0.5; stroke-linejoin: miter"/>
   </g>
   <g id="text_17">
    <g id="patch_10">
     <path d="M 117.709222 52.112151 
L 117.709222 18.295532 
L 102.192676 18.295532 
L 102.192676 52.112151 
z
" style="fill: #ffffff"/>
    </g>
    <!-- 31.8 -->
    <g transform="translate(114.429652 52.652151) rotate(-90) scale(0.18 -0.18)">
     <defs>
      <path id="NimbusSanL-Regu-33" d="M 1414 2112 
L 1485 2112 
L 1722 2112 
C 2342 2112 2662 1830 2662 1284 
C 2662 712 2310 372 1722 372 
C 1107 372 806 681 768 1345 
L 205 1345 
C 230 978 294 740 403 534 
C 634 97 1082 -128 1702 -128 
C 2637 -128 3238 431 3238 1293 
C 3238 1872 3014 2194 2470 2381 
C 2893 2546 3104 2862 3104 3311 
C 3104 4082 2586 4544 1722 4544 
C 806 4544 320 4050 301 3095 
L 864 3095 
C 870 3366 896 3517 966 3655 
C 1094 3900 1376 4051 1728 4051 
C 2227 4051 2528 3760 2528 3287 
C 2528 2971 2413 2781 2163 2681 
C 2010 2618 1811 2592 1414 2592 
L 1414 2112 
z
" transform="scale(0.015625)"/>
     </defs>
     <use xlink:href="#NimbusSanL-Regu-33" transform="scale(0.996264)"/>
     <use xlink:href="#NimbusSanL-Regu-31" transform="translate(55.391677 0) scale(0.996264)"/>
     <use xlink:href="#NimbusSanL-Regu-2e" transform="translate(110.783354 0) scale(0.996264)"/>
     <use xlink:href="#NimbusSanL-Regu-38" transform="translate(138.478524 0) scale(0.996264)"/>
    </g>
   </g>
   <g id="patch_11">
    <path d="M 120.882562 118.174485 
L 142.745789 118.174485 
L 142.745789 70.331044 
L 120.882562 70.331044 
z
" clip-path="url(#p1208505806)" style="fill: #618c84; stroke: #000000; stroke-width: 0.5; stroke-linejoin: miter"/>
   </g>
   <g id="text_18">
    <g id="patch_12">
     <path d="M 139.572448 69.791044 
L 139.572448 35.974425 
L 124.055903 35.974425 
L 124.055903 69.791044 
z
" style="fill: #ffffff"/>
    </g>
    <!-- 23.2 -->
    <g transform="translate(136.292879 70.331044) rotate(-90) scale(0.18 -0.18)">
     <use xlink:href="#NimbusSanL-Regu-32" transform="scale(0.996264)"/>
     <use xlink:href="#NimbusSanL-Regu-33" transform="translate(55.391677 0) scale(0.996264)"/>
     <use xlink:href="#NimbusSanL-Regu-2e" transform="translate(110.783354 0) scale(0.996264)"/>
     <use xlink:href="#NimbusSanL-Regu-32" transform="translate(138.478524 0) scale(0.996264)"/>
    </g>
   </g>
   <g id="patch_13">
    <path d="M 159.143209 118.174485 
L 181.006436 118.174485 
L 181.006436 164.127117 
L 159.143209 164.127117 
z
" clip-path="url(#p1208505806)" style="fill: #49687c; stroke: #000000; stroke-width: 0.5; stroke-linejoin: miter"/>
   </g>
   <g id="text_19">
    <g id="patch_14">
     <path d="M 177.833095 204.455269 
L 177.833095 164.667117 
L 162.316549 164.667117 
L 162.316549 204.455269 
z
" style="fill: #ffffff"/>
    </g>
    <!-- -22.3 -->
    <g transform="translate(174.553526 204.995269) rotate(-90) scale(0.18 -0.18)">
     <use xlink:href="#NimbusSanL-Regu-2d" transform="scale(0.996264)"/>
     <use xlink:href="#NimbusSanL-Regu-32" transform="translate(33.17523 0) scale(0.996264)"/>
     <use xlink:href="#NimbusSanL-Regu-32" transform="translate(88.566907 0) scale(0.996264)"/>
     <use xlink:href="#NimbusSanL-Regu-2e" transform="translate(143.958584 0) scale(0.996264)"/>
     <use xlink:href="#NimbusSanL-Regu-33" transform="translate(171.653753 0) scale(0.996264)"/>
    </g>
   </g>
   <g id="patch_15">
    <path d="M 181.006436 118.174485 
L 202.869662 118.174485 
L 202.869662 98.760804 
L 181.006436 98.760804 
z
" clip-path="url(#p1208505806)" style="fill: #ededed; stroke: #000000; stroke-width: 0.5; stroke-linejoin: miter"/>
   </g>
   <g id="text_20">
    <g id="patch_16">
     <path d="M 199.696322 98.220804 
L 199.696322 74.374685 
L 184.179776 74.374685 
L 184.179776 98.220804 
z
" style="fill: #ffffff"/>
    </g>
    <!-- 9.4 -->
    <g transform="translate(196.416753 98.760804) rotate(-90) scale(0.18 -0.18)">
     <defs>
      <path id="NimbusSanL-Regu-39" d="M 339 1064 
C 448 316 934 -128 1626 -128 
C 2125 -128 2579 114 2842 516 
C 3130 956 3258 1512 3258 2335 
C 3258 3095 3142 3580 2874 3982 
C 2624 4347 2227 4544 1728 4544 
C 864 4544 243 3909 243 3027 
C 243 2190 819 1600 1638 1600 
C 2067 1600 2381 1754 2675 2106 
C 2669 991 2310 372 1664 372 
C 1267 372 992 624 902 1064 
L 339 1064 
z
M 1722 4051 
C 2246 4051 2643 3622 2643 3041 
C 2643 2491 2253 2100 1702 2100 
C 1158 2100 819 2472 819 3072 
C 819 3640 1203 4051 1722 4051 
z
" transform="scale(0.015625)"/>
     </defs>
     <use xlink:href="#NimbusSanL-Regu-39" transform="scale(0.996264)"/>
     <use xlink:href="#NimbusSanL-Regu-2e" transform="translate(55.391677 0) scale(0.996264)"/>
     <use xlink:href="#NimbusSanL-Regu-34" transform="translate(83.086847 0) scale(0.996264)"/>
    </g>
   </g>
   <g id="patch_17">
    <path d="M 202.869662 118.174485 
L 224.732889 118.174485 
L 224.732889 116.819482 
L 202.869662 116.819482 
z
" clip-path="url(#p1208505806)" style="fill: #618c84; stroke: #000000; stroke-width: 0.5; stroke-linejoin: miter"/>
   </g>
   <g id="text_21">
    <g id="patch_18">
     <path d="M 221.559549 116.279482 
L 221.559549 92.433363 
L 206.043003 92.433363 
L 206.043003 116.279482 
z
" style="fill: #ffffff"/>
    </g>
    <!-- 0.7 -->
    <g transform="translate(218.279979 116.819482) rotate(-90) scale(0.18 -0.18)">
     <defs>
      <path id="NimbusSanL-Regu-37" d="M 3328 4525 
L 294 4525 
L 294 3968 
L 2746 3968 
C 1664 2418 1222 1466 883 -32 
L 1485 -32 
C 1734 1427 2304 2681 3328 4051 
L 3328 4525 
z
" transform="scale(0.015625)"/>
     </defs>
     <use xlink:href="#NimbusSanL-Regu-30" transform="scale(0.996264)"/>
     <use xlink:href="#NimbusSanL-Regu-2e" transform="translate(55.391677 0) scale(0.996264)"/>
     <use xlink:href="#NimbusSanL-Regu-37" transform="translate(83.086847 0) scale(0.996264)"/>
    </g>
   </g>
   <g id="patch_19">
    <path d="M 241.130309 118.174485 
L 262.993536 118.174485 
L 262.993536 149.558559 
L 241.130309 149.558559 
z
" clip-path="url(#p1208505806)" style="fill: #49687c; stroke: #000000; stroke-width: 0.5; stroke-linejoin: miter"/>
   </g>
   <g id="text_22">
    <g id="patch_20">
     <path d="M 259.820195 189.886711 
L 259.820195 150.098559 
L 244.30365 150.098559 
L 244.30365 189.886711 
z
" style="fill: #ffffff"/>
    </g>
    <!-- -15.2 -->
    <g transform="translate(256.540626 190.426711) rotate(-90) scale(0.18 -0.18)">
     <use xlink:href="#NimbusSanL-Regu-2d" transform="scale(0.996264)"/>
     <use xlink:href="#NimbusSanL-Regu-31" transform="translate(33.17523 0) scale(0.996264)"/>
     <use xlink:href="#NimbusSanL-Regu-35" transform="translate(88.566907 0) scale(0.996264)"/>
     <use xlink:href="#NimbusSanL-Regu-2e" transform="translate(143.958584 0) scale(0.996264)"/>
     <use xlink:href="#NimbusSanL-Regu-32" transform="translate(171.653753 0) scale(0.996264)"/>
    </g>
   </g>
   <g id="patch_21">
    <path d="M 262.993536 118.174485 
L 284.856763 118.174485 
L 284.856763 111.693214 
L 262.993536 111.693214 
z
" clip-path="url(#p1208505806)" style="fill: #ededed; stroke: #000000; stroke-width: 0.5; stroke-linejoin: miter"/>
   </g>
   <g id="text_23">
    <g id="patch_22">
     <path d="M 281.683422 111.153214 
L 281.683422 87.307095 
L 266.166876 87.307095 
L 266.166876 111.153214 
z
" style="fill: #ffffff"/>
    </g>
    <!-- 3.1 -->
    <g transform="translate(278.403853 111.693214) rotate(-90) scale(0.18 -0.18)">
     <use xlink:href="#NimbusSanL-Regu-33" transform="scale(0.996264)"/>
     <use xlink:href="#NimbusSanL-Regu-2e" transform="translate(55.391677 0) scale(0.996264)"/>
     <use xlink:href="#NimbusSanL-Regu-31" transform="translate(83.086847 0) scale(0.996264)"/>
    </g>
   </g>
   <g id="patch_23">
    <path d="M 284.856763 118.174485 
L 306.719989 118.174485 
L 306.719989 130.676557 
L 284.856763 130.676557 
z
" clip-path="url(#p1208505806)" style="fill: #618c84; stroke: #000000; stroke-width: 0.5; stroke-linejoin: miter"/>
   </g>
   <g id="text_24">
    <g id="patch_24">
     <path d="M 303.546649 161.03421 
L 303.546649 131.216557 
L 288.030103 131.216557 
L 288.030103 161.03421 
z
" style="fill: #ffffff"/>
    </g>
    <!-- -6.1 -->
    <g transform="translate(300.267079 161.57421) rotate(-90) scale(0.18 -0.18)">
     <use xlink:href="#NimbusSanL-Regu-2d" transform="scale(0.996264)"/>
     <use xlink:href="#NimbusSanL-Regu-36" transform="translate(33.17523 0) scale(0.996264)"/>
     <use xlink:href="#NimbusSanL-Regu-2e" transform="translate(88.566907 0) scale(0.996264)"/>
     <use xlink:href="#NimbusSanL-Regu-31" transform="translate(116.262076 0) scale(0.996264)"/>
    </g>
   </g>
   <g id="patch_25">
    <path d="M 323.117409 118.174485 
L 344.980636 118.174485 
L 344.980636 219.793665 
L 323.117409 219.793665 
z
" clip-path="url(#p1208505806)" style="fill: #49687c; stroke: #000000; stroke-width: 0.5; stroke-linejoin: miter"/>
   </g>
   <g id="text_25">
    <g id="patch_26">
     <path d="M 341.807296 260.121818 
L 341.807296 220.333665 
L 326.29075 220.333665 
L 326.29075 260.121818 
z
" style="fill: #ffffff"/>
    </g>
    <!-- -49.3 -->
    <g transform="translate(338.527726 260.661818) rotate(-90) scale(0.18 -0.18)">
     <use xlink:href="#NimbusSanL-Regu-2d" transform="scale(0.996264)"/>
     <use xlink:href="#NimbusSanL-Regu-34" transform="translate(33.17523 0) scale(0.996264)"/>
     <use xlink:href="#NimbusSanL-Regu-39" transform="translate(88.566907 0) scale(0.996264)"/>
     <use xlink:href="#NimbusSanL-Regu-2e" transform="translate(143.958584 0) scale(0.996264)"/>
     <use xlink:href="#NimbusSanL-Regu-33" transform="translate(171.653753 0) scale(0.996264)"/>
    </g>
   </g>
   <g id="patch_27">
    <path d="M 344.980636 118.174485 
L 366.843863 118.174485 
L 366.843863 124.768693 
L 344.980636 124.768693 
z
" clip-path="url(#p1208505806)" style="fill: #ededed; stroke: #000000; stroke-width: 0.5; stroke-linejoin: miter"/>
   </g>
   <g id="text_26">
    <g id="patch_28">
     <path d="M 363.670522 155.126346 
L 363.670522 125.308693 
L 348.153977 125.308693 
L 348.153977 155.126346 
z
" style="fill: #ffffff"/>
    </g>
    <!-- -3.2 -->
    <g transform="translate(360.390953 155.666346) rotate(-90) scale(0.18 -0.18)">
     <use xlink:href="#NimbusSanL-Regu-2d" transform="scale(0.996264)"/>
     <use xlink:href="#NimbusSanL-Regu-33" transform="translate(33.17523 0) scale(0.996264)"/>
     <use xlink:href="#NimbusSanL-Regu-2e" transform="translate(88.566907 0) scale(0.996264)"/>
     <use xlink:href="#NimbusSanL-Regu-32" transform="translate(116.262076 0) scale(0.996264)"/>
    </g>
   </g>
   <g id="patch_29">
    <path d="M 366.843863 118.174485 
L 388.70709 118.174485 
L 388.70709 129.477214 
L 366.843863 129.477214 
z
" clip-path="url(#p1208505806)" style="fill: #618c84; stroke: #000000; stroke-width: 0.5; stroke-linejoin: miter"/>
   </g>
   <g id="text_27">
    <g id="patch_30">
     <path d="M 385.533749 159.834867 
L 385.533749 130.017214 
L 370.017203 130.017214 
L 370.017203 159.834867 
z
" style="fill: #ffffff"/>
    </g>
    <!-- -5.5 -->
    <g transform="translate(382.25418 160.374867) rotate(-90) scale(0.18 -0.18)">
     <use xlink:href="#NimbusSanL-Regu-2d" transform="scale(0.996264)"/>
     <use xlink:href="#NimbusSanL-Regu-35" transform="translate(33.17523 0) scale(0.996264)"/>
     <use xlink:href="#NimbusSanL-Regu-2e" transform="translate(88.566907 0) scale(0.996264)"/>
     <use xlink:href="#NimbusSanL-Regu-35" transform="translate(116.262076 0) scale(0.996264)"/>
    </g>
   </g>
   <g id="patch_31">
    <path d="M 405.10451 118.174485 
L 426.967736 118.174485 
L 426.967736 277.101195 
L 405.10451 277.101195 
z
" clip-path="url(#p1208505806)" style="fill: #49687c; stroke: #000000; stroke-width: 0.5; stroke-linejoin: miter"/>
   </g>
   <g id="text_28">
    <g id="patch_32">
     <path d="M 423.794396 317.429347 
L 423.794396 277.641195 
L 408.27785 277.641195 
L 408.27785 317.429347 
z
" style="fill: #ffffff"/>
    </g>
    <!-- -77.1 -->
    <g transform="translate(420.514826 317.969347) rotate(-90) scale(0.18 -0.18)">
     <use xlink:href="#NimbusSanL-Regu-2d" transform="scale(0.996264)"/>
     <use xlink:href="#NimbusSanL-Regu-37" transform="translate(33.17523 0) scale(0.996264)"/>
     <use xlink:href="#NimbusSanL-Regu-37" transform="translate(88.566907 0) scale(0.996264)"/>
     <use xlink:href="#NimbusSanL-Regu-2e" transform="translate(143.958584 0) scale(0.996264)"/>
     <use xlink:href="#NimbusSanL-Regu-31" transform="translate(171.653753 0) scale(0.996264)"/>
    </g>
   </g>
   <g id="patch_33">
    <path d="M 426.967736 118.174485 
L 448.830963 118.174485 
L 448.830963 147.962377 
L 426.967736 147.962377 
z
" clip-path="url(#p1208505806)" style="fill: #ededed; stroke: #000000; stroke-width: 0.5; stroke-linejoin: miter"/>
   </g>
   <g id="text_29">
    <g id="patch_34">
     <path d="M 445.657623 188.29053 
L 445.657623 148.502377 
L 430.141077 148.502377 
L 430.141077 188.29053 
z
" style="fill: #ffffff"/>
    </g>
    <!-- -14.5 -->
    <g transform="translate(442.378053 188.83053) rotate(-90) scale(0.18 -0.18)">
     <use xlink:href="#NimbusSanL-Regu-2d" transform="scale(0.996264)"/>
     <use xlink:href="#NimbusSanL-Regu-31" transform="translate(33.17523 0) scale(0.996264)"/>
     <use xlink:href="#NimbusSanL-Regu-34" transform="translate(88.566907 0) scale(0.996264)"/>
     <use xlink:href="#NimbusSanL-Regu-2e" transform="translate(143.958584 0) scale(0.996264)"/>
     <use xlink:href="#NimbusSanL-Regu-35" transform="translate(171.653753 0) scale(0.996264)"/>
    </g>
   </g>
   <g id="patch_35">
    <path d="M 448.830963 118.174485 
L 470.69419 118.174485 
L 470.69419 138.383891 
L 448.830963 138.383891 
z
" clip-path="url(#p1208505806)" style="fill: #618c84; stroke: #000000; stroke-width: 0.5; stroke-linejoin: miter"/>
   </g>
   <g id="text_30">
    <g id="patch_36">
     <path d="M 467.520849 168.741544 
L 467.520849 138.923891 
L 452.004303 138.923891 
L 452.004303 168.741544 
z
" style="fill: #ffffff"/>
    </g>
    <!-- -9.8 -->
    <g transform="translate(464.24128 169.281544) rotate(-90) scale(0.18 -0.18)">
     <use xlink:href="#NimbusSanL-Regu-2d" transform="scale(0.996264)"/>
     <use xlink:href="#NimbusSanL-Regu-39" transform="translate(33.17523 0) scale(0.996264)"/>
     <use xlink:href="#NimbusSanL-Regu-2e" transform="translate(88.566907 0) scale(0.996264)"/>
     <use xlink:href="#NimbusSanL-Regu-38" transform="translate(116.262076 0) scale(0.996264)"/>
    </g>
   </g>
   <g id="patch_37">
    <path d="M 487.09161 118.174485 
L 519.88645 118.174485 
L 519.88645 161.410867 
L 487.09161 161.410867 
z
" clip-path="url(#p1208505806)" style="fill: #ededed; stroke: #000000; stroke-width: 0.5; stroke-linejoin: miter"/>
   </g>
   <g id="text_31">
    <g id="patch_38">
     <path d="M 511.247303 201.73902 
L 511.247303 161.950867 
L 495.730757 161.950867 
L 495.730757 201.73902 
z
" style="fill: #ffffff"/>
    </g>
    <!-- -21.0 -->
    <g transform="translate(507.967733 202.27902) rotate(-90) scale(0.18 -0.18)">
     <use xlink:href="#NimbusSanL-Regu-2d" transform="scale(0.996264)"/>
     <use xlink:href="#NimbusSanL-Regu-32" transform="translate(33.17523 0) scale(0.996264)"/>
     <use xlink:href="#NimbusSanL-Regu-31" transform="translate(88.566907 0) scale(0.996264)"/>
     <use xlink:href="#NimbusSanL-Regu-2e" transform="translate(143.958584 0) scale(0.996264)"/>
     <use xlink:href="#NimbusSanL-Regu-30" transform="translate(171.653753 0) scale(0.996264)"/>
    </g>
   </g>
   <g id="patch_39">
    <path d="M 519.88645 118.174485 
L 552.68129 118.174485 
L 552.68129 146.655453 
L 519.88645 146.655453 
z
" clip-path="url(#p1208505806)" style="fill: #618c84; stroke: #000000; stroke-width: 0.5; stroke-linejoin: miter"/>
   </g>
   <g id="text_32">
    <g id="patch_40">
     <path d="M 544.042143 186.983606 
L 544.042143 147.195453 
L 528.525597 147.195453 
L 528.525597 186.983606 
z
" style="fill: #ffffff"/>
    </g>
    <!-- -13.8 -->
    <g transform="translate(540.762573 187.523606) rotate(-90) scale(0.18 -0.18)">
     <use xlink:href="#NimbusSanL-Regu-2d" transform="scale(0.996264)"/>
     <use xlink:href="#NimbusSanL-Regu-31" transform="translate(33.17523 0) scale(0.996264)"/>
     <use xlink:href="#NimbusSanL-Regu-33" transform="translate(88.566907 0) scale(0.996264)"/>
     <use xlink:href="#NimbusSanL-Regu-2e" transform="translate(143.958584 0) scale(0.996264)"/>
     <use xlink:href="#NimbusSanL-Regu-38" transform="translate(171.653753 0) scale(0.996264)"/>
    </g>
   </g>
   <g id="legend_1">
    <g id="patch_41">
     <path d="M 77.957399 315.283454 
L 249.94018 315.283454 
L 249.94018 233.093816 
L 77.957399 233.093816 
z
" style="fill: #ffffff"/>
    </g>
    <g id="patch_42">
     <path d="M 85.157399 253.070793 
L 121.157399 253.070793 
L 121.157399 240.470793 
L 85.157399 240.470793 
z
" style="fill: #49687c; stroke: #000000; stroke-width: 0.5; stroke-linejoin: miter"/>
    </g>
    <g id="text_33">
     <!-- Binary Buddy -->
     <g transform="translate(135.557399 253.070793) scale(0.18 -0.18)">
      <defs>
       <path id="NimbusSanL-Regu-42" d="M 506 0 
L 2611 0 
C 3053 0 3379 121 3629 388 
C 3859 629 3987 959 3987 1322 
C 3987 1881 3731 2217 3136 2446 
C 3558 2647 3782 2996 3782 3475 
C 3782 3817 3654 4122 3411 4342 
C 3168 4568 2848 4672 2400 4672 
L 506 4672 
L 506 0 
z
M 1101 2638 
L 1101 4146 
L 2253 4146 
C 2586 4146 2771 4100 2931 3977 
C 3098 3847 3187 3652 3187 3391 
C 3187 3138 3098 2937 2931 2806 
C 2771 2683 2586 2638 2253 2638 
L 1101 2638 
z
M 1101 526 
L 1101 2112 
L 2554 2112 
C 2842 2112 3034 2042 3174 1891 
C 3315 1745 3392 1543 3392 1316 
C 3392 1095 3315 893 3174 747 
C 3034 595 2842 526 2554 526 
L 1101 526 
z
" transform="scale(0.015625)"/>
       <path id="NimbusSanL-Regu-72" d="M 442 3359 
L 442 0 
L 979 0 
L 979 1741 
C 979 2221 1101 2535 1357 2720 
C 1523 2842 1683 2880 2054 2880 
L 2054 3432 
C 1965 3444 1920 3444 1850 3444 
C 1504 3444 1242 3240 934 2746 
L 934 3359 
L 442 3359 
z
" transform="scale(0.015625)"/>
       <path id="NimbusSanL-Regu-79" d="M 2483 3360 
L 1555 738 
L 698 3360 
L 128 3360 
L 1261 -21 
L 1056 -554 
C 973 -792 851 -882 627 -882 
C 550 -882 461 -869 346 -843 
L 346 -1325 
C 454 -1382 563 -1408 704 -1408 
C 877 -1408 1062 -1350 1203 -1247 
C 1370 -1125 1466 -983 1568 -713 
L 3059 3360 
L 2483 3360 
z
" transform="scale(0.015625)"/>
      </defs>
      <use xlink:href="#NimbusSanL-Regu-42" transform="scale(0.996264)"/>
      <use xlink:href="#NimbusSanL-Regu-69" transform="translate(66.450031 0) scale(0.996264)"/>
      <use xlink:href="#NimbusSanL-Regu-6e" transform="translate(88.566815 0) scale(0.996264)"/>
      <use xlink:href="#NimbusSanL-Regu-61" transform="translate(143.958492 0) scale(0.996264)"/>
      <use xlink:href="#NimbusSanL-Regu-72" transform="translate(199.350169 0) scale(0.996264)"/>
      <use xlink:href="#NimbusSanL-Regu-79" transform="translate(235.513492 0) scale(0.996264)"/>
      <use xlink:href="#NimbusSanL-Regu-42" transform="translate(313.021862 0) scale(0.996264)"/>
      <use xlink:href="#NimbusSanL-Regu-75" transform="translate(379.471893 0) scale(0.996264)"/>
      <use xlink:href="#NimbusSanL-Regu-64" transform="translate(434.86357 0) scale(0.996264)"/>
      <use xlink:href="#NimbusSanL-Regu-64" transform="translate(490.255247 0) scale(0.996264)"/>
      <use xlink:href="#NimbusSanL-Regu-79" transform="translate(545.646924 0) scale(0.996264)"/>
     </g>
    </g>
    <g id="patch_43">
     <path d="M 85.157399 278.667339 
L 121.157399 278.667339 
L 121.157399 266.067339 
L 85.157399 266.067339 
z
" style="fill: #ededed; stroke: #000000; stroke-width: 0.5; stroke-linejoin: miter"/>
    </g>
    <g id="text_34">
     <!-- tinyalloc -->
     <g transform="translate(135.557399 278.667339) scale(0.18 -0.18)">
      <use xlink:href="#NimbusSanL-Regu-74" transform="scale(0.996264)"/>
      <use xlink:href="#NimbusSanL-Regu-69" transform="translate(27.69517 0) scale(0.996264)"/>
      <use xlink:href="#NimbusSanL-Regu-6e" transform="translate(49.811954 0) scale(0.996264)"/>
      <use xlink:href="#NimbusSanL-Regu-79" transform="translate(103.710238 0) scale(0.996264)"/>
      <use xlink:href="#NimbusSanL-Regu-61" transform="translate(151.531428 0) scale(0.996264)"/>
      <use xlink:href="#NimbusSanL-Regu-6c" transform="translate(206.923105 0) scale(0.996264)"/>
      <use xlink:href="#NimbusSanL-Regu-6c" transform="translate(229.039889 0) scale(0.996264)"/>
      <use xlink:href="#NimbusSanL-Regu-6f" transform="translate(251.156673 0) scale(0.996264)"/>
      <use xlink:href="#NimbusSanL-Regu-63" transform="translate(306.54835 0) scale(0.996264)"/>
     </g>
    </g>
    <g id="patch_44">
     <path d="M 85.157399 304.263885 
L 121.157399 304.263885 
L 121.157399 291.663885 
L 85.157399 291.663885 
z
" style="fill: #618c84; stroke: #000000; stroke-width: 0.5; stroke-linejoin: miter"/>
    </g>
    <g id="text_35">
     <!-- TLSF -->
     <g transform="translate(135.557399 304.263885) scale(0.18 -0.18)">
      <defs>
       <path id="NimbusSanL-Regu-54" d="M 2266 4146 
L 3795 4146 
L 3795 4672 
L 134 4672 
L 134 4146 
L 1670 4146 
L 1670 -14 
L 2266 -14 
L 2266 4146 
z
" transform="scale(0.015625)"/>
       <path id="NimbusSanL-Regu-4c" d="M 1107 4672 
L 512 4672 
L 512 0 
L 3411 0 
L 3411 526 
L 1107 526 
L 1107 4672 
z
" transform="scale(0.015625)"/>
       <path id="NimbusSanL-Regu-46" d="M 1171 2112 
L 3398 2112 
L 3398 2638 
L 1171 2638 
L 1171 4146 
L 3706 4146 
L 3706 4672 
L 576 4672 
L 576 -14 
L 1171 -14 
L 1171 2112 
z
" transform="scale(0.015625)"/>
      </defs>
      <use xlink:href="#NimbusSanL-Regu-54" transform="scale(0.996264)"/>
      <use xlink:href="#NimbusSanL-Regu-4c" transform="translate(60.871631 0) scale(0.996264)"/>
      <use xlink:href="#NimbusSanL-Regu-53" transform="translate(116.263308 0) scale(0.996264)"/>
      <use xlink:href="#NimbusSanL-Regu-46" transform="translate(182.713339 0) scale(0.996264)"/>
     </g>
    </g>
   </g>
  </g>
 </g>
 <defs>
  <clipPath id="p1208505806">
   <rect x="68.957399" y="15.12" width="491.922601" height="309.163454"/>
  </clipPath>
 </defs>
</svg>
