<?xml version="1.0" encoding="utf-8" standalone="no"?>
<!DOCTYPE svg PUBLIC "-//W3C//DTD SVG 1.1//EN"
  "http://www.w3.org/Graphics/SVG/1.1/DTD/svg11.dtd">
<svg xmlns:xlink="http://www.w3.org/1999/xlink" width="576pt" height="360pt" viewBox="0 0 576 360" xmlns="http://www.w3.org/2000/svg" version="1.1">
 <metadata>
  <rdf:RDF xmlns:dc="http://purl.org/dc/elements/1.1/" xmlns:cc="http://creativecommons.org/ns#" xmlns:rdf="http://www.w3.org/1999/02/22-rdf-syntax-ns#">
   <cc:Work>
    <dc:type rdf:resource="http://purl.org/dc/dcmitype/StillImage"/>
    <dc:date>2026-03-24T05:05:22.309146</dc:date>
    <dc:format>image/svg+xml</dc:format>
    <dc:creator>
     <cc:Agent>
      <dc:title>Matplotlib v3.10.8, https://matplotlib.org/</dc:title>
     </cc:Agent>
    </dc:creator>
   </cc:Work>
  </rdf:RDF>
 </metadata>
 <defs>
  <style type="text/css">*{stroke-linejoin: round; stroke-linecap: butt}</style>
 </defs>
 <g id="figure_1">
  <g id="patch_1">
   <path d="M 0 360 
L 576 360 
L 576 0 
L 0 0 
z
" style="fill: #ffffff"/>
  </g>
  <g id="axes_1">
   <g id="patch_2">
    <path d="M 90.498692 246.187372 
L 560.88 246.187372 
L 560.88 15.12 
L 90.498692 15.12 
z
" style="fill: #ffffff"/>
   </g>
   <g id="line2d_1">
    <path d="M 137.536823 250.808719 
L 137.536823 15.12 
" style="fill: none; stroke: #000000; stroke-width: 0.5; stroke-linecap: square"/>
   </g>
   <g id="line2d_2">
    <path d="M 184.574954 250.808719 
L 184.574954 15.12 
" style="fill: none; stroke: #000000; stroke-width: 0.5; stroke-linecap: square"/>
   </g>
   <g id="line2d_3">
    <path d="M 231.613084 250.808719 
L 231.613084 15.12 
" style="fill: none; stroke: #000000; stroke-width: 0.5; stroke-linecap: square"/>
   </g>
   <g id="line2d_4">
    <path d="M 278.651215 250.808719 
L 278.651215 15.12 
" style="fill: none; stroke: #000000; stroke-width: 0.5; stroke-linecap: square"/>
   </g>
   <g id="line2d_5">
    <path d="M 325.689346 250.808719 
L 325.689346 15.12 
" style="fill: none; stroke: #000000; stroke-width: 0.5; stroke-linecap: square"/>
   </g>
   <g id="line2d_6">
    <path d="M 372.727477 250.808719 
L 372.727477 15.12 
" style="fill: none; stroke: #000000; stroke-width: 0.5; stroke-linecap: square"/>
   </g>
   <g id="line2d_7">
    <path d="M 419.765608 250.808719 
L 419.765608 15.12 
" style="fill: none; stroke: #000000; stroke-width: 0.5; stroke-linecap: square"/>
   </g>
   <g id="line2d_8">
    <path d="M 466.803738 250.808719 
L 466.803738 15.12 
" style="fill: none; stroke: #000000; stroke-width: 0.5; stroke-linecap: square"/>
   </g>
   <g id="line2d_9">
    <path d="M 513.841869 250.808719 
L 513.841869 15.12 
" style="fill: none; stroke: #000000; stroke-width: 0.5; stroke-linecap: square"/>
   </g>
   <g id="patch_3">
    <path d="M 90.498692 246.187372 
L 90.498692 15.12 
" style="fill: none; stroke: #000000; stroke-linejoin: miter; stroke-linecap: square"/>
   </g>
   <g id="patch_4">
    <path d="M 560.88 246.187372 
L 560.88 15.12 
" style="fill: none; stroke: #000000; stroke-linejoin: miter; stroke-linecap: square"/>
   </g>
   <g id="patch_5">
    <path d="M 90.498692 246.187372 
L 560.88 246.187372 
" style="fill: none; stroke: #000000; stroke-linejoin: miter; stroke-linecap: square"/>
   </g>
   <g id="patch_6">
    <path d="M 90.498692 15.12 
L 560.88 15.12 
" style="fill: none; stroke: #000000; stroke-linejoin: miter; stroke-linecap: square"/>
   </g>
   <g id="matplotlib.axis_1">
    <g id="xtick_1">
     <g id="line2d_10"/>
     <g id="line2d_11"/>
     <g id="text_1">
      <!-- Hermitux uHyve -->
      <g transform="translate(24.531948 341.95404) rotate(-40) scale(0.18 -0.18)">
       <defs>
        <path id="NimbusSanL-Regu-48" d="M 3526 2112 
L 3526 -2 
L 4122 -2 
L 4122 4672 
L 3526 4672 
L 3526 2638 
L 1126 2638 
L 1126 4672 
L 531 4672 
L 531 -2 
L 1133 -2 
L 1133 2112 
L 3526 2112 
z
" transform="scale(0.015625)"/>
        <path id="NimbusSanL-Regu-65" d="M 3283 1529 
C 3283 2034 3245 2338 3149 2584 
C 2931 3127 2419 3456 1792 3456 
C 858 3456 256 2742 256 1645 
C 256 547 838 -128 1779 -128 
C 2547 -128 3078 310 3213 1044 
L 2675 1044 
C 2528 598 2227 365 1798 365 
C 1459 365 1171 520 992 805 
C 864 998 819 1193 813 1529 
L 3283 1529 
z
M 826 1984 
C 870 2577 1248 2962 1786 2962 
C 2310 2962 2714 2530 2714 1984 
C 2714 1984 2714 1984 2707 1984 
L 826 1984 
z
" transform="scale(0.015625)"/>
        <path id="NimbusSanL-Regu-72" d="M 442 3359 
L 442 0 
L 979 0 
L 979 1741 
C 979 2221 1101 2535 1357 2720 
C 1523 2842 1683 2880 2054 2880 
L 2054 3432 
C 1965 3444 1920 3444 1850 3444 
C 1504 3444 1242 3240 934 2746 
L 934 3359 
L 442 3359 
z
" transform="scale(0.015625)"/>
        <path id="NimbusSanL-Regu-6d" d="M 448 3359 
L 448 0 
L 986 0 
L 986 2109 
C 986 2597 1338 2988 1773 2988 
C 2170 2988 2394 2744 2394 2314 
L 2394 0 
L 2931 0 
L 2931 2109 
C 2931 2597 3283 2988 3718 2988 
C 4109 2988 4339 2738 4339 2314 
L 4339 0 
L 4877 0 
L 4877 2520 
C 4877 3122 4531 3456 3904 3456 
C 3456 3456 3187 3321 2874 2943 
C 2675 3302 2406 3456 1971 3456 
C 1523 3456 1229 3289 941 2885 
L 941 3359 
L 448 3359 
z
" transform="scale(0.015625)"/>
        <path id="NimbusSanL-Regu-69" d="M 960 3359 
L 429 3359 
L 429 0 
L 960 0 
L 960 3359 
z
M 960 4672 
L 422 4672 
L 422 3999 
L 960 3999 
L 960 4672 
z
" transform="scale(0.015625)"/>
        <path id="NimbusSanL-Regu-74" d="M 1626 3380 
L 1075 3380 
L 1075 4288 
L 544 4288 
L 544 3380 
L 90 3380 
L 90 2944 
L 544 2944 
L 544 404 
C 544 64 774 -128 1190 -128 
C 1318 -128 1446 -116 1626 -83 
L 1626 366 
C 1555 346 1472 340 1370 340 
C 1139 340 1075 404 1075 641 
L 1075 2944 
L 1626 2944 
L 1626 3380 
z
" transform="scale(0.015625)"/>
        <path id="NimbusSanL-Regu-75" d="M 3085 33 
L 3085 3392 
L 2554 3392 
L 2554 1479 
C 2554 790 2195 340 1638 340 
C 1216 340 947 597 947 1003 
L 947 3392 
L 416 3392 
L 416 792 
C 416 232 832 -128 1485 -128 
C 1978 -128 2291 45 2605 488 
L 2605 33 
L 3085 33 
z
" transform="scale(0.015625)"/>
        <path id="NimbusSanL-Regu-78" d="M 1869 1737 
L 2995 3359 
L 2394 3359 
L 1587 2141 
L 781 3359 
L 173 3359 
L 1293 1712 
L 109 0 
L 717 0 
L 1568 1288 
L 2406 0 
L 3027 0 
L 1869 1737 
z
" transform="scale(0.015625)"/>
        <path id="NimbusSanL-Regu-79" d="M 2483 3360 
L 1555 738 
L 698 3360 
L 128 3360 
L 1261 -21 
L 1056 -554 
C 973 -792 851 -882 627 -882 
C 550 -882 461 -869 346 -843 
L 346 -1325 
C 454 -1382 563 -1408 704 -1408 
C 877 -1408 1062 -1350 1203 -1247 
C 1370 -1125 1466 -983 1568 -713 
L 3059 3360 
L 2483 3360 
z
" transform="scale(0.015625)"/>
        <path id="NimbusSanL-Regu-76" d="M 1824 0 
L 3110 3360 
L 2509 3360 
L 1562 635 
L 666 3360 
L 64 3360 
L 1242 0 
L 1824 0 
z
" transform="scale(0.015625)"/>
       </defs>
       <use xlink:href="#NimbusSanL-Regu-48" transform="scale(0.996264)"/>
       <use xlink:href="#NimbusSanL-Regu-65" transform="translate(71.929985 0) scale(0.996264)"/>
       <use xlink:href="#NimbusSanL-Regu-72" transform="translate(127.321662 0) scale(0.996264)"/>
       <use xlink:href="#NimbusSanL-Regu-6d" transform="translate(162.987506 0) scale(0.996264)"/>
       <use xlink:href="#NimbusSanL-Regu-69" transform="translate(245.975936 0) scale(0.996264)"/>
       <use xlink:href="#NimbusSanL-Regu-74" transform="translate(268.092721 0) scale(0.996264)"/>
       <use xlink:href="#NimbusSanL-Regu-75" transform="translate(295.78789 0) scale(0.996264)"/>
       <use xlink:href="#NimbusSanL-Regu-78" transform="translate(351.179567 0) scale(0.996264)"/>
       <use xlink:href="#NimbusSanL-Regu-75" transform="translate(428.687937 0) scale(0.996264)"/>
       <use xlink:href="#NimbusSanL-Regu-48" transform="translate(484.079614 0) scale(0.996264)"/>
       <use xlink:href="#NimbusSanL-Regu-79" transform="translate(556.009599 0) scale(0.996264)"/>
       <use xlink:href="#NimbusSanL-Regu-76" transform="translate(605.8228 0) scale(0.996264)"/>
       <use xlink:href="#NimbusSanL-Regu-65" transform="translate(653.14537 0) scale(0.996264)"/>
      </g>
     </g>
    </g>
    <g id="xtick_2">
     <g id="line2d_12"/>
     <g id="line2d_13"/>
     <g id="text_2">
      <!-- Linux FC -->
      <g transform="translate(114.443756 305.978753) rotate(-40) scale(0.18 -0.18)">
       <defs>
        <path id="NimbusSanL-Regu-4c" d="M 1107 4672 
L 512 4672 
L 512 0 
L 3411 0 
L 3411 526 
L 1107 526 
L 1107 4672 
z
" transform="scale(0.015625)"/>
        <path id="NimbusSanL-Regu-6e" d="M 448 3359 
L 448 0 
L 986 0 
L 986 1853 
C 986 2539 1344 2988 1894 2988 
C 2317 2988 2586 2731 2586 2327 
L 2586 0 
L 3117 0 
L 3117 2539 
C 3117 3097 2701 3456 2054 3456 
C 1555 3456 1235 3263 941 2796 
L 941 3359 
L 448 3359 
z
" transform="scale(0.015625)"/>
        <path id="NimbusSanL-Regu-46" d="M 1171 2112 
L 3398 2112 
L 3398 2638 
L 1171 2638 
L 1171 4146 
L 3706 4146 
L 3706 4672 
L 576 4672 
L 576 -14 
L 1171 -14 
L 1171 2112 
z
" transform="scale(0.015625)"/>
        <path id="NimbusSanL-Regu-43" d="M 4237 3229 
C 4051 4252 3462 4750 2438 4750 
C 1811 4750 1306 4552 960 4168 
C 538 3709 307 3045 307 2291 
C 307 1525 544 868 986 414 
C 1344 44 1805 -128 2413 -128 
C 3552 -128 4192 485 4333 1717 
L 3718 1717 
C 3667 1399 3603 1182 3507 997 
C 3315 614 2918 397 2419 397 
C 1491 397 902 1137 902 2298 
C 902 3491 1466 4224 2368 4224 
C 2746 4224 3098 4110 3290 3930 
C 3462 3771 3558 3573 3629 3229 
L 4237 3229 
z
" transform="scale(0.015625)"/>
       </defs>
       <use xlink:href="#NimbusSanL-Regu-4c" transform="scale(0.996264)"/>
       <use xlink:href="#NimbusSanL-Regu-69" transform="translate(55.391677 0) scale(0.996264)"/>
       <use xlink:href="#NimbusSanL-Regu-6e" transform="translate(77.508461 0) scale(0.996264)"/>
       <use xlink:href="#NimbusSanL-Regu-75" transform="translate(131.904041 0) scale(0.996264)"/>
       <use xlink:href="#NimbusSanL-Regu-78" transform="translate(187.295718 0) scale(0.996264)"/>
       <use xlink:href="#NimbusSanL-Regu-46" transform="translate(264.804089 0) scale(0.996264)"/>
       <use xlink:href="#NimbusSanL-Regu-43" transform="translate(325.675719 0) scale(0.996264)"/>
      </g>
     </g>
    </g>
    <g id="xtick_3">
     <g id="line2d_14"/>
     <g id="line2d_15"/>
     <g id="text_3">
      <!-- Lupine FC -->
      <g transform="translate(153.150795 313.402575) rotate(-40) scale(0.18 -0.18)">
       <defs>
        <path id="NimbusSanL-Regu-70" d="M 346 -1408 
L 883 -1408 
L 883 320 
C 1165 -27 1478 -180 1914 -180 
C 2778 -180 3347 522 3347 1599 
C 3347 2734 2797 3444 1907 3444 
C 1453 3444 1088 3238 838 2841 
L 838 3349 
L 346 3349 
L 346 -1408 
z
M 1818 2944 
C 2406 2944 2790 2420 2790 1612 
C 2790 843 2400 320 1818 320 
C 1254 320 883 837 883 1632 
C 883 2427 1254 2944 1818 2944 
z
" transform="scale(0.015625)"/>
       </defs>
       <use xlink:href="#NimbusSanL-Regu-4c" transform="scale(0.996264)"/>
       <use xlink:href="#NimbusSanL-Regu-75" transform="translate(55.391677 0) scale(0.996264)"/>
       <use xlink:href="#NimbusSanL-Regu-70" transform="translate(110.783354 0) scale(0.996264)"/>
       <use xlink:href="#NimbusSanL-Regu-69" transform="translate(166.175031 0) scale(0.996264)"/>
       <use xlink:href="#NimbusSanL-Regu-6e" transform="translate(188.291815 0) scale(0.996264)"/>
       <use xlink:href="#NimbusSanL-Regu-65" transform="translate(243.683492 0) scale(0.996264)"/>
       <use xlink:href="#NimbusSanL-Regu-46" transform="translate(326.770339 0) scale(0.996264)"/>
       <use xlink:href="#NimbusSanL-Regu-43" transform="translate(387.641969 0) scale(0.996264)"/>
      </g>
     </g>
    </g>
    <g id="xtick_4">
     <g id="line2d_16"/>
     <g id="line2d_17"/>
     <g id="text_4">
      <!-- Rump KVM -->
      <g transform="translate(193.120712 318.900304) rotate(-40) scale(0.18 -0.18)">
       <defs>
        <path id="NimbusSanL-Regu-52" d="M 1190 2034 
L 2726 2034 
C 3258 2034 3494 1774 3494 1187 
L 3488 762 
C 3488 468 3539 181 3622 -14 
L 4346 -14 
L 4346 136 
C 4122 292 4077 462 4064 1093 
C 4058 1873 3936 2108 3430 2329 
C 3955 2583 4166 2906 4166 3434 
C 4166 4233 3661 4672 2746 4672 
L 595 4672 
L 595 -14 
L 1190 -14 
L 1190 2034 
z
M 1190 2560 
L 1190 4146 
L 2630 4146 
C 2963 4146 3155 4096 3302 3969 
C 3462 3836 3546 3628 3546 3350 
C 3546 2806 3264 2560 2630 2560 
L 1190 2560 
z
" transform="scale(0.015625)"/>
        <path id="NimbusSanL-Regu-4b" d="M 1101 1633 
L 1862 2396 
L 3507 -2 
L 4211 -2 
L 2291 2768 
L 4192 4672 
L 3424 4672 
L 1101 2306 
L 1101 4672 
L 506 4672 
L 506 -2 
L 1101 -2 
L 1101 1633 
z
" transform="scale(0.015625)"/>
        <path id="NimbusSanL-Regu-56" d="M 2509 0 
L 4128 4672 
L 3494 4672 
L 2202 718 
L 832 4672 
L 192 4672 
L 1869 0 
L 2509 0 
z
" transform="scale(0.015625)"/>
        <path id="NimbusSanL-Regu-4d" d="M 2995 -2 
L 4307 3915 
L 4307 -2 
L 4870 -2 
L 4870 4672 
L 4045 4672 
L 2688 601 
L 1306 4672 
L 480 4672 
L 480 -2 
L 1043 -2 
L 1043 3915 
L 2368 -2 
L 2995 -2 
z
" transform="scale(0.015625)"/>
       </defs>
       <use xlink:href="#NimbusSanL-Regu-52" transform="scale(0.996264)"/>
       <use xlink:href="#NimbusSanL-Regu-75" transform="translate(71.929985 0) scale(0.996264)"/>
       <use xlink:href="#NimbusSanL-Regu-6d" transform="translate(127.321662 0) scale(0.996264)"/>
       <use xlink:href="#NimbusSanL-Regu-70" transform="translate(210.310092 0) scale(0.996264)"/>
       <use xlink:href="#NimbusSanL-Regu-4b" transform="translate(293.396939 0) scale(0.996264)"/>
       <use xlink:href="#NimbusSanL-Regu-56" transform="translate(359.84697 0) scale(0.996264)"/>
       <use xlink:href="#NimbusSanL-Regu-4d" transform="translate(426.297001 0) scale(0.996264)"/>
      </g>
     </g>
    </g>
    <g id="xtick_5">
     <g id="line2d_18"/>
     <g id="line2d_19"/>
     <g id="text_5">
      <!-- Linux KVM -->
      <g transform="translate(244.101456 315.592059) rotate(-40) scale(0.18 -0.18)">
       <use xlink:href="#NimbusSanL-Regu-4c" transform="scale(0.996264)"/>
       <use xlink:href="#NimbusSanL-Regu-69" transform="translate(55.391677 0) scale(0.996264)"/>
       <use xlink:href="#NimbusSanL-Regu-6e" transform="translate(77.508461 0) scale(0.996264)"/>
       <use xlink:href="#NimbusSanL-Regu-75" transform="translate(131.904041 0) scale(0.996264)"/>
       <use xlink:href="#NimbusSanL-Regu-78" transform="translate(187.295718 0) scale(0.996264)"/>
       <use xlink:href="#NimbusSanL-Regu-4b" transform="translate(264.804089 0) scale(0.996264)"/>
       <use xlink:href="#NimbusSanL-Regu-56" transform="translate(331.25412 0) scale(0.996264)"/>
       <use xlink:href="#NimbusSanL-Regu-4d" transform="translate(397.704151 0) scale(0.996264)"/>
      </g>
     </g>
    </g>
    <g id="xtick_6">
     <g id="line2d_20"/>
     <g id="line2d_21"/>
     <g id="text_6">
      <!-- Lupine KVM -->
      <g transform="translate(282.595182 322.761666) rotate(-40) scale(0.18 -0.18)">
       <use xlink:href="#NimbusSanL-Regu-4c" transform="scale(0.996264)"/>
       <use xlink:href="#NimbusSanL-Regu-75" transform="translate(55.391677 0) scale(0.996264)"/>
       <use xlink:href="#NimbusSanL-Regu-70" transform="translate(110.783354 0) scale(0.996264)"/>
       <use xlink:href="#NimbusSanL-Regu-69" transform="translate(166.175031 0) scale(0.996264)"/>
       <use xlink:href="#NimbusSanL-Regu-6e" transform="translate(188.291815 0) scale(0.996264)"/>
       <use xlink:href="#NimbusSanL-Regu-65" transform="translate(243.683492 0) scale(0.996264)"/>
       <use xlink:href="#NimbusSanL-Regu-4b" transform="translate(326.770339 0) scale(0.996264)"/>
       <use xlink:href="#NimbusSanL-Regu-56" transform="translate(393.22037 0) scale(0.996264)"/>
       <use xlink:href="#NimbusSanL-Regu-4d" transform="translate(459.670401 0) scale(0.996264)"/>
      </g>
     </g>
    </g>
    <g id="xtick_7">
     <g id="line2d_22"/>
     <g id="line2d_23"/>
     <g id="text_7">
      <!-- Docker Native -->
      <g transform="translate(319.096606 331.603013) rotate(-40) scale(0.18 -0.18)">
       <defs>
        <path id="NimbusSanL-Regu-44" d="M 570 0 
L 2368 0 
C 3546 0 4269 885 4269 2339 
C 4269 3787 3552 4672 2368 4672 
L 570 4672 
L 570 0 
z
M 1165 526 
L 1165 4146 
L 2266 4146 
C 3187 4146 3674 3524 3674 2333 
C 3674 1154 3187 526 2266 526 
L 1165 526 
z
" transform="scale(0.015625)"/>
        <path id="NimbusSanL-Regu-6f" d="M 1741 3456 
C 800 3456 230 2786 230 1663 
C 230 541 794 -128 1747 -128 
C 2688 -128 3264 541 3264 1638 
C 3264 2792 2707 3456 1741 3456 
z
M 1747 2962 
C 2349 2962 2707 2472 2707 1645 
C 2707 861 2336 365 1747 365 
C 1152 365 787 855 787 1663 
C 787 2466 1152 2962 1747 2962 
z
" transform="scale(0.015625)"/>
        <path id="NimbusSanL-Regu-63" d="M 3014 2236 
C 2989 2562 2918 2773 2790 2958 
C 2560 3271 2157 3456 1690 3456 
C 787 3456 198 2742 198 1632 
C 198 554 774 -128 1683 -128 
C 2483 -128 2989 350 3053 1167 
L 2515 1167 
C 2426 632 2150 365 1696 365 
C 1107 365 755 843 755 1632 
C 755 2466 1101 2962 1683 2962 
C 2131 2962 2413 2701 2477 2236 
L 3014 2236 
z
" transform="scale(0.015625)"/>
        <path id="NimbusSanL-Regu-6b" d="M 902 4672 
L 371 4672 
L 371 -2 
L 902 -2 
L 902 1306 
L 1421 1819 
L 2554 -2 
L 3213 -2 
L 1843 2197 
L 3008 3357 
L 2323 3357 
L 902 1934 
L 902 4672 
z
" transform="scale(0.015625)"/>
        <path id="NimbusSanL-Regu-4e" d="M 4134 4672 
L 3571 4672 
L 3571 851 
L 1133 4672 
L 486 4672 
L 486 -2 
L 1050 -2 
L 1050 3787 
L 3462 -2 
L 4134 -2 
L 4134 4672 
z
" transform="scale(0.015625)"/>
        <path id="NimbusSanL-Regu-61" d="M 3424 333 
C 3366 320 3341 320 3309 320 
C 3123 320 3021 415 3021 581 
L 3021 2545 
C 3021 3137 2586 3456 1760 3456 
C 1274 3456 870 3316 646 3066 
C 493 2893 429 2702 416 2370 
L 954 2370 
C 998 2777 1242 2962 1741 2962 
C 2221 2962 2490 2783 2490 2465 
L 2490 2325 
C 2490 2101 2355 2006 1933 1955 
C 1178 1860 1062 1834 858 1751 
C 467 1592 269 1292 269 859 
C 269 254 691 -128 1370 -128 
C 1792 -128 2131 19 2509 365 
C 2547 25 2714 -128 3059 -128 
C 3168 -128 3251 -116 3424 -70 
L 3424 333 
z
M 2490 1072 
C 2490 893 2438 785 2278 639 
C 2061 441 1798 340 1485 340 
C 1069 340 826 537 826 874 
C 826 1225 1062 1403 1632 1486 
C 2195 1562 2310 1588 2490 1670 
L 2490 1072 
z
" transform="scale(0.015625)"/>
       </defs>
       <use xlink:href="#NimbusSanL-Regu-44" transform="scale(0.996264)"/>
       <use xlink:href="#NimbusSanL-Regu-6f" transform="translate(71.929985 0) scale(0.996264)"/>
       <use xlink:href="#NimbusSanL-Regu-63" transform="translate(127.321662 0) scale(0.996264)"/>
       <use xlink:href="#NimbusSanL-Regu-6b" transform="translate(175.142851 0) scale(0.996264)"/>
       <use xlink:href="#NimbusSanL-Regu-65" transform="translate(222.96404 0) scale(0.996264)"/>
       <use xlink:href="#NimbusSanL-Regu-72" transform="translate(278.355717 0) scale(0.996264)"/>
       <use xlink:href="#NimbusSanL-Regu-4e" transform="translate(339.226117 0) scale(0.996264)"/>
       <use xlink:href="#NimbusSanL-Regu-61" transform="translate(411.156102 0) scale(0.996264)"/>
       <use xlink:href="#NimbusSanL-Regu-74" transform="translate(466.547779 0) scale(0.996264)"/>
       <use xlink:href="#NimbusSanL-Regu-69" transform="translate(494.242948 0) scale(0.996264)"/>
       <use xlink:href="#NimbusSanL-Regu-76" transform="translate(516.359733 0) scale(0.996264)"/>
       <use xlink:href="#NimbusSanL-Regu-65" transform="translate(563.682303 0) scale(0.996264)"/>
      </g>
     </g>
    </g>
    <g id="xtick_8">
     <g id="line2d_24"/>
     <g id="line2d_25"/>
     <g id="text_8">
      <!-- OSv KVM -->
      <g transform="translate(391.191534 310.577864) rotate(-40) scale(0.18 -0.18)">
       <defs>
        <path id="NimbusSanL-Regu-4f" d="M 2490 4750 
C 1152 4750 243 3766 243 2311 
C 243 855 1152 -128 2496 -128 
C 3059 -128 3565 44 3942 363 
C 4448 791 4749 1512 4749 2272 
C 4749 3773 3859 4750 2490 4750 
z
M 2490 4224 
C 3501 4224 4154 3459 4154 2285 
C 4154 1163 3482 397 2496 397 
C 1504 397 838 1163 838 2311 
C 838 3459 1504 4224 2490 4224 
z
" transform="scale(0.015625)"/>
        <path id="NimbusSanL-Regu-53" d="M 3814 3335 
C 3808 4255 3181 4788 2106 4788 
C 1082 4788 448 4260 448 3410 
C 448 2837 749 2477 1363 2316 
L 2522 2007 
C 3110 1852 3379 1614 3379 1247 
C 3379 995 3245 738 3046 597 
C 2861 468 2566 397 2189 397 
C 1683 397 1338 520 1114 790 
C 941 996 864 1222 870 1511 
L 307 1511 
C 314 1081 397 798 582 540 
C 902 103 1440 -128 2150 -128 
C 2707 -128 3162 1 3462 232 
C 3776 483 3974 901 3974 1307 
C 3974 1886 3616 2311 2982 2485 
L 1811 2801 
C 1248 2955 1043 3135 1043 3496 
C 1043 3972 1459 4288 2086 4288 
C 2829 4288 3245 3947 3251 3335 
L 3814 3335 
z
" transform="scale(0.015625)"/>
       </defs>
       <use xlink:href="#NimbusSanL-Regu-4f" transform="scale(0.996264)"/>
       <use xlink:href="#NimbusSanL-Regu-53" transform="translate(77.50837 0) scale(0.996264)"/>
       <use xlink:href="#NimbusSanL-Regu-76" transform="translate(143.958401 0) scale(0.996264)"/>
       <use xlink:href="#NimbusSanL-Regu-4b" transform="translate(221.466771 0) scale(0.996264)"/>
       <use xlink:href="#NimbusSanL-Regu-56" transform="translate(287.916802 0) scale(0.996264)"/>
       <use xlink:href="#NimbusSanL-Regu-4d" transform="translate(354.366834 0) scale(0.996264)"/>
      </g>
     </g>
    </g>
    <g id="xtick_9">
     <g id="line2d_26"/>
     <g id="line2d_27"/>
     <g id="text_9">
      <!-- Linux Native -->
      <g transform="translate(423.43477 322.992254) rotate(-40) scale(0.18 -0.18)">
       <use xlink:href="#NimbusSanL-Regu-4c" transform="scale(0.996264)"/>
       <use xlink:href="#NimbusSanL-Regu-69" transform="translate(55.391677 0) scale(0.996264)"/>
       <use xlink:href="#NimbusSanL-Regu-6e" transform="translate(77.508461 0) scale(0.996264)"/>
       <use xlink:href="#NimbusSanL-Regu-75" transform="translate(131.904041 0) scale(0.996264)"/>
       <use xlink:href="#NimbusSanL-Regu-78" transform="translate(187.295718 0) scale(0.996264)"/>
       <use xlink:href="#NimbusSanL-Regu-4e" transform="translate(264.804089 0) scale(0.996264)"/>
       <use xlink:href="#NimbusSanL-Regu-61" transform="translate(336.734073 0) scale(0.996264)"/>
       <use xlink:href="#NimbusSanL-Regu-74" transform="translate(392.12575 0) scale(0.996264)"/>
       <use xlink:href="#NimbusSanL-Regu-69" transform="translate(419.82092 0) scale(0.996264)"/>
       <use xlink:href="#NimbusSanL-Regu-76" transform="translate(441.937704 0) scale(0.996264)"/>
       <use xlink:href="#NimbusSanL-Regu-65" transform="translate(489.260275 0) scale(0.996264)"/>
      </g>
     </g>
    </g>
    <g id="xtick_10">
     <g id="line2d_28"/>
     <g id="line2d_29"/>
     <g id="text_10">
      <!-- Unikraft KVM -->
      <g transform="translate(464.799573 327.752742) rotate(-40) scale(0.18 -0.18)">
       <defs>
        <path id="NimbusSanL-Regu-55" d="M 3533 4672 
L 3533 1395 
C 3533 768 3078 384 2330 384 
C 1984 384 1702 468 1478 628 
C 1248 806 1139 1044 1139 1395 
L 1139 4672 
L 544 4672 
L 544 1394 
C 544 447 1222 -141 2330 -141 
C 3424 -141 4128 460 4128 1394 
L 4128 4672 
L 3533 4672 
z
" transform="scale(0.015625)"/>
        <path id="NimbusSanL-Regu-66" d="M 1651 3328 
L 1094 3328 
L 1094 3856 
C 1094 4082 1222 4198 1466 4198 
C 1510 4198 1530 4198 1651 4198 
L 1651 4640 
C 1530 4666 1459 4672 1350 4672 
C 858 4672 563 4388 563 3903 
L 563 3328 
L 115 3328 
L 115 2892 
L 563 2892 
L 563 -26 
L 1094 -26 
L 1094 2892 
L 1651 2892 
L 1651 3328 
z
" transform="scale(0.015625)"/>
       </defs>
       <use xlink:href="#NimbusSanL-Regu-55" transform="scale(0.996264)"/>
       <use xlink:href="#NimbusSanL-Regu-6e" transform="translate(71.929985 0) scale(0.996264)"/>
       <use xlink:href="#NimbusSanL-Regu-69" transform="translate(127.321662 0) scale(0.996264)"/>
       <use xlink:href="#NimbusSanL-Regu-6b" transform="translate(149.438446 0) scale(0.996264)"/>
       <use xlink:href="#NimbusSanL-Regu-72" transform="translate(199.251647 0) scale(0.996264)"/>
       <use xlink:href="#NimbusSanL-Regu-61" transform="translate(231.43078 0) scale(0.996264)"/>
       <use xlink:href="#NimbusSanL-Regu-66" transform="translate(286.822457 0) scale(0.996264)"/>
       <use xlink:href="#NimbusSanL-Regu-74" transform="translate(314.517626 0) scale(0.996264)"/>
       <use xlink:href="#NimbusSanL-Regu-4b" transform="translate(369.907965 0) scale(0.996264)"/>
       <use xlink:href="#NimbusSanL-Regu-56" transform="translate(436.357997 0) scale(0.996264)"/>
       <use xlink:href="#NimbusSanL-Regu-4d" transform="translate(502.808028 0) scale(0.996264)"/>
      </g>
     </g>
    </g>
   </g>
   <g id="matplotlib.axis_2">
    <g id="ytick_1">
     <g id="line2d_30">
      <path d="M 90.498692 246.187372 
L 560.88 246.187372 
" clip-path="url(#pcbed49e995)" style="fill: none; stroke-dasharray: 1,3; stroke-dashoffset: 0; stroke: #000000; stroke-opacity: 0.5; stroke-width: 0.5"/>
     </g>
     <g id="line2d_31"/>
     <g id="line2d_32"/>
     <g id="text_11">
      <!-- 0.0 -->
      <g transform="translate(67.111722 249.670807) scale(0.14 -0.14)">
       <defs>
        <path id="NimbusSanL-Regu-30" d="M 1760 4544 
C 1338 4544 954 4360 717 4046 
C 422 3651 275 3044 275 2208 
C 275 683 787 -128 1760 -128 
C 2720 -128 3245 683 3245 2170 
C 3245 3050 3104 3638 2803 4046 
C 2566 4366 2189 4544 1760 4544 
z
M 1760 4044 
C 2368 4044 2669 3432 2669 2221 
C 2669 939 2374 340 1747 340 
C 1152 340 851 965 851 2202 
C 851 3438 1152 4044 1760 4044 
z
" transform="scale(0.015625)"/>
        <path id="NimbusSanL-Regu-2e" d="M 1222 667 
L 557 667 
L 557 0 
L 1222 0 
L 1222 667 
z
" transform="scale(0.015625)"/>
       </defs>
       <use xlink:href="#NimbusSanL-Regu-30" transform="scale(0.996264)"/>
       <use xlink:href="#NimbusSanL-Regu-2e" transform="translate(55.391677 0) scale(0.996264)"/>
       <use xlink:href="#NimbusSanL-Regu-30" transform="translate(83.086847 0) scale(0.996264)"/>
      </g>
     </g>
    </g>
    <g id="ytick_2">
     <g id="line2d_33">
      <path d="M 90.498692 213.177747 
L 560.88 213.177747 
" clip-path="url(#pcbed49e995)" style="fill: none; stroke-dasharray: 1,3; stroke-dashoffset: 0; stroke: #000000; stroke-opacity: 0.5; stroke-width: 0.5"/>
     </g>
     <g id="line2d_34"/>
     <g id="line2d_35"/>
     <g id="text_12">
      <!-- 0.5 -->
      <g transform="translate(67.111722 216.661183) scale(0.14 -0.14)">
       <defs>
        <path id="NimbusSanL-Regu-35" d="M 3046 4544 
L 704 4544 
L 365 2086 
L 883 2086 
C 1146 2399 1363 2508 1715 2508 
C 2323 2508 2707 2092 2707 1421 
C 2707 768 2330 372 1715 372 
C 1222 372 922 621 787 1133 
L 224 1133 
C 301 762 365 582 499 415 
C 755 70 1216 -128 1728 -128 
C 2643 -128 3283 537 3283 1497 
C 3283 2394 2688 3008 1818 3008 
C 1498 3008 1242 2925 979 2732 
L 1158 3987 
L 3046 3987 
L 3046 4544 
z
" transform="scale(0.015625)"/>
       </defs>
       <use xlink:href="#NimbusSanL-Regu-30" transform="scale(0.996264)"/>
       <use xlink:href="#NimbusSanL-Regu-2e" transform="translate(55.391677 0) scale(0.996264)"/>
       <use xlink:href="#NimbusSanL-Regu-35" transform="translate(83.086847 0) scale(0.996264)"/>
      </g>
     </g>
    </g>
    <g id="ytick_3">
     <g id="line2d_36">
      <path d="M 90.498692 180.168123 
L 560.88 180.168123 
" clip-path="url(#pcbed49e995)" style="fill: none; stroke-dasharray: 1,3; stroke-dashoffset: 0; stroke: #000000; stroke-opacity: 0.5; stroke-width: 0.5"/>
     </g>
     <g id="line2d_37"/>
     <g id="line2d_38"/>
     <g id="text_13">
      <!-- 1.0 -->
      <g transform="translate(67.111722 183.651558) scale(0.14 -0.14)">
       <defs>
        <path id="NimbusSanL-Regu-31" d="M 1658 3238 
L 1658 0 
L 2221 0 
L 2221 4545 
L 1850 4545 
C 1651 3847 1523 3751 653 3642 
L 653 3238 
L 1658 3238 
z
" transform="scale(0.015625)"/>
       </defs>
       <use xlink:href="#NimbusSanL-Regu-31" transform="scale(0.996264)"/>
       <use xlink:href="#NimbusSanL-Regu-2e" transform="translate(55.391677 0) scale(0.996264)"/>
       <use xlink:href="#NimbusSanL-Regu-30" transform="translate(83.086847 0) scale(0.996264)"/>
      </g>
     </g>
    </g>
    <g id="ytick_4">
     <g id="line2d_39">
      <path d="M 90.498692 147.158498 
L 560.88 147.158498 
" clip-path="url(#pcbed49e995)" style="fill: none; stroke-dasharray: 1,3; stroke-dashoffset: 0; stroke: #000000; stroke-opacity: 0.5; stroke-width: 0.5"/>
     </g>
     <g id="line2d_40"/>
     <g id="line2d_41"/>
     <g id="text_14">
      <!-- 1.5 -->
      <g transform="translate(67.111722 150.641933) scale(0.14 -0.14)">
       <use xlink:href="#NimbusSanL-Regu-31" transform="scale(0.996264)"/>
       <use xlink:href="#NimbusSanL-Regu-2e" transform="translate(55.391677 0) scale(0.996264)"/>
       <use xlink:href="#NimbusSanL-Regu-35" transform="translate(83.086847 0) scale(0.996264)"/>
      </g>
     </g>
    </g>
    <g id="ytick_5">
     <g id="line2d_42">
      <path d="M 90.498692 114.148874 
L 560.88 114.148874 
" clip-path="url(#pcbed49e995)" style="fill: none; stroke-dasharray: 1,3; stroke-dashoffset: 0; stroke: #000000; stroke-opacity: 0.5; stroke-width: 0.5"/>
     </g>
     <g id="line2d_43"/>
     <g id="line2d_44"/>
     <g id="text_15">
      <!-- 2.0 -->
      <g transform="translate(67.111722 117.632309) scale(0.14 -0.14)">
       <defs>
        <path id="NimbusSanL-Regu-32" d="M 3238 558 
L 851 558 
C 909 930 1114 1167 1670 1494 
L 2310 1840 
C 2944 2186 3270 2653 3270 3211 
C 3270 3589 3117 3942 2848 4185 
C 2579 4429 2246 4544 1818 4544 
C 1242 4544 813 4339 563 3955 
C 403 3711 333 3429 320 2967 
L 883 2967 
C 902 3275 941 3461 1018 3608 
C 1165 3884 1459 4051 1798 4051 
C 2310 4051 2694 3685 2694 3198 
C 2694 2839 2483 2531 2080 2301 
L 1491 1968 
C 544 1430 269 1000 218 0 
L 3238 0 
L 3238 558 
z
" transform="scale(0.015625)"/>
       </defs>
       <use xlink:href="#NimbusSanL-Regu-32" transform="scale(0.996264)"/>
       <use xlink:href="#NimbusSanL-Regu-2e" transform="translate(55.391677 0) scale(0.996264)"/>
       <use xlink:href="#NimbusSanL-Regu-30" transform="translate(83.086847 0) scale(0.996264)"/>
      </g>
     </g>
    </g>
    <g id="ytick_6">
     <g id="line2d_45">
      <path d="M 90.498692 81.139249 
L 560.88 81.139249 
" clip-path="url(#pcbed49e995)" style="fill: none; stroke-dasharray: 1,3; stroke-dashoffset: 0; stroke: #000000; stroke-opacity: 0.5; stroke-width: 0.5"/>
     </g>
     <g id="line2d_46"/>
     <g id="line2d_47"/>
     <g id="text_16">
      <!-- 2.5 -->
      <g transform="translate(67.111722 84.622684) scale(0.14 -0.14)">
       <use xlink:href="#NimbusSanL-Regu-32" transform="scale(0.996264)"/>
       <use xlink:href="#NimbusSanL-Regu-2e" transform="translate(55.391677 0) scale(0.996264)"/>
       <use xlink:href="#NimbusSanL-Regu-35" transform="translate(83.086847 0) scale(0.996264)"/>
      </g>
     </g>
    </g>
    <g id="ytick_7">
     <g id="line2d_48">
      <path d="M 90.498692 48.129625 
L 560.88 48.129625 
" clip-path="url(#pcbed49e995)" style="fill: none; stroke-dasharray: 1,3; stroke-dashoffset: 0; stroke: #000000; stroke-opacity: 0.5; stroke-width: 0.5"/>
     </g>
     <g id="line2d_49"/>
     <g id="line2d_50"/>
     <g id="text_17">
      <!-- 3.0 -->
      <g transform="translate(67.111722 51.61306) scale(0.14 -0.14)">
       <defs>
        <path id="NimbusSanL-Regu-33" d="M 1414 2112 
L 1485 2112 
L 1722 2112 
C 2342 2112 2662 1830 2662 1284 
C 2662 712 2310 372 1722 372 
C 1107 372 806 681 768 1345 
L 205 1345 
C 230 978 294 740 403 534 
C 634 97 1082 -128 1702 -128 
C 2637 -128 3238 431 3238 1293 
C 3238 1872 3014 2194 2470 2381 
C 2893 2546 3104 2862 3104 3311 
C 3104 4082 2586 4544 1722 4544 
C 806 4544 320 4050 301 3095 
L 864 3095 
C 870 3366 896 3517 966 3655 
C 1094 3900 1376 4051 1728 4051 
C 2227 4051 2528 3760 2528 3287 
C 2528 2971 2413 2781 2163 2681 
C 2010 2618 1811 2592 1414 2592 
L 1414 2112 
z
" transform="scale(0.015625)"/>
       </defs>
       <use xlink:href="#NimbusSanL-Regu-33" transform="scale(0.996264)"/>
       <use xlink:href="#NimbusSanL-Regu-2e" transform="translate(55.391677 0) scale(0.996264)"/>
       <use xlink:href="#NimbusSanL-Regu-30" transform="translate(83.086847 0) scale(0.996264)"/>
      </g>
     </g>
    </g>
    <g id="text_18">
     <!-- Aver. Throughput (Million req/s) -->
     <g transform="translate(58.292153 255.777824) rotate(-90) scale(0.18 -0.18)">
      <defs>
       <path id="NimbusSanL-Regu-41" d="M 3034 1408 
L 3514 0 
L 4179 0 
L 2541 4672 
L 1773 4672 
L 109 0 
L 742 0 
L 1235 1408 
L 3034 1408 
z
M 2867 1908 
L 1382 1908 
L 2150 4032 
L 2867 1908 
z
" transform="scale(0.015625)"/>
       <path id="NimbusSanL-Regu-54" d="M 2266 4146 
L 3795 4146 
L 3795 4672 
L 134 4672 
L 134 4146 
L 1670 4146 
L 1670 -14 
L 2266 -14 
L 2266 4146 
z
" transform="scale(0.015625)"/>
       <path id="NimbusSanL-Regu-68" d="M 448 4672 
L 448 -2 
L 979 -2 
L 979 1852 
C 979 2539 1338 2988 1888 2988 
C 2061 2988 2234 2930 2362 2834 
C 2515 2725 2579 2564 2579 2327 
L 2579 -2 
L 3110 -2 
L 3110 2538 
C 3110 3103 2707 3456 2054 3456 
C 1581 3456 1293 3308 979 2898 
L 979 4672 
L 448 4672 
z
" transform="scale(0.015625)"/>
       <path id="NimbusSanL-Regu-67" d="M 2637 3341 
L 2637 2854 
C 2368 3252 2042 3438 1613 3438 
C 762 3438 186 2692 186 1600 
C 186 1048 333 598 608 276 
C 858 -7 1216 -173 1568 -173 
C 1990 -173 2285 6 2586 429 
L 2586 258 
C 2586 -192 2528 -465 2394 -649 
C 2253 -844 1978 -959 1651 -959 
C 1408 -959 1190 -896 1043 -783 
C 922 -688 870 -600 838 -406 
L 294 -406 
C 352 -1033 845 -1408 1632 -1408 
C 2131 -1408 2560 -1247 2778 -979 
C 3034 -671 3130 -249 3130 538 
L 3130 3341 
L 2637 3341 
z
M 1670 2944 
C 2246 2944 2586 2455 2586 1613 
C 2586 808 2240 320 1677 320 
C 1094 320 742 816 742 1632 
C 742 2442 1101 2944 1670 2944 
z
" transform="scale(0.015625)"/>
       <path id="NimbusSanL-Regu-28" d="M 1510 4672 
C 870 3830 467 2660 467 1651 
C 467 636 870 -534 1510 -1376 
L 1862 -1376 
C 1299 -457 986 623 986 1651 
C 986 2673 1299 3759 1862 4672 
L 1510 4672 
z
" transform="scale(0.015625)"/>
       <path id="NimbusSanL-Regu-6c" d="M 973 4672 
L 435 4672 
L 435 -2 
L 973 -2 
L 973 4672 
z
" transform="scale(0.015625)"/>
       <path id="NimbusSanL-Regu-71" d="M 3168 -1408 
L 3168 3349 
L 2694 3349 
L 2694 2899 
C 2445 3251 2067 3444 1626 3444 
C 742 3444 166 2715 166 1593 
C 166 497 717 -180 1600 -180 
C 2067 -180 2387 -14 2637 352 
L 2637 -1408 
L 3168 -1408 
z
M 1702 2944 
C 2272 2944 2637 2427 2637 1612 
C 2637 837 2266 320 1702 320 
C 1114 320 723 843 723 1632 
C 723 2414 1114 2944 1702 2944 
z
" transform="scale(0.015625)"/>
       <path id="NimbusSanL-Regu-2f" d="M 1466 4672 
L -51 -128 
L 301 -128 
L 1818 4672 
L 1466 4672 
z
" transform="scale(0.015625)"/>
       <path id="NimbusSanL-Regu-73" d="M 2803 2427 
C 2797 3085 2362 3456 1587 3456 
C 806 3456 301 3054 301 2436 
C 301 1913 570 1665 1363 1474 
L 1862 1353 
C 2234 1263 2381 1130 2381 888 
C 2381 576 2067 365 1600 365 
C 1312 365 1069 448 934 588 
C 851 684 813 779 781 1014 
L 218 1014 
C 243 241 678 -128 1555 -128 
C 2400 -128 2938 285 2938 929 
C 2938 1426 2656 1701 1990 1860 
L 1478 1981 
C 1043 2082 858 2223 858 2458 
C 858 2764 1133 2962 1568 2962 
C 1997 2962 2227 2777 2240 2427 
L 2803 2427 
z
" transform="scale(0.015625)"/>
       <path id="NimbusSanL-Regu-29" d="M 595 -1376 
C 1235 -534 1638 636 1638 1644 
C 1638 2660 1235 3830 595 4672 
L 243 4672 
C 806 3753 1120 2673 1120 1644 
C 1120 623 806 -464 243 -1376 
L 595 -1376 
z
" transform="scale(0.015625)"/>
      </defs>
      <use xlink:href="#NimbusSanL-Regu-41" transform="scale(0.996264)"/>
      <use xlink:href="#NimbusSanL-Regu-76" transform="translate(62.465918 0) scale(0.996264)"/>
      <use xlink:href="#NimbusSanL-Regu-65" transform="translate(109.788488 0) scale(0.996264)"/>
      <use xlink:href="#NimbusSanL-Regu-72" transform="translate(165.180165 0) scale(0.996264)"/>
      <use xlink:href="#NimbusSanL-Regu-2e" transform="translate(193.374045 0) scale(0.996264)"/>
      <use xlink:href="#NimbusSanL-Regu-54" transform="translate(255.338866 0) scale(0.996264)"/>
      <use xlink:href="#NimbusSanL-Regu-68" transform="translate(316.210497 0) scale(0.996264)"/>
      <use xlink:href="#NimbusSanL-Regu-72" transform="translate(371.602174 0) scale(0.996264)"/>
      <use xlink:href="#NimbusSanL-Regu-6f" transform="translate(404.777403 0) scale(0.996264)"/>
      <use xlink:href="#NimbusSanL-Regu-75" transform="translate(460.16908 0) scale(0.996264)"/>
      <use xlink:href="#NimbusSanL-Regu-67" transform="translate(515.560757 0) scale(0.996264)"/>
      <use xlink:href="#NimbusSanL-Regu-68" transform="translate(570.952434 0) scale(0.996264)"/>
      <use xlink:href="#NimbusSanL-Regu-70" transform="translate(626.344111 0) scale(0.996264)"/>
      <use xlink:href="#NimbusSanL-Regu-75" transform="translate(681.735788 0) scale(0.996264)"/>
      <use xlink:href="#NimbusSanL-Regu-74" transform="translate(737.127465 0) scale(0.996264)"/>
      <use xlink:href="#NimbusSanL-Regu-28" transform="translate(792.517804 0) scale(0.996264)"/>
      <use xlink:href="#NimbusSanL-Regu-4d" transform="translate(825.693034 0) scale(0.996264)"/>
      <use xlink:href="#NimbusSanL-Regu-69" transform="translate(908.681464 0) scale(0.996264)"/>
      <use xlink:href="#NimbusSanL-Regu-6c" transform="translate(930.798249 0) scale(0.996264)"/>
      <use xlink:href="#NimbusSanL-Regu-6c" transform="translate(952.915033 0) scale(0.996264)"/>
      <use xlink:href="#NimbusSanL-Regu-69" transform="translate(975.031817 0) scale(0.996264)"/>
      <use xlink:href="#NimbusSanL-Regu-6f" transform="translate(997.148602 0) scale(0.996264)"/>
      <use xlink:href="#NimbusSanL-Regu-6e" transform="translate(1052.540279 0) scale(0.996264)"/>
      <use xlink:href="#NimbusSanL-Regu-72" transform="translate(1135.627125 0) scale(0.996264)"/>
      <use xlink:href="#NimbusSanL-Regu-65" transform="translate(1168.802355 0) scale(0.996264)"/>
      <use xlink:href="#NimbusSanL-Regu-71" transform="translate(1224.194032 0) scale(0.996264)"/>
      <use xlink:href="#NimbusSanL-Regu-2f" transform="translate(1279.585709 0) scale(0.996264)"/>
      <use xlink:href="#NimbusSanL-Regu-73" transform="translate(1307.280878 0) scale(0.996264)"/>
      <use xlink:href="#NimbusSanL-Regu-29" transform="translate(1357.094079 0) scale(0.996264)"/>
     </g>
    </g>
   </g>
   <g id="patch_7">
    <path d="M 95.202505 246.187372 
L 114.017757 246.187372 
L 114.017757 221.627923 
L 95.202505 221.627923 
z
" clip-path="url(#pcbed49e995)" style="fill: #fff6f9; stroke: #000000; stroke-width: 0.5; stroke-linejoin: miter"/>
   </g>
   <g id="patch_8">
    <path d="M 114.017757 246.187372 
L 132.83301 246.187372 
L 132.83301 230.424366 
L 114.017757 230.424366 
z
" clip-path="url(#pcbed49e995)" style="fill: #5697c4; stroke: #000000; stroke-width: 0.5; stroke-linejoin: miter"/>
   </g>
   <g id="patch_9">
    <path d="M 142.240636 246.187372 
L 161.055888 246.187372 
L 161.055888 170.733949 
L 142.240636 170.733949 
z
" clip-path="url(#pcbed49e995)" style="fill: #fff6f9; stroke: #000000; stroke-width: 0.5; stroke-linejoin: miter"/>
   </g>
   <g id="patch_10">
    <path d="M 161.055888 246.187372 
L 179.87114 246.187372 
L 179.87114 176.42648 
L 161.055888 176.42648 
z
" clip-path="url(#pcbed49e995)" style="fill: #5697c4; stroke: #000000; stroke-width: 0.5; stroke-linejoin: miter"/>
   </g>
   <g id="patch_11">
    <path d="M 189.278767 246.187372 
L 208.094019 246.187372 
L 208.094019 163.118158 
L 189.278767 163.118158 
z
" clip-path="url(#pcbed49e995)" style="fill: #fff6f9; stroke: #000000; stroke-width: 0.5; stroke-linejoin: miter"/>
   </g>
   <g id="patch_12">
    <path d="M 208.094019 246.187372 
L 226.909271 246.187372 
L 226.909271 184.953912 
L 208.094019 184.953912 
z
" clip-path="url(#pcbed49e995)" style="fill: #5697c4; stroke: #000000; stroke-width: 0.5; stroke-linejoin: miter"/>
   </g>
   <g id="patch_13">
    <path d="M 236.316897 246.187372 
L 255.13215 246.187372 
L 255.13215 158.215075 
L 236.316897 158.215075 
z
" clip-path="url(#pcbed49e995)" style="fill: #fff6f9; stroke: #000000; stroke-width: 0.5; stroke-linejoin: miter"/>
   </g>
   <g id="patch_14">
    <path d="M 255.13215 246.187372 
L 273.947402 246.187372 
L 273.947402 169.043667 
L 255.13215 169.043667 
z
" clip-path="url(#pcbed49e995)" style="fill: #5697c4; stroke: #000000; stroke-width: 0.5; stroke-linejoin: miter"/>
   </g>
   <g id="patch_15">
    <path d="M 283.355028 246.187372 
L 302.170281 246.187372 
L 302.170281 144.555811 
L 283.355028 144.555811 
z
" clip-path="url(#pcbed49e995)" style="fill: #fff6f9; stroke: #000000; stroke-width: 0.5; stroke-linejoin: miter"/>
   </g>
   <g id="patch_16">
    <path d="M 302.170281 246.187372 
L 320.985533 246.187372 
L 320.985533 159.81372 
L 302.170281 159.81372 
z
" clip-path="url(#pcbed49e995)" style="fill: #5697c4; stroke: #000000; stroke-width: 0.5; stroke-linejoin: miter"/>
   </g>
   <g id="patch_17">
    <path d="M 330.393159 246.187372 
L 349.208411 246.187372 
L 349.208411 126.345283 
L 330.393159 126.345283 
z
" clip-path="url(#pcbed49e995)" style="fill: #fff6f9; stroke: #000000; stroke-width: 0.5; stroke-linejoin: miter"/>
   </g>
   <g id="patch_18">
    <path d="M 349.208411 246.187372 
L 368.023664 246.187372 
L 368.023664 145.756353 
L 349.208411 145.756353 
z
" clip-path="url(#pcbed49e995)" style="fill: #5697c4; stroke: #000000; stroke-width: 0.5; stroke-linejoin: miter"/>
   </g>
   <g id="patch_19">
    <path d="M 377.43129 246.187372 
L 396.246542 246.187372 
L 396.246542 117.273251 
L 377.43129 117.273251 
z
" clip-path="url(#pcbed49e995)" style="fill: #fff6f9; stroke: #000000; stroke-width: 0.5; stroke-linejoin: miter"/>
   </g>
   <g id="patch_20">
    <path d="M 396.246542 246.187372 
L 415.061794 246.187372 
L 415.061794 135.011452 
L 396.246542 135.011452 
z
" clip-path="url(#pcbed49e995)" style="fill: #5697c4; stroke: #000000; stroke-width: 0.5; stroke-linejoin: miter"/>
   </g>
   <g id="patch_21">
    <path d="M 424.469421 246.187372 
L 443.284673 246.187372 
L 443.284673 115.331177 
L 424.469421 115.331177 
z
" clip-path="url(#pcbed49e995)" style="fill: #fff6f9; stroke: #000000; stroke-width: 0.5; stroke-linejoin: miter"/>
   </g>
   <g id="patch_22">
    <path d="M 443.284673 246.187372 
L 462.099925 246.187372 
L 462.099925 144.240986 
L 443.284673 144.240986 
z
" clip-path="url(#pcbed49e995)" style="fill: #5697c4; stroke: #000000; stroke-width: 0.5; stroke-linejoin: miter"/>
   </g>
   <g id="patch_23">
    <path d="M 471.507551 246.187372 
L 490.322804 246.187372 
L 490.322804 85.164822 
L 471.507551 85.164822 
z
" clip-path="url(#pcbed49e995)" style="fill: #fff6f9; stroke: #000000; stroke-width: 0.5; stroke-linejoin: miter"/>
   </g>
   <g id="patch_24">
    <path d="M 490.322804 246.187372 
L 509.138056 246.187372 
L 509.138056 113.232509 
L 490.322804 113.232509 
z
" clip-path="url(#pcbed49e995)" style="fill: #5697c4; stroke: #000000; stroke-width: 0.5; stroke-linejoin: miter"/>
   </g>
   <g id="patch_25">
    <path d="M 518.545682 246.187372 
L 537.360935 246.187372 
L 537.360935 68.962153 
L 518.545682 68.962153 
z
" clip-path="url(#pcbed49e995)" style="fill: #fff6f9; stroke: #000000; stroke-width: 0.5; stroke-linejoin: miter"/>
   </g>
   <g id="patch_26">
    <path d="M 537.360935 246.187372 
L 556.176187 246.187372 
L 556.176187 96.799371 
L 537.360935 96.799371 
z
" clip-path="url(#pcbed49e995)" style="fill: #5697c4; stroke: #000000; stroke-width: 0.5; stroke-linejoin: miter"/>
   </g>
   <g id="LineCollection_1">
    <path d="M 104.610131 228.674937 
L 104.610131 214.58091 
" clip-path="url(#pcbed49e995)" style="fill: none; stroke: #000000"/>
   </g>
   <g id="line2d_51">
    <defs>
     <path id="m08a95ae0e2" d="M 10 0 
L -10 -0 
" style="stroke: #000000"/>
    </defs>
    <g clip-path="url(#pcbed49e995)">
     <use xlink:href="#m08a95ae0e2" x="104.610131" y="228.674937" style="fill: #0000ff; stroke: #000000"/>
    </g>
   </g>
   <g id="line2d_52">
    <g clip-path="url(#pcbed49e995)">
     <use xlink:href="#m08a95ae0e2" x="104.610131" y="214.58091" style="fill: #0000ff; stroke: #000000"/>
    </g>
   </g>
   <g id="LineCollection_2">
    <path d="M 123.425383 242.429082 
L 123.425383 218.41965 
" clip-path="url(#pcbed49e995)" style="fill: none; stroke: #000000"/>
   </g>
   <g id="line2d_53">
    <g clip-path="url(#pcbed49e995)">
     <use xlink:href="#m08a95ae0e2" x="123.425383" y="242.429082" style="fill: #0000ff; stroke: #000000"/>
    </g>
   </g>
   <g id="line2d_54">
    <g clip-path="url(#pcbed49e995)">
     <use xlink:href="#m08a95ae0e2" x="123.425383" y="218.41965" style="fill: #0000ff; stroke: #000000"/>
    </g>
   </g>
   <g id="LineCollection_3">
    <path d="M 151.648262 171.577109 
L 151.648262 169.89079 
" clip-path="url(#pcbed49e995)" style="fill: none; stroke: #000000"/>
   </g>
   <g id="line2d_55">
    <g clip-path="url(#pcbed49e995)">
     <use xlink:href="#m08a95ae0e2" x="151.648262" y="171.577109" style="fill: #0000ff; stroke: #000000"/>
    </g>
   </g>
   <g id="line2d_56">
    <g clip-path="url(#pcbed49e995)">
     <use xlink:href="#m08a95ae0e2" x="151.648262" y="169.89079" style="fill: #0000ff; stroke: #000000"/>
    </g>
   </g>
   <g id="LineCollection_4">
    <path d="M 170.463514 176.984927 
L 170.463514 175.868033 
" clip-path="url(#pcbed49e995)" style="fill: none; stroke: #000000"/>
   </g>
   <g id="line2d_57">
    <g clip-path="url(#pcbed49e995)">
     <use xlink:href="#m08a95ae0e2" x="170.463514" y="176.984927" style="fill: #0000ff; stroke: #000000"/>
    </g>
   </g>
   <g id="line2d_58">
    <g clip-path="url(#pcbed49e995)">
     <use xlink:href="#m08a95ae0e2" x="170.463514" y="175.868033" style="fill: #0000ff; stroke: #000000"/>
    </g>
   </g>
   <g id="LineCollection_5">
    <path d="M 198.686393 165.208036 
L 198.686393 161.028281 
" clip-path="url(#pcbed49e995)" style="fill: none; stroke: #000000"/>
   </g>
   <g id="line2d_59">
    <g clip-path="url(#pcbed49e995)">
     <use xlink:href="#m08a95ae0e2" x="198.686393" y="165.208036" style="fill: #0000ff; stroke: #000000"/>
    </g>
   </g>
   <g id="line2d_60">
    <g clip-path="url(#pcbed49e995)">
     <use xlink:href="#m08a95ae0e2" x="198.686393" y="161.028281" style="fill: #0000ff; stroke: #000000"/>
    </g>
   </g>
   <g id="LineCollection_6">
    <path d="M 217.501645 190.306349 
L 217.501645 179.601476 
" clip-path="url(#pcbed49e995)" style="fill: none; stroke: #000000"/>
   </g>
   <g id="line2d_61">
    <g clip-path="url(#pcbed49e995)">
     <use xlink:href="#m08a95ae0e2" x="217.501645" y="190.306349" style="fill: #0000ff; stroke: #000000"/>
    </g>
   </g>
   <g id="line2d_62">
    <g clip-path="url(#pcbed49e995)">
     <use xlink:href="#m08a95ae0e2" x="217.501645" y="179.601476" style="fill: #0000ff; stroke: #000000"/>
    </g>
   </g>
   <g id="LineCollection_7">
    <path d="M 245.724524 177.19911 
L 245.724524 139.23104 
" clip-path="url(#pcbed49e995)" style="fill: none; stroke: #000000"/>
   </g>
   <g id="line2d_63">
    <g clip-path="url(#pcbed49e995)">
     <use xlink:href="#m08a95ae0e2" x="245.724524" y="177.19911" style="fill: #0000ff; stroke: #000000"/>
    </g>
   </g>
   <g id="line2d_64">
    <g clip-path="url(#pcbed49e995)">
     <use xlink:href="#m08a95ae0e2" x="245.724524" y="139.23104" style="fill: #0000ff; stroke: #000000"/>
    </g>
   </g>
   <g id="LineCollection_8">
    <path d="M 264.539776 169.942655 
L 264.539776 168.14468 
" clip-path="url(#pcbed49e995)" style="fill: none; stroke: #000000"/>
   </g>
   <g id="line2d_65">
    <g clip-path="url(#pcbed49e995)">
     <use xlink:href="#m08a95ae0e2" x="264.539776" y="169.942655" style="fill: #0000ff; stroke: #000000"/>
    </g>
   </g>
   <g id="line2d_66">
    <g clip-path="url(#pcbed49e995)">
     <use xlink:href="#m08a95ae0e2" x="264.539776" y="168.14468" style="fill: #0000ff; stroke: #000000"/>
    </g>
   </g>
   <g id="LineCollection_9">
    <path d="M 292.762654 144.873209 
L 292.762654 144.238414 
" clip-path="url(#pcbed49e995)" style="fill: none; stroke: #000000"/>
   </g>
   <g id="line2d_67">
    <g clip-path="url(#pcbed49e995)">
     <use xlink:href="#m08a95ae0e2" x="292.762654" y="144.873209" style="fill: #0000ff; stroke: #000000"/>
    </g>
   </g>
   <g id="line2d_68">
    <g clip-path="url(#pcbed49e995)">
     <use xlink:href="#m08a95ae0e2" x="292.762654" y="144.238414" style="fill: #0000ff; stroke: #000000"/>
    </g>
   </g>
   <g id="LineCollection_10">
    <path d="M 311.577907 161.191811 
L 311.577907 158.435629 
" clip-path="url(#pcbed49e995)" style="fill: none; stroke: #000000"/>
   </g>
   <g id="line2d_69">
    <g clip-path="url(#pcbed49e995)">
     <use xlink:href="#m08a95ae0e2" x="311.577907" y="161.191811" style="fill: #0000ff; stroke: #000000"/>
    </g>
   </g>
   <g id="line2d_70">
    <g clip-path="url(#pcbed49e995)">
     <use xlink:href="#m08a95ae0e2" x="311.577907" y="158.435629" style="fill: #0000ff; stroke: #000000"/>
    </g>
   </g>
   <g id="LineCollection_11">
    <path d="M 339.800785 126.881156 
L 339.800785 125.809411 
" clip-path="url(#pcbed49e995)" style="fill: none; stroke: #000000"/>
   </g>
   <g id="line2d_71">
    <g clip-path="url(#pcbed49e995)">
     <use xlink:href="#m08a95ae0e2" x="339.800785" y="126.881156" style="fill: #0000ff; stroke: #000000"/>
    </g>
   </g>
   <g id="line2d_72">
    <g clip-path="url(#pcbed49e995)">
     <use xlink:href="#m08a95ae0e2" x="339.800785" y="125.809411" style="fill: #0000ff; stroke: #000000"/>
    </g>
   </g>
   <g id="LineCollection_12">
    <path d="M 358.616038 148.439037 
L 358.616038 143.073669 
" clip-path="url(#pcbed49e995)" style="fill: none; stroke: #000000"/>
   </g>
   <g id="line2d_73">
    <g clip-path="url(#pcbed49e995)">
     <use xlink:href="#m08a95ae0e2" x="358.616038" y="148.439037" style="fill: #0000ff; stroke: #000000"/>
    </g>
   </g>
   <g id="line2d_74">
    <g clip-path="url(#pcbed49e995)">
     <use xlink:href="#m08a95ae0e2" x="358.616038" y="143.073669" style="fill: #0000ff; stroke: #000000"/>
    </g>
   </g>
   <g id="LineCollection_13">
    <path d="M 386.838916 118.537875 
L 386.838916 116.008628 
" clip-path="url(#pcbed49e995)" style="fill: none; stroke: #000000"/>
   </g>
   <g id="line2d_75">
    <g clip-path="url(#pcbed49e995)">
     <use xlink:href="#m08a95ae0e2" x="386.838916" y="118.537875" style="fill: #0000ff; stroke: #000000"/>
    </g>
   </g>
   <g id="line2d_76">
    <g clip-path="url(#pcbed49e995)">
     <use xlink:href="#m08a95ae0e2" x="386.838916" y="116.008628" style="fill: #0000ff; stroke: #000000"/>
    </g>
   </g>
   <g id="LineCollection_14">
    <path d="M 405.654168 136.130419 
L 405.654168 133.892485 
" clip-path="url(#pcbed49e995)" style="fill: none; stroke: #000000"/>
   </g>
   <g id="line2d_77">
    <g clip-path="url(#pcbed49e995)">
     <use xlink:href="#m08a95ae0e2" x="405.654168" y="136.130419" style="fill: #0000ff; stroke: #000000"/>
    </g>
   </g>
   <g id="line2d_78">
    <g clip-path="url(#pcbed49e995)">
     <use xlink:href="#m08a95ae0e2" x="405.654168" y="133.892485" style="fill: #0000ff; stroke: #000000"/>
    </g>
   </g>
   <g id="LineCollection_15">
    <path d="M 433.877047 117.402366 
L 433.877047 113.259989 
" clip-path="url(#pcbed49e995)" style="fill: none; stroke: #000000"/>
   </g>
   <g id="line2d_79">
    <g clip-path="url(#pcbed49e995)">
     <use xlink:href="#m08a95ae0e2" x="433.877047" y="117.402366" style="fill: #0000ff; stroke: #000000"/>
    </g>
   </g>
   <g id="line2d_80">
    <g clip-path="url(#pcbed49e995)">
     <use xlink:href="#m08a95ae0e2" x="433.877047" y="113.259989" style="fill: #0000ff; stroke: #000000"/>
    </g>
   </g>
   <g id="LineCollection_16">
    <path d="M 452.692299 146.116529 
L 452.692299 142.365443 
" clip-path="url(#pcbed49e995)" style="fill: none; stroke: #000000"/>
   </g>
   <g id="line2d_81">
    <g clip-path="url(#pcbed49e995)">
     <use xlink:href="#m08a95ae0e2" x="452.692299" y="146.116529" style="fill: #0000ff; stroke: #000000"/>
    </g>
   </g>
   <g id="line2d_82">
    <g clip-path="url(#pcbed49e995)">
     <use xlink:href="#m08a95ae0e2" x="452.692299" y="142.365443" style="fill: #0000ff; stroke: #000000"/>
    </g>
   </g>
   <g id="LineCollection_17">
    <path d="M 480.915178 85.164822 
L 480.915178 85.164822 
" clip-path="url(#pcbed49e995)" style="fill: none; stroke: #000000"/>
   </g>
   <g id="line2d_83">
    <g clip-path="url(#pcbed49e995)">
     <use xlink:href="#m08a95ae0e2" x="480.915178" y="85.164822" style="fill: #0000ff; stroke: #000000"/>
    </g>
   </g>
   <g id="line2d_84">
    <g clip-path="url(#pcbed49e995)">
     <use xlink:href="#m08a95ae0e2" x="480.915178" y="85.164822" style="fill: #0000ff; stroke: #000000"/>
    </g>
   </g>
   <g id="LineCollection_18">
    <path d="M 499.73043 115.891949 
L 499.73043 110.573069 
" clip-path="url(#pcbed49e995)" style="fill: none; stroke: #000000"/>
   </g>
   <g id="line2d_85">
    <g clip-path="url(#pcbed49e995)">
     <use xlink:href="#m08a95ae0e2" x="499.73043" y="115.891949" style="fill: #0000ff; stroke: #000000"/>
    </g>
   </g>
   <g id="line2d_86">
    <g clip-path="url(#pcbed49e995)">
     <use xlink:href="#m08a95ae0e2" x="499.73043" y="110.573069" style="fill: #0000ff; stroke: #000000"/>
    </g>
   </g>
   <g id="LineCollection_19">
    <path d="M 527.953308 71.309922 
L 527.953308 66.614385 
" clip-path="url(#pcbed49e995)" style="fill: none; stroke: #000000"/>
   </g>
   <g id="line2d_87">
    <g clip-path="url(#pcbed49e995)">
     <use xlink:href="#m08a95ae0e2" x="527.953308" y="71.309922" style="fill: #0000ff; stroke: #000000"/>
    </g>
   </g>
   <g id="line2d_88">
    <g clip-path="url(#pcbed49e995)">
     <use xlink:href="#m08a95ae0e2" x="527.953308" y="66.614385" style="fill: #0000ff; stroke: #000000"/>
    </g>
   </g>
   <g id="LineCollection_20">
    <path d="M 546.768561 98.133092 
L 546.768561 95.465651 
" clip-path="url(#pcbed49e995)" style="fill: none; stroke: #000000"/>
   </g>
   <g id="line2d_89">
    <g clip-path="url(#pcbed49e995)">
     <use xlink:href="#m08a95ae0e2" x="546.768561" y="98.133092" style="fill: #0000ff; stroke: #000000"/>
    </g>
   </g>
   <g id="line2d_90">
    <g clip-path="url(#pcbed49e995)">
     <use xlink:href="#m08a95ae0e2" x="546.768561" y="95.465651" style="fill: #0000ff; stroke: #000000"/>
    </g>
   </g>
   <g id="legend_1">
    <g id="patch_27">
     <path d="M 99.498692 55.116546 
L 322.44697 55.116546 
L 322.44697 24.12 
L 99.498692 24.12 
z
" style="fill: #ffffff"/>
    </g>
    <g id="patch_28">
     <path d="M 106.698692 44.096976 
L 142.698692 44.096976 
L 142.698692 31.496976 
L 106.698692 31.496976 
z
" style="fill: #fff6f9; stroke: #000000; stroke-width: 0.5; stroke-linejoin: miter"/>
    </g>
    <g id="text_19">
     <!-- GET -->
     <g transform="translate(157.098692 44.096976) scale(0.18 -0.18)">
      <defs>
       <path id="NimbusSanL-Regu-47" d="M 4538 2496 
L 2592 2496 
L 2592 1971 
L 4013 1971 
L 4013 1841 
C 4013 1003 3398 397 2547 397 
C 2074 397 1645 569 1370 870 
C 1062 1201 877 1756 877 2330 
C 877 3471 1530 4224 2515 4224 
C 3226 4224 3738 3864 3866 3272 
L 4474 3272 
C 4307 4211 3590 4750 2522 4750 
C 1952 4750 1491 4603 1126 4303 
C 589 3856 282 3135 282 2298 
C 282 868 1158 -128 2419 -128 
C 3053 -128 3558 109 4013 616 
L 4160 -7 
L 4538 -7 
L 4538 2496 
z
" transform="scale(0.015625)"/>
       <path id="NimbusSanL-Regu-45" d="M 1171 2112 
L 3712 2112 
L 3712 2638 
L 1171 2638 
L 1171 4146 
L 3808 4146 
L 3808 4672 
L 576 4672 
L 576 0 
L 3923 0 
L 3923 526 
L 1171 526 
L 1171 2112 
z
" transform="scale(0.015625)"/>
      </defs>
      <use xlink:href="#NimbusSanL-Regu-47" transform="scale(0.996264)"/>
      <use xlink:href="#NimbusSanL-Regu-45" transform="translate(77.50837 0) scale(0.996264)"/>
      <use xlink:href="#NimbusSanL-Regu-54" transform="translate(143.958401 0) scale(0.996264)"/>
     </g>
    </g>
    <g id="patch_29">
     <path d="M 229.968076 44.096976 
L 265.968076 44.096976 
L 265.968076 31.496976 
L 229.968076 31.496976 
z
" style="fill: #5697c4; stroke: #000000; stroke-width: 0.5; stroke-linejoin: miter"/>
    </g>
    <g id="text_20">
     <!-- SET -->
     <g transform="translate(280.368076 44.096976) scale(0.18 -0.18)">
      <use xlink:href="#NimbusSanL-Regu-53" transform="scale(0.996264)"/>
      <use xlink:href="#NimbusSanL-Regu-45" transform="translate(66.450031 0) scale(0.996264)"/>
      <use xlink:href="#NimbusSanL-Regu-54" transform="translate(132.900062 0) scale(0.996264)"/>
     </g>
    </g>
   </g>
   <g id="text_21">
    <g id="patch_30">
     <path d="M 112.368404 202.705122 
L 112.368404 168.888503 
L 96.851858 168.888503 
L 96.851858 202.705122 
z
" style="fill: #ffffff"/>
    </g>
    <!-- 0.37 -->
    <g transform="translate(109.088835 203.245122) rotate(-90) scale(0.18 -0.18)">
     <defs>
      <path id="NimbusSanL-Regu-37" d="M 3328 4525 
L 294 4525 
L 294 3968 
L 2746 3968 
C 1664 2418 1222 1466 883 -32 
L 1485 -32 
C 1734 1427 2304 2681 3328 4051 
L 3328 4525 
z
" transform="scale(0.015625)"/>
     </defs>
     <use xlink:href="#NimbusSanL-Regu-30" transform="scale(0.996264)"/>
     <use xlink:href="#NimbusSanL-Regu-2e" transform="translate(55.391677 0) scale(0.996264)"/>
     <use xlink:href="#NimbusSanL-Regu-33" transform="translate(83.086847 0) scale(0.996264)"/>
     <use xlink:href="#NimbusSanL-Regu-37" transform="translate(138.478524 0) scale(0.996264)"/>
    </g>
   </g>
   <g id="text_22">
    <g id="patch_31">
     <path d="M 131.183656 208.609859 
L 131.183656 174.793241 
L 115.667111 174.793241 
L 115.667111 208.609859 
z
" style="fill: #ffffff"/>
    </g>
    <!-- 0.24 -->
    <g transform="translate(127.904087 209.149859) rotate(-90) scale(0.18 -0.18)">
     <defs>
      <path id="NimbusSanL-Regu-34" d="M 2093 1088 
L 2093 0 
L 2656 0 
L 2656 1088 
L 3328 1088 
L 3328 1594 
L 2656 1594 
L 2656 4545 
L 2240 4545 
L 179 1684 
L 179 1088 
L 2093 1088 
z
M 2093 1594 
L 672 1594 
L 2093 3583 
L 2093 1594 
z
" transform="scale(0.015625)"/>
     </defs>
     <use xlink:href="#NimbusSanL-Regu-30" transform="scale(0.996264)"/>
     <use xlink:href="#NimbusSanL-Regu-2e" transform="translate(55.391677 0) scale(0.996264)"/>
     <use xlink:href="#NimbusSanL-Regu-32" transform="translate(83.086847 0) scale(0.996264)"/>
     <use xlink:href="#NimbusSanL-Regu-34" transform="translate(138.478524 0) scale(0.996264)"/>
    </g>
   </g>
   <g id="text_23">
    <g id="patch_32">
     <path d="M 159.406535 156.559322 
L 159.406535 122.742703 
L 143.889989 122.742703 
L 143.889989 156.559322 
z
" style="fill: #ffffff"/>
    </g>
    <!-- 1.14 -->
    <g transform="translate(156.126966 157.099322) rotate(-90) scale(0.18 -0.18)">
     <use xlink:href="#NimbusSanL-Regu-31" transform="scale(0.996264)"/>
     <use xlink:href="#NimbusSanL-Regu-2e" transform="translate(55.391677 0) scale(0.996264)"/>
     <use xlink:href="#NimbusSanL-Regu-31" transform="translate(83.086847 0) scale(0.996264)"/>
     <use xlink:href="#NimbusSanL-Regu-34" transform="translate(138.478524 0) scale(0.996264)"/>
    </g>
   </g>
   <g id="text_24">
    <g id="patch_33">
     <path d="M 178.221787 162.391126 
L 178.221787 128.574507 
L 162.705241 128.574507 
L 162.705241 162.391126 
z
" style="fill: #ffffff"/>
    </g>
    <!-- 1.06 -->
    <g transform="translate(174.942218 162.931126) rotate(-90) scale(0.18 -0.18)">
     <defs>
      <path id="NimbusSanL-Regu-36" d="M 3187 3382 
C 3078 4111 2592 4544 1901 4544 
C 1402 4544 954 4302 685 3900 
C 403 3460 275 2904 275 2081 
C 275 1321 390 836 659 434 
C 902 69 1299 -128 1798 -128 
C 2662 -128 3283 518 3283 1415 
C 3283 2268 2707 2868 1894 2868 
C 1446 2868 1094 2695 851 2362 
C 858 3444 1216 4044 1862 4044 
C 2259 4044 2534 3803 2624 3382 
L 3187 3382 
z
M 1824 2368 
C 2368 2368 2707 1986 2707 1370 
C 2707 793 2323 372 1805 372 
C 1280 372 883 813 883 1402 
C 883 1973 1267 2368 1824 2368 
z
" transform="scale(0.015625)"/>
     </defs>
     <use xlink:href="#NimbusSanL-Regu-31" transform="scale(0.996264)"/>
     <use xlink:href="#NimbusSanL-Regu-2e" transform="translate(55.391677 0) scale(0.996264)"/>
     <use xlink:href="#NimbusSanL-Regu-30" transform="translate(83.086847 0) scale(0.996264)"/>
     <use xlink:href="#NimbusSanL-Regu-36" transform="translate(138.478524 0) scale(0.996264)"/>
    </g>
   </g>
   <g id="text_25">
    <g id="patch_34">
     <path d="M 206.444666 148.8484 
L 206.444666 115.031781 
L 190.92812 115.031781 
L 190.92812 148.8484 
z
" style="fill: #ffffff"/>
    </g>
    <!-- 1.26 -->
    <g transform="translate(203.165096 149.3884) rotate(-90) scale(0.18 -0.18)">
     <use xlink:href="#NimbusSanL-Regu-31" transform="scale(0.996264)"/>
     <use xlink:href="#NimbusSanL-Regu-2e" transform="translate(55.391677 0) scale(0.996264)"/>
     <use xlink:href="#NimbusSanL-Regu-32" transform="translate(83.086847 0) scale(0.996264)"/>
     <use xlink:href="#NimbusSanL-Regu-36" transform="translate(138.478524 0) scale(0.996264)"/>
    </g>
   </g>
   <g id="text_26">
    <g id="patch_35">
     <path d="M 225.259918 168.126523 
L 225.259918 134.309904 
L 209.743372 134.309904 
L 209.743372 168.126523 
z
" style="fill: #ffffff"/>
    </g>
    <!-- 0.93 -->
    <g transform="translate(221.980349 168.666523) rotate(-90) scale(0.18 -0.18)">
     <defs>
      <path id="NimbusSanL-Regu-39" d="M 339 1064 
C 448 316 934 -128 1626 -128 
C 2125 -128 2579 114 2842 516 
C 3130 956 3258 1512 3258 2335 
C 3258 3095 3142 3580 2874 3982 
C 2624 4347 2227 4544 1728 4544 
C 864 4544 243 3909 243 3027 
C 243 2190 819 1600 1638 1600 
C 2067 1600 2381 1754 2675 2106 
C 2669 991 2310 372 1664 372 
C 1267 372 992 624 902 1064 
L 339 1064 
z
M 1722 4051 
C 2246 4051 2643 3622 2643 3041 
C 2643 2491 2253 2100 1702 2100 
C 1158 2100 819 2472 819 3072 
C 819 3640 1203 4051 1722 4051 
z
" transform="scale(0.015625)"/>
     </defs>
     <use xlink:href="#NimbusSanL-Regu-30" transform="scale(0.996264)"/>
     <use xlink:href="#NimbusSanL-Regu-2e" transform="translate(55.391677 0) scale(0.996264)"/>
     <use xlink:href="#NimbusSanL-Regu-39" transform="translate(83.086847 0) scale(0.996264)"/>
     <use xlink:href="#NimbusSanL-Regu-33" transform="translate(138.478524 0) scale(0.996264)"/>
    </g>
   </g>
   <g id="text_27">
    <g id="patch_36">
     <path d="M 253.482797 133.907334 
L 253.482797 100.090715 
L 237.966251 100.090715 
L 237.966251 133.907334 
z
" style="fill: #ffffff"/>
    </g>
    <!-- 1.33 -->
    <g transform="translate(250.203227 134.447334) rotate(-90) scale(0.18 -0.18)">
     <use xlink:href="#NimbusSanL-Regu-31" transform="scale(0.996264)"/>
     <use xlink:href="#NimbusSanL-Regu-2e" transform="translate(55.391677 0) scale(0.996264)"/>
     <use xlink:href="#NimbusSanL-Regu-33" transform="translate(83.086847 0) scale(0.996264)"/>
     <use xlink:href="#NimbusSanL-Regu-33" transform="translate(138.478524 0) scale(0.996264)"/>
    </g>
   </g>
   <g id="text_28">
    <g id="patch_37">
     <path d="M 272.298049 154.773815 
L 272.298049 120.957196 
L 256.781503 120.957196 
L 256.781503 154.773815 
z
" style="fill: #ffffff"/>
    </g>
    <!-- 1.17 -->
    <g transform="translate(269.018479 155.313815) rotate(-90) scale(0.18 -0.18)">
     <use xlink:href="#NimbusSanL-Regu-31" transform="scale(0.996264)"/>
     <use xlink:href="#NimbusSanL-Regu-2e" transform="translate(55.391677 0) scale(0.996264)"/>
     <use xlink:href="#NimbusSanL-Regu-31" transform="translate(83.086847 0) scale(0.996264)"/>
     <use xlink:href="#NimbusSanL-Regu-37" transform="translate(138.478524 0) scale(0.996264)"/>
    </g>
   </g>
   <g id="text_29">
    <g id="patch_38">
     <path d="M 300.520927 130.558044 
L 300.520927 96.741425 
L 285.004381 96.741425 
L 285.004381 130.558044 
z
" style="fill: #ffffff"/>
    </g>
    <!-- 1.54 -->
    <g transform="translate(297.241358 131.098044) rotate(-90) scale(0.18 -0.18)">
     <use xlink:href="#NimbusSanL-Regu-31" transform="scale(0.996264)"/>
     <use xlink:href="#NimbusSanL-Regu-2e" transform="translate(55.391677 0) scale(0.996264)"/>
     <use xlink:href="#NimbusSanL-Regu-35" transform="translate(83.086847 0) scale(0.996264)"/>
     <use xlink:href="#NimbusSanL-Regu-34" transform="translate(138.478524 0) scale(0.996264)"/>
    </g>
   </g>
   <g id="text_30">
    <g id="patch_39">
     <path d="M 319.33618 145.32615 
L 319.33618 111.509531 
L 303.819634 111.509531 
L 303.819634 145.32615 
z
" style="fill: #ffffff"/>
    </g>
    <!-- 1.31 -->
    <g transform="translate(316.05661 145.86615) rotate(-90) scale(0.18 -0.18)">
     <use xlink:href="#NimbusSanL-Regu-31" transform="scale(0.996264)"/>
     <use xlink:href="#NimbusSanL-Regu-2e" transform="translate(55.391677 0) scale(0.996264)"/>
     <use xlink:href="#NimbusSanL-Regu-33" transform="translate(83.086847 0) scale(0.996264)"/>
     <use xlink:href="#NimbusSanL-Regu-31" transform="translate(138.478524 0) scale(0.996264)"/>
    </g>
   </g>
   <g id="text_31">
    <g id="patch_40">
     <path d="M 347.559058 112.40852 
L 347.559058 78.591901 
L 332.042512 78.591901 
L 332.042512 112.40852 
z
" style="fill: #ffffff"/>
    </g>
    <!-- 1.82 -->
    <g transform="translate(344.279489 112.94852) rotate(-90) scale(0.18 -0.18)">
     <defs>
      <path id="NimbusSanL-Regu-38" d="M 2502 2399 
C 2970 2680 3123 2910 3123 3338 
C 3123 4046 2566 4544 1760 4544 
C 960 4544 397 4046 397 3338 
C 397 2917 550 2687 1011 2399 
C 493 2150 237 1774 237 1276 
C 237 446 864 -128 1760 -128 
C 2656 -128 3283 447 3283 1270 
C 3283 1774 3027 2150 2502 2399 
z
M 1760 4044 
C 2240 4044 2547 3764 2547 3325 
C 2547 2904 2234 2624 1760 2624 
C 1286 2624 973 2904 973 3331 
C 973 3764 1286 4044 1760 4044 
z
M 1760 2149 
C 2323 2149 2707 1792 2707 1263 
C 2707 729 2323 372 1747 372 
C 1197 372 813 735 813 1263 
C 813 1792 1197 2149 1760 2149 
z
" transform="scale(0.015625)"/>
     </defs>
     <use xlink:href="#NimbusSanL-Regu-31" transform="scale(0.996264)"/>
     <use xlink:href="#NimbusSanL-Regu-2e" transform="translate(55.391677 0) scale(0.996264)"/>
     <use xlink:href="#NimbusSanL-Regu-38" transform="translate(83.086847 0) scale(0.996264)"/>
     <use xlink:href="#NimbusSanL-Regu-32" transform="translate(138.478524 0) scale(0.996264)"/>
    </g>
   </g>
   <g id="text_32">
    <g id="patch_41">
     <path d="M 366.37431 131.224649 
L 366.37431 97.408031 
L 350.857765 97.408031 
L 350.857765 131.224649 
z
" style="fill: #ffffff"/>
    </g>
    <!-- 1.52 -->
    <g transform="translate(363.094741 131.764649) rotate(-90) scale(0.18 -0.18)">
     <use xlink:href="#NimbusSanL-Regu-31" transform="scale(0.996264)"/>
     <use xlink:href="#NimbusSanL-Regu-2e" transform="translate(55.391677 0) scale(0.996264)"/>
     <use xlink:href="#NimbusSanL-Regu-35" transform="translate(83.086847 0) scale(0.996264)"/>
     <use xlink:href="#NimbusSanL-Regu-32" transform="translate(138.478524 0) scale(0.996264)"/>
    </g>
   </g>
   <g id="text_33">
    <g id="patch_42">
     <path d="M 394.597189 102.974097 
L 394.597189 69.157478 
L 379.080643 69.157478 
L 379.080643 102.974097 
z
" style="fill: #ffffff"/>
    </g>
    <!-- 1.95 -->
    <g transform="translate(391.31762 103.514097) rotate(-90) scale(0.18 -0.18)">
     <use xlink:href="#NimbusSanL-Regu-31" transform="scale(0.996264)"/>
     <use xlink:href="#NimbusSanL-Regu-2e" transform="translate(55.391677 0) scale(0.996264)"/>
     <use xlink:href="#NimbusSanL-Regu-39" transform="translate(83.086847 0) scale(0.996264)"/>
     <use xlink:href="#NimbusSanL-Regu-35" transform="translate(138.478524 0) scale(0.996264)"/>
    </g>
   </g>
   <g id="text_34">
    <g id="patch_43">
     <path d="M 413.412441 120.54649 
L 413.412441 86.729871 
L 397.895895 86.729871 
L 397.895895 120.54649 
z
" style="fill: #ffffff"/>
    </g>
    <!-- 1.68 -->
    <g transform="translate(410.132872 121.08649) rotate(-90) scale(0.18 -0.18)">
     <use xlink:href="#NimbusSanL-Regu-31" transform="scale(0.996264)"/>
     <use xlink:href="#NimbusSanL-Regu-2e" transform="translate(55.391677 0) scale(0.996264)"/>
     <use xlink:href="#NimbusSanL-Regu-36" transform="translate(83.086847 0) scale(0.996264)"/>
     <use xlink:href="#NimbusSanL-Regu-38" transform="translate(138.478524 0) scale(0.996264)"/>
    </g>
   </g>
   <g id="text_35">
    <g id="patch_44">
     <path d="M 441.63532 100.922821 
L 441.63532 67.106202 
L 426.118774 67.106202 
L 426.118774 100.922821 
z
" style="fill: #ffffff"/>
    </g>
    <!-- 1.98 -->
    <g transform="translate(438.35575 101.462821) rotate(-90) scale(0.18 -0.18)">
     <use xlink:href="#NimbusSanL-Regu-31" transform="scale(0.996264)"/>
     <use xlink:href="#NimbusSanL-Regu-2e" transform="translate(55.391677 0) scale(0.996264)"/>
     <use xlink:href="#NimbusSanL-Regu-39" transform="translate(83.086847 0) scale(0.996264)"/>
     <use xlink:href="#NimbusSanL-Regu-38" transform="translate(138.478524 0) scale(0.996264)"/>
    </g>
   </g>
   <g id="text_36">
    <g id="patch_45">
     <path d="M 460.450572 129.288453 
L 460.450572 95.471834 
L 444.934026 95.471834 
L 444.934026 129.288453 
z
" style="fill: #ffffff"/>
    </g>
    <!-- 1.54 -->
    <g transform="translate(457.171003 129.828453) rotate(-90) scale(0.18 -0.18)">
     <use xlink:href="#NimbusSanL-Regu-31" transform="scale(0.996264)"/>
     <use xlink:href="#NimbusSanL-Regu-2e" transform="translate(55.391677 0) scale(0.996264)"/>
     <use xlink:href="#NimbusSanL-Regu-35" transform="translate(83.086847 0) scale(0.996264)"/>
     <use xlink:href="#NimbusSanL-Regu-34" transform="translate(138.478524 0) scale(0.996264)"/>
    </g>
   </g>
   <g id="text_37">
    <g id="patch_46">
     <path d="M 488.673451 71.420973 
L 488.673451 37.604354 
L 473.156905 37.604354 
L 473.156905 71.420973 
z
" style="fill: #ffffff"/>
    </g>
    <!-- 2.44 -->
    <g transform="translate(485.393881 71.960973) rotate(-90) scale(0.18 -0.18)">
     <use xlink:href="#NimbusSanL-Regu-32" transform="scale(0.996264)"/>
     <use xlink:href="#NimbusSanL-Regu-2e" transform="translate(55.391677 0) scale(0.996264)"/>
     <use xlink:href="#NimbusSanL-Regu-34" transform="translate(83.086847 0) scale(0.996264)"/>
     <use xlink:href="#NimbusSanL-Regu-34" transform="translate(138.478524 0) scale(0.996264)"/>
    </g>
   </g>
   <g id="text_38">
    <g id="patch_47">
     <path d="M 507.488703 97.710357 
L 507.488703 63.893738 
L 491.972157 63.893738 
L 491.972157 97.710357 
z
" style="fill: #ffffff"/>
    </g>
    <!-- 2.01 -->
    <g transform="translate(504.209133 98.250357) rotate(-90) scale(0.18 -0.18)">
     <use xlink:href="#NimbusSanL-Regu-32" transform="scale(0.996264)"/>
     <use xlink:href="#NimbusSanL-Regu-2e" transform="translate(55.391677 0) scale(0.996264)"/>
     <use xlink:href="#NimbusSanL-Regu-30" transform="translate(83.086847 0) scale(0.996264)"/>
     <use xlink:href="#NimbusSanL-Regu-31" transform="translate(138.478524 0) scale(0.996264)"/>
    </g>
   </g>
   <g id="text_39">
    <g id="patch_48">
     <path d="M 535.711581 54.013116 
L 535.711581 20.196497 
L 520.195035 20.196497 
L 520.195035 54.013116 
z
" style="fill: #ffffff"/>
    </g>
    <!-- 2.68 -->
    <g transform="translate(532.432012 54.553116) rotate(-90) scale(0.18 -0.18)">
     <use xlink:href="#NimbusSanL-Regu-32" transform="scale(0.996264)"/>
     <use xlink:href="#NimbusSanL-Regu-2e" transform="translate(55.391677 0) scale(0.996264)"/>
     <use xlink:href="#NimbusSanL-Regu-36" transform="translate(83.086847 0) scale(0.996264)"/>
     <use xlink:href="#NimbusSanL-Regu-38" transform="translate(138.478524 0) scale(0.996264)"/>
    </g>
   </g>
   <g id="text_40">
    <g id="patch_49">
     <path d="M 554.526834 82.399776 
L 554.526834 48.583157 
L 539.010288 48.583157 
L 539.010288 82.399776 
z
" style="fill: #ffffff"/>
    </g>
    <!-- 2.26 -->
    <g transform="translate(551.247264 82.939776) rotate(-90) scale(0.18 -0.18)">
     <use xlink:href="#NimbusSanL-Regu-32" transform="scale(0.996264)"/>
     <use xlink:href="#NimbusSanL-Regu-2e" transform="translate(55.391677 0) scale(0.996264)"/>
     <use xlink:href="#NimbusSanL-Regu-32" transform="translate(83.086847 0) scale(0.996264)"/>
     <use xlink:href="#NimbusSanL-Regu-36" transform="translate(138.478524 0) scale(0.996264)"/>
    </g>
   </g>
  </g>
 </g>
 <defs>
  <clipPath id="pcbed49e995">
   <rect x="90.498692" y="15.12" width="470.381308" height="231.067372"/>
  </clipPath>
 </defs>
</svg>
